%TF.GenerationSoftware,KiCad,Pcbnew,7.0.11*%
%TF.CreationDate,2024-04-25T10:03:52+05:30*%
%TF.ProjectId,Lexicon 69,4c657869-636f-46e2-9036-392e6b696361,rev?*%
%TF.SameCoordinates,Original*%
%TF.FileFunction,AssemblyDrawing,Top*%
%FSLAX46Y46*%
G04 Gerber Fmt 4.6, Leading zero omitted, Abs format (unit mm)*
G04 Created by KiCad (PCBNEW 7.0.11) date 2024-04-25 10:03:52*
%MOMM*%
%LPD*%
G01*
G04 APERTURE LIST*
%ADD10C,0.150000*%
%ADD11C,0.300000*%
G04 APERTURE END LIST*
D10*
X194500595Y-157989194D02*
X194500595Y-156989194D01*
X194500595Y-157465384D02*
X195072023Y-157465384D01*
X195072023Y-157989194D02*
X195072023Y-156989194D01*
X196024404Y-156989194D02*
X195548214Y-156989194D01*
X195548214Y-156989194D02*
X195500595Y-157465384D01*
X195500595Y-157465384D02*
X195548214Y-157417765D01*
X195548214Y-157417765D02*
X195643452Y-157370146D01*
X195643452Y-157370146D02*
X195881547Y-157370146D01*
X195881547Y-157370146D02*
X195976785Y-157417765D01*
X195976785Y-157417765D02*
X196024404Y-157465384D01*
X196024404Y-157465384D02*
X196072023Y-157560622D01*
X196072023Y-157560622D02*
X196072023Y-157798717D01*
X196072023Y-157798717D02*
X196024404Y-157893955D01*
X196024404Y-157893955D02*
X195976785Y-157941575D01*
X195976785Y-157941575D02*
X195881547Y-157989194D01*
X195881547Y-157989194D02*
X195643452Y-157989194D01*
X195643452Y-157989194D02*
X195548214Y-157941575D01*
X195548214Y-157941575D02*
X195500595Y-157893955D01*
X190476785Y-164389194D02*
X190476785Y-163389194D01*
X190476785Y-163389194D02*
X190810118Y-164103479D01*
X190810118Y-164103479D02*
X191143451Y-163389194D01*
X191143451Y-163389194D02*
X191143451Y-164389194D01*
X191762499Y-164389194D02*
X191667261Y-164341575D01*
X191667261Y-164341575D02*
X191619642Y-164293955D01*
X191619642Y-164293955D02*
X191572023Y-164198717D01*
X191572023Y-164198717D02*
X191572023Y-163913003D01*
X191572023Y-163913003D02*
X191619642Y-163817765D01*
X191619642Y-163817765D02*
X191667261Y-163770146D01*
X191667261Y-163770146D02*
X191762499Y-163722527D01*
X191762499Y-163722527D02*
X191905356Y-163722527D01*
X191905356Y-163722527D02*
X192000594Y-163770146D01*
X192000594Y-163770146D02*
X192048213Y-163817765D01*
X192048213Y-163817765D02*
X192095832Y-163913003D01*
X192095832Y-163913003D02*
X192095832Y-164198717D01*
X192095832Y-164198717D02*
X192048213Y-164293955D01*
X192048213Y-164293955D02*
X192000594Y-164341575D01*
X192000594Y-164341575D02*
X191905356Y-164389194D01*
X191905356Y-164389194D02*
X191762499Y-164389194D01*
X192952975Y-163722527D02*
X192952975Y-164389194D01*
X192524404Y-163722527D02*
X192524404Y-164246336D01*
X192524404Y-164246336D02*
X192572023Y-164341575D01*
X192572023Y-164341575D02*
X192667261Y-164389194D01*
X192667261Y-164389194D02*
X192810118Y-164389194D01*
X192810118Y-164389194D02*
X192905356Y-164341575D01*
X192905356Y-164341575D02*
X192952975Y-164293955D01*
X193429166Y-163722527D02*
X193429166Y-164389194D01*
X193429166Y-163817765D02*
X193476785Y-163770146D01*
X193476785Y-163770146D02*
X193572023Y-163722527D01*
X193572023Y-163722527D02*
X193714880Y-163722527D01*
X193714880Y-163722527D02*
X193810118Y-163770146D01*
X193810118Y-163770146D02*
X193857737Y-163865384D01*
X193857737Y-163865384D02*
X193857737Y-164389194D01*
X194191071Y-163722527D02*
X194572023Y-163722527D01*
X194333928Y-163389194D02*
X194333928Y-164246336D01*
X194333928Y-164246336D02*
X194381547Y-164341575D01*
X194381547Y-164341575D02*
X194476785Y-164389194D01*
X194476785Y-164389194D02*
X194572023Y-164389194D01*
X194905357Y-164389194D02*
X194905357Y-163722527D01*
X194905357Y-163389194D02*
X194857738Y-163436813D01*
X194857738Y-163436813D02*
X194905357Y-163484432D01*
X194905357Y-163484432D02*
X194952976Y-163436813D01*
X194952976Y-163436813D02*
X194905357Y-163389194D01*
X194905357Y-163389194D02*
X194905357Y-163484432D01*
X195381547Y-163722527D02*
X195381547Y-164389194D01*
X195381547Y-163817765D02*
X195429166Y-163770146D01*
X195429166Y-163770146D02*
X195524404Y-163722527D01*
X195524404Y-163722527D02*
X195667261Y-163722527D01*
X195667261Y-163722527D02*
X195762499Y-163770146D01*
X195762499Y-163770146D02*
X195810118Y-163865384D01*
X195810118Y-163865384D02*
X195810118Y-164389194D01*
X196714880Y-163722527D02*
X196714880Y-164532051D01*
X196714880Y-164532051D02*
X196667261Y-164627289D01*
X196667261Y-164627289D02*
X196619642Y-164674908D01*
X196619642Y-164674908D02*
X196524404Y-164722527D01*
X196524404Y-164722527D02*
X196381547Y-164722527D01*
X196381547Y-164722527D02*
X196286309Y-164674908D01*
X196714880Y-164341575D02*
X196619642Y-164389194D01*
X196619642Y-164389194D02*
X196429166Y-164389194D01*
X196429166Y-164389194D02*
X196333928Y-164341575D01*
X196333928Y-164341575D02*
X196286309Y-164293955D01*
X196286309Y-164293955D02*
X196238690Y-164198717D01*
X196238690Y-164198717D02*
X196238690Y-163913003D01*
X196238690Y-163913003D02*
X196286309Y-163817765D01*
X196286309Y-163817765D02*
X196333928Y-163770146D01*
X196333928Y-163770146D02*
X196429166Y-163722527D01*
X196429166Y-163722527D02*
X196619642Y-163722527D01*
X196619642Y-163722527D02*
X196714880Y-163770146D01*
X197191071Y-164389194D02*
X197191071Y-163389194D01*
X197191071Y-163865384D02*
X197762499Y-163865384D01*
X197762499Y-164389194D02*
X197762499Y-163389194D01*
X198381547Y-164389194D02*
X198286309Y-164341575D01*
X198286309Y-164341575D02*
X198238690Y-164293955D01*
X198238690Y-164293955D02*
X198191071Y-164198717D01*
X198191071Y-164198717D02*
X198191071Y-163913003D01*
X198191071Y-163913003D02*
X198238690Y-163817765D01*
X198238690Y-163817765D02*
X198286309Y-163770146D01*
X198286309Y-163770146D02*
X198381547Y-163722527D01*
X198381547Y-163722527D02*
X198524404Y-163722527D01*
X198524404Y-163722527D02*
X198619642Y-163770146D01*
X198619642Y-163770146D02*
X198667261Y-163817765D01*
X198667261Y-163817765D02*
X198714880Y-163913003D01*
X198714880Y-163913003D02*
X198714880Y-164198717D01*
X198714880Y-164198717D02*
X198667261Y-164293955D01*
X198667261Y-164293955D02*
X198619642Y-164341575D01*
X198619642Y-164341575D02*
X198524404Y-164389194D01*
X198524404Y-164389194D02*
X198381547Y-164389194D01*
X199286309Y-164389194D02*
X199191071Y-164341575D01*
X199191071Y-164341575D02*
X199143452Y-164246336D01*
X199143452Y-164246336D02*
X199143452Y-163389194D01*
X200048214Y-164341575D02*
X199952976Y-164389194D01*
X199952976Y-164389194D02*
X199762500Y-164389194D01*
X199762500Y-164389194D02*
X199667262Y-164341575D01*
X199667262Y-164341575D02*
X199619643Y-164246336D01*
X199619643Y-164246336D02*
X199619643Y-163865384D01*
X199619643Y-163865384D02*
X199667262Y-163770146D01*
X199667262Y-163770146D02*
X199762500Y-163722527D01*
X199762500Y-163722527D02*
X199952976Y-163722527D01*
X199952976Y-163722527D02*
X200048214Y-163770146D01*
X200048214Y-163770146D02*
X200095833Y-163865384D01*
X200095833Y-163865384D02*
X200095833Y-163960622D01*
X200095833Y-163960622D02*
X199619643Y-164055860D01*
X194500595Y-161189194D02*
X194500595Y-160189194D01*
X194500595Y-160665384D02*
X195072023Y-160665384D01*
X195072023Y-161189194D02*
X195072023Y-160189194D01*
X196024404Y-160189194D02*
X195548214Y-160189194D01*
X195548214Y-160189194D02*
X195500595Y-160665384D01*
X195500595Y-160665384D02*
X195548214Y-160617765D01*
X195548214Y-160617765D02*
X195643452Y-160570146D01*
X195643452Y-160570146D02*
X195881547Y-160570146D01*
X195881547Y-160570146D02*
X195976785Y-160617765D01*
X195976785Y-160617765D02*
X196024404Y-160665384D01*
X196024404Y-160665384D02*
X196072023Y-160760622D01*
X196072023Y-160760622D02*
X196072023Y-160998717D01*
X196072023Y-160998717D02*
X196024404Y-161093955D01*
X196024404Y-161093955D02*
X195976785Y-161141575D01*
X195976785Y-161141575D02*
X195881547Y-161189194D01*
X195881547Y-161189194D02*
X195643452Y-161189194D01*
X195643452Y-161189194D02*
X195548214Y-161141575D01*
X195548214Y-161141575D02*
X195500595Y-161093955D01*
X365950595Y-73454819D02*
X365950595Y-72454819D01*
X365950595Y-72931009D02*
X366522023Y-72931009D01*
X366522023Y-73454819D02*
X366522023Y-72454819D01*
X366902976Y-72454819D02*
X367569642Y-72454819D01*
X367569642Y-72454819D02*
X367141071Y-73454819D01*
X361926785Y-79854819D02*
X361926785Y-78854819D01*
X361926785Y-78854819D02*
X362260118Y-79569104D01*
X362260118Y-79569104D02*
X362593451Y-78854819D01*
X362593451Y-78854819D02*
X362593451Y-79854819D01*
X363212499Y-79854819D02*
X363117261Y-79807200D01*
X363117261Y-79807200D02*
X363069642Y-79759580D01*
X363069642Y-79759580D02*
X363022023Y-79664342D01*
X363022023Y-79664342D02*
X363022023Y-79378628D01*
X363022023Y-79378628D02*
X363069642Y-79283390D01*
X363069642Y-79283390D02*
X363117261Y-79235771D01*
X363117261Y-79235771D02*
X363212499Y-79188152D01*
X363212499Y-79188152D02*
X363355356Y-79188152D01*
X363355356Y-79188152D02*
X363450594Y-79235771D01*
X363450594Y-79235771D02*
X363498213Y-79283390D01*
X363498213Y-79283390D02*
X363545832Y-79378628D01*
X363545832Y-79378628D02*
X363545832Y-79664342D01*
X363545832Y-79664342D02*
X363498213Y-79759580D01*
X363498213Y-79759580D02*
X363450594Y-79807200D01*
X363450594Y-79807200D02*
X363355356Y-79854819D01*
X363355356Y-79854819D02*
X363212499Y-79854819D01*
X364402975Y-79188152D02*
X364402975Y-79854819D01*
X363974404Y-79188152D02*
X363974404Y-79711961D01*
X363974404Y-79711961D02*
X364022023Y-79807200D01*
X364022023Y-79807200D02*
X364117261Y-79854819D01*
X364117261Y-79854819D02*
X364260118Y-79854819D01*
X364260118Y-79854819D02*
X364355356Y-79807200D01*
X364355356Y-79807200D02*
X364402975Y-79759580D01*
X364879166Y-79188152D02*
X364879166Y-79854819D01*
X364879166Y-79283390D02*
X364926785Y-79235771D01*
X364926785Y-79235771D02*
X365022023Y-79188152D01*
X365022023Y-79188152D02*
X365164880Y-79188152D01*
X365164880Y-79188152D02*
X365260118Y-79235771D01*
X365260118Y-79235771D02*
X365307737Y-79331009D01*
X365307737Y-79331009D02*
X365307737Y-79854819D01*
X365641071Y-79188152D02*
X366022023Y-79188152D01*
X365783928Y-78854819D02*
X365783928Y-79711961D01*
X365783928Y-79711961D02*
X365831547Y-79807200D01*
X365831547Y-79807200D02*
X365926785Y-79854819D01*
X365926785Y-79854819D02*
X366022023Y-79854819D01*
X366355357Y-79854819D02*
X366355357Y-79188152D01*
X366355357Y-78854819D02*
X366307738Y-78902438D01*
X366307738Y-78902438D02*
X366355357Y-78950057D01*
X366355357Y-78950057D02*
X366402976Y-78902438D01*
X366402976Y-78902438D02*
X366355357Y-78854819D01*
X366355357Y-78854819D02*
X366355357Y-78950057D01*
X366831547Y-79188152D02*
X366831547Y-79854819D01*
X366831547Y-79283390D02*
X366879166Y-79235771D01*
X366879166Y-79235771D02*
X366974404Y-79188152D01*
X366974404Y-79188152D02*
X367117261Y-79188152D01*
X367117261Y-79188152D02*
X367212499Y-79235771D01*
X367212499Y-79235771D02*
X367260118Y-79331009D01*
X367260118Y-79331009D02*
X367260118Y-79854819D01*
X368164880Y-79188152D02*
X368164880Y-79997676D01*
X368164880Y-79997676D02*
X368117261Y-80092914D01*
X368117261Y-80092914D02*
X368069642Y-80140533D01*
X368069642Y-80140533D02*
X367974404Y-80188152D01*
X367974404Y-80188152D02*
X367831547Y-80188152D01*
X367831547Y-80188152D02*
X367736309Y-80140533D01*
X368164880Y-79807200D02*
X368069642Y-79854819D01*
X368069642Y-79854819D02*
X367879166Y-79854819D01*
X367879166Y-79854819D02*
X367783928Y-79807200D01*
X367783928Y-79807200D02*
X367736309Y-79759580D01*
X367736309Y-79759580D02*
X367688690Y-79664342D01*
X367688690Y-79664342D02*
X367688690Y-79378628D01*
X367688690Y-79378628D02*
X367736309Y-79283390D01*
X367736309Y-79283390D02*
X367783928Y-79235771D01*
X367783928Y-79235771D02*
X367879166Y-79188152D01*
X367879166Y-79188152D02*
X368069642Y-79188152D01*
X368069642Y-79188152D02*
X368164880Y-79235771D01*
X368641071Y-79854819D02*
X368641071Y-78854819D01*
X368641071Y-79331009D02*
X369212499Y-79331009D01*
X369212499Y-79854819D02*
X369212499Y-78854819D01*
X369831547Y-79854819D02*
X369736309Y-79807200D01*
X369736309Y-79807200D02*
X369688690Y-79759580D01*
X369688690Y-79759580D02*
X369641071Y-79664342D01*
X369641071Y-79664342D02*
X369641071Y-79378628D01*
X369641071Y-79378628D02*
X369688690Y-79283390D01*
X369688690Y-79283390D02*
X369736309Y-79235771D01*
X369736309Y-79235771D02*
X369831547Y-79188152D01*
X369831547Y-79188152D02*
X369974404Y-79188152D01*
X369974404Y-79188152D02*
X370069642Y-79235771D01*
X370069642Y-79235771D02*
X370117261Y-79283390D01*
X370117261Y-79283390D02*
X370164880Y-79378628D01*
X370164880Y-79378628D02*
X370164880Y-79664342D01*
X370164880Y-79664342D02*
X370117261Y-79759580D01*
X370117261Y-79759580D02*
X370069642Y-79807200D01*
X370069642Y-79807200D02*
X369974404Y-79854819D01*
X369974404Y-79854819D02*
X369831547Y-79854819D01*
X370736309Y-79854819D02*
X370641071Y-79807200D01*
X370641071Y-79807200D02*
X370593452Y-79711961D01*
X370593452Y-79711961D02*
X370593452Y-78854819D01*
X371498214Y-79807200D02*
X371402976Y-79854819D01*
X371402976Y-79854819D02*
X371212500Y-79854819D01*
X371212500Y-79854819D02*
X371117262Y-79807200D01*
X371117262Y-79807200D02*
X371069643Y-79711961D01*
X371069643Y-79711961D02*
X371069643Y-79331009D01*
X371069643Y-79331009D02*
X371117262Y-79235771D01*
X371117262Y-79235771D02*
X371212500Y-79188152D01*
X371212500Y-79188152D02*
X371402976Y-79188152D01*
X371402976Y-79188152D02*
X371498214Y-79235771D01*
X371498214Y-79235771D02*
X371545833Y-79331009D01*
X371545833Y-79331009D02*
X371545833Y-79426247D01*
X371545833Y-79426247D02*
X371069643Y-79521485D01*
X365950595Y-76654819D02*
X365950595Y-75654819D01*
X365950595Y-76131009D02*
X366522023Y-76131009D01*
X366522023Y-76654819D02*
X366522023Y-75654819D01*
X366902976Y-75654819D02*
X367569642Y-75654819D01*
X367569642Y-75654819D02*
X367141071Y-76654819D01*
X199263095Y-73454819D02*
X199263095Y-72454819D01*
X199263095Y-72931009D02*
X199834523Y-72931009D01*
X199834523Y-73454819D02*
X199834523Y-72454819D01*
X200739285Y-72788152D02*
X200739285Y-73454819D01*
X200501190Y-72407200D02*
X200263095Y-73121485D01*
X200263095Y-73121485D02*
X200882142Y-73121485D01*
X195239285Y-79854819D02*
X195239285Y-78854819D01*
X195239285Y-78854819D02*
X195572618Y-79569104D01*
X195572618Y-79569104D02*
X195905951Y-78854819D01*
X195905951Y-78854819D02*
X195905951Y-79854819D01*
X196524999Y-79854819D02*
X196429761Y-79807200D01*
X196429761Y-79807200D02*
X196382142Y-79759580D01*
X196382142Y-79759580D02*
X196334523Y-79664342D01*
X196334523Y-79664342D02*
X196334523Y-79378628D01*
X196334523Y-79378628D02*
X196382142Y-79283390D01*
X196382142Y-79283390D02*
X196429761Y-79235771D01*
X196429761Y-79235771D02*
X196524999Y-79188152D01*
X196524999Y-79188152D02*
X196667856Y-79188152D01*
X196667856Y-79188152D02*
X196763094Y-79235771D01*
X196763094Y-79235771D02*
X196810713Y-79283390D01*
X196810713Y-79283390D02*
X196858332Y-79378628D01*
X196858332Y-79378628D02*
X196858332Y-79664342D01*
X196858332Y-79664342D02*
X196810713Y-79759580D01*
X196810713Y-79759580D02*
X196763094Y-79807200D01*
X196763094Y-79807200D02*
X196667856Y-79854819D01*
X196667856Y-79854819D02*
X196524999Y-79854819D01*
X197715475Y-79188152D02*
X197715475Y-79854819D01*
X197286904Y-79188152D02*
X197286904Y-79711961D01*
X197286904Y-79711961D02*
X197334523Y-79807200D01*
X197334523Y-79807200D02*
X197429761Y-79854819D01*
X197429761Y-79854819D02*
X197572618Y-79854819D01*
X197572618Y-79854819D02*
X197667856Y-79807200D01*
X197667856Y-79807200D02*
X197715475Y-79759580D01*
X198191666Y-79188152D02*
X198191666Y-79854819D01*
X198191666Y-79283390D02*
X198239285Y-79235771D01*
X198239285Y-79235771D02*
X198334523Y-79188152D01*
X198334523Y-79188152D02*
X198477380Y-79188152D01*
X198477380Y-79188152D02*
X198572618Y-79235771D01*
X198572618Y-79235771D02*
X198620237Y-79331009D01*
X198620237Y-79331009D02*
X198620237Y-79854819D01*
X198953571Y-79188152D02*
X199334523Y-79188152D01*
X199096428Y-78854819D02*
X199096428Y-79711961D01*
X199096428Y-79711961D02*
X199144047Y-79807200D01*
X199144047Y-79807200D02*
X199239285Y-79854819D01*
X199239285Y-79854819D02*
X199334523Y-79854819D01*
X199667857Y-79854819D02*
X199667857Y-79188152D01*
X199667857Y-78854819D02*
X199620238Y-78902438D01*
X199620238Y-78902438D02*
X199667857Y-78950057D01*
X199667857Y-78950057D02*
X199715476Y-78902438D01*
X199715476Y-78902438D02*
X199667857Y-78854819D01*
X199667857Y-78854819D02*
X199667857Y-78950057D01*
X200144047Y-79188152D02*
X200144047Y-79854819D01*
X200144047Y-79283390D02*
X200191666Y-79235771D01*
X200191666Y-79235771D02*
X200286904Y-79188152D01*
X200286904Y-79188152D02*
X200429761Y-79188152D01*
X200429761Y-79188152D02*
X200524999Y-79235771D01*
X200524999Y-79235771D02*
X200572618Y-79331009D01*
X200572618Y-79331009D02*
X200572618Y-79854819D01*
X201477380Y-79188152D02*
X201477380Y-79997676D01*
X201477380Y-79997676D02*
X201429761Y-80092914D01*
X201429761Y-80092914D02*
X201382142Y-80140533D01*
X201382142Y-80140533D02*
X201286904Y-80188152D01*
X201286904Y-80188152D02*
X201144047Y-80188152D01*
X201144047Y-80188152D02*
X201048809Y-80140533D01*
X201477380Y-79807200D02*
X201382142Y-79854819D01*
X201382142Y-79854819D02*
X201191666Y-79854819D01*
X201191666Y-79854819D02*
X201096428Y-79807200D01*
X201096428Y-79807200D02*
X201048809Y-79759580D01*
X201048809Y-79759580D02*
X201001190Y-79664342D01*
X201001190Y-79664342D02*
X201001190Y-79378628D01*
X201001190Y-79378628D02*
X201048809Y-79283390D01*
X201048809Y-79283390D02*
X201096428Y-79235771D01*
X201096428Y-79235771D02*
X201191666Y-79188152D01*
X201191666Y-79188152D02*
X201382142Y-79188152D01*
X201382142Y-79188152D02*
X201477380Y-79235771D01*
X201953571Y-79854819D02*
X201953571Y-78854819D01*
X201953571Y-79331009D02*
X202524999Y-79331009D01*
X202524999Y-79854819D02*
X202524999Y-78854819D01*
X203144047Y-79854819D02*
X203048809Y-79807200D01*
X203048809Y-79807200D02*
X203001190Y-79759580D01*
X203001190Y-79759580D02*
X202953571Y-79664342D01*
X202953571Y-79664342D02*
X202953571Y-79378628D01*
X202953571Y-79378628D02*
X203001190Y-79283390D01*
X203001190Y-79283390D02*
X203048809Y-79235771D01*
X203048809Y-79235771D02*
X203144047Y-79188152D01*
X203144047Y-79188152D02*
X203286904Y-79188152D01*
X203286904Y-79188152D02*
X203382142Y-79235771D01*
X203382142Y-79235771D02*
X203429761Y-79283390D01*
X203429761Y-79283390D02*
X203477380Y-79378628D01*
X203477380Y-79378628D02*
X203477380Y-79664342D01*
X203477380Y-79664342D02*
X203429761Y-79759580D01*
X203429761Y-79759580D02*
X203382142Y-79807200D01*
X203382142Y-79807200D02*
X203286904Y-79854819D01*
X203286904Y-79854819D02*
X203144047Y-79854819D01*
X204048809Y-79854819D02*
X203953571Y-79807200D01*
X203953571Y-79807200D02*
X203905952Y-79711961D01*
X203905952Y-79711961D02*
X203905952Y-78854819D01*
X204810714Y-79807200D02*
X204715476Y-79854819D01*
X204715476Y-79854819D02*
X204525000Y-79854819D01*
X204525000Y-79854819D02*
X204429762Y-79807200D01*
X204429762Y-79807200D02*
X204382143Y-79711961D01*
X204382143Y-79711961D02*
X204382143Y-79331009D01*
X204382143Y-79331009D02*
X204429762Y-79235771D01*
X204429762Y-79235771D02*
X204525000Y-79188152D01*
X204525000Y-79188152D02*
X204715476Y-79188152D01*
X204715476Y-79188152D02*
X204810714Y-79235771D01*
X204810714Y-79235771D02*
X204858333Y-79331009D01*
X204858333Y-79331009D02*
X204858333Y-79426247D01*
X204858333Y-79426247D02*
X204382143Y-79521485D01*
X199263095Y-76654819D02*
X199263095Y-75654819D01*
X199263095Y-76131009D02*
X199834523Y-76131009D01*
X199834523Y-76654819D02*
X199834523Y-75654819D01*
X200739285Y-75988152D02*
X200739285Y-76654819D01*
X200501190Y-75607200D02*
X200263095Y-76321485D01*
X200263095Y-76321485D02*
X200882142Y-76321485D01*
X65913095Y-73454819D02*
X65913095Y-72454819D01*
X65913095Y-72931009D02*
X66484523Y-72931009D01*
X66484523Y-73454819D02*
X66484523Y-72454819D01*
X67484523Y-73454819D02*
X66913095Y-73454819D01*
X67198809Y-73454819D02*
X67198809Y-72454819D01*
X67198809Y-72454819D02*
X67103571Y-72597676D01*
X67103571Y-72597676D02*
X67008333Y-72692914D01*
X67008333Y-72692914D02*
X66913095Y-72740533D01*
X61889285Y-79854819D02*
X61889285Y-78854819D01*
X61889285Y-78854819D02*
X62222618Y-79569104D01*
X62222618Y-79569104D02*
X62555951Y-78854819D01*
X62555951Y-78854819D02*
X62555951Y-79854819D01*
X63174999Y-79854819D02*
X63079761Y-79807200D01*
X63079761Y-79807200D02*
X63032142Y-79759580D01*
X63032142Y-79759580D02*
X62984523Y-79664342D01*
X62984523Y-79664342D02*
X62984523Y-79378628D01*
X62984523Y-79378628D02*
X63032142Y-79283390D01*
X63032142Y-79283390D02*
X63079761Y-79235771D01*
X63079761Y-79235771D02*
X63174999Y-79188152D01*
X63174999Y-79188152D02*
X63317856Y-79188152D01*
X63317856Y-79188152D02*
X63413094Y-79235771D01*
X63413094Y-79235771D02*
X63460713Y-79283390D01*
X63460713Y-79283390D02*
X63508332Y-79378628D01*
X63508332Y-79378628D02*
X63508332Y-79664342D01*
X63508332Y-79664342D02*
X63460713Y-79759580D01*
X63460713Y-79759580D02*
X63413094Y-79807200D01*
X63413094Y-79807200D02*
X63317856Y-79854819D01*
X63317856Y-79854819D02*
X63174999Y-79854819D01*
X64365475Y-79188152D02*
X64365475Y-79854819D01*
X63936904Y-79188152D02*
X63936904Y-79711961D01*
X63936904Y-79711961D02*
X63984523Y-79807200D01*
X63984523Y-79807200D02*
X64079761Y-79854819D01*
X64079761Y-79854819D02*
X64222618Y-79854819D01*
X64222618Y-79854819D02*
X64317856Y-79807200D01*
X64317856Y-79807200D02*
X64365475Y-79759580D01*
X64841666Y-79188152D02*
X64841666Y-79854819D01*
X64841666Y-79283390D02*
X64889285Y-79235771D01*
X64889285Y-79235771D02*
X64984523Y-79188152D01*
X64984523Y-79188152D02*
X65127380Y-79188152D01*
X65127380Y-79188152D02*
X65222618Y-79235771D01*
X65222618Y-79235771D02*
X65270237Y-79331009D01*
X65270237Y-79331009D02*
X65270237Y-79854819D01*
X65603571Y-79188152D02*
X65984523Y-79188152D01*
X65746428Y-78854819D02*
X65746428Y-79711961D01*
X65746428Y-79711961D02*
X65794047Y-79807200D01*
X65794047Y-79807200D02*
X65889285Y-79854819D01*
X65889285Y-79854819D02*
X65984523Y-79854819D01*
X66317857Y-79854819D02*
X66317857Y-79188152D01*
X66317857Y-78854819D02*
X66270238Y-78902438D01*
X66270238Y-78902438D02*
X66317857Y-78950057D01*
X66317857Y-78950057D02*
X66365476Y-78902438D01*
X66365476Y-78902438D02*
X66317857Y-78854819D01*
X66317857Y-78854819D02*
X66317857Y-78950057D01*
X66794047Y-79188152D02*
X66794047Y-79854819D01*
X66794047Y-79283390D02*
X66841666Y-79235771D01*
X66841666Y-79235771D02*
X66936904Y-79188152D01*
X66936904Y-79188152D02*
X67079761Y-79188152D01*
X67079761Y-79188152D02*
X67174999Y-79235771D01*
X67174999Y-79235771D02*
X67222618Y-79331009D01*
X67222618Y-79331009D02*
X67222618Y-79854819D01*
X68127380Y-79188152D02*
X68127380Y-79997676D01*
X68127380Y-79997676D02*
X68079761Y-80092914D01*
X68079761Y-80092914D02*
X68032142Y-80140533D01*
X68032142Y-80140533D02*
X67936904Y-80188152D01*
X67936904Y-80188152D02*
X67794047Y-80188152D01*
X67794047Y-80188152D02*
X67698809Y-80140533D01*
X68127380Y-79807200D02*
X68032142Y-79854819D01*
X68032142Y-79854819D02*
X67841666Y-79854819D01*
X67841666Y-79854819D02*
X67746428Y-79807200D01*
X67746428Y-79807200D02*
X67698809Y-79759580D01*
X67698809Y-79759580D02*
X67651190Y-79664342D01*
X67651190Y-79664342D02*
X67651190Y-79378628D01*
X67651190Y-79378628D02*
X67698809Y-79283390D01*
X67698809Y-79283390D02*
X67746428Y-79235771D01*
X67746428Y-79235771D02*
X67841666Y-79188152D01*
X67841666Y-79188152D02*
X68032142Y-79188152D01*
X68032142Y-79188152D02*
X68127380Y-79235771D01*
X68603571Y-79854819D02*
X68603571Y-78854819D01*
X68603571Y-79331009D02*
X69174999Y-79331009D01*
X69174999Y-79854819D02*
X69174999Y-78854819D01*
X69794047Y-79854819D02*
X69698809Y-79807200D01*
X69698809Y-79807200D02*
X69651190Y-79759580D01*
X69651190Y-79759580D02*
X69603571Y-79664342D01*
X69603571Y-79664342D02*
X69603571Y-79378628D01*
X69603571Y-79378628D02*
X69651190Y-79283390D01*
X69651190Y-79283390D02*
X69698809Y-79235771D01*
X69698809Y-79235771D02*
X69794047Y-79188152D01*
X69794047Y-79188152D02*
X69936904Y-79188152D01*
X69936904Y-79188152D02*
X70032142Y-79235771D01*
X70032142Y-79235771D02*
X70079761Y-79283390D01*
X70079761Y-79283390D02*
X70127380Y-79378628D01*
X70127380Y-79378628D02*
X70127380Y-79664342D01*
X70127380Y-79664342D02*
X70079761Y-79759580D01*
X70079761Y-79759580D02*
X70032142Y-79807200D01*
X70032142Y-79807200D02*
X69936904Y-79854819D01*
X69936904Y-79854819D02*
X69794047Y-79854819D01*
X70698809Y-79854819D02*
X70603571Y-79807200D01*
X70603571Y-79807200D02*
X70555952Y-79711961D01*
X70555952Y-79711961D02*
X70555952Y-78854819D01*
X71460714Y-79807200D02*
X71365476Y-79854819D01*
X71365476Y-79854819D02*
X71175000Y-79854819D01*
X71175000Y-79854819D02*
X71079762Y-79807200D01*
X71079762Y-79807200D02*
X71032143Y-79711961D01*
X71032143Y-79711961D02*
X71032143Y-79331009D01*
X71032143Y-79331009D02*
X71079762Y-79235771D01*
X71079762Y-79235771D02*
X71175000Y-79188152D01*
X71175000Y-79188152D02*
X71365476Y-79188152D01*
X71365476Y-79188152D02*
X71460714Y-79235771D01*
X71460714Y-79235771D02*
X71508333Y-79331009D01*
X71508333Y-79331009D02*
X71508333Y-79426247D01*
X71508333Y-79426247D02*
X71032143Y-79521485D01*
X65913095Y-76654819D02*
X65913095Y-75654819D01*
X65913095Y-76131009D02*
X66484523Y-76131009D01*
X66484523Y-76654819D02*
X66484523Y-75654819D01*
X67484523Y-76654819D02*
X66913095Y-76654819D01*
X67198809Y-76654819D02*
X67198809Y-75654819D01*
X67198809Y-75654819D02*
X67103571Y-75797676D01*
X67103571Y-75797676D02*
X67008333Y-75892914D01*
X67008333Y-75892914D02*
X66913095Y-75940533D01*
X69484970Y-157989194D02*
X69484970Y-156989194D01*
X69484970Y-157465384D02*
X70056398Y-157465384D01*
X70056398Y-157989194D02*
X70056398Y-156989194D01*
X70484970Y-157084432D02*
X70532589Y-157036813D01*
X70532589Y-157036813D02*
X70627827Y-156989194D01*
X70627827Y-156989194D02*
X70865922Y-156989194D01*
X70865922Y-156989194D02*
X70961160Y-157036813D01*
X70961160Y-157036813D02*
X71008779Y-157084432D01*
X71008779Y-157084432D02*
X71056398Y-157179670D01*
X71056398Y-157179670D02*
X71056398Y-157274908D01*
X71056398Y-157274908D02*
X71008779Y-157417765D01*
X71008779Y-157417765D02*
X70437351Y-157989194D01*
X70437351Y-157989194D02*
X71056398Y-157989194D01*
X65461160Y-164389194D02*
X65461160Y-163389194D01*
X65461160Y-163389194D02*
X65794493Y-164103479D01*
X65794493Y-164103479D02*
X66127826Y-163389194D01*
X66127826Y-163389194D02*
X66127826Y-164389194D01*
X66746874Y-164389194D02*
X66651636Y-164341575D01*
X66651636Y-164341575D02*
X66604017Y-164293955D01*
X66604017Y-164293955D02*
X66556398Y-164198717D01*
X66556398Y-164198717D02*
X66556398Y-163913003D01*
X66556398Y-163913003D02*
X66604017Y-163817765D01*
X66604017Y-163817765D02*
X66651636Y-163770146D01*
X66651636Y-163770146D02*
X66746874Y-163722527D01*
X66746874Y-163722527D02*
X66889731Y-163722527D01*
X66889731Y-163722527D02*
X66984969Y-163770146D01*
X66984969Y-163770146D02*
X67032588Y-163817765D01*
X67032588Y-163817765D02*
X67080207Y-163913003D01*
X67080207Y-163913003D02*
X67080207Y-164198717D01*
X67080207Y-164198717D02*
X67032588Y-164293955D01*
X67032588Y-164293955D02*
X66984969Y-164341575D01*
X66984969Y-164341575D02*
X66889731Y-164389194D01*
X66889731Y-164389194D02*
X66746874Y-164389194D01*
X67937350Y-163722527D02*
X67937350Y-164389194D01*
X67508779Y-163722527D02*
X67508779Y-164246336D01*
X67508779Y-164246336D02*
X67556398Y-164341575D01*
X67556398Y-164341575D02*
X67651636Y-164389194D01*
X67651636Y-164389194D02*
X67794493Y-164389194D01*
X67794493Y-164389194D02*
X67889731Y-164341575D01*
X67889731Y-164341575D02*
X67937350Y-164293955D01*
X68413541Y-163722527D02*
X68413541Y-164389194D01*
X68413541Y-163817765D02*
X68461160Y-163770146D01*
X68461160Y-163770146D02*
X68556398Y-163722527D01*
X68556398Y-163722527D02*
X68699255Y-163722527D01*
X68699255Y-163722527D02*
X68794493Y-163770146D01*
X68794493Y-163770146D02*
X68842112Y-163865384D01*
X68842112Y-163865384D02*
X68842112Y-164389194D01*
X69175446Y-163722527D02*
X69556398Y-163722527D01*
X69318303Y-163389194D02*
X69318303Y-164246336D01*
X69318303Y-164246336D02*
X69365922Y-164341575D01*
X69365922Y-164341575D02*
X69461160Y-164389194D01*
X69461160Y-164389194D02*
X69556398Y-164389194D01*
X69889732Y-164389194D02*
X69889732Y-163722527D01*
X69889732Y-163389194D02*
X69842113Y-163436813D01*
X69842113Y-163436813D02*
X69889732Y-163484432D01*
X69889732Y-163484432D02*
X69937351Y-163436813D01*
X69937351Y-163436813D02*
X69889732Y-163389194D01*
X69889732Y-163389194D02*
X69889732Y-163484432D01*
X70365922Y-163722527D02*
X70365922Y-164389194D01*
X70365922Y-163817765D02*
X70413541Y-163770146D01*
X70413541Y-163770146D02*
X70508779Y-163722527D01*
X70508779Y-163722527D02*
X70651636Y-163722527D01*
X70651636Y-163722527D02*
X70746874Y-163770146D01*
X70746874Y-163770146D02*
X70794493Y-163865384D01*
X70794493Y-163865384D02*
X70794493Y-164389194D01*
X71699255Y-163722527D02*
X71699255Y-164532051D01*
X71699255Y-164532051D02*
X71651636Y-164627289D01*
X71651636Y-164627289D02*
X71604017Y-164674908D01*
X71604017Y-164674908D02*
X71508779Y-164722527D01*
X71508779Y-164722527D02*
X71365922Y-164722527D01*
X71365922Y-164722527D02*
X71270684Y-164674908D01*
X71699255Y-164341575D02*
X71604017Y-164389194D01*
X71604017Y-164389194D02*
X71413541Y-164389194D01*
X71413541Y-164389194D02*
X71318303Y-164341575D01*
X71318303Y-164341575D02*
X71270684Y-164293955D01*
X71270684Y-164293955D02*
X71223065Y-164198717D01*
X71223065Y-164198717D02*
X71223065Y-163913003D01*
X71223065Y-163913003D02*
X71270684Y-163817765D01*
X71270684Y-163817765D02*
X71318303Y-163770146D01*
X71318303Y-163770146D02*
X71413541Y-163722527D01*
X71413541Y-163722527D02*
X71604017Y-163722527D01*
X71604017Y-163722527D02*
X71699255Y-163770146D01*
X72175446Y-164389194D02*
X72175446Y-163389194D01*
X72175446Y-163865384D02*
X72746874Y-163865384D01*
X72746874Y-164389194D02*
X72746874Y-163389194D01*
X73365922Y-164389194D02*
X73270684Y-164341575D01*
X73270684Y-164341575D02*
X73223065Y-164293955D01*
X73223065Y-164293955D02*
X73175446Y-164198717D01*
X73175446Y-164198717D02*
X73175446Y-163913003D01*
X73175446Y-163913003D02*
X73223065Y-163817765D01*
X73223065Y-163817765D02*
X73270684Y-163770146D01*
X73270684Y-163770146D02*
X73365922Y-163722527D01*
X73365922Y-163722527D02*
X73508779Y-163722527D01*
X73508779Y-163722527D02*
X73604017Y-163770146D01*
X73604017Y-163770146D02*
X73651636Y-163817765D01*
X73651636Y-163817765D02*
X73699255Y-163913003D01*
X73699255Y-163913003D02*
X73699255Y-164198717D01*
X73699255Y-164198717D02*
X73651636Y-164293955D01*
X73651636Y-164293955D02*
X73604017Y-164341575D01*
X73604017Y-164341575D02*
X73508779Y-164389194D01*
X73508779Y-164389194D02*
X73365922Y-164389194D01*
X74270684Y-164389194D02*
X74175446Y-164341575D01*
X74175446Y-164341575D02*
X74127827Y-164246336D01*
X74127827Y-164246336D02*
X74127827Y-163389194D01*
X75032589Y-164341575D02*
X74937351Y-164389194D01*
X74937351Y-164389194D02*
X74746875Y-164389194D01*
X74746875Y-164389194D02*
X74651637Y-164341575D01*
X74651637Y-164341575D02*
X74604018Y-164246336D01*
X74604018Y-164246336D02*
X74604018Y-163865384D01*
X74604018Y-163865384D02*
X74651637Y-163770146D01*
X74651637Y-163770146D02*
X74746875Y-163722527D01*
X74746875Y-163722527D02*
X74937351Y-163722527D01*
X74937351Y-163722527D02*
X75032589Y-163770146D01*
X75032589Y-163770146D02*
X75080208Y-163865384D01*
X75080208Y-163865384D02*
X75080208Y-163960622D01*
X75080208Y-163960622D02*
X74604018Y-164055860D01*
X69484970Y-161189194D02*
X69484970Y-160189194D01*
X69484970Y-160665384D02*
X70056398Y-160665384D01*
X70056398Y-161189194D02*
X70056398Y-160189194D01*
X70484970Y-160284432D02*
X70532589Y-160236813D01*
X70532589Y-160236813D02*
X70627827Y-160189194D01*
X70627827Y-160189194D02*
X70865922Y-160189194D01*
X70865922Y-160189194D02*
X70961160Y-160236813D01*
X70961160Y-160236813D02*
X71008779Y-160284432D01*
X71008779Y-160284432D02*
X71056398Y-160379670D01*
X71056398Y-160379670D02*
X71056398Y-160474908D01*
X71056398Y-160474908D02*
X71008779Y-160617765D01*
X71008779Y-160617765D02*
X70437351Y-161189194D01*
X70437351Y-161189194D02*
X71056398Y-161189194D01*
X351663095Y-157989194D02*
X351663095Y-156989194D01*
X351663095Y-157465384D02*
X352234523Y-157465384D01*
X352234523Y-157989194D02*
X352234523Y-156989194D01*
X352853571Y-157417765D02*
X352758333Y-157370146D01*
X352758333Y-157370146D02*
X352710714Y-157322527D01*
X352710714Y-157322527D02*
X352663095Y-157227289D01*
X352663095Y-157227289D02*
X352663095Y-157179670D01*
X352663095Y-157179670D02*
X352710714Y-157084432D01*
X352710714Y-157084432D02*
X352758333Y-157036813D01*
X352758333Y-157036813D02*
X352853571Y-156989194D01*
X352853571Y-156989194D02*
X353044047Y-156989194D01*
X353044047Y-156989194D02*
X353139285Y-157036813D01*
X353139285Y-157036813D02*
X353186904Y-157084432D01*
X353186904Y-157084432D02*
X353234523Y-157179670D01*
X353234523Y-157179670D02*
X353234523Y-157227289D01*
X353234523Y-157227289D02*
X353186904Y-157322527D01*
X353186904Y-157322527D02*
X353139285Y-157370146D01*
X353139285Y-157370146D02*
X353044047Y-157417765D01*
X353044047Y-157417765D02*
X352853571Y-157417765D01*
X352853571Y-157417765D02*
X352758333Y-157465384D01*
X352758333Y-157465384D02*
X352710714Y-157513003D01*
X352710714Y-157513003D02*
X352663095Y-157608241D01*
X352663095Y-157608241D02*
X352663095Y-157798717D01*
X352663095Y-157798717D02*
X352710714Y-157893955D01*
X352710714Y-157893955D02*
X352758333Y-157941575D01*
X352758333Y-157941575D02*
X352853571Y-157989194D01*
X352853571Y-157989194D02*
X353044047Y-157989194D01*
X353044047Y-157989194D02*
X353139285Y-157941575D01*
X353139285Y-157941575D02*
X353186904Y-157893955D01*
X353186904Y-157893955D02*
X353234523Y-157798717D01*
X353234523Y-157798717D02*
X353234523Y-157608241D01*
X353234523Y-157608241D02*
X353186904Y-157513003D01*
X353186904Y-157513003D02*
X353139285Y-157465384D01*
X353139285Y-157465384D02*
X353044047Y-157417765D01*
X347639285Y-164389194D02*
X347639285Y-163389194D01*
X347639285Y-163389194D02*
X347972618Y-164103479D01*
X347972618Y-164103479D02*
X348305951Y-163389194D01*
X348305951Y-163389194D02*
X348305951Y-164389194D01*
X348924999Y-164389194D02*
X348829761Y-164341575D01*
X348829761Y-164341575D02*
X348782142Y-164293955D01*
X348782142Y-164293955D02*
X348734523Y-164198717D01*
X348734523Y-164198717D02*
X348734523Y-163913003D01*
X348734523Y-163913003D02*
X348782142Y-163817765D01*
X348782142Y-163817765D02*
X348829761Y-163770146D01*
X348829761Y-163770146D02*
X348924999Y-163722527D01*
X348924999Y-163722527D02*
X349067856Y-163722527D01*
X349067856Y-163722527D02*
X349163094Y-163770146D01*
X349163094Y-163770146D02*
X349210713Y-163817765D01*
X349210713Y-163817765D02*
X349258332Y-163913003D01*
X349258332Y-163913003D02*
X349258332Y-164198717D01*
X349258332Y-164198717D02*
X349210713Y-164293955D01*
X349210713Y-164293955D02*
X349163094Y-164341575D01*
X349163094Y-164341575D02*
X349067856Y-164389194D01*
X349067856Y-164389194D02*
X348924999Y-164389194D01*
X350115475Y-163722527D02*
X350115475Y-164389194D01*
X349686904Y-163722527D02*
X349686904Y-164246336D01*
X349686904Y-164246336D02*
X349734523Y-164341575D01*
X349734523Y-164341575D02*
X349829761Y-164389194D01*
X349829761Y-164389194D02*
X349972618Y-164389194D01*
X349972618Y-164389194D02*
X350067856Y-164341575D01*
X350067856Y-164341575D02*
X350115475Y-164293955D01*
X350591666Y-163722527D02*
X350591666Y-164389194D01*
X350591666Y-163817765D02*
X350639285Y-163770146D01*
X350639285Y-163770146D02*
X350734523Y-163722527D01*
X350734523Y-163722527D02*
X350877380Y-163722527D01*
X350877380Y-163722527D02*
X350972618Y-163770146D01*
X350972618Y-163770146D02*
X351020237Y-163865384D01*
X351020237Y-163865384D02*
X351020237Y-164389194D01*
X351353571Y-163722527D02*
X351734523Y-163722527D01*
X351496428Y-163389194D02*
X351496428Y-164246336D01*
X351496428Y-164246336D02*
X351544047Y-164341575D01*
X351544047Y-164341575D02*
X351639285Y-164389194D01*
X351639285Y-164389194D02*
X351734523Y-164389194D01*
X352067857Y-164389194D02*
X352067857Y-163722527D01*
X352067857Y-163389194D02*
X352020238Y-163436813D01*
X352020238Y-163436813D02*
X352067857Y-163484432D01*
X352067857Y-163484432D02*
X352115476Y-163436813D01*
X352115476Y-163436813D02*
X352067857Y-163389194D01*
X352067857Y-163389194D02*
X352067857Y-163484432D01*
X352544047Y-163722527D02*
X352544047Y-164389194D01*
X352544047Y-163817765D02*
X352591666Y-163770146D01*
X352591666Y-163770146D02*
X352686904Y-163722527D01*
X352686904Y-163722527D02*
X352829761Y-163722527D01*
X352829761Y-163722527D02*
X352924999Y-163770146D01*
X352924999Y-163770146D02*
X352972618Y-163865384D01*
X352972618Y-163865384D02*
X352972618Y-164389194D01*
X353877380Y-163722527D02*
X353877380Y-164532051D01*
X353877380Y-164532051D02*
X353829761Y-164627289D01*
X353829761Y-164627289D02*
X353782142Y-164674908D01*
X353782142Y-164674908D02*
X353686904Y-164722527D01*
X353686904Y-164722527D02*
X353544047Y-164722527D01*
X353544047Y-164722527D02*
X353448809Y-164674908D01*
X353877380Y-164341575D02*
X353782142Y-164389194D01*
X353782142Y-164389194D02*
X353591666Y-164389194D01*
X353591666Y-164389194D02*
X353496428Y-164341575D01*
X353496428Y-164341575D02*
X353448809Y-164293955D01*
X353448809Y-164293955D02*
X353401190Y-164198717D01*
X353401190Y-164198717D02*
X353401190Y-163913003D01*
X353401190Y-163913003D02*
X353448809Y-163817765D01*
X353448809Y-163817765D02*
X353496428Y-163770146D01*
X353496428Y-163770146D02*
X353591666Y-163722527D01*
X353591666Y-163722527D02*
X353782142Y-163722527D01*
X353782142Y-163722527D02*
X353877380Y-163770146D01*
X354353571Y-164389194D02*
X354353571Y-163389194D01*
X354353571Y-163865384D02*
X354924999Y-163865384D01*
X354924999Y-164389194D02*
X354924999Y-163389194D01*
X355544047Y-164389194D02*
X355448809Y-164341575D01*
X355448809Y-164341575D02*
X355401190Y-164293955D01*
X355401190Y-164293955D02*
X355353571Y-164198717D01*
X355353571Y-164198717D02*
X355353571Y-163913003D01*
X355353571Y-163913003D02*
X355401190Y-163817765D01*
X355401190Y-163817765D02*
X355448809Y-163770146D01*
X355448809Y-163770146D02*
X355544047Y-163722527D01*
X355544047Y-163722527D02*
X355686904Y-163722527D01*
X355686904Y-163722527D02*
X355782142Y-163770146D01*
X355782142Y-163770146D02*
X355829761Y-163817765D01*
X355829761Y-163817765D02*
X355877380Y-163913003D01*
X355877380Y-163913003D02*
X355877380Y-164198717D01*
X355877380Y-164198717D02*
X355829761Y-164293955D01*
X355829761Y-164293955D02*
X355782142Y-164341575D01*
X355782142Y-164341575D02*
X355686904Y-164389194D01*
X355686904Y-164389194D02*
X355544047Y-164389194D01*
X356448809Y-164389194D02*
X356353571Y-164341575D01*
X356353571Y-164341575D02*
X356305952Y-164246336D01*
X356305952Y-164246336D02*
X356305952Y-163389194D01*
X357210714Y-164341575D02*
X357115476Y-164389194D01*
X357115476Y-164389194D02*
X356925000Y-164389194D01*
X356925000Y-164389194D02*
X356829762Y-164341575D01*
X356829762Y-164341575D02*
X356782143Y-164246336D01*
X356782143Y-164246336D02*
X356782143Y-163865384D01*
X356782143Y-163865384D02*
X356829762Y-163770146D01*
X356829762Y-163770146D02*
X356925000Y-163722527D01*
X356925000Y-163722527D02*
X357115476Y-163722527D01*
X357115476Y-163722527D02*
X357210714Y-163770146D01*
X357210714Y-163770146D02*
X357258333Y-163865384D01*
X357258333Y-163865384D02*
X357258333Y-163960622D01*
X357258333Y-163960622D02*
X356782143Y-164055860D01*
X351663095Y-161189194D02*
X351663095Y-160189194D01*
X351663095Y-160665384D02*
X352234523Y-160665384D01*
X352234523Y-161189194D02*
X352234523Y-160189194D01*
X352853571Y-160617765D02*
X352758333Y-160570146D01*
X352758333Y-160570146D02*
X352710714Y-160522527D01*
X352710714Y-160522527D02*
X352663095Y-160427289D01*
X352663095Y-160427289D02*
X352663095Y-160379670D01*
X352663095Y-160379670D02*
X352710714Y-160284432D01*
X352710714Y-160284432D02*
X352758333Y-160236813D01*
X352758333Y-160236813D02*
X352853571Y-160189194D01*
X352853571Y-160189194D02*
X353044047Y-160189194D01*
X353044047Y-160189194D02*
X353139285Y-160236813D01*
X353139285Y-160236813D02*
X353186904Y-160284432D01*
X353186904Y-160284432D02*
X353234523Y-160379670D01*
X353234523Y-160379670D02*
X353234523Y-160427289D01*
X353234523Y-160427289D02*
X353186904Y-160522527D01*
X353186904Y-160522527D02*
X353139285Y-160570146D01*
X353139285Y-160570146D02*
X353044047Y-160617765D01*
X353044047Y-160617765D02*
X352853571Y-160617765D01*
X352853571Y-160617765D02*
X352758333Y-160665384D01*
X352758333Y-160665384D02*
X352710714Y-160713003D01*
X352710714Y-160713003D02*
X352663095Y-160808241D01*
X352663095Y-160808241D02*
X352663095Y-160998717D01*
X352663095Y-160998717D02*
X352710714Y-161093955D01*
X352710714Y-161093955D02*
X352758333Y-161141575D01*
X352758333Y-161141575D02*
X352853571Y-161189194D01*
X352853571Y-161189194D02*
X353044047Y-161189194D01*
X353044047Y-161189194D02*
X353139285Y-161141575D01*
X353139285Y-161141575D02*
X353186904Y-161093955D01*
X353186904Y-161093955D02*
X353234523Y-160998717D01*
X353234523Y-160998717D02*
X353234523Y-160808241D01*
X353234523Y-160808241D02*
X353186904Y-160713003D01*
X353186904Y-160713003D02*
X353139285Y-160665384D01*
X353139285Y-160665384D02*
X353044047Y-160617765D01*
X118300595Y-115126694D02*
X118300595Y-114126694D01*
X118300595Y-114602884D02*
X118872023Y-114602884D01*
X118872023Y-115126694D02*
X118872023Y-114126694D01*
X119252976Y-114126694D02*
X119872023Y-114126694D01*
X119872023Y-114126694D02*
X119538690Y-114507646D01*
X119538690Y-114507646D02*
X119681547Y-114507646D01*
X119681547Y-114507646D02*
X119776785Y-114555265D01*
X119776785Y-114555265D02*
X119824404Y-114602884D01*
X119824404Y-114602884D02*
X119872023Y-114698122D01*
X119872023Y-114698122D02*
X119872023Y-114936217D01*
X119872023Y-114936217D02*
X119824404Y-115031455D01*
X119824404Y-115031455D02*
X119776785Y-115079075D01*
X119776785Y-115079075D02*
X119681547Y-115126694D01*
X119681547Y-115126694D02*
X119395833Y-115126694D01*
X119395833Y-115126694D02*
X119300595Y-115079075D01*
X119300595Y-115079075D02*
X119252976Y-115031455D01*
X114276785Y-121526694D02*
X114276785Y-120526694D01*
X114276785Y-120526694D02*
X114610118Y-121240979D01*
X114610118Y-121240979D02*
X114943451Y-120526694D01*
X114943451Y-120526694D02*
X114943451Y-121526694D01*
X115562499Y-121526694D02*
X115467261Y-121479075D01*
X115467261Y-121479075D02*
X115419642Y-121431455D01*
X115419642Y-121431455D02*
X115372023Y-121336217D01*
X115372023Y-121336217D02*
X115372023Y-121050503D01*
X115372023Y-121050503D02*
X115419642Y-120955265D01*
X115419642Y-120955265D02*
X115467261Y-120907646D01*
X115467261Y-120907646D02*
X115562499Y-120860027D01*
X115562499Y-120860027D02*
X115705356Y-120860027D01*
X115705356Y-120860027D02*
X115800594Y-120907646D01*
X115800594Y-120907646D02*
X115848213Y-120955265D01*
X115848213Y-120955265D02*
X115895832Y-121050503D01*
X115895832Y-121050503D02*
X115895832Y-121336217D01*
X115895832Y-121336217D02*
X115848213Y-121431455D01*
X115848213Y-121431455D02*
X115800594Y-121479075D01*
X115800594Y-121479075D02*
X115705356Y-121526694D01*
X115705356Y-121526694D02*
X115562499Y-121526694D01*
X116752975Y-120860027D02*
X116752975Y-121526694D01*
X116324404Y-120860027D02*
X116324404Y-121383836D01*
X116324404Y-121383836D02*
X116372023Y-121479075D01*
X116372023Y-121479075D02*
X116467261Y-121526694D01*
X116467261Y-121526694D02*
X116610118Y-121526694D01*
X116610118Y-121526694D02*
X116705356Y-121479075D01*
X116705356Y-121479075D02*
X116752975Y-121431455D01*
X117229166Y-120860027D02*
X117229166Y-121526694D01*
X117229166Y-120955265D02*
X117276785Y-120907646D01*
X117276785Y-120907646D02*
X117372023Y-120860027D01*
X117372023Y-120860027D02*
X117514880Y-120860027D01*
X117514880Y-120860027D02*
X117610118Y-120907646D01*
X117610118Y-120907646D02*
X117657737Y-121002884D01*
X117657737Y-121002884D02*
X117657737Y-121526694D01*
X117991071Y-120860027D02*
X118372023Y-120860027D01*
X118133928Y-120526694D02*
X118133928Y-121383836D01*
X118133928Y-121383836D02*
X118181547Y-121479075D01*
X118181547Y-121479075D02*
X118276785Y-121526694D01*
X118276785Y-121526694D02*
X118372023Y-121526694D01*
X118705357Y-121526694D02*
X118705357Y-120860027D01*
X118705357Y-120526694D02*
X118657738Y-120574313D01*
X118657738Y-120574313D02*
X118705357Y-120621932D01*
X118705357Y-120621932D02*
X118752976Y-120574313D01*
X118752976Y-120574313D02*
X118705357Y-120526694D01*
X118705357Y-120526694D02*
X118705357Y-120621932D01*
X119181547Y-120860027D02*
X119181547Y-121526694D01*
X119181547Y-120955265D02*
X119229166Y-120907646D01*
X119229166Y-120907646D02*
X119324404Y-120860027D01*
X119324404Y-120860027D02*
X119467261Y-120860027D01*
X119467261Y-120860027D02*
X119562499Y-120907646D01*
X119562499Y-120907646D02*
X119610118Y-121002884D01*
X119610118Y-121002884D02*
X119610118Y-121526694D01*
X120514880Y-120860027D02*
X120514880Y-121669551D01*
X120514880Y-121669551D02*
X120467261Y-121764789D01*
X120467261Y-121764789D02*
X120419642Y-121812408D01*
X120419642Y-121812408D02*
X120324404Y-121860027D01*
X120324404Y-121860027D02*
X120181547Y-121860027D01*
X120181547Y-121860027D02*
X120086309Y-121812408D01*
X120514880Y-121479075D02*
X120419642Y-121526694D01*
X120419642Y-121526694D02*
X120229166Y-121526694D01*
X120229166Y-121526694D02*
X120133928Y-121479075D01*
X120133928Y-121479075D02*
X120086309Y-121431455D01*
X120086309Y-121431455D02*
X120038690Y-121336217D01*
X120038690Y-121336217D02*
X120038690Y-121050503D01*
X120038690Y-121050503D02*
X120086309Y-120955265D01*
X120086309Y-120955265D02*
X120133928Y-120907646D01*
X120133928Y-120907646D02*
X120229166Y-120860027D01*
X120229166Y-120860027D02*
X120419642Y-120860027D01*
X120419642Y-120860027D02*
X120514880Y-120907646D01*
X120991071Y-121526694D02*
X120991071Y-120526694D01*
X120991071Y-121002884D02*
X121562499Y-121002884D01*
X121562499Y-121526694D02*
X121562499Y-120526694D01*
X122181547Y-121526694D02*
X122086309Y-121479075D01*
X122086309Y-121479075D02*
X122038690Y-121431455D01*
X122038690Y-121431455D02*
X121991071Y-121336217D01*
X121991071Y-121336217D02*
X121991071Y-121050503D01*
X121991071Y-121050503D02*
X122038690Y-120955265D01*
X122038690Y-120955265D02*
X122086309Y-120907646D01*
X122086309Y-120907646D02*
X122181547Y-120860027D01*
X122181547Y-120860027D02*
X122324404Y-120860027D01*
X122324404Y-120860027D02*
X122419642Y-120907646D01*
X122419642Y-120907646D02*
X122467261Y-120955265D01*
X122467261Y-120955265D02*
X122514880Y-121050503D01*
X122514880Y-121050503D02*
X122514880Y-121336217D01*
X122514880Y-121336217D02*
X122467261Y-121431455D01*
X122467261Y-121431455D02*
X122419642Y-121479075D01*
X122419642Y-121479075D02*
X122324404Y-121526694D01*
X122324404Y-121526694D02*
X122181547Y-121526694D01*
X123086309Y-121526694D02*
X122991071Y-121479075D01*
X122991071Y-121479075D02*
X122943452Y-121383836D01*
X122943452Y-121383836D02*
X122943452Y-120526694D01*
X123848214Y-121479075D02*
X123752976Y-121526694D01*
X123752976Y-121526694D02*
X123562500Y-121526694D01*
X123562500Y-121526694D02*
X123467262Y-121479075D01*
X123467262Y-121479075D02*
X123419643Y-121383836D01*
X123419643Y-121383836D02*
X123419643Y-121002884D01*
X123419643Y-121002884D02*
X123467262Y-120907646D01*
X123467262Y-120907646D02*
X123562500Y-120860027D01*
X123562500Y-120860027D02*
X123752976Y-120860027D01*
X123752976Y-120860027D02*
X123848214Y-120907646D01*
X123848214Y-120907646D02*
X123895833Y-121002884D01*
X123895833Y-121002884D02*
X123895833Y-121098122D01*
X123895833Y-121098122D02*
X123419643Y-121193360D01*
X118300595Y-118326694D02*
X118300595Y-117326694D01*
X118300595Y-117802884D02*
X118872023Y-117802884D01*
X118872023Y-118326694D02*
X118872023Y-117326694D01*
X119252976Y-117326694D02*
X119872023Y-117326694D01*
X119872023Y-117326694D02*
X119538690Y-117707646D01*
X119538690Y-117707646D02*
X119681547Y-117707646D01*
X119681547Y-117707646D02*
X119776785Y-117755265D01*
X119776785Y-117755265D02*
X119824404Y-117802884D01*
X119824404Y-117802884D02*
X119872023Y-117898122D01*
X119872023Y-117898122D02*
X119872023Y-118136217D01*
X119872023Y-118136217D02*
X119824404Y-118231455D01*
X119824404Y-118231455D02*
X119776785Y-118279075D01*
X119776785Y-118279075D02*
X119681547Y-118326694D01*
X119681547Y-118326694D02*
X119395833Y-118326694D01*
X119395833Y-118326694D02*
X119300595Y-118279075D01*
X119300595Y-118279075D02*
X119252976Y-118231455D01*
D11*
X92928572Y-159499757D02*
X92785715Y-159428328D01*
X92785715Y-159428328D02*
X92571429Y-159428328D01*
X92571429Y-159428328D02*
X92357143Y-159499757D01*
X92357143Y-159499757D02*
X92214286Y-159642614D01*
X92214286Y-159642614D02*
X92142857Y-159785471D01*
X92142857Y-159785471D02*
X92071429Y-160071185D01*
X92071429Y-160071185D02*
X92071429Y-160285471D01*
X92071429Y-160285471D02*
X92142857Y-160571185D01*
X92142857Y-160571185D02*
X92214286Y-160714042D01*
X92214286Y-160714042D02*
X92357143Y-160856900D01*
X92357143Y-160856900D02*
X92571429Y-160928328D01*
X92571429Y-160928328D02*
X92714286Y-160928328D01*
X92714286Y-160928328D02*
X92928572Y-160856900D01*
X92928572Y-160856900D02*
X93000000Y-160785471D01*
X93000000Y-160785471D02*
X93000000Y-160285471D01*
X93000000Y-160285471D02*
X92714286Y-160285471D01*
X93857143Y-159428328D02*
X93857143Y-159785471D01*
X93500000Y-159642614D02*
X93857143Y-159785471D01*
X93857143Y-159785471D02*
X94214286Y-159642614D01*
X93642857Y-160071185D02*
X93857143Y-159785471D01*
X93857143Y-159785471D02*
X94071429Y-160071185D01*
X95000000Y-159428328D02*
X95000000Y-159785471D01*
X94642857Y-159642614D02*
X95000000Y-159785471D01*
X95000000Y-159785471D02*
X95357143Y-159642614D01*
X94785714Y-160071185D02*
X95000000Y-159785471D01*
X95000000Y-159785471D02*
X95214286Y-160071185D01*
X96142857Y-159428328D02*
X96142857Y-159785471D01*
X95785714Y-159642614D02*
X96142857Y-159785471D01*
X96142857Y-159785471D02*
X96500000Y-159642614D01*
X95928571Y-160071185D02*
X96142857Y-159785471D01*
X96142857Y-159785471D02*
X96357143Y-160071185D01*
D10*
X290941220Y-115504819D02*
X290941220Y-114504819D01*
X290941220Y-114981009D02*
X291512648Y-114981009D01*
X291512648Y-115504819D02*
X291512648Y-114504819D01*
X292417410Y-114504819D02*
X292226934Y-114504819D01*
X292226934Y-114504819D02*
X292131696Y-114552438D01*
X292131696Y-114552438D02*
X292084077Y-114600057D01*
X292084077Y-114600057D02*
X291988839Y-114742914D01*
X291988839Y-114742914D02*
X291941220Y-114933390D01*
X291941220Y-114933390D02*
X291941220Y-115314342D01*
X291941220Y-115314342D02*
X291988839Y-115409580D01*
X291988839Y-115409580D02*
X292036458Y-115457200D01*
X292036458Y-115457200D02*
X292131696Y-115504819D01*
X292131696Y-115504819D02*
X292322172Y-115504819D01*
X292322172Y-115504819D02*
X292417410Y-115457200D01*
X292417410Y-115457200D02*
X292465029Y-115409580D01*
X292465029Y-115409580D02*
X292512648Y-115314342D01*
X292512648Y-115314342D02*
X292512648Y-115076247D01*
X292512648Y-115076247D02*
X292465029Y-114981009D01*
X292465029Y-114981009D02*
X292417410Y-114933390D01*
X292417410Y-114933390D02*
X292322172Y-114885771D01*
X292322172Y-114885771D02*
X292131696Y-114885771D01*
X292131696Y-114885771D02*
X292036458Y-114933390D01*
X292036458Y-114933390D02*
X291988839Y-114981009D01*
X291988839Y-114981009D02*
X291941220Y-115076247D01*
X286917410Y-121904819D02*
X286917410Y-120904819D01*
X286917410Y-120904819D02*
X287250743Y-121619104D01*
X287250743Y-121619104D02*
X287584076Y-120904819D01*
X287584076Y-120904819D02*
X287584076Y-121904819D01*
X288203124Y-121904819D02*
X288107886Y-121857200D01*
X288107886Y-121857200D02*
X288060267Y-121809580D01*
X288060267Y-121809580D02*
X288012648Y-121714342D01*
X288012648Y-121714342D02*
X288012648Y-121428628D01*
X288012648Y-121428628D02*
X288060267Y-121333390D01*
X288060267Y-121333390D02*
X288107886Y-121285771D01*
X288107886Y-121285771D02*
X288203124Y-121238152D01*
X288203124Y-121238152D02*
X288345981Y-121238152D01*
X288345981Y-121238152D02*
X288441219Y-121285771D01*
X288441219Y-121285771D02*
X288488838Y-121333390D01*
X288488838Y-121333390D02*
X288536457Y-121428628D01*
X288536457Y-121428628D02*
X288536457Y-121714342D01*
X288536457Y-121714342D02*
X288488838Y-121809580D01*
X288488838Y-121809580D02*
X288441219Y-121857200D01*
X288441219Y-121857200D02*
X288345981Y-121904819D01*
X288345981Y-121904819D02*
X288203124Y-121904819D01*
X289393600Y-121238152D02*
X289393600Y-121904819D01*
X288965029Y-121238152D02*
X288965029Y-121761961D01*
X288965029Y-121761961D02*
X289012648Y-121857200D01*
X289012648Y-121857200D02*
X289107886Y-121904819D01*
X289107886Y-121904819D02*
X289250743Y-121904819D01*
X289250743Y-121904819D02*
X289345981Y-121857200D01*
X289345981Y-121857200D02*
X289393600Y-121809580D01*
X289869791Y-121238152D02*
X289869791Y-121904819D01*
X289869791Y-121333390D02*
X289917410Y-121285771D01*
X289917410Y-121285771D02*
X290012648Y-121238152D01*
X290012648Y-121238152D02*
X290155505Y-121238152D01*
X290155505Y-121238152D02*
X290250743Y-121285771D01*
X290250743Y-121285771D02*
X290298362Y-121381009D01*
X290298362Y-121381009D02*
X290298362Y-121904819D01*
X290631696Y-121238152D02*
X291012648Y-121238152D01*
X290774553Y-120904819D02*
X290774553Y-121761961D01*
X290774553Y-121761961D02*
X290822172Y-121857200D01*
X290822172Y-121857200D02*
X290917410Y-121904819D01*
X290917410Y-121904819D02*
X291012648Y-121904819D01*
X291345982Y-121904819D02*
X291345982Y-121238152D01*
X291345982Y-120904819D02*
X291298363Y-120952438D01*
X291298363Y-120952438D02*
X291345982Y-121000057D01*
X291345982Y-121000057D02*
X291393601Y-120952438D01*
X291393601Y-120952438D02*
X291345982Y-120904819D01*
X291345982Y-120904819D02*
X291345982Y-121000057D01*
X291822172Y-121238152D02*
X291822172Y-121904819D01*
X291822172Y-121333390D02*
X291869791Y-121285771D01*
X291869791Y-121285771D02*
X291965029Y-121238152D01*
X291965029Y-121238152D02*
X292107886Y-121238152D01*
X292107886Y-121238152D02*
X292203124Y-121285771D01*
X292203124Y-121285771D02*
X292250743Y-121381009D01*
X292250743Y-121381009D02*
X292250743Y-121904819D01*
X293155505Y-121238152D02*
X293155505Y-122047676D01*
X293155505Y-122047676D02*
X293107886Y-122142914D01*
X293107886Y-122142914D02*
X293060267Y-122190533D01*
X293060267Y-122190533D02*
X292965029Y-122238152D01*
X292965029Y-122238152D02*
X292822172Y-122238152D01*
X292822172Y-122238152D02*
X292726934Y-122190533D01*
X293155505Y-121857200D02*
X293060267Y-121904819D01*
X293060267Y-121904819D02*
X292869791Y-121904819D01*
X292869791Y-121904819D02*
X292774553Y-121857200D01*
X292774553Y-121857200D02*
X292726934Y-121809580D01*
X292726934Y-121809580D02*
X292679315Y-121714342D01*
X292679315Y-121714342D02*
X292679315Y-121428628D01*
X292679315Y-121428628D02*
X292726934Y-121333390D01*
X292726934Y-121333390D02*
X292774553Y-121285771D01*
X292774553Y-121285771D02*
X292869791Y-121238152D01*
X292869791Y-121238152D02*
X293060267Y-121238152D01*
X293060267Y-121238152D02*
X293155505Y-121285771D01*
X293631696Y-121904819D02*
X293631696Y-120904819D01*
X293631696Y-121381009D02*
X294203124Y-121381009D01*
X294203124Y-121904819D02*
X294203124Y-120904819D01*
X294822172Y-121904819D02*
X294726934Y-121857200D01*
X294726934Y-121857200D02*
X294679315Y-121809580D01*
X294679315Y-121809580D02*
X294631696Y-121714342D01*
X294631696Y-121714342D02*
X294631696Y-121428628D01*
X294631696Y-121428628D02*
X294679315Y-121333390D01*
X294679315Y-121333390D02*
X294726934Y-121285771D01*
X294726934Y-121285771D02*
X294822172Y-121238152D01*
X294822172Y-121238152D02*
X294965029Y-121238152D01*
X294965029Y-121238152D02*
X295060267Y-121285771D01*
X295060267Y-121285771D02*
X295107886Y-121333390D01*
X295107886Y-121333390D02*
X295155505Y-121428628D01*
X295155505Y-121428628D02*
X295155505Y-121714342D01*
X295155505Y-121714342D02*
X295107886Y-121809580D01*
X295107886Y-121809580D02*
X295060267Y-121857200D01*
X295060267Y-121857200D02*
X294965029Y-121904819D01*
X294965029Y-121904819D02*
X294822172Y-121904819D01*
X295726934Y-121904819D02*
X295631696Y-121857200D01*
X295631696Y-121857200D02*
X295584077Y-121761961D01*
X295584077Y-121761961D02*
X295584077Y-120904819D01*
X296488839Y-121857200D02*
X296393601Y-121904819D01*
X296393601Y-121904819D02*
X296203125Y-121904819D01*
X296203125Y-121904819D02*
X296107887Y-121857200D01*
X296107887Y-121857200D02*
X296060268Y-121761961D01*
X296060268Y-121761961D02*
X296060268Y-121381009D01*
X296060268Y-121381009D02*
X296107887Y-121285771D01*
X296107887Y-121285771D02*
X296203125Y-121238152D01*
X296203125Y-121238152D02*
X296393601Y-121238152D01*
X296393601Y-121238152D02*
X296488839Y-121285771D01*
X296488839Y-121285771D02*
X296536458Y-121381009D01*
X296536458Y-121381009D02*
X296536458Y-121476247D01*
X296536458Y-121476247D02*
X296060268Y-121571485D01*
X290941220Y-118704819D02*
X290941220Y-117704819D01*
X290941220Y-118181009D02*
X291512648Y-118181009D01*
X291512648Y-118704819D02*
X291512648Y-117704819D01*
X292417410Y-117704819D02*
X292226934Y-117704819D01*
X292226934Y-117704819D02*
X292131696Y-117752438D01*
X292131696Y-117752438D02*
X292084077Y-117800057D01*
X292084077Y-117800057D02*
X291988839Y-117942914D01*
X291988839Y-117942914D02*
X291941220Y-118133390D01*
X291941220Y-118133390D02*
X291941220Y-118514342D01*
X291941220Y-118514342D02*
X291988839Y-118609580D01*
X291988839Y-118609580D02*
X292036458Y-118657200D01*
X292036458Y-118657200D02*
X292131696Y-118704819D01*
X292131696Y-118704819D02*
X292322172Y-118704819D01*
X292322172Y-118704819D02*
X292417410Y-118657200D01*
X292417410Y-118657200D02*
X292465029Y-118609580D01*
X292465029Y-118609580D02*
X292512648Y-118514342D01*
X292512648Y-118514342D02*
X292512648Y-118276247D01*
X292512648Y-118276247D02*
X292465029Y-118181009D01*
X292465029Y-118181009D02*
X292417410Y-118133390D01*
X292417410Y-118133390D02*
X292322172Y-118085771D01*
X292322172Y-118085771D02*
X292131696Y-118085771D01*
X292131696Y-118085771D02*
X292036458Y-118133390D01*
X292036458Y-118133390D02*
X291988839Y-118181009D01*
X291988839Y-118181009D02*
X291941220Y-118276247D01*
M02*
