<?xml version="1.0" standalone="no"?>
 <!DOCTYPE svg PUBLIC "-//W3C//DTD SVG 1.1//EN" 
 "http://www.w3.org/Graphics/SVG/1.1/DTD/svg11.dtd"> 
<svg
  xmlns:svg="http://www.w3.org/2000/svg"
  xmlns="http://www.w3.org/2000/svg"
  xmlns:xlink="http://www.w3.org/1999/xlink"
  version="1.1"
  width="419.989000mm" height="297.002200mm" viewBox="0.000000 0.000000 419.989000 297.002200">
<title>SVG Image created as Lexicon 69-B_Fab.svg date 2024/05/23 08:21:28 </title>
  <desc>Image generated by PCBNEW </desc>
<g style="fill:#000000; fill-opacity:1.000000;stroke:#000000; stroke-opacity:1.000000;
stroke-linecap:round; stroke-linejoin:round;"
 transform="translate(0 0) scale(1 1)">
</g>
<g style="fill:none; 
stroke:#000000; stroke-width:0.300000; stroke-opacity:1; 
stroke-linecap:round; stroke-linejoin:round;">
<text x="209.750000" y="119.500000"
transform="scale(-1 1) translate(-419.500000 0)"
textLength="5.528571" font-size="2.000000" lengthAdjust="spacingAndGlyphs"
text-anchor="middle" opacity="0">G***</text>
<g class="stroked-text"><desc>G***</desc>
<path d="M211.071427 117.999757
L211.214285 117.928328
" />
<path d="M211.214285 117.928328
L211.428570 117.928328
" />
<path d="M211.428570 117.928328
L211.642856 117.999757
" />
<path d="M211.642856 117.999757
L211.785713 118.142614
" />
<path d="M211.785713 118.142614
L211.857142 118.285471
" />
<path d="M211.857142 118.285471
L211.928570 118.571185
" />
<path d="M211.928570 118.571185
L211.928570 118.785471
" />
<path d="M211.928570 118.785471
L211.857142 119.071185
" />
<path d="M211.857142 119.071185
L211.785713 119.214042
" />
<path d="M211.785713 119.214042
L211.642856 119.356900
" />
<path d="M211.642856 119.356900
L211.428570 119.428328
" />
<path d="M211.428570 119.428328
L211.285713 119.428328
" />
<path d="M211.285713 119.428328
L211.071427 119.356900
" />
<path d="M211.071427 119.356900
L210.999999 119.285471
" />
<path d="M210.999999 119.285471
L210.999999 118.785471
" />
<path d="M210.999999 118.785471
L211.285713 118.785471
" />
<path d="M210.142856 117.928328
L210.142856 118.285471
" />
<path d="M210.499999 118.142614
L210.142856 118.285471
" />
<path d="M210.142856 118.285471
L209.785713 118.142614
" />
<path d="M210.357142 118.571185
L210.142856 118.285471
" />
<path d="M210.142856 118.285471
L209.928570 118.571185
" />
<path d="M208.999999 117.928328
L208.999999 118.285471
" />
<path d="M209.357142 118.142614
L208.999999 118.285471
" />
<path d="M208.999999 118.285471
L208.642856 118.142614
" />
<path d="M209.214285 118.571185
L208.999999 118.285471
" />
<path d="M208.999999 118.285471
L208.785713 118.571185
" />
<path d="M207.857142 117.928328
L207.857142 118.285471
" />
<path d="M208.214285 118.142614
L207.857142 118.285471
" />
<path d="M207.857142 118.285471
L207.499999 118.142614
" />
<path d="M208.071428 118.571185
L207.857142 118.285471
" />
<path d="M207.857142 118.285471
L207.642856 118.571185
" />
</g></g> 
</svg>
