<?xml version="1.0" standalone="no"?>
 <!DOCTYPE svg PUBLIC "-//W3C//DTD SVG 1.1//EN" 
 "http://www.w3.org/Graphics/SVG/1.1/DTD/svg11.dtd"> 
<svg
  xmlns:svg="http://www.w3.org/2000/svg"
  xmlns="http://www.w3.org/2000/svg"
  xmlns:xlink="http://www.w3.org/1999/xlink"
  version="1.1"
  width="419.989000mm" height="297.002200mm" viewBox="0.000000 0.000000 419.989000 297.002200">
<title>SVG Image created as Lexicon 69-F_Silkscreen.svg date 2024/05/23 08:21:27 </title>
  <desc>Image generated by PCBNEW </desc>
<g style="fill:#000000; fill-opacity:1.000000;stroke:#000000; stroke-opacity:1.000000;
stroke-linecap:round; stroke-linejoin:round;"
 transform="translate(0 0) scale(1 1)">
<path style="fill:#000000; fill-opacity:1.000000; stroke:none;fill-rule:evenodd;"
d="M 98.561728,158.211729
98.561728,158.682099
97.954166,158.682099
97.346605,158.682099
97.346605,158.211729
97.346605,157.741358
97.954166,157.741358
98.561728,157.741358
Z" /> 
<path style="fill:#000000; fill-opacity:1.000000; stroke:none;fill-rule:evenodd;"
d="M 98.561728,161.033951
98.561728,162.915432
97.954166,162.915432
97.346605,162.915432
97.346605,161.033951
97.346605,159.152469
97.954166,159.152469
98.561728,159.152469
Z" /> 
<path style="fill:#000000; fill-opacity:1.000000; stroke:none;fill-rule:evenodd;"
d="M 110.695094,159.068262
110.933809,159.112619
111.132672,159.194056
111.308827,159.318377
111.383720,159.388320
111.507710,159.529671
111.592031,159.676644
111.650591,159.837576
111.672154,159.911687
111.689553,159.986018
111.703233,160.069659
111.713635,160.171702
111.721205,160.301236
111.726385,160.467354
111.729618,160.679146
111.731349,160.945703
111.732020,161.276117
111.732099,161.508450
111.732099,162.915432
111.104938,162.915432
110.477778,162.915432
110.477778,161.699050
110.477157,161.325590
110.474482,161.022368
110.468530,160.781233
110.458082,160.594031
110.441916,160.452612
110.418810,160.348823
110.387545,160.274512
110.346899,160.221526
110.295651,160.181714
110.246356,160.153953
110.026705,160.078712
109.810689,160.075086
109.611405,160.139416
109.441953,160.268044
109.341049,160.406790
109.313081,160.458701
109.290915,160.508738
109.273765,160.566464
109.260842,160.641446
109.251362,160.743245
109.244538,160.881427
109.239582,161.065556
109.235708,161.305195
109.232130,161.609910
109.230636,161.749306
109.218216,162.915432
108.593676,162.915432
107.969136,162.915432
107.969136,161.033951
107.969136,159.152469
108.576697,159.152469
109.184259,159.152469
109.184259,159.395980
109.184259,159.639492
109.370447,159.456717
109.514242,159.336341
109.684941,159.222190
109.791821,159.164918
109.918001,159.111294
110.031405,159.078490
110.159364,159.061569
110.329210,159.055595
110.399383,159.055184
Z" /> 
<path style="fill:#000000; fill-opacity:1.000000; stroke:none;fill-rule:evenodd;"
d="M 94.680609,159.582676
94.776367,159.742681
94.858792,159.872383
94.919862,159.959729
94.951551,159.992667
94.953255,159.992189
94.980766,159.952149
95.039327,159.858600
95.120265,159.725621
95.212244,159.571782
95.449333,159.172068
96.103988,159.161321
96.320596,159.158800
96.506951,159.158605
96.650217,159.160589
96.737558,159.164604
96.758642,159.168854
96.737993,159.205164
96.679793,159.298172
96.589664,159.439138
96.473226,159.619321
96.336099,159.829981
96.188038,160.056087
95.617434,160.925042
96.288146,161.920237
96.958858,162.915432
96.260114,162.915432
95.561370,162.915432
95.248663,162.387846
95.131050,162.186472
95.043959,162.043302
94.976821,161.959388
94.919069,161.935785
94.860134,161.973545
94.789447,162.073724
94.696440,162.237375
94.576517,162.454861
94.319397,162.915432
93.637939,162.915432
93.416654,162.914499
93.225375,162.911909
93.076689,162.907980
92.983180,162.903029
92.956481,162.898284
92.977174,162.862404
93.035636,162.769502
93.126443,162.627979
93.244171,162.446234
93.383398,162.232669
93.538697,161.995683
93.570204,161.947744
93.729151,161.704778
93.873847,161.481245
93.998664,161.286027
94.097975,161.128008
94.166151,161.016069
94.197565,160.959094
94.198834,160.955556
94.181736,160.908521
94.125942,160.805894
94.037024,160.656783
93.920554,160.470294
93.782104,160.255535
93.629257,160.024614
93.044773,159.152469
93.737318,159.152469
94.429863,159.152469
Z" /> 
<path style="fill:#000000; fill-opacity:1.000000; stroke:none;fill-rule:evenodd;"
d="M 105.521749,159.047576
105.911898,159.110211
106.268983,159.239158
106.586394,159.429087
106.857524,159.674668
107.075763,159.970574
107.234505,160.311474
107.281889,160.466957
107.322151,160.698164
107.339066,160.970565
107.332634,161.250519
107.302854,161.504383
107.281889,161.600945
107.152544,161.950379
106.961757,162.258881
106.717557,162.521841
106.427975,162.734649
106.101040,162.892695
105.744783,162.991369
105.367235,163.026061
104.976424,162.992161
104.888638,162.974861
104.531791,162.859974
104.216351,162.684445
103.945932,162.456318
103.724145,162.183634
103.554605,161.874436
103.440924,161.536766
103.386717,161.178666
103.390185,161.033951
104.656944,161.033951
104.660026,161.239294
104.671327,161.388308
104.693929,161.502892
104.730916,161.604941
104.740241,161.625623
104.859208,161.824124
105.002705,161.967254
105.088117,162.017380
105.213795,162.044831
105.379294,162.044889
105.552396,162.021077
105.700880,161.976914
105.762578,161.943680
105.894568,161.805479
105.995625,161.610817
106.063554,161.376169
106.096162,161.118011
106.091256,160.852818
106.046643,160.597066
105.969836,160.386725
105.841371,160.195994
105.672236,160.072179
105.460717,160.014208
105.365497,160.009215
105.154542,160.032180
104.989874,160.107306
104.857136,160.243939
104.766628,160.399020
104.716130,160.509468
104.683950,160.607939
104.666053,160.717791
104.658403,160.862380
104.656944,161.033951
103.390185,161.033951
103.395596,160.808180
103.471175,160.433348
103.597839,160.101821
103.789376,159.785568
104.036646,159.519701
104.332072,159.308373
104.668078,159.155734
105.037085,159.065937
105.431516,159.043135
Z" /> 
<path style="fill:#000000; fill-opacity:1.000000; stroke:none;fill-rule:evenodd;"
d="M 101.480101,159.070877
101.824265,159.163128
102.135987,159.310177
102.406785,159.504260
102.628176,159.737617
102.791677,160.002485
102.888805,160.291103
102.902599,160.372461
102.922976,160.524383
102.310253,160.524383
102.077820,160.523689
101.912522,160.520768
101.803103,160.514359
101.738310,160.503203
101.706888,160.486041
101.697582,160.461612
101.697384,160.455787
101.666884,160.344786
101.589415,160.221974
101.485415,160.115575
101.419122,160.071529
101.272480,160.026240
101.089932,160.011036
100.907629,160.025962
100.762394,160.070714
100.605827,160.188595
100.476846,160.354040
100.405409,160.515801
100.348119,160.809232
100.337334,161.098480
100.370026,161.370811
100.443169,161.613491
100.553737,161.813788
100.698702,161.958967
100.756870,161.994332
100.901100,162.037887
101.082408,162.050764
101.265827,162.033189
101.406807,161.990117
101.547045,161.884897
101.658511,161.726962
101.721948,161.548822
101.746528,161.425926
102.349190,161.425926
102.589887,161.425632
102.761353,161.429305
102.872697,161.443780
102.933030,161.475890
102.951463,161.532470
102.937106,161.620352
102.899069,161.746372
102.875584,161.820780
102.768062,162.079469
102.616845,162.325314
102.440029,162.530655
102.371763,162.590811
102.060792,162.791856
101.709382,162.932834
101.330633,163.010941
100.937647,163.023373
100.576910,162.974861
100.207090,162.856437
99.879684,162.673596
99.599748,162.430841
99.372340,162.132678
99.202516,161.783612
99.185047,161.735060
99.109938,161.412618
99.090662,161.057489
99.125441,160.690153
99.212494,160.331089
99.332819,160.034425
99.525573,159.732931
99.773937,159.480547
100.069594,159.281004
100.404225,159.138036
100.769515,159.055374
101.157145,159.036751
Z" /> 
<path style="fill:#000000; fill-opacity:1.000000; stroke:none;fill-rule:evenodd;"
d="M 91.348651,159.097832
91.674662,159.207728
91.974028,159.371698
92.237146,159.588607
92.454411,159.857321
92.543488,160.012015
92.651412,160.274220
92.735708,160.575282
92.787503,160.878229
92.799691,161.079419
92.799691,161.347531
91.427778,161.347531
91.056439,161.347182
90.756383,161.347152
90.520507,161.348962
90.341707,161.354136
90.212882,161.364197
90.126927,161.380669
90.076740,161.405073
90.055218,161.438933
90.055258,161.483773
90.069757,161.541114
90.091612,161.612481
90.097418,161.632785
90.187305,161.822343
90.335047,161.986518
90.520181,162.103416
90.547911,162.114760
90.753366,162.162622
90.968864,162.161329
91.175116,162.115837
91.352837,162.031104
91.482739,161.912085
91.511259,161.867194
91.532818,161.833005
91.563311,161.808988
91.615478,161.793350
91.702061,161.784296
91.835802,161.780035
92.029440,161.778772
92.139957,161.778704
92.378408,161.780404
92.547078,161.785986
92.654516,161.796171
92.709272,161.811679
92.720913,161.827701
92.696002,161.930075
92.630753,162.069452
92.537590,162.224855
92.428936,162.375304
92.330707,162.486606
92.067148,162.696912
91.752658,162.857841
91.399445,162.966483
91.019719,163.019928
90.625690,163.015264
90.310648,162.968224
89.933595,162.851613
89.604683,162.675007
89.327338,162.442803
89.104989,162.159400
88.941062,161.829196
88.838985,161.456588
88.802184,161.045974
88.802122,161.032387
88.833130,160.643499
88.852554,160.573380
90.056968,160.573380
90.062124,160.597221
90.085263,160.614825
90.136575,160.627126
90.226250,160.635058
90.364479,160.639555
90.561451,160.641549
90.805746,160.641976
91.555628,160.641976
91.531875,160.495605
91.471687,160.320391
91.359626,160.148126
91.217329,160.009000
91.153395,159.967515
90.970873,159.907551
90.762718,159.900703
90.558315,159.944236
90.387046,160.035418
90.382264,160.039236
90.275850,160.147391
90.176114,160.285531
90.098664,160.428026
90.059109,160.549246
90.056968,160.573380
88.852554,160.573380
88.930178,160.293159
89.096889,159.972484
89.336885,159.672592
89.370881,159.637478
89.655072,159.399127
89.970243,159.221652
90.306791,159.103918
90.655111,159.044793
91.005599,159.043142
Z" /> 
<path style="fill:#000000; fill-opacity:1.000000; stroke:none;fill-rule:evenodd;"
d="M 80.842433,155.582582
80.865245,155.676848
80.889446,155.816728
80.912744,155.994203
80.919013,156.051642
80.995484,156.661823
81.089632,157.195881
81.201441,157.653754
81.330895,158.035380
81.477978,158.340695
81.527748,158.420739
81.721307,158.653975
81.971722,158.865510
82.242920,159.029814
82.360708,159.081134
82.510933,159.135753
82.675685,159.188556
82.837055,159.234425
82.977132,159.268243
83.078008,159.284892
83.120803,159.280638
83.136535,159.231282
83.157076,159.121604
83.179438,158.969287
83.195473,158.838889
83.215700,158.668817
83.233899,158.530589
83.247766,158.440884
83.254007,158.415406
83.262342,158.447156
83.276433,158.542429
83.294355,158.686728
83.314178,158.865559
83.315348,158.876706
83.337245,159.076524
83.355942,159.211757
83.375203,159.295908
83.398792,159.342479
83.430473,159.364969
83.453479,159.372160
83.520096,159.384130
83.650079,159.403574
83.828976,159.428473
84.042337,159.456808
84.241346,159.482256
84.474941,159.511257
84.648232,159.533650
84.759011,159.551650
84.805068,159.567474
84.784191,159.583336
84.694171,159.601452
84.532798,159.624038
84.297861,159.653310
84.039043,159.685058
83.846809,159.709860
83.683088,159.732965
83.563415,159.752035
83.503326,159.764732
83.500077,159.766136
83.475333,159.807871
83.477035,159.893094
83.506541,160.031199
83.565210,160.231581
83.569231,160.244347
83.707443,160.589394
83.887487,160.871464
84.116604,161.097789
84.402036,161.275602
84.732541,161.406365
84.876935,161.451355
84.990132,161.485452
85.053456,161.503074
85.060202,161.504321
85.063712,161.466386
85.066987,161.357631
85.069959,161.185630
85.072556,160.957957
85.074706,160.682188
85.076341,160.365896
85.077388,160.016657
85.077777,159.642044
85.077778,159.622840
85.077778,157.741358
85.763734,157.741358
86.449691,157.741358
86.449691,159.716262
86.449691,161.691166
86.537886,161.714801
86.601028,161.721511
86.730395,161.727526
86.913814,161.732558
87.139117,161.736319
87.394131,161.738520
87.557021,161.738971
88.487963,161.739506
88.487963,162.327469
88.487963,162.915432
86.782870,162.915432
85.077778,162.915432
85.077778,162.425463
85.076460,162.239848
85.072864,162.086495
85.067520,161.980248
85.060961,161.935948
85.060202,161.935494
85.017290,161.946511
84.918291,161.975855
84.781786,162.017971
84.729697,162.034348
84.455126,162.137138
84.219754,162.263300
84.019696,162.419538
83.851069,162.612556
83.709989,162.849057
83.592573,163.135745
83.494936,163.479322
83.413196,163.886494
83.343468,164.363963
83.333553,164.444136
83.302024,164.697359
83.277612,164.876551
83.259622,164.985689
83.247359,165.028746
83.240129,165.009698
83.238588,164.987664
83.227569,164.861338
83.205243,164.676889
83.174526,164.453287
83.138333,164.209502
83.099578,163.964506
83.061178,163.737268
83.026047,163.546760
82.997099,163.411953
82.995458,163.405401
82.877907,163.031175
82.728130,162.723462
82.538073,162.474200
82.299685,162.275328
82.004912,162.118784
81.645702,161.996506
81.567654,161.976016
81.371205,161.927656
81.237104,161.902354
81.151618,161.904267
81.101012,161.937556
81.071552,162.006379
81.049502,162.114894
81.046148,162.133926
81.026121,162.261309
81.000467,162.444469
80.972147,162.661259
80.944125,162.889532
80.937342,162.947275
80.912000,163.152275
80.887257,163.329486
80.865370,163.464320
80.848593,163.542187
80.843428,163.554623
80.827802,163.534093
80.810118,163.451566
80.793567,163.323263
80.789472,163.280240
80.770124,163.092006
80.743529,162.876007
80.712062,162.647429
80.678099,162.421455
80.644014,162.213272
80.612184,162.038063
80.584984,161.911014
80.565515,161.848604
80.492895,161.792372
80.382494,161.776445
80.241359,161.766783
80.092634,161.746269
80.080092,161.743925
80.007154,161.728416
79.985303,161.716892
80.021962,161.706264
80.124555,161.693445
80.227083,161.682782
80.369984,161.664929
80.476762,161.645251
80.528659,161.627391
80.530864,161.623782
80.516882,161.555960
80.514761,161.549120
81.186302,161.549120
81.338753,161.521715
81.452507,161.496185
81.608359,161.454798
81.773934,161.406186
81.785185,161.402694
82.135771,161.259462
82.429219,161.067097
82.662305,160.828118
82.801375,160.608553
82.845253,160.507666
82.894201,160.372558
82.942412,160.222812
82.984083,160.078015
83.013406,159.957751
83.024577,159.881604
83.021452,159.866103
82.975621,159.867008
82.874745,159.890460
82.736882,159.930697
82.580093,159.981961
82.422440,160.038492
82.281981,160.094529
82.224439,160.120282
81.948549,160.290180
81.697505,160.522464
81.486379,160.801739
81.392680,160.969908
81.318541,161.129645
81.256868,161.278653
81.217751,161.391970
81.211189,161.418927
81.186302,161.549120
80.514761,161.549120
80.480158,161.437546
80.428524,161.290135
80.369812,161.135322
80.311856,160.994702
80.269751,160.903869
80.185499,160.763499
80.075478,160.612630
80.009045,160.534295
79.839580,160.371207
79.646106,160.229154
79.421064,160.105552
79.156896,159.997818
78.846044,159.903366
78.480951,159.819613
78.054058,159.743975
77.557808,159.673867
77.454674,159.660911
77.235890,159.633366
77.046058,159.608451
76.898053,159.587937
76.804755,159.573599
76.778171,159.567781
76.810208,159.559706
76.905541,159.545810
77.049458,159.528040
77.227245,159.508343
77.228127,159.508250
77.791175,159.438854
78.297009,159.355748
78.740942,159.260000
79.118291,159.152678
79.424368,159.034850
79.528171,158.983753
79.767279,158.831073
79.975406,158.641519
80.155255,158.409279
80.309533,158.128541
80.440942,157.793492
80.552187,157.398321
80.645974,156.937216
80.723722,156.414435
80.751484,156.189856
80.775187,155.984014
80.793080,155.813264
80.803409,155.693961
80.805247,155.653630
80.810142,155.562956
80.823302,155.541945
Z" /> 
</g> 
</svg>
