<?xml version="1.0" standalone="no"?>
 <!DOCTYPE svg PUBLIC "-//W3C//DTD SVG 1.1//EN" 
 "http://www.w3.org/Graphics/SVG/1.1/DTD/svg11.dtd"> 
<svg
  xmlns:svg="http://www.w3.org/2000/svg"
  xmlns="http://www.w3.org/2000/svg"
  xmlns:xlink="http://www.w3.org/1999/xlink"
  version="1.1"
  width="419.989000mm" height="297.002200mm" viewBox="0.000000 0.000000 419.989000 297.002200">
<title>SVG Image created as Lexicon 69-F_Fab.svg date 2024/05/23 08:21:28 </title>
  <desc>Image generated by PCBNEW </desc>
<g style="fill:#000000; fill-opacity:1.000000;stroke:#000000; stroke-opacity:1.000000;
stroke-linecap:round; stroke-linejoin:round;"
 transform="translate(0 0) scale(1 1)">
</g>
<g style="fill:none; 
stroke:#000000; stroke-width:0.150000; stroke-opacity:1; 
stroke-linecap:round; stroke-linejoin:round;">
<text x="195.262500" y="158.034375"
textLength="2.250000" font-size="1.333333" lengthAdjust="spacingAndGlyphs"
text-anchor="middle" opacity="0">H5</text>
<g class="stroked-text"><desc>H5</desc>
<path d="M194.500595 157.989194
L194.500595 156.989194
" />
<path d="M194.500595 157.465384
L195.072023 157.465384
" />
<path d="M195.072023 157.989194
L195.072023 156.989194
" />
<path d="M196.024404 156.989194
L195.548214 156.989194
" />
<path d="M195.548214 156.989194
L195.500595 157.465384
" />
<path d="M195.500595 157.465384
L195.548214 157.417765
" />
<path d="M195.548214 157.417765
L195.643452 157.370146
" />
<path d="M195.643452 157.370146
L195.881547 157.370146
" />
<path d="M195.881547 157.370146
L195.976785 157.417765
" />
<path d="M195.976785 157.417765
L196.024404 157.465384
" />
<path d="M196.024404 157.465384
L196.072023 157.560622
" />
<path d="M196.072023 157.560622
L196.072023 157.798717
" />
<path d="M196.072023 157.798717
L196.024404 157.893955
" />
<path d="M196.024404 157.893955
L195.976785 157.941575
" />
<path d="M195.976785 157.941575
L195.881547 157.989194
" />
<path d="M195.881547 157.989194
L195.643452 157.989194
" />
<path d="M195.643452 157.989194
L195.548214 157.941575
" />
<path d="M195.548214 157.941575
L195.500595 157.893955
" />
</g><text x="195.262500" y="164.434375"
textLength="10.297620" font-size="1.333333" lengthAdjust="spacingAndGlyphs"
text-anchor="middle" opacity="0">MountingHole</text>
<g class="stroked-text"><desc>MountingHole</desc>
<path d="M190.476785 164.389194
L190.476785 163.389194
" />
<path d="M190.476785 163.389194
L190.810118 164.103479
" />
<path d="M190.810118 164.103479
L191.143451 163.389194
" />
<path d="M191.143451 163.389194
L191.143451 164.389194
" />
<path d="M191.762499 164.389194
L191.667261 164.341575
" />
<path d="M191.667261 164.341575
L191.619642 164.293955
" />
<path d="M191.619642 164.293955
L191.572023 164.198717
" />
<path d="M191.572023 164.198717
L191.572023 163.913003
" />
<path d="M191.572023 163.913003
L191.619642 163.817765
" />
<path d="M191.619642 163.817765
L191.667261 163.770146
" />
<path d="M191.667261 163.770146
L191.762499 163.722527
" />
<path d="M191.762499 163.722527
L191.905356 163.722527
" />
<path d="M191.905356 163.722527
L192.000594 163.770146
" />
<path d="M192.000594 163.770146
L192.048213 163.817765
" />
<path d="M192.048213 163.817765
L192.095832 163.913003
" />
<path d="M192.095832 163.913003
L192.095832 164.198717
" />
<path d="M192.095832 164.198717
L192.048213 164.293955
" />
<path d="M192.048213 164.293955
L192.000594 164.341575
" />
<path d="M192.000594 164.341575
L191.905356 164.389194
" />
<path d="M191.905356 164.389194
L191.762499 164.389194
" />
<path d="M192.952975 163.722527
L192.952975 164.389194
" />
<path d="M192.524404 163.722527
L192.524404 164.246336
" />
<path d="M192.524404 164.246336
L192.572023 164.341575
" />
<path d="M192.572023 164.341575
L192.667261 164.389194
" />
<path d="M192.667261 164.389194
L192.810118 164.389194
" />
<path d="M192.810118 164.389194
L192.905356 164.341575
" />
<path d="M192.905356 164.341575
L192.952975 164.293955
" />
<path d="M193.429166 163.722527
L193.429166 164.389194
" />
<path d="M193.429166 163.817765
L193.476785 163.770146
" />
<path d="M193.476785 163.770146
L193.572023 163.722527
" />
<path d="M193.572023 163.722527
L193.714880 163.722527
" />
<path d="M193.714880 163.722527
L193.810118 163.770146
" />
<path d="M193.810118 163.770146
L193.857737 163.865384
" />
<path d="M193.857737 163.865384
L193.857737 164.389194
" />
<path d="M194.191071 163.722527
L194.572023 163.722527
" />
<path d="M194.333928 163.389194
L194.333928 164.246336
" />
<path d="M194.333928 164.246336
L194.381547 164.341575
" />
<path d="M194.381547 164.341575
L194.476785 164.389194
" />
<path d="M194.476785 164.389194
L194.572023 164.389194
" />
<path d="M194.905357 164.389194
L194.905357 163.722527
" />
<path d="M194.905357 163.389194
L194.857738 163.436813
" />
<path d="M194.857738 163.436813
L194.905357 163.484432
" />
<path d="M194.905357 163.484432
L194.952976 163.436813
" />
<path d="M194.952976 163.436813
L194.905357 163.389194
" />
<path d="M194.905357 163.389194
L194.905357 163.484432
" />
<path d="M195.381547 163.722527
L195.381547 164.389194
" />
<path d="M195.381547 163.817765
L195.429166 163.770146
" />
<path d="M195.429166 163.770146
L195.524404 163.722527
" />
<path d="M195.524404 163.722527
L195.667261 163.722527
" />
<path d="M195.667261 163.722527
L195.762499 163.770146
" />
<path d="M195.762499 163.770146
L195.810118 163.865384
" />
<path d="M195.810118 163.865384
L195.810118 164.389194
" />
<path d="M196.714880 163.722527
L196.714880 164.532051
" />
<path d="M196.714880 164.532051
L196.667261 164.627289
" />
<path d="M196.667261 164.627289
L196.619642 164.674908
" />
<path d="M196.619642 164.674908
L196.524404 164.722527
" />
<path d="M196.524404 164.722527
L196.381547 164.722527
" />
<path d="M196.381547 164.722527
L196.286309 164.674908
" />
<path d="M196.714880 164.341575
L196.619642 164.389194
" />
<path d="M196.619642 164.389194
L196.429166 164.389194
" />
<path d="M196.429166 164.389194
L196.333928 164.341575
" />
<path d="M196.333928 164.341575
L196.286309 164.293955
" />
<path d="M196.286309 164.293955
L196.238690 164.198717
" />
<path d="M196.238690 164.198717
L196.238690 163.913003
" />
<path d="M196.238690 163.913003
L196.286309 163.817765
" />
<path d="M196.286309 163.817765
L196.333928 163.770146
" />
<path d="M196.333928 163.770146
L196.429166 163.722527
" />
<path d="M196.429166 163.722527
L196.619642 163.722527
" />
<path d="M196.619642 163.722527
L196.714880 163.770146
" />
<path d="M197.191071 164.389194
L197.191071 163.389194
" />
<path d="M197.191071 163.865384
L197.762499 163.865384
" />
<path d="M197.762499 164.389194
L197.762499 163.389194
" />
<path d="M198.381547 164.389194
L198.286309 164.341575
" />
<path d="M198.286309 164.341575
L198.238690 164.293955
" />
<path d="M198.238690 164.293955
L198.191071 164.198717
" />
<path d="M198.191071 164.198717
L198.191071 163.913003
" />
<path d="M198.191071 163.913003
L198.238690 163.817765
" />
<path d="M198.238690 163.817765
L198.286309 163.770146
" />
<path d="M198.286309 163.770146
L198.381547 163.722527
" />
<path d="M198.381547 163.722527
L198.524404 163.722527
" />
<path d="M198.524404 163.722527
L198.619642 163.770146
" />
<path d="M198.619642 163.770146
L198.667261 163.817765
" />
<path d="M198.667261 163.817765
L198.714880 163.913003
" />
<path d="M198.714880 163.913003
L198.714880 164.198717
" />
<path d="M198.714880 164.198717
L198.667261 164.293955
" />
<path d="M198.667261 164.293955
L198.619642 164.341575
" />
<path d="M198.619642 164.341575
L198.524404 164.389194
" />
<path d="M198.524404 164.389194
L198.381547 164.389194
" />
<path d="M199.286309 164.389194
L199.191071 164.341575
" />
<path d="M199.191071 164.341575
L199.143452 164.246336
" />
<path d="M199.143452 164.246336
L199.143452 163.389194
" />
<path d="M200.048214 164.341575
L199.952976 164.389194
" />
<path d="M199.952976 164.389194
L199.762500 164.389194
" />
<path d="M199.762500 164.389194
L199.667262 164.341575
" />
<path d="M199.667262 164.341575
L199.619643 164.246336
" />
<path d="M199.619643 164.246336
L199.619643 163.865384
" />
<path d="M199.619643 163.865384
L199.667262 163.770146
" />
<path d="M199.667262 163.770146
L199.762500 163.722527
" />
<path d="M199.762500 163.722527
L199.952976 163.722527
" />
<path d="M199.952976 163.722527
L200.048214 163.770146
" />
<path d="M200.048214 163.770146
L200.095833 163.865384
" />
<path d="M200.095833 163.865384
L200.095833 163.960622
" />
<path d="M200.095833 163.960622
L199.619643 164.055860
" />
</g><text x="195.262500" y="161.234375"
textLength="2.250000" font-size="1.333333" lengthAdjust="spacingAndGlyphs"
text-anchor="middle" opacity="0">H5</text>
<g class="stroked-text"><desc>H5</desc>
<path d="M194.500595 161.189194
L194.500595 160.189194
" />
<path d="M194.500595 160.665384
L195.072023 160.665384
" />
<path d="M195.072023 161.189194
L195.072023 160.189194
" />
<path d="M196.024404 160.189194
L195.548214 160.189194
" />
<path d="M195.548214 160.189194
L195.500595 160.665384
" />
<path d="M195.500595 160.665384
L195.548214 160.617765
" />
<path d="M195.548214 160.617765
L195.643452 160.570146
" />
<path d="M195.643452 160.570146
L195.881547 160.570146
" />
<path d="M195.881547 160.570146
L195.976785 160.617765
" />
<path d="M195.976785 160.617765
L196.024404 160.665384
" />
<path d="M196.024404 160.665384
L196.072023 160.760622
" />
<path d="M196.072023 160.760622
L196.072023 160.998717
" />
<path d="M196.072023 160.998717
L196.024404 161.093955
" />
<path d="M196.024404 161.093955
L195.976785 161.141575
" />
<path d="M195.976785 161.141575
L195.881547 161.189194
" />
<path d="M195.881547 161.189194
L195.643452 161.189194
" />
<path d="M195.643452 161.189194
L195.548214 161.141575
" />
<path d="M195.548214 161.141575
L195.500595 161.093955
" />
</g><text x="366.712500" y="73.500000"
textLength="2.250000" font-size="1.333333" lengthAdjust="spacingAndGlyphs"
text-anchor="middle" opacity="0">H7</text>
<g class="stroked-text"><desc>H7</desc>
<path d="M365.950595 73.454819
L365.950595 72.454819
" />
<path d="M365.950595 72.931009
L366.522023 72.931009
" />
<path d="M366.522023 73.454819
L366.522023 72.454819
" />
<path d="M366.902976 72.454819
L367.569642 72.454819
" />
<path d="M367.569642 72.454819
L367.141071 73.454819
" />
</g><text x="366.712500" y="79.900000"
textLength="10.297620" font-size="1.333333" lengthAdjust="spacingAndGlyphs"
text-anchor="middle" opacity="0">MountingHole</text>
<g class="stroked-text"><desc>MountingHole</desc>
<path d="M361.926785 79.854819
L361.926785 78.854819
" />
<path d="M361.926785 78.854819
L362.260118 79.569104
" />
<path d="M362.260118 79.569104
L362.593451 78.854819
" />
<path d="M362.593451 78.854819
L362.593451 79.854819
" />
<path d="M363.212499 79.854819
L363.117261 79.807200
" />
<path d="M363.117261 79.807200
L363.069642 79.759580
" />
<path d="M363.069642 79.759580
L363.022023 79.664342
" />
<path d="M363.022023 79.664342
L363.022023 79.378628
" />
<path d="M363.022023 79.378628
L363.069642 79.283390
" />
<path d="M363.069642 79.283390
L363.117261 79.235771
" />
<path d="M363.117261 79.235771
L363.212499 79.188152
" />
<path d="M363.212499 79.188152
L363.355356 79.188152
" />
<path d="M363.355356 79.188152
L363.450594 79.235771
" />
<path d="M363.450594 79.235771
L363.498213 79.283390
" />
<path d="M363.498213 79.283390
L363.545832 79.378628
" />
<path d="M363.545832 79.378628
L363.545832 79.664342
" />
<path d="M363.545832 79.664342
L363.498213 79.759580
" />
<path d="M363.498213 79.759580
L363.450594 79.807200
" />
<path d="M363.450594 79.807200
L363.355356 79.854819
" />
<path d="M363.355356 79.854819
L363.212499 79.854819
" />
<path d="M364.402975 79.188152
L364.402975 79.854819
" />
<path d="M363.974404 79.188152
L363.974404 79.711961
" />
<path d="M363.974404 79.711961
L364.022023 79.807200
" />
<path d="M364.022023 79.807200
L364.117261 79.854819
" />
<path d="M364.117261 79.854819
L364.260118 79.854819
" />
<path d="M364.260118 79.854819
L364.355356 79.807200
" />
<path d="M364.355356 79.807200
L364.402975 79.759580
" />
<path d="M364.879166 79.188152
L364.879166 79.854819
" />
<path d="M364.879166 79.283390
L364.926785 79.235771
" />
<path d="M364.926785 79.235771
L365.022023 79.188152
" />
<path d="M365.022023 79.188152
L365.164880 79.188152
" />
<path d="M365.164880 79.188152
L365.260118 79.235771
" />
<path d="M365.260118 79.235771
L365.307737 79.331009
" />
<path d="M365.307737 79.331009
L365.307737 79.854819
" />
<path d="M365.641071 79.188152
L366.022023 79.188152
" />
<path d="M365.783928 78.854819
L365.783928 79.711961
" />
<path d="M365.783928 79.711961
L365.831547 79.807200
" />
<path d="M365.831547 79.807200
L365.926785 79.854819
" />
<path d="M365.926785 79.854819
L366.022023 79.854819
" />
<path d="M366.355357 79.854819
L366.355357 79.188152
" />
<path d="M366.355357 78.854819
L366.307738 78.902438
" />
<path d="M366.307738 78.902438
L366.355357 78.950057
" />
<path d="M366.355357 78.950057
L366.402976 78.902438
" />
<path d="M366.402976 78.902438
L366.355357 78.854819
" />
<path d="M366.355357 78.854819
L366.355357 78.950057
" />
<path d="M366.831547 79.188152
L366.831547 79.854819
" />
<path d="M366.831547 79.283390
L366.879166 79.235771
" />
<path d="M366.879166 79.235771
L366.974404 79.188152
" />
<path d="M366.974404 79.188152
L367.117261 79.188152
" />
<path d="M367.117261 79.188152
L367.212499 79.235771
" />
<path d="M367.212499 79.235771
L367.260118 79.331009
" />
<path d="M367.260118 79.331009
L367.260118 79.854819
" />
<path d="M368.164880 79.188152
L368.164880 79.997676
" />
<path d="M368.164880 79.997676
L368.117261 80.092914
" />
<path d="M368.117261 80.092914
L368.069642 80.140533
" />
<path d="M368.069642 80.140533
L367.974404 80.188152
" />
<path d="M367.974404 80.188152
L367.831547 80.188152
" />
<path d="M367.831547 80.188152
L367.736309 80.140533
" />
<path d="M368.164880 79.807200
L368.069642 79.854819
" />
<path d="M368.069642 79.854819
L367.879166 79.854819
" />
<path d="M367.879166 79.854819
L367.783928 79.807200
" />
<path d="M367.783928 79.807200
L367.736309 79.759580
" />
<path d="M367.736309 79.759580
L367.688690 79.664342
" />
<path d="M367.688690 79.664342
L367.688690 79.378628
" />
<path d="M367.688690 79.378628
L367.736309 79.283390
" />
<path d="M367.736309 79.283390
L367.783928 79.235771
" />
<path d="M367.783928 79.235771
L367.879166 79.188152
" />
<path d="M367.879166 79.188152
L368.069642 79.188152
" />
<path d="M368.069642 79.188152
L368.164880 79.235771
" />
<path d="M368.641071 79.854819
L368.641071 78.854819
" />
<path d="M368.641071 79.331009
L369.212499 79.331009
" />
<path d="M369.212499 79.854819
L369.212499 78.854819
" />
<path d="M369.831547 79.854819
L369.736309 79.807200
" />
<path d="M369.736309 79.807200
L369.688690 79.759580
" />
<path d="M369.688690 79.759580
L369.641071 79.664342
" />
<path d="M369.641071 79.664342
L369.641071 79.378628
" />
<path d="M369.641071 79.378628
L369.688690 79.283390
" />
<path d="M369.688690 79.283390
L369.736309 79.235771
" />
<path d="M369.736309 79.235771
L369.831547 79.188152
" />
<path d="M369.831547 79.188152
L369.974404 79.188152
" />
<path d="M369.974404 79.188152
L370.069642 79.235771
" />
<path d="M370.069642 79.235771
L370.117261 79.283390
" />
<path d="M370.117261 79.283390
L370.164880 79.378628
" />
<path d="M370.164880 79.378628
L370.164880 79.664342
" />
<path d="M370.164880 79.664342
L370.117261 79.759580
" />
<path d="M370.117261 79.759580
L370.069642 79.807200
" />
<path d="M370.069642 79.807200
L369.974404 79.854819
" />
<path d="M369.974404 79.854819
L369.831547 79.854819
" />
<path d="M370.736309 79.854819
L370.641071 79.807200
" />
<path d="M370.641071 79.807200
L370.593452 79.711961
" />
<path d="M370.593452 79.711961
L370.593452 78.854819
" />
<path d="M371.498214 79.807200
L371.402976 79.854819
" />
<path d="M371.402976 79.854819
L371.212500 79.854819
" />
<path d="M371.212500 79.854819
L371.117262 79.807200
" />
<path d="M371.117262 79.807200
L371.069643 79.711961
" />
<path d="M371.069643 79.711961
L371.069643 79.331009
" />
<path d="M371.069643 79.331009
L371.117262 79.235771
" />
<path d="M371.117262 79.235771
L371.212500 79.188152
" />
<path d="M371.212500 79.188152
L371.402976 79.188152
" />
<path d="M371.402976 79.188152
L371.498214 79.235771
" />
<path d="M371.498214 79.235771
L371.545833 79.331009
" />
<path d="M371.545833 79.331009
L371.545833 79.426247
" />
<path d="M371.545833 79.426247
L371.069643 79.521485
" />
</g><text x="366.712500" y="76.700000"
textLength="2.250000" font-size="1.333333" lengthAdjust="spacingAndGlyphs"
text-anchor="middle" opacity="0">H7</text>
<g class="stroked-text"><desc>H7</desc>
<path d="M365.950595 76.654819
L365.950595 75.654819
" />
<path d="M365.950595 76.131009
L366.522023 76.131009
" />
<path d="M366.522023 76.654819
L366.522023 75.654819
" />
<path d="M366.902976 75.654819
L367.569642 75.654819
" />
<path d="M367.569642 75.654819
L367.141071 76.654819
" />
</g><text x="200.025000" y="73.500000"
textLength="2.250000" font-size="1.333333" lengthAdjust="spacingAndGlyphs"
text-anchor="middle" opacity="0">H4</text>
<g class="stroked-text"><desc>H4</desc>
<path d="M199.263095 73.454819
L199.263095 72.454819
" />
<path d="M199.263095 72.931009
L199.834523 72.931009
" />
<path d="M199.834523 73.454819
L199.834523 72.454819
" />
<path d="M200.739285 72.788152
L200.739285 73.454819
" />
<path d="M200.501190 72.407200
L200.263095 73.121485
" />
<path d="M200.263095 73.121485
L200.882142 73.121485
" />
</g><text x="200.025000" y="79.900000"
textLength="10.297620" font-size="1.333333" lengthAdjust="spacingAndGlyphs"
text-anchor="middle" opacity="0">MountingHole</text>
<g class="stroked-text"><desc>MountingHole</desc>
<path d="M195.239285 79.854819
L195.239285 78.854819
" />
<path d="M195.239285 78.854819
L195.572618 79.569104
" />
<path d="M195.572618 79.569104
L195.905951 78.854819
" />
<path d="M195.905951 78.854819
L195.905951 79.854819
" />
<path d="M196.524999 79.854819
L196.429761 79.807200
" />
<path d="M196.429761 79.807200
L196.382142 79.759580
" />
<path d="M196.382142 79.759580
L196.334523 79.664342
" />
<path d="M196.334523 79.664342
L196.334523 79.378628
" />
<path d="M196.334523 79.378628
L196.382142 79.283390
" />
<path d="M196.382142 79.283390
L196.429761 79.235771
" />
<path d="M196.429761 79.235771
L196.524999 79.188152
" />
<path d="M196.524999 79.188152
L196.667856 79.188152
" />
<path d="M196.667856 79.188152
L196.763094 79.235771
" />
<path d="M196.763094 79.235771
L196.810713 79.283390
" />
<path d="M196.810713 79.283390
L196.858332 79.378628
" />
<path d="M196.858332 79.378628
L196.858332 79.664342
" />
<path d="M196.858332 79.664342
L196.810713 79.759580
" />
<path d="M196.810713 79.759580
L196.763094 79.807200
" />
<path d="M196.763094 79.807200
L196.667856 79.854819
" />
<path d="M196.667856 79.854819
L196.524999 79.854819
" />
<path d="M197.715475 79.188152
L197.715475 79.854819
" />
<path d="M197.286904 79.188152
L197.286904 79.711961
" />
<path d="M197.286904 79.711961
L197.334523 79.807200
" />
<path d="M197.334523 79.807200
L197.429761 79.854819
" />
<path d="M197.429761 79.854819
L197.572618 79.854819
" />
<path d="M197.572618 79.854819
L197.667856 79.807200
" />
<path d="M197.667856 79.807200
L197.715475 79.759580
" />
<path d="M198.191666 79.188152
L198.191666 79.854819
" />
<path d="M198.191666 79.283390
L198.239285 79.235771
" />
<path d="M198.239285 79.235771
L198.334523 79.188152
" />
<path d="M198.334523 79.188152
L198.477380 79.188152
" />
<path d="M198.477380 79.188152
L198.572618 79.235771
" />
<path d="M198.572618 79.235771
L198.620237 79.331009
" />
<path d="M198.620237 79.331009
L198.620237 79.854819
" />
<path d="M198.953571 79.188152
L199.334523 79.188152
" />
<path d="M199.096428 78.854819
L199.096428 79.711961
" />
<path d="M199.096428 79.711961
L199.144047 79.807200
" />
<path d="M199.144047 79.807200
L199.239285 79.854819
" />
<path d="M199.239285 79.854819
L199.334523 79.854819
" />
<path d="M199.667857 79.854819
L199.667857 79.188152
" />
<path d="M199.667857 78.854819
L199.620238 78.902438
" />
<path d="M199.620238 78.902438
L199.667857 78.950057
" />
<path d="M199.667857 78.950057
L199.715476 78.902438
" />
<path d="M199.715476 78.902438
L199.667857 78.854819
" />
<path d="M199.667857 78.854819
L199.667857 78.950057
" />
<path d="M200.144047 79.188152
L200.144047 79.854819
" />
<path d="M200.144047 79.283390
L200.191666 79.235771
" />
<path d="M200.191666 79.235771
L200.286904 79.188152
" />
<path d="M200.286904 79.188152
L200.429761 79.188152
" />
<path d="M200.429761 79.188152
L200.524999 79.235771
" />
<path d="M200.524999 79.235771
L200.572618 79.331009
" />
<path d="M200.572618 79.331009
L200.572618 79.854819
" />
<path d="M201.477380 79.188152
L201.477380 79.997676
" />
<path d="M201.477380 79.997676
L201.429761 80.092914
" />
<path d="M201.429761 80.092914
L201.382142 80.140533
" />
<path d="M201.382142 80.140533
L201.286904 80.188152
" />
<path d="M201.286904 80.188152
L201.144047 80.188152
" />
<path d="M201.144047 80.188152
L201.048809 80.140533
" />
<path d="M201.477380 79.807200
L201.382142 79.854819
" />
<path d="M201.382142 79.854819
L201.191666 79.854819
" />
<path d="M201.191666 79.854819
L201.096428 79.807200
" />
<path d="M201.096428 79.807200
L201.048809 79.759580
" />
<path d="M201.048809 79.759580
L201.001190 79.664342
" />
<path d="M201.001190 79.664342
L201.001190 79.378628
" />
<path d="M201.001190 79.378628
L201.048809 79.283390
" />
<path d="M201.048809 79.283390
L201.096428 79.235771
" />
<path d="M201.096428 79.235771
L201.191666 79.188152
" />
<path d="M201.191666 79.188152
L201.382142 79.188152
" />
<path d="M201.382142 79.188152
L201.477380 79.235771
" />
<path d="M201.953571 79.854819
L201.953571 78.854819
" />
<path d="M201.953571 79.331009
L202.524999 79.331009
" />
<path d="M202.524999 79.854819
L202.524999 78.854819
" />
<path d="M203.144047 79.854819
L203.048809 79.807200
" />
<path d="M203.048809 79.807200
L203.001190 79.759580
" />
<path d="M203.001190 79.759580
L202.953571 79.664342
" />
<path d="M202.953571 79.664342
L202.953571 79.378628
" />
<path d="M202.953571 79.378628
L203.001190 79.283390
" />
<path d="M203.001190 79.283390
L203.048809 79.235771
" />
<path d="M203.048809 79.235771
L203.144047 79.188152
" />
<path d="M203.144047 79.188152
L203.286904 79.188152
" />
<path d="M203.286904 79.188152
L203.382142 79.235771
" />
<path d="M203.382142 79.235771
L203.429761 79.283390
" />
<path d="M203.429761 79.283390
L203.477380 79.378628
" />
<path d="M203.477380 79.378628
L203.477380 79.664342
" />
<path d="M203.477380 79.664342
L203.429761 79.759580
" />
<path d="M203.429761 79.759580
L203.382142 79.807200
" />
<path d="M203.382142 79.807200
L203.286904 79.854819
" />
<path d="M203.286904 79.854819
L203.144047 79.854819
" />
<path d="M204.048809 79.854819
L203.953571 79.807200
" />
<path d="M203.953571 79.807200
L203.905952 79.711961
" />
<path d="M203.905952 79.711961
L203.905952 78.854819
" />
<path d="M204.810714 79.807200
L204.715476 79.854819
" />
<path d="M204.715476 79.854819
L204.525000 79.854819
" />
<path d="M204.525000 79.854819
L204.429762 79.807200
" />
<path d="M204.429762 79.807200
L204.382143 79.711961
" />
<path d="M204.382143 79.711961
L204.382143 79.331009
" />
<path d="M204.382143 79.331009
L204.429762 79.235771
" />
<path d="M204.429762 79.235771
L204.525000 79.188152
" />
<path d="M204.525000 79.188152
L204.715476 79.188152
" />
<path d="M204.715476 79.188152
L204.810714 79.235771
" />
<path d="M204.810714 79.235771
L204.858333 79.331009
" />
<path d="M204.858333 79.331009
L204.858333 79.426247
" />
<path d="M204.858333 79.426247
L204.382143 79.521485
" />
</g><text x="200.025000" y="76.700000"
textLength="2.250000" font-size="1.333333" lengthAdjust="spacingAndGlyphs"
text-anchor="middle" opacity="0">H4</text>
<g class="stroked-text"><desc>H4</desc>
<path d="M199.263095 76.654819
L199.263095 75.654819
" />
<path d="M199.263095 76.131009
L199.834523 76.131009
" />
<path d="M199.834523 76.654819
L199.834523 75.654819
" />
<path d="M200.739285 75.988152
L200.739285 76.654819
" />
<path d="M200.501190 75.607200
L200.263095 76.321485
" />
<path d="M200.263095 76.321485
L200.882142 76.321485
" />
</g><text x="66.675000" y="73.500000"
textLength="2.250000" font-size="1.333333" lengthAdjust="spacingAndGlyphs"
text-anchor="middle" opacity="0">H1</text>
<g class="stroked-text"><desc>H1</desc>
<path d="M65.913095 73.454819
L65.913095 72.454819
" />
<path d="M65.913095 72.931009
L66.484523 72.931009
" />
<path d="M66.484523 73.454819
L66.484523 72.454819
" />
<path d="M67.484523 73.454819
L66.913095 73.454819
" />
<path d="M67.198809 73.454819
L67.198809 72.454819
" />
<path d="M67.198809 72.454819
L67.103571 72.597676
" />
<path d="M67.103571 72.597676
L67.008333 72.692914
" />
<path d="M67.008333 72.692914
L66.913095 72.740533
" />
</g><text x="66.675000" y="79.900000"
textLength="10.297620" font-size="1.333333" lengthAdjust="spacingAndGlyphs"
text-anchor="middle" opacity="0">MountingHole</text>
<g class="stroked-text"><desc>MountingHole</desc>
<path d="M61.889285 79.854819
L61.889285 78.854819
" />
<path d="M61.889285 78.854819
L62.222618 79.569104
" />
<path d="M62.222618 79.569104
L62.555951 78.854819
" />
<path d="M62.555951 78.854819
L62.555951 79.854819
" />
<path d="M63.174999 79.854819
L63.079761 79.807200
" />
<path d="M63.079761 79.807200
L63.032142 79.759580
" />
<path d="M63.032142 79.759580
L62.984523 79.664342
" />
<path d="M62.984523 79.664342
L62.984523 79.378628
" />
<path d="M62.984523 79.378628
L63.032142 79.283390
" />
<path d="M63.032142 79.283390
L63.079761 79.235771
" />
<path d="M63.079761 79.235771
L63.174999 79.188152
" />
<path d="M63.174999 79.188152
L63.317856 79.188152
" />
<path d="M63.317856 79.188152
L63.413094 79.235771
" />
<path d="M63.413094 79.235771
L63.460713 79.283390
" />
<path d="M63.460713 79.283390
L63.508332 79.378628
" />
<path d="M63.508332 79.378628
L63.508332 79.664342
" />
<path d="M63.508332 79.664342
L63.460713 79.759580
" />
<path d="M63.460713 79.759580
L63.413094 79.807200
" />
<path d="M63.413094 79.807200
L63.317856 79.854819
" />
<path d="M63.317856 79.854819
L63.174999 79.854819
" />
<path d="M64.365475 79.188152
L64.365475 79.854819
" />
<path d="M63.936904 79.188152
L63.936904 79.711961
" />
<path d="M63.936904 79.711961
L63.984523 79.807200
" />
<path d="M63.984523 79.807200
L64.079761 79.854819
" />
<path d="M64.079761 79.854819
L64.222618 79.854819
" />
<path d="M64.222618 79.854819
L64.317856 79.807200
" />
<path d="M64.317856 79.807200
L64.365475 79.759580
" />
<path d="M64.841666 79.188152
L64.841666 79.854819
" />
<path d="M64.841666 79.283390
L64.889285 79.235771
" />
<path d="M64.889285 79.235771
L64.984523 79.188152
" />
<path d="M64.984523 79.188152
L65.127380 79.188152
" />
<path d="M65.127380 79.188152
L65.222618 79.235771
" />
<path d="M65.222618 79.235771
L65.270237 79.331009
" />
<path d="M65.270237 79.331009
L65.270237 79.854819
" />
<path d="M65.603571 79.188152
L65.984523 79.188152
" />
<path d="M65.746428 78.854819
L65.746428 79.711961
" />
<path d="M65.746428 79.711961
L65.794047 79.807200
" />
<path d="M65.794047 79.807200
L65.889285 79.854819
" />
<path d="M65.889285 79.854819
L65.984523 79.854819
" />
<path d="M66.317857 79.854819
L66.317857 79.188152
" />
<path d="M66.317857 78.854819
L66.270238 78.902438
" />
<path d="M66.270238 78.902438
L66.317857 78.950057
" />
<path d="M66.317857 78.950057
L66.365476 78.902438
" />
<path d="M66.365476 78.902438
L66.317857 78.854819
" />
<path d="M66.317857 78.854819
L66.317857 78.950057
" />
<path d="M66.794047 79.188152
L66.794047 79.854819
" />
<path d="M66.794047 79.283390
L66.841666 79.235771
" />
<path d="M66.841666 79.235771
L66.936904 79.188152
" />
<path d="M66.936904 79.188152
L67.079761 79.188152
" />
<path d="M67.079761 79.188152
L67.174999 79.235771
" />
<path d="M67.174999 79.235771
L67.222618 79.331009
" />
<path d="M67.222618 79.331009
L67.222618 79.854819
" />
<path d="M68.127380 79.188152
L68.127380 79.997676
" />
<path d="M68.127380 79.997676
L68.079761 80.092914
" />
<path d="M68.079761 80.092914
L68.032142 80.140533
" />
<path d="M68.032142 80.140533
L67.936904 80.188152
" />
<path d="M67.936904 80.188152
L67.794047 80.188152
" />
<path d="M67.794047 80.188152
L67.698809 80.140533
" />
<path d="M68.127380 79.807200
L68.032142 79.854819
" />
<path d="M68.032142 79.854819
L67.841666 79.854819
" />
<path d="M67.841666 79.854819
L67.746428 79.807200
" />
<path d="M67.746428 79.807200
L67.698809 79.759580
" />
<path d="M67.698809 79.759580
L67.651190 79.664342
" />
<path d="M67.651190 79.664342
L67.651190 79.378628
" />
<path d="M67.651190 79.378628
L67.698809 79.283390
" />
<path d="M67.698809 79.283390
L67.746428 79.235771
" />
<path d="M67.746428 79.235771
L67.841666 79.188152
" />
<path d="M67.841666 79.188152
L68.032142 79.188152
" />
<path d="M68.032142 79.188152
L68.127380 79.235771
" />
<path d="M68.603571 79.854819
L68.603571 78.854819
" />
<path d="M68.603571 79.331009
L69.174999 79.331009
" />
<path d="M69.174999 79.854819
L69.174999 78.854819
" />
<path d="M69.794047 79.854819
L69.698809 79.807200
" />
<path d="M69.698809 79.807200
L69.651190 79.759580
" />
<path d="M69.651190 79.759580
L69.603571 79.664342
" />
<path d="M69.603571 79.664342
L69.603571 79.378628
" />
<path d="M69.603571 79.378628
L69.651190 79.283390
" />
<path d="M69.651190 79.283390
L69.698809 79.235771
" />
<path d="M69.698809 79.235771
L69.794047 79.188152
" />
<path d="M69.794047 79.188152
L69.936904 79.188152
" />
<path d="M69.936904 79.188152
L70.032142 79.235771
" />
<path d="M70.032142 79.235771
L70.079761 79.283390
" />
<path d="M70.079761 79.283390
L70.127380 79.378628
" />
<path d="M70.127380 79.378628
L70.127380 79.664342
" />
<path d="M70.127380 79.664342
L70.079761 79.759580
" />
<path d="M70.079761 79.759580
L70.032142 79.807200
" />
<path d="M70.032142 79.807200
L69.936904 79.854819
" />
<path d="M69.936904 79.854819
L69.794047 79.854819
" />
<path d="M70.698809 79.854819
L70.603571 79.807200
" />
<path d="M70.603571 79.807200
L70.555952 79.711961
" />
<path d="M70.555952 79.711961
L70.555952 78.854819
" />
<path d="M71.460714 79.807200
L71.365476 79.854819
" />
<path d="M71.365476 79.854819
L71.175000 79.854819
" />
<path d="M71.175000 79.854819
L71.079762 79.807200
" />
<path d="M71.079762 79.807200
L71.032143 79.711961
" />
<path d="M71.032143 79.711961
L71.032143 79.331009
" />
<path d="M71.032143 79.331009
L71.079762 79.235771
" />
<path d="M71.079762 79.235771
L71.175000 79.188152
" />
<path d="M71.175000 79.188152
L71.365476 79.188152
" />
<path d="M71.365476 79.188152
L71.460714 79.235771
" />
<path d="M71.460714 79.235771
L71.508333 79.331009
" />
<path d="M71.508333 79.331009
L71.508333 79.426247
" />
<path d="M71.508333 79.426247
L71.032143 79.521485
" />
</g><text x="66.675000" y="76.700000"
textLength="2.250000" font-size="1.333333" lengthAdjust="spacingAndGlyphs"
text-anchor="middle" opacity="0">H1</text>
<g class="stroked-text"><desc>H1</desc>
<path d="M65.913095 76.654819
L65.913095 75.654819
" />
<path d="M65.913095 76.131009
L66.484523 76.131009
" />
<path d="M66.484523 76.654819
L66.484523 75.654819
" />
<path d="M67.484523 76.654819
L66.913095 76.654819
" />
<path d="M67.198809 76.654819
L67.198809 75.654819
" />
<path d="M67.198809 75.654819
L67.103571 75.797676
" />
<path d="M67.103571 75.797676
L67.008333 75.892914
" />
<path d="M67.008333 75.892914
L66.913095 75.940533
" />
</g><text x="70.246875" y="158.034375"
textLength="2.250000" font-size="1.333333" lengthAdjust="spacingAndGlyphs"
text-anchor="middle" opacity="0">H2</text>
<g class="stroked-text"><desc>H2</desc>
<path d="M69.484970 157.989194
L69.484970 156.989194
" />
<path d="M69.484970 157.465384
L70.056398 157.465384
" />
<path d="M70.056398 157.989194
L70.056398 156.989194
" />
<path d="M70.484970 157.084432
L70.532589 157.036813
" />
<path d="M70.532589 157.036813
L70.627827 156.989194
" />
<path d="M70.627827 156.989194
L70.865922 156.989194
" />
<path d="M70.865922 156.989194
L70.961160 157.036813
" />
<path d="M70.961160 157.036813
L71.008779 157.084432
" />
<path d="M71.008779 157.084432
L71.056398 157.179670
" />
<path d="M71.056398 157.179670
L71.056398 157.274908
" />
<path d="M71.056398 157.274908
L71.008779 157.417765
" />
<path d="M71.008779 157.417765
L70.437351 157.989194
" />
<path d="M70.437351 157.989194
L71.056398 157.989194
" />
</g><text x="70.246875" y="164.434375"
textLength="10.297620" font-size="1.333333" lengthAdjust="spacingAndGlyphs"
text-anchor="middle" opacity="0">MountingHole</text>
<g class="stroked-text"><desc>MountingHole</desc>
<path d="M65.461160 164.389194
L65.461160 163.389194
" />
<path d="M65.461160 163.389194
L65.794493 164.103479
" />
<path d="M65.794493 164.103479
L66.127826 163.389194
" />
<path d="M66.127826 163.389194
L66.127826 164.389194
" />
<path d="M66.746874 164.389194
L66.651636 164.341575
" />
<path d="M66.651636 164.341575
L66.604017 164.293955
" />
<path d="M66.604017 164.293955
L66.556398 164.198717
" />
<path d="M66.556398 164.198717
L66.556398 163.913003
" />
<path d="M66.556398 163.913003
L66.604017 163.817765
" />
<path d="M66.604017 163.817765
L66.651636 163.770146
" />
<path d="M66.651636 163.770146
L66.746874 163.722527
" />
<path d="M66.746874 163.722527
L66.889731 163.722527
" />
<path d="M66.889731 163.722527
L66.984969 163.770146
" />
<path d="M66.984969 163.770146
L67.032588 163.817765
" />
<path d="M67.032588 163.817765
L67.080207 163.913003
" />
<path d="M67.080207 163.913003
L67.080207 164.198717
" />
<path d="M67.080207 164.198717
L67.032588 164.293955
" />
<path d="M67.032588 164.293955
L66.984969 164.341575
" />
<path d="M66.984969 164.341575
L66.889731 164.389194
" />
<path d="M66.889731 164.389194
L66.746874 164.389194
" />
<path d="M67.937350 163.722527
L67.937350 164.389194
" />
<path d="M67.508779 163.722527
L67.508779 164.246336
" />
<path d="M67.508779 164.246336
L67.556398 164.341575
" />
<path d="M67.556398 164.341575
L67.651636 164.389194
" />
<path d="M67.651636 164.389194
L67.794493 164.389194
" />
<path d="M67.794493 164.389194
L67.889731 164.341575
" />
<path d="M67.889731 164.341575
L67.937350 164.293955
" />
<path d="M68.413541 163.722527
L68.413541 164.389194
" />
<path d="M68.413541 163.817765
L68.461160 163.770146
" />
<path d="M68.461160 163.770146
L68.556398 163.722527
" />
<path d="M68.556398 163.722527
L68.699255 163.722527
" />
<path d="M68.699255 163.722527
L68.794493 163.770146
" />
<path d="M68.794493 163.770146
L68.842112 163.865384
" />
<path d="M68.842112 163.865384
L68.842112 164.389194
" />
<path d="M69.175446 163.722527
L69.556398 163.722527
" />
<path d="M69.318303 163.389194
L69.318303 164.246336
" />
<path d="M69.318303 164.246336
L69.365922 164.341575
" />
<path d="M69.365922 164.341575
L69.461160 164.389194
" />
<path d="M69.461160 164.389194
L69.556398 164.389194
" />
<path d="M69.889732 164.389194
L69.889732 163.722527
" />
<path d="M69.889732 163.389194
L69.842113 163.436813
" />
<path d="M69.842113 163.436813
L69.889732 163.484432
" />
<path d="M69.889732 163.484432
L69.937351 163.436813
" />
<path d="M69.937351 163.436813
L69.889732 163.389194
" />
<path d="M69.889732 163.389194
L69.889732 163.484432
" />
<path d="M70.365922 163.722527
L70.365922 164.389194
" />
<path d="M70.365922 163.817765
L70.413541 163.770146
" />
<path d="M70.413541 163.770146
L70.508779 163.722527
" />
<path d="M70.508779 163.722527
L70.651636 163.722527
" />
<path d="M70.651636 163.722527
L70.746874 163.770146
" />
<path d="M70.746874 163.770146
L70.794493 163.865384
" />
<path d="M70.794493 163.865384
L70.794493 164.389194
" />
<path d="M71.699255 163.722527
L71.699255 164.532051
" />
<path d="M71.699255 164.532051
L71.651636 164.627289
" />
<path d="M71.651636 164.627289
L71.604017 164.674908
" />
<path d="M71.604017 164.674908
L71.508779 164.722527
" />
<path d="M71.508779 164.722527
L71.365922 164.722527
" />
<path d="M71.365922 164.722527
L71.270684 164.674908
" />
<path d="M71.699255 164.341575
L71.604017 164.389194
" />
<path d="M71.604017 164.389194
L71.413541 164.389194
" />
<path d="M71.413541 164.389194
L71.318303 164.341575
" />
<path d="M71.318303 164.341575
L71.270684 164.293955
" />
<path d="M71.270684 164.293955
L71.223065 164.198717
" />
<path d="M71.223065 164.198717
L71.223065 163.913003
" />
<path d="M71.223065 163.913003
L71.270684 163.817765
" />
<path d="M71.270684 163.817765
L71.318303 163.770146
" />
<path d="M71.318303 163.770146
L71.413541 163.722527
" />
<path d="M71.413541 163.722527
L71.604017 163.722527
" />
<path d="M71.604017 163.722527
L71.699255 163.770146
" />
<path d="M72.175446 164.389194
L72.175446 163.389194
" />
<path d="M72.175446 163.865384
L72.746874 163.865384
" />
<path d="M72.746874 164.389194
L72.746874 163.389194
" />
<path d="M73.365922 164.389194
L73.270684 164.341575
" />
<path d="M73.270684 164.341575
L73.223065 164.293955
" />
<path d="M73.223065 164.293955
L73.175446 164.198717
" />
<path d="M73.175446 164.198717
L73.175446 163.913003
" />
<path d="M73.175446 163.913003
L73.223065 163.817765
" />
<path d="M73.223065 163.817765
L73.270684 163.770146
" />
<path d="M73.270684 163.770146
L73.365922 163.722527
" />
<path d="M73.365922 163.722527
L73.508779 163.722527
" />
<path d="M73.508779 163.722527
L73.604017 163.770146
" />
<path d="M73.604017 163.770146
L73.651636 163.817765
" />
<path d="M73.651636 163.817765
L73.699255 163.913003
" />
<path d="M73.699255 163.913003
L73.699255 164.198717
" />
<path d="M73.699255 164.198717
L73.651636 164.293955
" />
<path d="M73.651636 164.293955
L73.604017 164.341575
" />
<path d="M73.604017 164.341575
L73.508779 164.389194
" />
<path d="M73.508779 164.389194
L73.365922 164.389194
" />
<path d="M74.270684 164.389194
L74.175446 164.341575
" />
<path d="M74.175446 164.341575
L74.127827 164.246336
" />
<path d="M74.127827 164.246336
L74.127827 163.389194
" />
<path d="M75.032589 164.341575
L74.937351 164.389194
" />
<path d="M74.937351 164.389194
L74.746875 164.389194
" />
<path d="M74.746875 164.389194
L74.651637 164.341575
" />
<path d="M74.651637 164.341575
L74.604018 164.246336
" />
<path d="M74.604018 164.246336
L74.604018 163.865384
" />
<path d="M74.604018 163.865384
L74.651637 163.770146
" />
<path d="M74.651637 163.770146
L74.746875 163.722527
" />
<path d="M74.746875 163.722527
L74.937351 163.722527
" />
<path d="M74.937351 163.722527
L75.032589 163.770146
" />
<path d="M75.032589 163.770146
L75.080208 163.865384
" />
<path d="M75.080208 163.865384
L75.080208 163.960622
" />
<path d="M75.080208 163.960622
L74.604018 164.055860
" />
</g><text x="70.246875" y="161.234375"
textLength="2.250000" font-size="1.333333" lengthAdjust="spacingAndGlyphs"
text-anchor="middle" opacity="0">H2</text>
<g class="stroked-text"><desc>H2</desc>
<path d="M69.484970 161.189194
L69.484970 160.189194
" />
<path d="M69.484970 160.665384
L70.056398 160.665384
" />
<path d="M70.056398 161.189194
L70.056398 160.189194
" />
<path d="M70.484970 160.284432
L70.532589 160.236813
" />
<path d="M70.532589 160.236813
L70.627827 160.189194
" />
<path d="M70.627827 160.189194
L70.865922 160.189194
" />
<path d="M70.865922 160.189194
L70.961160 160.236813
" />
<path d="M70.961160 160.236813
L71.008779 160.284432
" />
<path d="M71.008779 160.284432
L71.056398 160.379670
" />
<path d="M71.056398 160.379670
L71.056398 160.474908
" />
<path d="M71.056398 160.474908
L71.008779 160.617765
" />
<path d="M71.008779 160.617765
L70.437351 161.189194
" />
<path d="M70.437351 161.189194
L71.056398 161.189194
" />
</g><text x="352.425000" y="158.034375"
textLength="2.250000" font-size="1.333333" lengthAdjust="spacingAndGlyphs"
text-anchor="middle" opacity="0">H8</text>
<g class="stroked-text"><desc>H8</desc>
<path d="M351.663095 157.989194
L351.663095 156.989194
" />
<path d="M351.663095 157.465384
L352.234523 157.465384
" />
<path d="M352.234523 157.989194
L352.234523 156.989194
" />
<path d="M352.853571 157.417765
L352.758333 157.370146
" />
<path d="M352.758333 157.370146
L352.710714 157.322527
" />
<path d="M352.710714 157.322527
L352.663095 157.227289
" />
<path d="M352.663095 157.227289
L352.663095 157.179670
" />
<path d="M352.663095 157.179670
L352.710714 157.084432
" />
<path d="M352.710714 157.084432
L352.758333 157.036813
" />
<path d="M352.758333 157.036813
L352.853571 156.989194
" />
<path d="M352.853571 156.989194
L353.044047 156.989194
" />
<path d="M353.044047 156.989194
L353.139285 157.036813
" />
<path d="M353.139285 157.036813
L353.186904 157.084432
" />
<path d="M353.186904 157.084432
L353.234523 157.179670
" />
<path d="M353.234523 157.179670
L353.234523 157.227289
" />
<path d="M353.234523 157.227289
L353.186904 157.322527
" />
<path d="M353.186904 157.322527
L353.139285 157.370146
" />
<path d="M353.139285 157.370146
L353.044047 157.417765
" />
<path d="M353.044047 157.417765
L352.853571 157.417765
" />
<path d="M352.853571 157.417765
L352.758333 157.465384
" />
<path d="M352.758333 157.465384
L352.710714 157.513003
" />
<path d="M352.710714 157.513003
L352.663095 157.608241
" />
<path d="M352.663095 157.608241
L352.663095 157.798717
" />
<path d="M352.663095 157.798717
L352.710714 157.893955
" />
<path d="M352.710714 157.893955
L352.758333 157.941575
" />
<path d="M352.758333 157.941575
L352.853571 157.989194
" />
<path d="M352.853571 157.989194
L353.044047 157.989194
" />
<path d="M353.044047 157.989194
L353.139285 157.941575
" />
<path d="M353.139285 157.941575
L353.186904 157.893955
" />
<path d="M353.186904 157.893955
L353.234523 157.798717
" />
<path d="M353.234523 157.798717
L353.234523 157.608241
" />
<path d="M353.234523 157.608241
L353.186904 157.513003
" />
<path d="M353.186904 157.513003
L353.139285 157.465384
" />
<path d="M353.139285 157.465384
L353.044047 157.417765
" />
</g><text x="352.425000" y="164.434375"
textLength="10.297620" font-size="1.333333" lengthAdjust="spacingAndGlyphs"
text-anchor="middle" opacity="0">MountingHole</text>
<g class="stroked-text"><desc>MountingHole</desc>
<path d="M347.639285 164.389194
L347.639285 163.389194
" />
<path d="M347.639285 163.389194
L347.972618 164.103479
" />
<path d="M347.972618 164.103479
L348.305951 163.389194
" />
<path d="M348.305951 163.389194
L348.305951 164.389194
" />
<path d="M348.924999 164.389194
L348.829761 164.341575
" />
<path d="M348.829761 164.341575
L348.782142 164.293955
" />
<path d="M348.782142 164.293955
L348.734523 164.198717
" />
<path d="M348.734523 164.198717
L348.734523 163.913003
" />
<path d="M348.734523 163.913003
L348.782142 163.817765
" />
<path d="M348.782142 163.817765
L348.829761 163.770146
" />
<path d="M348.829761 163.770146
L348.924999 163.722527
" />
<path d="M348.924999 163.722527
L349.067856 163.722527
" />
<path d="M349.067856 163.722527
L349.163094 163.770146
" />
<path d="M349.163094 163.770146
L349.210713 163.817765
" />
<path d="M349.210713 163.817765
L349.258332 163.913003
" />
<path d="M349.258332 163.913003
L349.258332 164.198717
" />
<path d="M349.258332 164.198717
L349.210713 164.293955
" />
<path d="M349.210713 164.293955
L349.163094 164.341575
" />
<path d="M349.163094 164.341575
L349.067856 164.389194
" />
<path d="M349.067856 164.389194
L348.924999 164.389194
" />
<path d="M350.115475 163.722527
L350.115475 164.389194
" />
<path d="M349.686904 163.722527
L349.686904 164.246336
" />
<path d="M349.686904 164.246336
L349.734523 164.341575
" />
<path d="M349.734523 164.341575
L349.829761 164.389194
" />
<path d="M349.829761 164.389194
L349.972618 164.389194
" />
<path d="M349.972618 164.389194
L350.067856 164.341575
" />
<path d="M350.067856 164.341575
L350.115475 164.293955
" />
<path d="M350.591666 163.722527
L350.591666 164.389194
" />
<path d="M350.591666 163.817765
L350.639285 163.770146
" />
<path d="M350.639285 163.770146
L350.734523 163.722527
" />
<path d="M350.734523 163.722527
L350.877380 163.722527
" />
<path d="M350.877380 163.722527
L350.972618 163.770146
" />
<path d="M350.972618 163.770146
L351.020237 163.865384
" />
<path d="M351.020237 163.865384
L351.020237 164.389194
" />
<path d="M351.353571 163.722527
L351.734523 163.722527
" />
<path d="M351.496428 163.389194
L351.496428 164.246336
" />
<path d="M351.496428 164.246336
L351.544047 164.341575
" />
<path d="M351.544047 164.341575
L351.639285 164.389194
" />
<path d="M351.639285 164.389194
L351.734523 164.389194
" />
<path d="M352.067857 164.389194
L352.067857 163.722527
" />
<path d="M352.067857 163.389194
L352.020238 163.436813
" />
<path d="M352.020238 163.436813
L352.067857 163.484432
" />
<path d="M352.067857 163.484432
L352.115476 163.436813
" />
<path d="M352.115476 163.436813
L352.067857 163.389194
" />
<path d="M352.067857 163.389194
L352.067857 163.484432
" />
<path d="M352.544047 163.722527
L352.544047 164.389194
" />
<path d="M352.544047 163.817765
L352.591666 163.770146
" />
<path d="M352.591666 163.770146
L352.686904 163.722527
" />
<path d="M352.686904 163.722527
L352.829761 163.722527
" />
<path d="M352.829761 163.722527
L352.924999 163.770146
" />
<path d="M352.924999 163.770146
L352.972618 163.865384
" />
<path d="M352.972618 163.865384
L352.972618 164.389194
" />
<path d="M353.877380 163.722527
L353.877380 164.532051
" />
<path d="M353.877380 164.532051
L353.829761 164.627289
" />
<path d="M353.829761 164.627289
L353.782142 164.674908
" />
<path d="M353.782142 164.674908
L353.686904 164.722527
" />
<path d="M353.686904 164.722527
L353.544047 164.722527
" />
<path d="M353.544047 164.722527
L353.448809 164.674908
" />
<path d="M353.877380 164.341575
L353.782142 164.389194
" />
<path d="M353.782142 164.389194
L353.591666 164.389194
" />
<path d="M353.591666 164.389194
L353.496428 164.341575
" />
<path d="M353.496428 164.341575
L353.448809 164.293955
" />
<path d="M353.448809 164.293955
L353.401190 164.198717
" />
<path d="M353.401190 164.198717
L353.401190 163.913003
" />
<path d="M353.401190 163.913003
L353.448809 163.817765
" />
<path d="M353.448809 163.817765
L353.496428 163.770146
" />
<path d="M353.496428 163.770146
L353.591666 163.722527
" />
<path d="M353.591666 163.722527
L353.782142 163.722527
" />
<path d="M353.782142 163.722527
L353.877380 163.770146
" />
<path d="M354.353571 164.389194
L354.353571 163.389194
" />
<path d="M354.353571 163.865384
L354.924999 163.865384
" />
<path d="M354.924999 164.389194
L354.924999 163.389194
" />
<path d="M355.544047 164.389194
L355.448809 164.341575
" />
<path d="M355.448809 164.341575
L355.401190 164.293955
" />
<path d="M355.401190 164.293955
L355.353571 164.198717
" />
<path d="M355.353571 164.198717
L355.353571 163.913003
" />
<path d="M355.353571 163.913003
L355.401190 163.817765
" />
<path d="M355.401190 163.817765
L355.448809 163.770146
" />
<path d="M355.448809 163.770146
L355.544047 163.722527
" />
<path d="M355.544047 163.722527
L355.686904 163.722527
" />
<path d="M355.686904 163.722527
L355.782142 163.770146
" />
<path d="M355.782142 163.770146
L355.829761 163.817765
" />
<path d="M355.829761 163.817765
L355.877380 163.913003
" />
<path d="M355.877380 163.913003
L355.877380 164.198717
" />
<path d="M355.877380 164.198717
L355.829761 164.293955
" />
<path d="M355.829761 164.293955
L355.782142 164.341575
" />
<path d="M355.782142 164.341575
L355.686904 164.389194
" />
<path d="M355.686904 164.389194
L355.544047 164.389194
" />
<path d="M356.448809 164.389194
L356.353571 164.341575
" />
<path d="M356.353571 164.341575
L356.305952 164.246336
" />
<path d="M356.305952 164.246336
L356.305952 163.389194
" />
<path d="M357.210714 164.341575
L357.115476 164.389194
" />
<path d="M357.115476 164.389194
L356.925000 164.389194
" />
<path d="M356.925000 164.389194
L356.829762 164.341575
" />
<path d="M356.829762 164.341575
L356.782143 164.246336
" />
<path d="M356.782143 164.246336
L356.782143 163.865384
" />
<path d="M356.782143 163.865384
L356.829762 163.770146
" />
<path d="M356.829762 163.770146
L356.925000 163.722527
" />
<path d="M356.925000 163.722527
L357.115476 163.722527
" />
<path d="M357.115476 163.722527
L357.210714 163.770146
" />
<path d="M357.210714 163.770146
L357.258333 163.865384
" />
<path d="M357.258333 163.865384
L357.258333 163.960622
" />
<path d="M357.258333 163.960622
L356.782143 164.055860
" />
</g><text x="352.425000" y="161.234375"
textLength="2.250000" font-size="1.333333" lengthAdjust="spacingAndGlyphs"
text-anchor="middle" opacity="0">H8</text>
<g class="stroked-text"><desc>H8</desc>
<path d="M351.663095 161.189194
L351.663095 160.189194
" />
<path d="M351.663095 160.665384
L352.234523 160.665384
" />
<path d="M352.234523 161.189194
L352.234523 160.189194
" />
<path d="M352.853571 160.617765
L352.758333 160.570146
" />
<path d="M352.758333 160.570146
L352.710714 160.522527
" />
<path d="M352.710714 160.522527
L352.663095 160.427289
" />
<path d="M352.663095 160.427289
L352.663095 160.379670
" />
<path d="M352.663095 160.379670
L352.710714 160.284432
" />
<path d="M352.710714 160.284432
L352.758333 160.236813
" />
<path d="M352.758333 160.236813
L352.853571 160.189194
" />
<path d="M352.853571 160.189194
L353.044047 160.189194
" />
<path d="M353.044047 160.189194
L353.139285 160.236813
" />
<path d="M353.139285 160.236813
L353.186904 160.284432
" />
<path d="M353.186904 160.284432
L353.234523 160.379670
" />
<path d="M353.234523 160.379670
L353.234523 160.427289
" />
<path d="M353.234523 160.427289
L353.186904 160.522527
" />
<path d="M353.186904 160.522527
L353.139285 160.570146
" />
<path d="M353.139285 160.570146
L353.044047 160.617765
" />
<path d="M353.044047 160.617765
L352.853571 160.617765
" />
<path d="M352.853571 160.617765
L352.758333 160.665384
" />
<path d="M352.758333 160.665384
L352.710714 160.713003
" />
<path d="M352.710714 160.713003
L352.663095 160.808241
" />
<path d="M352.663095 160.808241
L352.663095 160.998717
" />
<path d="M352.663095 160.998717
L352.710714 161.093955
" />
<path d="M352.710714 161.093955
L352.758333 161.141575
" />
<path d="M352.758333 161.141575
L352.853571 161.189194
" />
<path d="M352.853571 161.189194
L353.044047 161.189194
" />
<path d="M353.044047 161.189194
L353.139285 161.141575
" />
<path d="M353.139285 161.141575
L353.186904 161.093955
" />
<path d="M353.186904 161.093955
L353.234523 160.998717
" />
<path d="M353.234523 160.998717
L353.234523 160.808241
" />
<path d="M353.234523 160.808241
L353.186904 160.713003
" />
<path d="M353.186904 160.713003
L353.139285 160.665384
" />
<path d="M353.139285 160.665384
L353.044047 160.617765
" />
</g><text x="119.062500" y="115.171875"
textLength="2.250000" font-size="1.333333" lengthAdjust="spacingAndGlyphs"
text-anchor="middle" opacity="0">H3</text>
<g class="stroked-text"><desc>H3</desc>
<path d="M118.300595 115.126694
L118.300595 114.126694
" />
<path d="M118.300595 114.602884
L118.872023 114.602884
" />
<path d="M118.872023 115.126694
L118.872023 114.126694
" />
<path d="M119.252976 114.126694
L119.872023 114.126694
" />
<path d="M119.872023 114.126694
L119.538690 114.507646
" />
<path d="M119.538690 114.507646
L119.681547 114.507646
" />
<path d="M119.681547 114.507646
L119.776785 114.555265
" />
<path d="M119.776785 114.555265
L119.824404 114.602884
" />
<path d="M119.824404 114.602884
L119.872023 114.698122
" />
<path d="M119.872023 114.698122
L119.872023 114.936217
" />
<path d="M119.872023 114.936217
L119.824404 115.031455
" />
<path d="M119.824404 115.031455
L119.776785 115.079075
" />
<path d="M119.776785 115.079075
L119.681547 115.126694
" />
<path d="M119.681547 115.126694
L119.395833 115.126694
" />
<path d="M119.395833 115.126694
L119.300595 115.079075
" />
<path d="M119.300595 115.079075
L119.252976 115.031455
" />
</g><text x="119.062500" y="121.571875"
textLength="10.297620" font-size="1.333333" lengthAdjust="spacingAndGlyphs"
text-anchor="middle" opacity="0">MountingHole</text>
<g class="stroked-text"><desc>MountingHole</desc>
<path d="M114.276785 121.526694
L114.276785 120.526694
" />
<path d="M114.276785 120.526694
L114.610118 121.240979
" />
<path d="M114.610118 121.240979
L114.943451 120.526694
" />
<path d="M114.943451 120.526694
L114.943451 121.526694
" />
<path d="M115.562499 121.526694
L115.467261 121.479075
" />
<path d="M115.467261 121.479075
L115.419642 121.431455
" />
<path d="M115.419642 121.431455
L115.372023 121.336217
" />
<path d="M115.372023 121.336217
L115.372023 121.050503
" />
<path d="M115.372023 121.050503
L115.419642 120.955265
" />
<path d="M115.419642 120.955265
L115.467261 120.907646
" />
<path d="M115.467261 120.907646
L115.562499 120.860027
" />
<path d="M115.562499 120.860027
L115.705356 120.860027
" />
<path d="M115.705356 120.860027
L115.800594 120.907646
" />
<path d="M115.800594 120.907646
L115.848213 120.955265
" />
<path d="M115.848213 120.955265
L115.895832 121.050503
" />
<path d="M115.895832 121.050503
L115.895832 121.336217
" />
<path d="M115.895832 121.336217
L115.848213 121.431455
" />
<path d="M115.848213 121.431455
L115.800594 121.479075
" />
<path d="M115.800594 121.479075
L115.705356 121.526694
" />
<path d="M115.705356 121.526694
L115.562499 121.526694
" />
<path d="M116.752975 120.860027
L116.752975 121.526694
" />
<path d="M116.324404 120.860027
L116.324404 121.383836
" />
<path d="M116.324404 121.383836
L116.372023 121.479075
" />
<path d="M116.372023 121.479075
L116.467261 121.526694
" />
<path d="M116.467261 121.526694
L116.610118 121.526694
" />
<path d="M116.610118 121.526694
L116.705356 121.479075
" />
<path d="M116.705356 121.479075
L116.752975 121.431455
" />
<path d="M117.229166 120.860027
L117.229166 121.526694
" />
<path d="M117.229166 120.955265
L117.276785 120.907646
" />
<path d="M117.276785 120.907646
L117.372023 120.860027
" />
<path d="M117.372023 120.860027
L117.514880 120.860027
" />
<path d="M117.514880 120.860027
L117.610118 120.907646
" />
<path d="M117.610118 120.907646
L117.657737 121.002884
" />
<path d="M117.657737 121.002884
L117.657737 121.526694
" />
<path d="M117.991071 120.860027
L118.372023 120.860027
" />
<path d="M118.133928 120.526694
L118.133928 121.383836
" />
<path d="M118.133928 121.383836
L118.181547 121.479075
" />
<path d="M118.181547 121.479075
L118.276785 121.526694
" />
<path d="M118.276785 121.526694
L118.372023 121.526694
" />
<path d="M118.705357 121.526694
L118.705357 120.860027
" />
<path d="M118.705357 120.526694
L118.657738 120.574313
" />
<path d="M118.657738 120.574313
L118.705357 120.621932
" />
<path d="M118.705357 120.621932
L118.752976 120.574313
" />
<path d="M118.752976 120.574313
L118.705357 120.526694
" />
<path d="M118.705357 120.526694
L118.705357 120.621932
" />
<path d="M119.181547 120.860027
L119.181547 121.526694
" />
<path d="M119.181547 120.955265
L119.229166 120.907646
" />
<path d="M119.229166 120.907646
L119.324404 120.860027
" />
<path d="M119.324404 120.860027
L119.467261 120.860027
" />
<path d="M119.467261 120.860027
L119.562499 120.907646
" />
<path d="M119.562499 120.907646
L119.610118 121.002884
" />
<path d="M119.610118 121.002884
L119.610118 121.526694
" />
<path d="M120.514880 120.860027
L120.514880 121.669551
" />
<path d="M120.514880 121.669551
L120.467261 121.764789
" />
<path d="M120.467261 121.764789
L120.419642 121.812408
" />
<path d="M120.419642 121.812408
L120.324404 121.860027
" />
<path d="M120.324404 121.860027
L120.181547 121.860027
" />
<path d="M120.181547 121.860027
L120.086309 121.812408
" />
<path d="M120.514880 121.479075
L120.419642 121.526694
" />
<path d="M120.419642 121.526694
L120.229166 121.526694
" />
<path d="M120.229166 121.526694
L120.133928 121.479075
" />
<path d="M120.133928 121.479075
L120.086309 121.431455
" />
<path d="M120.086309 121.431455
L120.038690 121.336217
" />
<path d="M120.038690 121.336217
L120.038690 121.050503
" />
<path d="M120.038690 121.050503
L120.086309 120.955265
" />
<path d="M120.086309 120.955265
L120.133928 120.907646
" />
<path d="M120.133928 120.907646
L120.229166 120.860027
" />
<path d="M120.229166 120.860027
L120.419642 120.860027
" />
<path d="M120.419642 120.860027
L120.514880 120.907646
" />
<path d="M120.991071 121.526694
L120.991071 120.526694
" />
<path d="M120.991071 121.002884
L121.562499 121.002884
" />
<path d="M121.562499 121.526694
L121.562499 120.526694
" />
<path d="M122.181547 121.526694
L122.086309 121.479075
" />
<path d="M122.086309 121.479075
L122.038690 121.431455
" />
<path d="M122.038690 121.431455
L121.991071 121.336217
" />
<path d="M121.991071 121.336217
L121.991071 121.050503
" />
<path d="M121.991071 121.050503
L122.038690 120.955265
" />
<path d="M122.038690 120.955265
L122.086309 120.907646
" />
<path d="M122.086309 120.907646
L122.181547 120.860027
" />
<path d="M122.181547 120.860027
L122.324404 120.860027
" />
<path d="M122.324404 120.860027
L122.419642 120.907646
" />
<path d="M122.419642 120.907646
L122.467261 120.955265
" />
<path d="M122.467261 120.955265
L122.514880 121.050503
" />
<path d="M122.514880 121.050503
L122.514880 121.336217
" />
<path d="M122.514880 121.336217
L122.467261 121.431455
" />
<path d="M122.467261 121.431455
L122.419642 121.479075
" />
<path d="M122.419642 121.479075
L122.324404 121.526694
" />
<path d="M122.324404 121.526694
L122.181547 121.526694
" />
<path d="M123.086309 121.526694
L122.991071 121.479075
" />
<path d="M122.991071 121.479075
L122.943452 121.383836
" />
<path d="M122.943452 121.383836
L122.943452 120.526694
" />
<path d="M123.848214 121.479075
L123.752976 121.526694
" />
<path d="M123.752976 121.526694
L123.562500 121.526694
" />
<path d="M123.562500 121.526694
L123.467262 121.479075
" />
<path d="M123.467262 121.479075
L123.419643 121.383836
" />
<path d="M123.419643 121.383836
L123.419643 121.002884
" />
<path d="M123.419643 121.002884
L123.467262 120.907646
" />
<path d="M123.467262 120.907646
L123.562500 120.860027
" />
<path d="M123.562500 120.860027
L123.752976 120.860027
" />
<path d="M123.752976 120.860027
L123.848214 120.907646
" />
<path d="M123.848214 120.907646
L123.895833 121.002884
" />
<path d="M123.895833 121.002884
L123.895833 121.098122
" />
<path d="M123.895833 121.098122
L123.419643 121.193360
" />
</g><text x="119.062500" y="118.371875"
textLength="2.250000" font-size="1.333333" lengthAdjust="spacingAndGlyphs"
text-anchor="middle" opacity="0">H3</text>
<g class="stroked-text"><desc>H3</desc>
<path d="M118.300595 118.326694
L118.300595 117.326694
" />
<path d="M118.300595 117.802884
L118.872023 117.802884
" />
<path d="M118.872023 118.326694
L118.872023 117.326694
" />
<path d="M119.252976 117.326694
L119.872023 117.326694
" />
<path d="M119.872023 117.326694
L119.538690 117.707646
" />
<path d="M119.538690 117.707646
L119.681547 117.707646
" />
<path d="M119.681547 117.707646
L119.776785 117.755265
" />
<path d="M119.776785 117.755265
L119.824404 117.802884
" />
<path d="M119.824404 117.802884
L119.872023 117.898122
" />
<path d="M119.872023 117.898122
L119.872023 118.136217
" />
<path d="M119.872023 118.136217
L119.824404 118.231455
" />
<path d="M119.824404 118.231455
L119.776785 118.279075
" />
<path d="M119.776785 118.279075
L119.681547 118.326694
" />
<path d="M119.681547 118.326694
L119.395833 118.326694
" />
<path d="M119.395833 118.326694
L119.300595 118.279075
" />
<path d="M119.300595 118.279075
L119.252976 118.231455
" />
</g></g>
<g style="fill:none; 
stroke:#000000; stroke-width:0.300000; stroke-opacity:1; 
stroke-linecap:round; stroke-linejoin:round;">
<text x="94.250000" y="161.000000"
textLength="5.528571" font-size="2.000000" lengthAdjust="spacingAndGlyphs"
text-anchor="middle" opacity="0">G***</text>
<g class="stroked-text"><desc>G***</desc>
<path d="M92.928572 159.499757
L92.785715 159.428328
" />
<path d="M92.785715 159.428328
L92.571429 159.428328
" />
<path d="M92.571429 159.428328
L92.357143 159.499757
" />
<path d="M92.357143 159.499757
L92.214286 159.642614
" />
<path d="M92.214286 159.642614
L92.142857 159.785471
" />
<path d="M92.142857 159.785471
L92.071429 160.071185
" />
<path d="M92.071429 160.071185
L92.071429 160.285471
" />
<path d="M92.071429 160.285471
L92.142857 160.571185
" />
<path d="M92.142857 160.571185
L92.214286 160.714042
" />
<path d="M92.214286 160.714042
L92.357143 160.856900
" />
<path d="M92.357143 160.856900
L92.571429 160.928328
" />
<path d="M92.571429 160.928328
L92.714286 160.928328
" />
<path d="M92.714286 160.928328
L92.928572 160.856900
" />
<path d="M92.928572 160.856900
L93.000000 160.785471
" />
<path d="M93.000000 160.785471
L93.000000 160.285471
" />
<path d="M93.000000 160.285471
L92.714286 160.285471
" />
<path d="M93.857143 159.428328
L93.857143 159.785471
" />
<path d="M93.500000 159.642614
L93.857143 159.785471
" />
<path d="M93.857143 159.785471
L94.214286 159.642614
" />
<path d="M93.642857 160.071185
L93.857143 159.785471
" />
<path d="M93.857143 159.785471
L94.071429 160.071185
" />
<path d="M95.000000 159.428328
L95.000000 159.785471
" />
<path d="M94.642857 159.642614
L95.000000 159.785471
" />
<path d="M95.000000 159.785471
L95.357143 159.642614
" />
<path d="M94.785714 160.071185
L95.000000 159.785471
" />
<path d="M95.000000 159.785471
L95.214286 160.071185
" />
<path d="M96.142857 159.428328
L96.142857 159.785471
" />
<path d="M95.785714 159.642614
L96.142857 159.785471
" />
<path d="M96.142857 159.785471
L96.500000 159.642614
" />
<path d="M95.928571 160.071185
L96.142857 159.785471
" />
<path d="M96.142857 159.785471
L96.357143 160.071185
" />
</g></g>
<g style="fill:none; 
stroke:#000000; stroke-width:0.150000; stroke-opacity:1; 
stroke-linecap:round; stroke-linejoin:round;">
<text x="291.703125" y="115.550000"
textLength="2.250000" font-size="1.333333" lengthAdjust="spacingAndGlyphs"
text-anchor="middle" opacity="0">H6</text>
<g class="stroked-text"><desc>H6</desc>
<path d="M290.941220 115.504819
L290.941220 114.504819
" />
<path d="M290.941220 114.981009
L291.512648 114.981009
" />
<path d="M291.512648 115.504819
L291.512648 114.504819
" />
<path d="M292.417410 114.504819
L292.226934 114.504819
" />
<path d="M292.226934 114.504819
L292.131696 114.552438
" />
<path d="M292.131696 114.552438
L292.084077 114.600057
" />
<path d="M292.084077 114.600057
L291.988839 114.742914
" />
<path d="M291.988839 114.742914
L291.941220 114.933390
" />
<path d="M291.941220 114.933390
L291.941220 115.314342
" />
<path d="M291.941220 115.314342
L291.988839 115.409580
" />
<path d="M291.988839 115.409580
L292.036458 115.457200
" />
<path d="M292.036458 115.457200
L292.131696 115.504819
" />
<path d="M292.131696 115.504819
L292.322172 115.504819
" />
<path d="M292.322172 115.504819
L292.417410 115.457200
" />
<path d="M292.417410 115.457200
L292.465029 115.409580
" />
<path d="M292.465029 115.409580
L292.512648 115.314342
" />
<path d="M292.512648 115.314342
L292.512648 115.076247
" />
<path d="M292.512648 115.076247
L292.465029 114.981009
" />
<path d="M292.465029 114.981009
L292.417410 114.933390
" />
<path d="M292.417410 114.933390
L292.322172 114.885771
" />
<path d="M292.322172 114.885771
L292.131696 114.885771
" />
<path d="M292.131696 114.885771
L292.036458 114.933390
" />
<path d="M292.036458 114.933390
L291.988839 114.981009
" />
<path d="M291.988839 114.981009
L291.941220 115.076247
" />
</g><text x="291.703125" y="121.950000"
textLength="10.297620" font-size="1.333333" lengthAdjust="spacingAndGlyphs"
text-anchor="middle" opacity="0">MountingHole</text>
<g class="stroked-text"><desc>MountingHole</desc>
<path d="M286.917410 121.904819
L286.917410 120.904819
" />
<path d="M286.917410 120.904819
L287.250743 121.619104
" />
<path d="M287.250743 121.619104
L287.584076 120.904819
" />
<path d="M287.584076 120.904819
L287.584076 121.904819
" />
<path d="M288.203124 121.904819
L288.107886 121.857200
" />
<path d="M288.107886 121.857200
L288.060267 121.809580
" />
<path d="M288.060267 121.809580
L288.012648 121.714342
" />
<path d="M288.012648 121.714342
L288.012648 121.428628
" />
<path d="M288.012648 121.428628
L288.060267 121.333390
" />
<path d="M288.060267 121.333390
L288.107886 121.285771
" />
<path d="M288.107886 121.285771
L288.203124 121.238152
" />
<path d="M288.203124 121.238152
L288.345981 121.238152
" />
<path d="M288.345981 121.238152
L288.441219 121.285771
" />
<path d="M288.441219 121.285771
L288.488838 121.333390
" />
<path d="M288.488838 121.333390
L288.536457 121.428628
" />
<path d="M288.536457 121.428628
L288.536457 121.714342
" />
<path d="M288.536457 121.714342
L288.488838 121.809580
" />
<path d="M288.488838 121.809580
L288.441219 121.857200
" />
<path d="M288.441219 121.857200
L288.345981 121.904819
" />
<path d="M288.345981 121.904819
L288.203124 121.904819
" />
<path d="M289.393600 121.238152
L289.393600 121.904819
" />
<path d="M288.965029 121.238152
L288.965029 121.761961
" />
<path d="M288.965029 121.761961
L289.012648 121.857200
" />
<path d="M289.012648 121.857200
L289.107886 121.904819
" />
<path d="M289.107886 121.904819
L289.250743 121.904819
" />
<path d="M289.250743 121.904819
L289.345981 121.857200
" />
<path d="M289.345981 121.857200
L289.393600 121.809580
" />
<path d="M289.869791 121.238152
L289.869791 121.904819
" />
<path d="M289.869791 121.333390
L289.917410 121.285771
" />
<path d="M289.917410 121.285771
L290.012648 121.238152
" />
<path d="M290.012648 121.238152
L290.155505 121.238152
" />
<path d="M290.155505 121.238152
L290.250743 121.285771
" />
<path d="M290.250743 121.285771
L290.298362 121.381009
" />
<path d="M290.298362 121.381009
L290.298362 121.904819
" />
<path d="M290.631696 121.238152
L291.012648 121.238152
" />
<path d="M290.774553 120.904819
L290.774553 121.761961
" />
<path d="M290.774553 121.761961
L290.822172 121.857200
" />
<path d="M290.822172 121.857200
L290.917410 121.904819
" />
<path d="M290.917410 121.904819
L291.012648 121.904819
" />
<path d="M291.345982 121.904819
L291.345982 121.238152
" />
<path d="M291.345982 120.904819
L291.298363 120.952438
" />
<path d="M291.298363 120.952438
L291.345982 121.000057
" />
<path d="M291.345982 121.000057
L291.393601 120.952438
" />
<path d="M291.393601 120.952438
L291.345982 120.904819
" />
<path d="M291.345982 120.904819
L291.345982 121.000057
" />
<path d="M291.822172 121.238152
L291.822172 121.904819
" />
<path d="M291.822172 121.333390
L291.869791 121.285771
" />
<path d="M291.869791 121.285771
L291.965029 121.238152
" />
<path d="M291.965029 121.238152
L292.107886 121.238152
" />
<path d="M292.107886 121.238152
L292.203124 121.285771
" />
<path d="M292.203124 121.285771
L292.250743 121.381009
" />
<path d="M292.250743 121.381009
L292.250743 121.904819
" />
<path d="M293.155505 121.238152
L293.155505 122.047676
" />
<path d="M293.155505 122.047676
L293.107886 122.142914
" />
<path d="M293.107886 122.142914
L293.060267 122.190533
" />
<path d="M293.060267 122.190533
L292.965029 122.238152
" />
<path d="M292.965029 122.238152
L292.822172 122.238152
" />
<path d="M292.822172 122.238152
L292.726934 122.190533
" />
<path d="M293.155505 121.857200
L293.060267 121.904819
" />
<path d="M293.060267 121.904819
L292.869791 121.904819
" />
<path d="M292.869791 121.904819
L292.774553 121.857200
" />
<path d="M292.774553 121.857200
L292.726934 121.809580
" />
<path d="M292.726934 121.809580
L292.679315 121.714342
" />
<path d="M292.679315 121.714342
L292.679315 121.428628
" />
<path d="M292.679315 121.428628
L292.726934 121.333390
" />
<path d="M292.726934 121.333390
L292.774553 121.285771
" />
<path d="M292.774553 121.285771
L292.869791 121.238152
" />
<path d="M292.869791 121.238152
L293.060267 121.238152
" />
<path d="M293.060267 121.238152
L293.155505 121.285771
" />
<path d="M293.631696 121.904819
L293.631696 120.904819
" />
<path d="M293.631696 121.381009
L294.203124 121.381009
" />
<path d="M294.203124 121.904819
L294.203124 120.904819
" />
<path d="M294.822172 121.904819
L294.726934 121.857200
" />
<path d="M294.726934 121.857200
L294.679315 121.809580
" />
<path d="M294.679315 121.809580
L294.631696 121.714342
" />
<path d="M294.631696 121.714342
L294.631696 121.428628
" />
<path d="M294.631696 121.428628
L294.679315 121.333390
" />
<path d="M294.679315 121.333390
L294.726934 121.285771
" />
<path d="M294.726934 121.285771
L294.822172 121.238152
" />
<path d="M294.822172 121.238152
L294.965029 121.238152
" />
<path d="M294.965029 121.238152
L295.060267 121.285771
" />
<path d="M295.060267 121.285771
L295.107886 121.333390
" />
<path d="M295.107886 121.333390
L295.155505 121.428628
" />
<path d="M295.155505 121.428628
L295.155505 121.714342
" />
<path d="M295.155505 121.714342
L295.107886 121.809580
" />
<path d="M295.107886 121.809580
L295.060267 121.857200
" />
<path d="M295.060267 121.857200
L294.965029 121.904819
" />
<path d="M294.965029 121.904819
L294.822172 121.904819
" />
<path d="M295.726934 121.904819
L295.631696 121.857200
" />
<path d="M295.631696 121.857200
L295.584077 121.761961
" />
<path d="M295.584077 121.761961
L295.584077 120.904819
" />
<path d="M296.488839 121.857200
L296.393601 121.904819
" />
<path d="M296.393601 121.904819
L296.203125 121.904819
" />
<path d="M296.203125 121.904819
L296.107887 121.857200
" />
<path d="M296.107887 121.857200
L296.060268 121.761961
" />
<path d="M296.060268 121.761961
L296.060268 121.381009
" />
<path d="M296.060268 121.381009
L296.107887 121.285771
" />
<path d="M296.107887 121.285771
L296.203125 121.238152
" />
<path d="M296.203125 121.238152
L296.393601 121.238152
" />
<path d="M296.393601 121.238152
L296.488839 121.285771
" />
<path d="M296.488839 121.285771
L296.536458 121.381009
" />
<path d="M296.536458 121.381009
L296.536458 121.476247
" />
<path d="M296.536458 121.476247
L296.060268 121.571485
" />
</g><text x="291.703125" y="118.750000"
textLength="2.250000" font-size="1.333333" lengthAdjust="spacingAndGlyphs"
text-anchor="middle" opacity="0">H6</text>
<g class="stroked-text"><desc>H6</desc>
<path d="M290.941220 118.704819
L290.941220 117.704819
" />
<path d="M290.941220 118.181009
L291.512648 118.181009
" />
<path d="M291.512648 118.704819
L291.512648 117.704819
" />
<path d="M292.417410 117.704819
L292.226934 117.704819
" />
<path d="M292.226934 117.704819
L292.131696 117.752438
" />
<path d="M292.131696 117.752438
L292.084077 117.800057
" />
<path d="M292.084077 117.800057
L291.988839 117.942914
" />
<path d="M291.988839 117.942914
L291.941220 118.133390
" />
<path d="M291.941220 118.133390
L291.941220 118.514342
" />
<path d="M291.941220 118.514342
L291.988839 118.609580
" />
<path d="M291.988839 118.609580
L292.036458 118.657200
" />
<path d="M292.036458 118.657200
L292.131696 118.704819
" />
<path d="M292.131696 118.704819
L292.322172 118.704819
" />
<path d="M292.322172 118.704819
L292.417410 118.657200
" />
<path d="M292.417410 118.657200
L292.465029 118.609580
" />
<path d="M292.465029 118.609580
L292.512648 118.514342
" />
<path d="M292.512648 118.514342
L292.512648 118.276247
" />
<path d="M292.512648 118.276247
L292.465029 118.181009
" />
<path d="M292.465029 118.181009
L292.417410 118.133390
" />
<path d="M292.417410 118.133390
L292.322172 118.085771
" />
<path d="M292.322172 118.085771
L292.131696 118.085771
" />
<path d="M292.131696 118.085771
L292.036458 118.133390
" />
<path d="M292.036458 118.133390
L291.988839 118.181009
" />
<path d="M291.988839 118.181009
L291.941220 118.276247
" />
</g></g> 
</svg>
