%TF.GenerationSoftware,KiCad,Pcbnew,7.0.11*%
%TF.CreationDate,2024-04-25T10:03:52+05:30*%
%TF.ProjectId,Lexicon 69,4c657869-636f-46e2-9036-392e6b696361,rev?*%
%TF.SameCoordinates,Original*%
%TF.FileFunction,Legend,Top*%
%TF.FilePolarity,Positive*%
%FSLAX46Y46*%
G04 Gerber Fmt 4.6, Leading zero omitted, Abs format (unit mm)*
G04 Created by KiCad (PCBNEW 7.0.11) date 2024-04-25 10:03:52*
%MOMM*%
%LPD*%
G01*
G04 APERTURE LIST*
%ADD10C,2.200000*%
G04 APERTURE END LIST*
%TO.C,G\u002A\u002A\u002A*%
G36*
X98561728Y-158211729D02*
G01*
X98561728Y-158682099D01*
X97954166Y-158682099D01*
X97346605Y-158682099D01*
X97346605Y-158211729D01*
X97346605Y-157741358D01*
X97954166Y-157741358D01*
X98561728Y-157741358D01*
X98561728Y-158211729D01*
G37*
G36*
X98561728Y-161033951D02*
G01*
X98561728Y-162915432D01*
X97954166Y-162915432D01*
X97346605Y-162915432D01*
X97346605Y-161033951D01*
X97346605Y-159152469D01*
X97954166Y-159152469D01*
X98561728Y-159152469D01*
X98561728Y-161033951D01*
G37*
G36*
X110695094Y-159068262D02*
G01*
X110933809Y-159112619D01*
X111132672Y-159194056D01*
X111308827Y-159318377D01*
X111383720Y-159388320D01*
X111507710Y-159529671D01*
X111592031Y-159676644D01*
X111650591Y-159837576D01*
X111672154Y-159911687D01*
X111689553Y-159986018D01*
X111703233Y-160069659D01*
X111713635Y-160171702D01*
X111721205Y-160301236D01*
X111726385Y-160467354D01*
X111729618Y-160679146D01*
X111731349Y-160945703D01*
X111732020Y-161276117D01*
X111732099Y-161508450D01*
X111732099Y-162915432D01*
X111104938Y-162915432D01*
X110477778Y-162915432D01*
X110477778Y-161699050D01*
X110477157Y-161325590D01*
X110474482Y-161022368D01*
X110468530Y-160781233D01*
X110458082Y-160594031D01*
X110441916Y-160452612D01*
X110418810Y-160348823D01*
X110387545Y-160274512D01*
X110346899Y-160221526D01*
X110295651Y-160181714D01*
X110246356Y-160153953D01*
X110026705Y-160078712D01*
X109810689Y-160075086D01*
X109611405Y-160139416D01*
X109441953Y-160268044D01*
X109341049Y-160406790D01*
X109313081Y-160458701D01*
X109290915Y-160508738D01*
X109273765Y-160566464D01*
X109260842Y-160641446D01*
X109251362Y-160743245D01*
X109244538Y-160881427D01*
X109239582Y-161065556D01*
X109235708Y-161305195D01*
X109232130Y-161609910D01*
X109230636Y-161749306D01*
X109218216Y-162915432D01*
X108593676Y-162915432D01*
X107969136Y-162915432D01*
X107969136Y-161033951D01*
X107969136Y-159152469D01*
X108576697Y-159152469D01*
X109184259Y-159152469D01*
X109184259Y-159395980D01*
X109184259Y-159639492D01*
X109370447Y-159456717D01*
X109514242Y-159336341D01*
X109684941Y-159222190D01*
X109791821Y-159164918D01*
X109918001Y-159111294D01*
X110031405Y-159078490D01*
X110159364Y-159061569D01*
X110329210Y-159055595D01*
X110399383Y-159055184D01*
X110695094Y-159068262D01*
G37*
G36*
X94680609Y-159582676D02*
G01*
X94776367Y-159742681D01*
X94858792Y-159872383D01*
X94919862Y-159959729D01*
X94951551Y-159992667D01*
X94953255Y-159992189D01*
X94980766Y-159952149D01*
X95039327Y-159858600D01*
X95120265Y-159725621D01*
X95212244Y-159571782D01*
X95449333Y-159172068D01*
X96103988Y-159161321D01*
X96320596Y-159158800D01*
X96506951Y-159158605D01*
X96650217Y-159160589D01*
X96737558Y-159164604D01*
X96758642Y-159168854D01*
X96737993Y-159205164D01*
X96679793Y-159298172D01*
X96589664Y-159439138D01*
X96473226Y-159619321D01*
X96336099Y-159829981D01*
X96188038Y-160056087D01*
X95617434Y-160925042D01*
X96288146Y-161920237D01*
X96958858Y-162915432D01*
X96260114Y-162915432D01*
X95561370Y-162915432D01*
X95248663Y-162387846D01*
X95131050Y-162186472D01*
X95043959Y-162043302D01*
X94976821Y-161959388D01*
X94919069Y-161935785D01*
X94860134Y-161973545D01*
X94789447Y-162073724D01*
X94696440Y-162237375D01*
X94576517Y-162454861D01*
X94319397Y-162915432D01*
X93637939Y-162915432D01*
X93416654Y-162914499D01*
X93225375Y-162911909D01*
X93076689Y-162907980D01*
X92983180Y-162903029D01*
X92956481Y-162898284D01*
X92977174Y-162862404D01*
X93035636Y-162769502D01*
X93126443Y-162627979D01*
X93244171Y-162446234D01*
X93383398Y-162232669D01*
X93538697Y-161995683D01*
X93570204Y-161947744D01*
X93729151Y-161704778D01*
X93873847Y-161481245D01*
X93998664Y-161286027D01*
X94097975Y-161128008D01*
X94166151Y-161016069D01*
X94197565Y-160959094D01*
X94198834Y-160955556D01*
X94181736Y-160908521D01*
X94125942Y-160805894D01*
X94037024Y-160656783D01*
X93920554Y-160470294D01*
X93782104Y-160255535D01*
X93629257Y-160024614D01*
X93044773Y-159152469D01*
X93737318Y-159152469D01*
X94429863Y-159152469D01*
X94680609Y-159582676D01*
G37*
G36*
X105521749Y-159047576D02*
G01*
X105911898Y-159110211D01*
X106268983Y-159239158D01*
X106586394Y-159429087D01*
X106857524Y-159674668D01*
X107075763Y-159970574D01*
X107234505Y-160311474D01*
X107281889Y-160466957D01*
X107322151Y-160698164D01*
X107339066Y-160970565D01*
X107332634Y-161250519D01*
X107302854Y-161504383D01*
X107281889Y-161600945D01*
X107152544Y-161950379D01*
X106961757Y-162258881D01*
X106717557Y-162521841D01*
X106427975Y-162734649D01*
X106101040Y-162892695D01*
X105744783Y-162991369D01*
X105367235Y-163026061D01*
X104976424Y-162992161D01*
X104888638Y-162974861D01*
X104531791Y-162859974D01*
X104216351Y-162684445D01*
X103945932Y-162456318D01*
X103724145Y-162183634D01*
X103554605Y-161874436D01*
X103440924Y-161536766D01*
X103386717Y-161178666D01*
X103390185Y-161033951D01*
X104656944Y-161033951D01*
X104660026Y-161239294D01*
X104671327Y-161388308D01*
X104693929Y-161502892D01*
X104730916Y-161604941D01*
X104740241Y-161625623D01*
X104859208Y-161824124D01*
X105002705Y-161967254D01*
X105088117Y-162017380D01*
X105213795Y-162044831D01*
X105379294Y-162044889D01*
X105552396Y-162021077D01*
X105700880Y-161976914D01*
X105762578Y-161943680D01*
X105894568Y-161805479D01*
X105995625Y-161610817D01*
X106063554Y-161376169D01*
X106096162Y-161118011D01*
X106091256Y-160852818D01*
X106046643Y-160597066D01*
X105969836Y-160386725D01*
X105841371Y-160195994D01*
X105672236Y-160072179D01*
X105460717Y-160014208D01*
X105365497Y-160009215D01*
X105154542Y-160032180D01*
X104989874Y-160107306D01*
X104857136Y-160243939D01*
X104766628Y-160399020D01*
X104716130Y-160509468D01*
X104683950Y-160607939D01*
X104666053Y-160717791D01*
X104658403Y-160862380D01*
X104656944Y-161033951D01*
X103390185Y-161033951D01*
X103395596Y-160808180D01*
X103471175Y-160433348D01*
X103597839Y-160101821D01*
X103789376Y-159785568D01*
X104036646Y-159519701D01*
X104332072Y-159308373D01*
X104668078Y-159155734D01*
X105037085Y-159065937D01*
X105431516Y-159043135D01*
X105521749Y-159047576D01*
G37*
G36*
X101480101Y-159070877D02*
G01*
X101824265Y-159163128D01*
X102135987Y-159310177D01*
X102406785Y-159504260D01*
X102628176Y-159737617D01*
X102791677Y-160002485D01*
X102888805Y-160291103D01*
X102902599Y-160372461D01*
X102922976Y-160524383D01*
X102310253Y-160524383D01*
X102077820Y-160523689D01*
X101912522Y-160520768D01*
X101803103Y-160514359D01*
X101738310Y-160503203D01*
X101706888Y-160486041D01*
X101697582Y-160461612D01*
X101697384Y-160455787D01*
X101666884Y-160344786D01*
X101589415Y-160221974D01*
X101485415Y-160115575D01*
X101419122Y-160071529D01*
X101272480Y-160026240D01*
X101089932Y-160011036D01*
X100907629Y-160025962D01*
X100762394Y-160070714D01*
X100605827Y-160188595D01*
X100476846Y-160354040D01*
X100405409Y-160515801D01*
X100348119Y-160809232D01*
X100337334Y-161098480D01*
X100370026Y-161370811D01*
X100443169Y-161613491D01*
X100553737Y-161813788D01*
X100698702Y-161958967D01*
X100756870Y-161994332D01*
X100901100Y-162037887D01*
X101082408Y-162050764D01*
X101265827Y-162033189D01*
X101406807Y-161990117D01*
X101547045Y-161884897D01*
X101658511Y-161726962D01*
X101721948Y-161548822D01*
X101746528Y-161425926D01*
X102349190Y-161425926D01*
X102589887Y-161425632D01*
X102761353Y-161429305D01*
X102872697Y-161443780D01*
X102933030Y-161475890D01*
X102951463Y-161532470D01*
X102937106Y-161620352D01*
X102899069Y-161746372D01*
X102875584Y-161820780D01*
X102768062Y-162079469D01*
X102616845Y-162325314D01*
X102440029Y-162530655D01*
X102371763Y-162590811D01*
X102060792Y-162791856D01*
X101709382Y-162932834D01*
X101330633Y-163010941D01*
X100937647Y-163023373D01*
X100576910Y-162974861D01*
X100207090Y-162856437D01*
X99879684Y-162673596D01*
X99599748Y-162430841D01*
X99372340Y-162132678D01*
X99202516Y-161783612D01*
X99185047Y-161735060D01*
X99109938Y-161412618D01*
X99090662Y-161057489D01*
X99125441Y-160690153D01*
X99212494Y-160331089D01*
X99332819Y-160034425D01*
X99525573Y-159732931D01*
X99773937Y-159480547D01*
X100069594Y-159281004D01*
X100404225Y-159138036D01*
X100769515Y-159055374D01*
X101157145Y-159036751D01*
X101480101Y-159070877D01*
G37*
G36*
X91348651Y-159097832D02*
G01*
X91674662Y-159207728D01*
X91974028Y-159371698D01*
X92237146Y-159588607D01*
X92454411Y-159857321D01*
X92543488Y-160012015D01*
X92651412Y-160274220D01*
X92735708Y-160575282D01*
X92787503Y-160878229D01*
X92799691Y-161079419D01*
X92799691Y-161347531D01*
X91427778Y-161347531D01*
X91056439Y-161347182D01*
X90756383Y-161347152D01*
X90520507Y-161348962D01*
X90341707Y-161354136D01*
X90212882Y-161364197D01*
X90126927Y-161380669D01*
X90076740Y-161405073D01*
X90055218Y-161438933D01*
X90055258Y-161483773D01*
X90069757Y-161541114D01*
X90091612Y-161612481D01*
X90097418Y-161632785D01*
X90187305Y-161822343D01*
X90335047Y-161986518D01*
X90520181Y-162103416D01*
X90547911Y-162114760D01*
X90753366Y-162162622D01*
X90968864Y-162161329D01*
X91175116Y-162115837D01*
X91352837Y-162031104D01*
X91482739Y-161912085D01*
X91511259Y-161867194D01*
X91532818Y-161833005D01*
X91563311Y-161808988D01*
X91615478Y-161793350D01*
X91702061Y-161784296D01*
X91835802Y-161780035D01*
X92029440Y-161778772D01*
X92139957Y-161778704D01*
X92378408Y-161780404D01*
X92547078Y-161785986D01*
X92654516Y-161796171D01*
X92709272Y-161811679D01*
X92720913Y-161827701D01*
X92696002Y-161930075D01*
X92630753Y-162069452D01*
X92537590Y-162224855D01*
X92428936Y-162375304D01*
X92330707Y-162486606D01*
X92067148Y-162696912D01*
X91752658Y-162857841D01*
X91399445Y-162966483D01*
X91019719Y-163019928D01*
X90625690Y-163015264D01*
X90310648Y-162968224D01*
X89933595Y-162851613D01*
X89604683Y-162675007D01*
X89327338Y-162442803D01*
X89104989Y-162159400D01*
X88941062Y-161829196D01*
X88838985Y-161456588D01*
X88802184Y-161045974D01*
X88802122Y-161032387D01*
X88833130Y-160643499D01*
X88852554Y-160573380D01*
X90056968Y-160573380D01*
X90062124Y-160597221D01*
X90085263Y-160614825D01*
X90136575Y-160627126D01*
X90226250Y-160635058D01*
X90364479Y-160639555D01*
X90561451Y-160641549D01*
X90805746Y-160641976D01*
X91555628Y-160641976D01*
X91531875Y-160495605D01*
X91471687Y-160320391D01*
X91359626Y-160148126D01*
X91217329Y-160009000D01*
X91153395Y-159967515D01*
X90970873Y-159907551D01*
X90762718Y-159900703D01*
X90558315Y-159944236D01*
X90387046Y-160035418D01*
X90382264Y-160039236D01*
X90275850Y-160147391D01*
X90176114Y-160285531D01*
X90098664Y-160428026D01*
X90059109Y-160549246D01*
X90056968Y-160573380D01*
X88852554Y-160573380D01*
X88930178Y-160293159D01*
X89096889Y-159972484D01*
X89336885Y-159672592D01*
X89370881Y-159637478D01*
X89655072Y-159399127D01*
X89970243Y-159221652D01*
X90306791Y-159103918D01*
X90655111Y-159044793D01*
X91005599Y-159043142D01*
X91348651Y-159097832D01*
G37*
G36*
X80842433Y-155582582D02*
G01*
X80865245Y-155676848D01*
X80889446Y-155816728D01*
X80912744Y-155994203D01*
X80919013Y-156051642D01*
X80995484Y-156661823D01*
X81089632Y-157195881D01*
X81201441Y-157653754D01*
X81330895Y-158035380D01*
X81477978Y-158340695D01*
X81527748Y-158420739D01*
X81721307Y-158653975D01*
X81971722Y-158865510D01*
X82242920Y-159029814D01*
X82360708Y-159081134D01*
X82510933Y-159135753D01*
X82675685Y-159188556D01*
X82837055Y-159234425D01*
X82977132Y-159268243D01*
X83078008Y-159284892D01*
X83120803Y-159280638D01*
X83136535Y-159231282D01*
X83157076Y-159121604D01*
X83179438Y-158969287D01*
X83195473Y-158838889D01*
X83215700Y-158668817D01*
X83233899Y-158530589D01*
X83247766Y-158440884D01*
X83254007Y-158415406D01*
X83262342Y-158447156D01*
X83276433Y-158542429D01*
X83294355Y-158686728D01*
X83314178Y-158865559D01*
X83315348Y-158876706D01*
X83337245Y-159076524D01*
X83355942Y-159211757D01*
X83375203Y-159295908D01*
X83398792Y-159342479D01*
X83430473Y-159364969D01*
X83453479Y-159372160D01*
X83520096Y-159384130D01*
X83650079Y-159403574D01*
X83828976Y-159428473D01*
X84042337Y-159456808D01*
X84241346Y-159482256D01*
X84474941Y-159511257D01*
X84648232Y-159533650D01*
X84759011Y-159551650D01*
X84805068Y-159567474D01*
X84784191Y-159583336D01*
X84694171Y-159601452D01*
X84532798Y-159624038D01*
X84297861Y-159653310D01*
X84039043Y-159685058D01*
X83846809Y-159709860D01*
X83683088Y-159732965D01*
X83563415Y-159752035D01*
X83503326Y-159764732D01*
X83500077Y-159766136D01*
X83475333Y-159807871D01*
X83477035Y-159893094D01*
X83506541Y-160031199D01*
X83565210Y-160231581D01*
X83569231Y-160244347D01*
X83707443Y-160589394D01*
X83887487Y-160871464D01*
X84116604Y-161097789D01*
X84402036Y-161275602D01*
X84732541Y-161406365D01*
X84876935Y-161451355D01*
X84990132Y-161485452D01*
X85053456Y-161503074D01*
X85060202Y-161504321D01*
X85063712Y-161466386D01*
X85066987Y-161357631D01*
X85069959Y-161185630D01*
X85072556Y-160957957D01*
X85074706Y-160682188D01*
X85076341Y-160365896D01*
X85077388Y-160016657D01*
X85077777Y-159642044D01*
X85077778Y-159622840D01*
X85077778Y-157741358D01*
X85763734Y-157741358D01*
X86449691Y-157741358D01*
X86449691Y-159716262D01*
X86449691Y-161691166D01*
X86537886Y-161714801D01*
X86601028Y-161721511D01*
X86730395Y-161727526D01*
X86913814Y-161732558D01*
X87139117Y-161736319D01*
X87394131Y-161738520D01*
X87557021Y-161738971D01*
X88487963Y-161739506D01*
X88487963Y-162327469D01*
X88487963Y-162915432D01*
X86782870Y-162915432D01*
X85077778Y-162915432D01*
X85077778Y-162425463D01*
X85076460Y-162239848D01*
X85072864Y-162086495D01*
X85067520Y-161980248D01*
X85060961Y-161935948D01*
X85060202Y-161935494D01*
X85017290Y-161946511D01*
X84918291Y-161975855D01*
X84781786Y-162017971D01*
X84729697Y-162034348D01*
X84455126Y-162137138D01*
X84219754Y-162263300D01*
X84019696Y-162419538D01*
X83851069Y-162612556D01*
X83709989Y-162849057D01*
X83592573Y-163135745D01*
X83494936Y-163479322D01*
X83413196Y-163886494D01*
X83343468Y-164363963D01*
X83333553Y-164444136D01*
X83302024Y-164697359D01*
X83277612Y-164876551D01*
X83259622Y-164985689D01*
X83247359Y-165028746D01*
X83240129Y-165009698D01*
X83238588Y-164987664D01*
X83227569Y-164861338D01*
X83205243Y-164676889D01*
X83174526Y-164453287D01*
X83138333Y-164209502D01*
X83099578Y-163964506D01*
X83061178Y-163737268D01*
X83026047Y-163546760D01*
X82997099Y-163411953D01*
X82995458Y-163405401D01*
X82877907Y-163031175D01*
X82728130Y-162723462D01*
X82538073Y-162474200D01*
X82299685Y-162275328D01*
X82004912Y-162118784D01*
X81645702Y-161996506D01*
X81567654Y-161976016D01*
X81371205Y-161927656D01*
X81237104Y-161902354D01*
X81151618Y-161904267D01*
X81101012Y-161937556D01*
X81071552Y-162006379D01*
X81049502Y-162114894D01*
X81046148Y-162133926D01*
X81026121Y-162261309D01*
X81000467Y-162444469D01*
X80972147Y-162661259D01*
X80944125Y-162889532D01*
X80937342Y-162947275D01*
X80912000Y-163152275D01*
X80887257Y-163329486D01*
X80865370Y-163464320D01*
X80848593Y-163542187D01*
X80843428Y-163554623D01*
X80827802Y-163534093D01*
X80810118Y-163451566D01*
X80793567Y-163323263D01*
X80789472Y-163280240D01*
X80770124Y-163092006D01*
X80743529Y-162876007D01*
X80712062Y-162647429D01*
X80678099Y-162421455D01*
X80644014Y-162213272D01*
X80612184Y-162038063D01*
X80584984Y-161911014D01*
X80565515Y-161848604D01*
X80492895Y-161792372D01*
X80382494Y-161776445D01*
X80241359Y-161766783D01*
X80092634Y-161746269D01*
X80080092Y-161743925D01*
X80007154Y-161728416D01*
X79985303Y-161716892D01*
X80021962Y-161706264D01*
X80124555Y-161693445D01*
X80227083Y-161682782D01*
X80369984Y-161664929D01*
X80476762Y-161645251D01*
X80528659Y-161627391D01*
X80530864Y-161623782D01*
X80516882Y-161555960D01*
X80514761Y-161549120D01*
X81186302Y-161549120D01*
X81338753Y-161521715D01*
X81452507Y-161496185D01*
X81608359Y-161454798D01*
X81773934Y-161406186D01*
X81785185Y-161402694D01*
X82135771Y-161259462D01*
X82429219Y-161067097D01*
X82662305Y-160828118D01*
X82801375Y-160608553D01*
X82845253Y-160507666D01*
X82894201Y-160372558D01*
X82942412Y-160222812D01*
X82984083Y-160078015D01*
X83013406Y-159957751D01*
X83024577Y-159881604D01*
X83021452Y-159866103D01*
X82975621Y-159867008D01*
X82874745Y-159890460D01*
X82736882Y-159930697D01*
X82580093Y-159981961D01*
X82422440Y-160038492D01*
X82281981Y-160094529D01*
X82224439Y-160120282D01*
X81948549Y-160290180D01*
X81697505Y-160522464D01*
X81486379Y-160801739D01*
X81392680Y-160969908D01*
X81318541Y-161129645D01*
X81256868Y-161278653D01*
X81217751Y-161391970D01*
X81211189Y-161418927D01*
X81186302Y-161549120D01*
X80514761Y-161549120D01*
X80480158Y-161437546D01*
X80428524Y-161290135D01*
X80369812Y-161135322D01*
X80311856Y-160994702D01*
X80269751Y-160903869D01*
X80185499Y-160763499D01*
X80075478Y-160612630D01*
X80009045Y-160534295D01*
X79839580Y-160371207D01*
X79646106Y-160229154D01*
X79421064Y-160105552D01*
X79156896Y-159997818D01*
X78846044Y-159903366D01*
X78480951Y-159819613D01*
X78054058Y-159743975D01*
X77557808Y-159673867D01*
X77454674Y-159660911D01*
X77235890Y-159633366D01*
X77046058Y-159608451D01*
X76898053Y-159587937D01*
X76804755Y-159573599D01*
X76778171Y-159567781D01*
X76810208Y-159559706D01*
X76905541Y-159545810D01*
X77049458Y-159528040D01*
X77227245Y-159508343D01*
X77228127Y-159508250D01*
X77791175Y-159438854D01*
X78297009Y-159355748D01*
X78740942Y-159260000D01*
X79118291Y-159152678D01*
X79424368Y-159034850D01*
X79528171Y-158983753D01*
X79767279Y-158831073D01*
X79975406Y-158641519D01*
X80155255Y-158409279D01*
X80309533Y-158128541D01*
X80440942Y-157793492D01*
X80552187Y-157398321D01*
X80645974Y-156937216D01*
X80723722Y-156414435D01*
X80751484Y-156189856D01*
X80775187Y-155984014D01*
X80793080Y-155813264D01*
X80803409Y-155693961D01*
X80805247Y-155653630D01*
X80810142Y-155562956D01*
X80823302Y-155541945D01*
X80842433Y-155582582D01*
G37*
%TD*%
%LPC*%
D10*
%TO.C,H5*%
X195262500Y-160734375D03*
%TD*%
%TO.C,H7*%
X366712500Y-76200000D03*
%TD*%
%TO.C,H4*%
X200025000Y-76200000D03*
%TD*%
%TO.C,H1*%
X66675000Y-76200000D03*
%TD*%
%TO.C,H2*%
X70246875Y-160734375D03*
%TD*%
%TO.C,H8*%
X352425000Y-160734375D03*
%TD*%
%TO.C,H3*%
X119062500Y-117871875D03*
%TD*%
%TO.C,H6*%
X291703125Y-118250000D03*
%TD*%
%LPD*%
M02*
