%TF.GenerationSoftware,KiCad,Pcbnew,7.0.11*%
%TF.CreationDate,2024-04-25T10:19:36+05:30*%
%TF.ProjectId,Lexicon 69,4c657869-636f-46e2-9036-392e6b696361,rev?*%
%TF.SameCoordinates,Original*%
%TF.FileFunction,Soldermask,Bot*%
%TF.FilePolarity,Negative*%
%FSLAX46Y46*%
G04 Gerber Fmt 4.6, Leading zero omitted, Abs format (unit mm)*
G04 Created by KiCad (PCBNEW 7.0.11) date 2024-04-25 10:19:36*
%MOMM*%
%LPD*%
G01*
G04 APERTURE LIST*
G04 Aperture macros list*
%AMRoundRect*
0 Rectangle with rounded corners*
0 $1 Rounding radius*
0 $2 $3 $4 $5 $6 $7 $8 $9 X,Y pos of 4 corners*
0 Add a 4 corners polygon primitive as box body*
4,1,4,$2,$3,$4,$5,$6,$7,$8,$9,$2,$3,0*
0 Add four circle primitives for the rounded corners*
1,1,$1+$1,$2,$3*
1,1,$1+$1,$4,$5*
1,1,$1+$1,$6,$7*
1,1,$1+$1,$8,$9*
0 Add four rect primitives between the rounded corners*
20,1,$1+$1,$2,$3,$4,$5,0*
20,1,$1+$1,$4,$5,$6,$7,0*
20,1,$1+$1,$6,$7,$8,$9,0*
20,1,$1+$1,$8,$9,$2,$3,0*%
G04 Aperture macros list end*
%ADD10C,1.700000*%
%ADD11C,4.000000*%
%ADD12C,2.200000*%
%ADD13C,3.048000*%
%ADD14C,3.987800*%
%ADD15RoundRect,0.135000X0.185000X-0.135000X0.185000X0.135000X-0.185000X0.135000X-0.185000X-0.135000X0*%
%ADD16R,1.200000X0.900000*%
%ADD17RoundRect,0.140000X-0.140000X-0.170000X0.140000X-0.170000X0.140000X0.170000X-0.140000X0.170000X0*%
%ADD18RoundRect,0.250000X-0.250000X-0.475000X0.250000X-0.475000X0.250000X0.475000X-0.250000X0.475000X0*%
%ADD19RoundRect,0.140000X-0.170000X0.140000X-0.170000X-0.140000X0.170000X-0.140000X0.170000X0.140000X0*%
%ADD20R,1.400000X1.200000*%
%ADD21R,1.800000X1.100000*%
%ADD22R,1.700000X1.700000*%
%ADD23O,1.700000X1.700000*%
%ADD24RoundRect,0.140000X0.170000X-0.140000X0.170000X0.140000X-0.170000X0.140000X-0.170000X-0.140000X0*%
%ADD25RoundRect,0.140000X0.140000X0.170000X-0.140000X0.170000X-0.140000X-0.170000X0.140000X-0.170000X0*%
%ADD26RoundRect,0.135000X-0.185000X0.135000X-0.185000X-0.135000X0.185000X-0.135000X0.185000X0.135000X0*%
%ADD27RoundRect,0.250000X0.425000X-0.450000X0.425000X0.450000X-0.425000X0.450000X-0.425000X-0.450000X0*%
%ADD28R,1.500000X2.000000*%
%ADD29R,3.800000X2.000000*%
%ADD30RoundRect,0.050000X0.387500X0.050000X-0.387500X0.050000X-0.387500X-0.050000X0.387500X-0.050000X0*%
%ADD31RoundRect,0.050000X0.050000X0.387500X-0.050000X0.387500X-0.050000X-0.387500X0.050000X-0.387500X0*%
%ADD32R,3.200000X3.200000*%
%ADD33RoundRect,0.150000X0.150000X-0.650000X0.150000X0.650000X-0.150000X0.650000X-0.150000X-0.650000X0*%
%ADD34RoundRect,0.150000X0.150000X-0.512500X0.150000X0.512500X-0.150000X0.512500X-0.150000X-0.512500X0*%
%ADD35C,0.650000*%
%ADD36R,0.600000X1.450000*%
%ADD37R,0.300000X1.450000*%
%ADD38O,1.000000X1.600000*%
%ADD39O,1.000000X2.100000*%
%ADD40RoundRect,0.243750X0.456250X-0.243750X0.456250X0.243750X-0.456250X0.243750X-0.456250X-0.243750X0*%
G04 APERTURE END LIST*
D10*
%TO.C,SW68*%
X367030000Y-157162500D03*
D11*
X361950000Y-157162500D03*
D10*
X356870000Y-157162500D03*
D12*
X359410000Y-162242500D03*
X365760000Y-159702500D03*
%TD*%
D13*
%TO.C,REF\u002A\u002A*%
X228593750Y-164147500D03*
D14*
X228593750Y-148907500D03*
D13*
X204793750Y-164147500D03*
D14*
X204793750Y-148907500D03*
%TD*%
D10*
%TO.C,SW8*%
X90805000Y-100012500D03*
D11*
X85725000Y-100012500D03*
D10*
X80645000Y-100012500D03*
D12*
X83185000Y-105092500D03*
X89535000Y-102552500D03*
%TD*%
D10*
%TO.C,SW29*%
X176530000Y-80962500D03*
D11*
X171450000Y-80962500D03*
D10*
X166370000Y-80962500D03*
D12*
X168910000Y-86042500D03*
X175260000Y-83502500D03*
%TD*%
D10*
%TO.C,SW41*%
X233680000Y-80962500D03*
D11*
X228600000Y-80962500D03*
D10*
X223520000Y-80962500D03*
D12*
X226060000Y-86042500D03*
X232410000Y-83502500D03*
%TD*%
D10*
%TO.C,SW39*%
X209867500Y-119062500D03*
D11*
X204787500Y-119062500D03*
D10*
X199707500Y-119062500D03*
D12*
X202247500Y-124142500D03*
X208597500Y-121602500D03*
%TD*%
D10*
%TO.C,SW18*%
X114617500Y-119062500D03*
D11*
X109537500Y-119062500D03*
D10*
X104457500Y-119062500D03*
D12*
X106997500Y-124142500D03*
X113347500Y-121602500D03*
%TD*%
D10*
%TO.C,SW6*%
X64611250Y-157162500D03*
D11*
X59531250Y-157162500D03*
D10*
X54451250Y-157162500D03*
D12*
X56991250Y-162242500D03*
X63341250Y-159702500D03*
%TD*%
D10*
%TO.C,SW79*%
X150336250Y-157162500D03*
D11*
X145256250Y-157162500D03*
D10*
X140176250Y-157162500D03*
D12*
X142716250Y-162242500D03*
X149066250Y-159702500D03*
%TD*%
D10*
%TO.C,SW33*%
X195580000Y-80962500D03*
D11*
X190500000Y-80962500D03*
D10*
X185420000Y-80962500D03*
D12*
X187960000Y-86042500D03*
X194310000Y-83502500D03*
%TD*%
D10*
%TO.C,SW20*%
X138430000Y-80962500D03*
D11*
X133350000Y-80962500D03*
D10*
X128270000Y-80962500D03*
D12*
X130810000Y-86042500D03*
X137160000Y-83502500D03*
%TD*%
D10*
%TO.C,SW47*%
X262255000Y-100012500D03*
D11*
X257175000Y-100012500D03*
D10*
X252095000Y-100012500D03*
D12*
X254635000Y-105092500D03*
X260985000Y-102552500D03*
%TD*%
D10*
%TO.C,SW75*%
X286067500Y-119062500D03*
D11*
X280987500Y-119062500D03*
D10*
X275907500Y-119062500D03*
D12*
X278447500Y-124142500D03*
X284797500Y-121602500D03*
%TD*%
D10*
%TO.C,SW49*%
X238442500Y-138112500D03*
D11*
X233362500Y-138112500D03*
D10*
X228282500Y-138112500D03*
D12*
X230822500Y-143192500D03*
X237172500Y-140652500D03*
%TD*%
D10*
%TO.C,SW57*%
X307498750Y-100012500D03*
D11*
X302418750Y-100012500D03*
D10*
X297338750Y-100012500D03*
D12*
X299878750Y-105092500D03*
X306228750Y-102552500D03*
%TD*%
D10*
%TO.C,SW36*%
X181292500Y-138112500D03*
D11*
X176212500Y-138112500D03*
D10*
X171132500Y-138112500D03*
D12*
X173672500Y-143192500D03*
X180022500Y-140652500D03*
%TD*%
D10*
%TO.C,SW78*%
X112236250Y-157162500D03*
D11*
X107156250Y-157162500D03*
D10*
X102076250Y-157162500D03*
D12*
X104616250Y-162242500D03*
X110966250Y-159702500D03*
%TD*%
D10*
%TO.C,SW59*%
X328930000Y-157162500D03*
D11*
X323850000Y-157162500D03*
D10*
X318770000Y-157162500D03*
D12*
X321310000Y-162242500D03*
X327660000Y-159702500D03*
%TD*%
D10*
%TO.C,SW42*%
X243205000Y-100012500D03*
D11*
X238125000Y-100012500D03*
D10*
X233045000Y-100012500D03*
D12*
X235585000Y-105092500D03*
X241935000Y-102552500D03*
%TD*%
D10*
%TO.C,SW28*%
X143192500Y-138112500D03*
D11*
X138112500Y-138112500D03*
D10*
X133032500Y-138112500D03*
D12*
X135572500Y-143192500D03*
X141922500Y-140652500D03*
%TD*%
D10*
%TO.C,SW38*%
X224155000Y-100012500D03*
D11*
X219075000Y-100012500D03*
D10*
X213995000Y-100012500D03*
D12*
X216535000Y-105092500D03*
X222885000Y-102552500D03*
%TD*%
D13*
%TO.C,REF\u002A\u002A*%
X295281250Y-131127500D03*
D14*
X295281250Y-146367500D03*
D13*
X319081250Y-131127500D03*
D14*
X319081250Y-146367500D03*
%TD*%
D10*
%TO.C,SW22*%
X133667500Y-119062500D03*
D11*
X128587500Y-119062500D03*
D10*
X123507500Y-119062500D03*
D12*
X126047500Y-124142500D03*
X132397500Y-121602500D03*
%TD*%
D10*
%TO.C,SW56*%
X290830000Y-80962500D03*
D11*
X285750000Y-80962500D03*
D10*
X280670000Y-80962500D03*
D12*
X283210000Y-86042500D03*
X289560000Y-83502500D03*
%TD*%
D10*
%TO.C,SW26*%
X167005000Y-100012500D03*
D11*
X161925000Y-100012500D03*
D10*
X156845000Y-100012500D03*
D12*
X159385000Y-105092500D03*
X165735000Y-102552500D03*
%TD*%
D10*
%TO.C,SW31*%
X171767500Y-119062500D03*
D11*
X166687500Y-119062500D03*
D10*
X161607500Y-119062500D03*
D12*
X164147500Y-124142500D03*
X170497500Y-121602500D03*
%TD*%
D10*
%TO.C,SW4*%
X64611250Y-119062500D03*
D11*
X59531250Y-119062500D03*
D10*
X54451250Y-119062500D03*
D12*
X56991250Y-124142500D03*
X63341250Y-121602500D03*
%TD*%
D10*
%TO.C,SW54*%
X257492500Y-138112500D03*
D11*
X252412500Y-138112500D03*
D10*
X247332500Y-138112500D03*
D12*
X249872500Y-143192500D03*
X256222500Y-140652500D03*
%TD*%
D10*
%TO.C,SW30*%
X186055000Y-100012500D03*
D11*
X180975000Y-100012500D03*
D10*
X175895000Y-100012500D03*
D12*
X178435000Y-105092500D03*
X184785000Y-102552500D03*
%TD*%
D10*
%TO.C,SW1*%
X347980000Y-80962500D03*
D11*
X342900000Y-80962500D03*
D10*
X337820000Y-80962500D03*
D12*
X340360000Y-86042500D03*
X346710000Y-83502500D03*
%TD*%
D10*
%TO.C,SW48*%
X247967500Y-119062500D03*
D11*
X242887500Y-119062500D03*
D10*
X237807500Y-119062500D03*
D12*
X240347500Y-124142500D03*
X246697500Y-121602500D03*
%TD*%
D10*
%TO.C,SW40*%
X200342500Y-138112500D03*
D11*
X195262500Y-138112500D03*
D10*
X190182500Y-138112500D03*
D12*
X192722500Y-143192500D03*
X199072500Y-140652500D03*
%TD*%
D13*
%TO.C,REF\u002A\u002A*%
X300043750Y-112077500D03*
D14*
X300043750Y-127317500D03*
D13*
X323843750Y-112077500D03*
D14*
X323843750Y-127317500D03*
%TD*%
D10*
%TO.C,SW21*%
X147955000Y-100012500D03*
D11*
X142875000Y-100012500D03*
D10*
X137795000Y-100012500D03*
D12*
X140335000Y-105092500D03*
X146685000Y-102552500D03*
%TD*%
D13*
%TO.C,REF\u002A\u002A*%
X302425000Y-73977500D03*
D14*
X302425000Y-89217500D03*
D13*
X326225000Y-73977500D03*
D14*
X326225000Y-89217500D03*
%TD*%
D10*
%TO.C,SW17*%
X128905000Y-100012500D03*
D11*
X123825000Y-100012500D03*
D10*
X118745000Y-100012500D03*
D12*
X121285000Y-105092500D03*
X127635000Y-102552500D03*
%TD*%
D10*
%TO.C,SW23*%
X124142500Y-138112500D03*
D11*
X119062500Y-138112500D03*
D10*
X113982500Y-138112500D03*
D12*
X116522500Y-143192500D03*
X122872500Y-140652500D03*
%TD*%
D10*
%TO.C,SW16*%
X119380000Y-80962500D03*
D11*
X114300000Y-80962500D03*
D10*
X109220000Y-80962500D03*
D12*
X111760000Y-86042500D03*
X118110000Y-83502500D03*
%TD*%
D10*
%TO.C,SW51*%
X271780000Y-80962500D03*
D11*
X266700000Y-80962500D03*
D10*
X261620000Y-80962500D03*
D12*
X264160000Y-86042500D03*
X270510000Y-83502500D03*
%TD*%
D10*
%TO.C,SW52*%
X283686250Y-100012500D03*
D11*
X278606250Y-100012500D03*
D10*
X273526250Y-100012500D03*
D12*
X276066250Y-105092500D03*
X282416250Y-102552500D03*
%TD*%
D10*
%TO.C,SW25*%
X157480000Y-80962500D03*
D11*
X152400000Y-80962500D03*
D10*
X147320000Y-80962500D03*
D12*
X149860000Y-86042500D03*
X156210000Y-83502500D03*
%TD*%
D10*
%TO.C,SW12*%
X109855000Y-100012500D03*
D11*
X104775000Y-100012500D03*
D10*
X99695000Y-100012500D03*
D12*
X102235000Y-105092500D03*
X108585000Y-102552500D03*
%TD*%
D10*
%TO.C,SW7*%
X81280000Y-80962500D03*
D11*
X76200000Y-80962500D03*
D10*
X71120000Y-80962500D03*
D12*
X73660000Y-86042500D03*
X80010000Y-83502500D03*
%TD*%
D10*
%TO.C,SW37*%
X214630000Y-80962500D03*
D11*
X209550000Y-80962500D03*
D10*
X204470000Y-80962500D03*
D12*
X207010000Y-86042500D03*
X213360000Y-83502500D03*
%TD*%
D10*
%TO.C,SW43*%
X228917500Y-119062500D03*
D11*
X223837500Y-119062500D03*
D10*
X218757500Y-119062500D03*
D12*
X221297500Y-124142500D03*
X227647500Y-121602500D03*
%TD*%
D10*
%TO.C,SW58*%
X276542500Y-138112500D03*
D11*
X271462500Y-138112500D03*
D10*
X266382500Y-138112500D03*
D12*
X268922500Y-143192500D03*
X275272500Y-140652500D03*
%TD*%
D10*
%TO.C,SW55*%
X281305000Y-157162500D03*
D11*
X276225000Y-157162500D03*
D10*
X271145000Y-157162500D03*
D12*
X273685000Y-162242500D03*
X280035000Y-159702500D03*
%TD*%
D10*
%TO.C,SW50*%
X262255000Y-157162500D03*
D11*
X257175000Y-157162500D03*
D10*
X252095000Y-157162500D03*
D12*
X254635000Y-162242500D03*
X260985000Y-159702500D03*
%TD*%
D13*
%TO.C,REF\u002A\u002A*%
X57156250Y-131127500D03*
D14*
X57156250Y-146367500D03*
D13*
X80956250Y-131127500D03*
D14*
X80956250Y-146367500D03*
%TD*%
D10*
%TO.C,SW64*%
X347980000Y-157162500D03*
D11*
X342900000Y-157162500D03*
D10*
X337820000Y-157162500D03*
D12*
X340360000Y-162242500D03*
X346710000Y-159702500D03*
%TD*%
D10*
%TO.C,SW3*%
X66992500Y-100012500D03*
D11*
X61912500Y-100012500D03*
D10*
X56832500Y-100012500D03*
D12*
X59372500Y-105092500D03*
X65722500Y-102552500D03*
%TD*%
D10*
%TO.C,SW46*%
X252730000Y-80962500D03*
D11*
X247650000Y-80962500D03*
D10*
X242570000Y-80962500D03*
D12*
X245110000Y-86042500D03*
X251460000Y-83502500D03*
%TD*%
D10*
%TO.C,SW15*%
X88423750Y-157162500D03*
D11*
X83343750Y-157162500D03*
D10*
X78263750Y-157162500D03*
D12*
X80803750Y-162242500D03*
X87153750Y-159702500D03*
%TD*%
D10*
%TO.C,SW11*%
X100330000Y-80962500D03*
D11*
X95250000Y-80962500D03*
D10*
X90170000Y-80962500D03*
D12*
X92710000Y-86042500D03*
X99060000Y-83502500D03*
%TD*%
D10*
%TO.C,SW82*%
X302736250Y-157162500D03*
D11*
X297656250Y-157162500D03*
D10*
X292576250Y-157162500D03*
D12*
X295116250Y-162242500D03*
X301466250Y-159702500D03*
%TD*%
D10*
%TO.C,SW27*%
X152717500Y-119062500D03*
D11*
X147637500Y-119062500D03*
D10*
X142557500Y-119062500D03*
D12*
X145097500Y-124142500D03*
X151447500Y-121602500D03*
%TD*%
D10*
%TO.C,SW35*%
X190817500Y-119062500D03*
D11*
X185737500Y-119062500D03*
D10*
X180657500Y-119062500D03*
D12*
X183197500Y-124142500D03*
X189547500Y-121602500D03*
%TD*%
D10*
%TO.C,SW19*%
X105092500Y-138112500D03*
D11*
X100012500Y-138112500D03*
D10*
X94932500Y-138112500D03*
D12*
X97472500Y-143192500D03*
X103822500Y-140652500D03*
%TD*%
D10*
%TO.C,SW67*%
X347980000Y-119062500D03*
D11*
X342900000Y-119062500D03*
D10*
X337820000Y-119062500D03*
D12*
X340360000Y-124142500D03*
X346710000Y-121602500D03*
%TD*%
D10*
%TO.C,SW44*%
X219392500Y-138112500D03*
D11*
X214312500Y-138112500D03*
D10*
X209232500Y-138112500D03*
D12*
X211772500Y-143192500D03*
X218122500Y-140652500D03*
%TD*%
D10*
%TO.C,SW53*%
X267017500Y-119062500D03*
D11*
X261937500Y-119062500D03*
D10*
X256857500Y-119062500D03*
D12*
X259397500Y-124142500D03*
X265747500Y-121602500D03*
%TD*%
D10*
%TO.C,SW77*%
X221773750Y-157162500D03*
D11*
X216693750Y-157162500D03*
D10*
X211613750Y-157162500D03*
D12*
X214153750Y-162242500D03*
X220503750Y-159702500D03*
%TD*%
D10*
%TO.C,SW63*%
X312261250Y-138112500D03*
D11*
X307181250Y-138112500D03*
D10*
X302101250Y-138112500D03*
D12*
X304641250Y-143192500D03*
X310991250Y-140652500D03*
%TD*%
D13*
%TO.C,REF\u002A\u002A*%
X157156250Y-164147500D03*
D14*
X157156250Y-148907500D03*
D13*
X133356250Y-164147500D03*
D14*
X133356250Y-148907500D03*
%TD*%
D10*
%TO.C,SW2*%
X62230000Y-80962500D03*
D11*
X57150000Y-80962500D03*
D10*
X52070000Y-80962500D03*
D12*
X54610000Y-86042500D03*
X60960000Y-83502500D03*
%TD*%
D10*
%TO.C,SW32*%
X162242500Y-138112500D03*
D11*
X157162500Y-138112500D03*
D10*
X152082500Y-138112500D03*
D12*
X154622500Y-143192500D03*
X160972500Y-140652500D03*
%TD*%
D10*
%TO.C,SW5*%
X74136250Y-138112500D03*
D11*
X69056250Y-138112500D03*
D10*
X63976250Y-138112500D03*
D12*
X66516250Y-143192500D03*
X72866250Y-140652500D03*
%TD*%
D10*
%TO.C,SW62*%
X317023750Y-119062500D03*
D11*
X311943750Y-119062500D03*
D10*
X306863750Y-119062500D03*
D12*
X309403750Y-124142500D03*
X315753750Y-121602500D03*
%TD*%
D10*
%TO.C,SW13*%
X95567500Y-119062500D03*
D11*
X90487500Y-119062500D03*
D10*
X85407500Y-119062500D03*
D12*
X87947500Y-124142500D03*
X94297500Y-121602500D03*
%TD*%
D10*
%TO.C,SW70*%
X319405000Y-80962500D03*
D11*
X314325000Y-80962500D03*
D10*
X309245000Y-80962500D03*
D12*
X311785000Y-86042500D03*
X318135000Y-83502500D03*
%TD*%
D10*
%TO.C,SW69*%
X347980000Y-138112500D03*
D11*
X342900000Y-138112500D03*
D10*
X337820000Y-138112500D03*
D12*
X340360000Y-143192500D03*
X346710000Y-140652500D03*
%TD*%
D10*
%TO.C,SW71*%
X328930000Y-100012500D03*
D11*
X323850000Y-100012500D03*
D10*
X318770000Y-100012500D03*
D12*
X321310000Y-105092500D03*
X327660000Y-102552500D03*
%TD*%
D10*
%TO.C,SW24*%
X183673750Y-157162500D03*
D11*
X178593750Y-157162500D03*
D10*
X173513750Y-157162500D03*
D12*
X176053750Y-162242500D03*
X182403750Y-159702500D03*
%TD*%
D10*
%TO.C,SW66*%
X347980000Y-100012500D03*
D11*
X342900000Y-100012500D03*
D10*
X337820000Y-100012500D03*
D12*
X340360000Y-105092500D03*
X346710000Y-102552500D03*
%TD*%
D10*
%TO.C,SW34*%
X205105000Y-100012500D03*
D11*
X200025000Y-100012500D03*
D10*
X194945000Y-100012500D03*
D12*
X197485000Y-105092500D03*
X203835000Y-102552500D03*
%TD*%
D10*
%TO.C,SW9*%
X69373750Y-119062500D03*
D11*
X64293750Y-119062500D03*
D10*
X59213750Y-119062500D03*
D12*
X61753750Y-124142500D03*
X68103750Y-121602500D03*
%TD*%
D15*
%TO.C,R10*%
X355250000Y-101010000D03*
X355250000Y-99990000D03*
%TD*%
D16*
%TO.C,D57*%
X279796875Y-134081250D03*
X279796875Y-137381250D03*
%TD*%
D15*
%TO.C,R11*%
X354250000Y-101010000D03*
X354250000Y-99990000D03*
%TD*%
D16*
%TO.C,D10*%
X104775000Y-88565625D03*
X104775000Y-85265625D03*
%TD*%
D17*
%TO.C,C94*%
X362020000Y-103750000D03*
X362980000Y-103750000D03*
%TD*%
D16*
%TO.C,D47*%
X251221875Y-115031250D03*
X251221875Y-118331250D03*
%TD*%
%TO.C,D36*%
X219150000Y-88565625D03*
X219150000Y-85265625D03*
%TD*%
%TO.C,D54*%
X284559375Y-153131250D03*
X284559375Y-156431250D03*
%TD*%
D18*
%TO.C,C97*%
X351300000Y-97500000D03*
X353200000Y-97500000D03*
%TD*%
D16*
%TO.C,D16*%
X132159375Y-95981250D03*
X132159375Y-99281250D03*
%TD*%
D19*
%TO.C,C92*%
X355000000Y-112270000D03*
X355000000Y-113230000D03*
%TD*%
D16*
%TO.C,D12*%
X98821875Y-115031250D03*
X98821875Y-118331250D03*
%TD*%
%TO.C,D15*%
X123825000Y-88565625D03*
X123825000Y-85265625D03*
%TD*%
D20*
%TO.C,Y2*%
X359900000Y-112950000D03*
X362100000Y-112950000D03*
X362100000Y-114550000D03*
X359900000Y-114550000D03*
%TD*%
D21*
%TO.C,SW65*%
X359600000Y-131150000D03*
X353400000Y-131150000D03*
X359600000Y-134850000D03*
X353400000Y-134850000D03*
%TD*%
D18*
%TO.C,C84*%
X357582000Y-128000000D03*
X359482000Y-128000000D03*
%TD*%
D16*
%TO.C,D30*%
X175021875Y-115031250D03*
X175021875Y-118331250D03*
%TD*%
%TO.C,D27*%
X146446875Y-134081250D03*
X146446875Y-137381250D03*
%TD*%
%TO.C,D17*%
X101203125Y-115031250D03*
X101203125Y-118331250D03*
%TD*%
D22*
%TO.C,J5*%
X368750000Y-105500000D03*
D23*
X368750000Y-108040000D03*
X368750000Y-110580000D03*
X368750000Y-113120000D03*
%TD*%
D16*
%TO.C,D56*%
X310750000Y-95981250D03*
X310750000Y-99281250D03*
%TD*%
%TO.C,D22*%
X127396875Y-134081250D03*
X127396875Y-137381250D03*
%TD*%
%TO.C,D26*%
X155971875Y-115031250D03*
X155971875Y-118331250D03*
%TD*%
%TO.C,D35*%
X184546875Y-134081250D03*
X184546875Y-137381250D03*
%TD*%
%TO.C,D6*%
X85709375Y-88565625D03*
X85709375Y-85265625D03*
%TD*%
%TO.C,D45*%
X257175000Y-88565625D03*
X257175000Y-85265625D03*
%TD*%
%TO.C,D74*%
X161925000Y-153131250D03*
X161925000Y-156431250D03*
%TD*%
%TO.C,D43*%
X222646875Y-134081250D03*
X222646875Y-137381250D03*
%TD*%
%TO.C,D60*%
X334565625Y-88565625D03*
X334565625Y-85265625D03*
%TD*%
D24*
%TO.C,C85*%
X353250000Y-100980000D03*
X353250000Y-100020000D03*
%TD*%
D25*
%TO.C,C90*%
X350730000Y-108000000D03*
X349770000Y-108000000D03*
%TD*%
D16*
%TO.C,D55*%
X295275000Y-88565625D03*
X295275000Y-85265625D03*
%TD*%
%TO.C,D133*%
X334565625Y-115031250D03*
X334565625Y-118331250D03*
%TD*%
%TO.C,D1*%
X66675000Y-88565625D03*
X66675000Y-85265625D03*
%TD*%
D26*
%TO.C,R12*%
X356000000Y-112240000D03*
X356000000Y-113260000D03*
%TD*%
D27*
%TO.C,C82*%
X363250000Y-85350000D03*
X363250000Y-82650000D03*
%TD*%
D28*
%TO.C,U4*%
X358800000Y-124900000D03*
X356500000Y-124900000D03*
D29*
X356500000Y-118600000D03*
D28*
X354200000Y-124900000D03*
%TD*%
D16*
%TO.C,D66*%
X332184375Y-95981250D03*
X332184375Y-99281250D03*
%TD*%
%TO.C,D77*%
X305990625Y-153131250D03*
X305990625Y-156431250D03*
%TD*%
%TO.C,D3*%
X72628125Y-115031250D03*
X72628125Y-118331250D03*
%TD*%
%TO.C,D64*%
X334565625Y-134081250D03*
X334565625Y-137381250D03*
%TD*%
%TO.C,D7*%
X94059375Y-95981250D03*
X94059375Y-99281250D03*
%TD*%
%TO.C,D62*%
X323850000Y-134081250D03*
X323850000Y-137381250D03*
%TD*%
%TO.C,D48*%
X241696875Y-134081250D03*
X241696875Y-137381250D03*
%TD*%
%TO.C,D32*%
X200025000Y-88565625D03*
X200025000Y-85265625D03*
%TD*%
D15*
%TO.C,R2*%
X350750000Y-76760000D03*
X350750000Y-75740000D03*
%TD*%
D16*
%TO.C,D37*%
X227409375Y-95981250D03*
X227409375Y-99281250D03*
%TD*%
%TO.C,D53*%
X260746875Y-134081250D03*
X260746875Y-137381250D03*
%TD*%
%TO.C,D70*%
X272653125Y-115031250D03*
X272653125Y-118331250D03*
%TD*%
D19*
%TO.C,C70*%
X351500000Y-132520000D03*
X351500000Y-133480000D03*
%TD*%
D16*
%TO.C,D20*%
X151209375Y-95981250D03*
X151209375Y-99281250D03*
%TD*%
D25*
%TO.C,C89*%
X367980000Y-90750000D03*
X367020000Y-90750000D03*
%TD*%
D16*
%TO.C,D46*%
X265509375Y-95981250D03*
X265509375Y-99281250D03*
%TD*%
%TO.C,D14*%
X94115625Y-153131250D03*
X94115625Y-156431250D03*
%TD*%
%TO.C,D50*%
X276225000Y-88565625D03*
X276225000Y-85265625D03*
%TD*%
D17*
%TO.C,C93*%
X362020000Y-107750000D03*
X362980000Y-107750000D03*
%TD*%
D15*
%TO.C,R14*%
X367000000Y-103260000D03*
X367000000Y-102240000D03*
%TD*%
D16*
%TO.C,D28*%
X180975000Y-88565625D03*
X180975000Y-85265625D03*
%TD*%
%TO.C,D2*%
X70246875Y-95981250D03*
X70246875Y-99281250D03*
%TD*%
D30*
%TO.C,U5*%
X359687500Y-104150000D03*
X359687500Y-104550000D03*
X359687500Y-104950000D03*
X359687500Y-105350000D03*
X359687500Y-105750000D03*
X359687500Y-106150000D03*
X359687500Y-106550000D03*
X359687500Y-106950000D03*
X359687500Y-107350000D03*
X359687500Y-107750000D03*
X359687500Y-108150000D03*
X359687500Y-108550000D03*
X359687500Y-108950000D03*
X359687500Y-109350000D03*
D31*
X358850000Y-110187500D03*
X358450000Y-110187500D03*
X358050000Y-110187500D03*
X357650000Y-110187500D03*
X357250000Y-110187500D03*
X356850000Y-110187500D03*
X356450000Y-110187500D03*
X356050000Y-110187500D03*
X355650000Y-110187500D03*
X355250000Y-110187500D03*
X354850000Y-110187500D03*
X354450000Y-110187500D03*
X354050000Y-110187500D03*
X353650000Y-110187500D03*
D30*
X352812500Y-109350000D03*
X352812500Y-108950000D03*
X352812500Y-108550000D03*
X352812500Y-108150000D03*
X352812500Y-107750000D03*
X352812500Y-107350000D03*
X352812500Y-106950000D03*
X352812500Y-106550000D03*
X352812500Y-106150000D03*
X352812500Y-105750000D03*
X352812500Y-105350000D03*
X352812500Y-104950000D03*
X352812500Y-104550000D03*
X352812500Y-104150000D03*
D31*
X353650000Y-103312500D03*
X354050000Y-103312500D03*
X354450000Y-103312500D03*
X354850000Y-103312500D03*
X355250000Y-103312500D03*
X355650000Y-103312500D03*
X356050000Y-103312500D03*
X356450000Y-103312500D03*
X356850000Y-103312500D03*
X357250000Y-103312500D03*
X357650000Y-103312500D03*
X358050000Y-103312500D03*
X358450000Y-103312500D03*
X358850000Y-103312500D03*
D32*
X356250000Y-106750000D03*
%TD*%
D15*
%TO.C,R7*%
X352000000Y-113260000D03*
X352000000Y-112240000D03*
%TD*%
D16*
%TO.C,D72*%
X233362500Y-153131250D03*
X233362500Y-156431250D03*
%TD*%
%TO.C,D49*%
X265509375Y-153131250D03*
X265509375Y-156431250D03*
%TD*%
D19*
%TO.C,C80*%
X358250000Y-112270000D03*
X358250000Y-113230000D03*
%TD*%
D16*
%TO.C,D41*%
X246459375Y-95981250D03*
X246459375Y-99281250D03*
%TD*%
%TO.C,D52*%
X270271875Y-115031250D03*
X270271875Y-118331250D03*
%TD*%
D24*
%TO.C,C95*%
X356250000Y-100980000D03*
X356250000Y-100020000D03*
%TD*%
D33*
%TO.C,U6*%
X368155000Y-99850000D03*
X366885000Y-99850000D03*
X365615000Y-99850000D03*
X364345000Y-99850000D03*
X364345000Y-92650000D03*
X365615000Y-92650000D03*
X366885000Y-92650000D03*
X368155000Y-92650000D03*
%TD*%
D16*
%TO.C,D58*%
X332184375Y-153131250D03*
X332184375Y-156431250D03*
%TD*%
%TO.C,D31*%
X165496875Y-134081250D03*
X165496875Y-137381250D03*
%TD*%
%TO.C,D23*%
X187365625Y-153131250D03*
X187365625Y-156431250D03*
%TD*%
%TO.C,D73*%
X115490625Y-153131250D03*
X115490625Y-156431250D03*
%TD*%
%TO.C,D61*%
X328612500Y-115031250D03*
X328612500Y-118331250D03*
%TD*%
D34*
%TO.C,U2*%
X358650000Y-85137500D03*
X357700000Y-85137500D03*
X356750000Y-85137500D03*
X356750000Y-82862500D03*
X357700000Y-82862500D03*
X358650000Y-82862500D03*
%TD*%
D16*
%TO.C,D19*%
X142875000Y-88565625D03*
X142875000Y-85265625D03*
%TD*%
%TO.C,D4*%
X85725000Y-134081250D03*
X85725000Y-137381250D03*
%TD*%
%TO.C,D24*%
X161925000Y-88565625D03*
X161925000Y-85265625D03*
%TD*%
%TO.C,D11*%
X113109375Y-95981250D03*
X113109375Y-99281250D03*
%TD*%
D24*
%TO.C,C88*%
X357250000Y-100980000D03*
X357250000Y-100020000D03*
%TD*%
D16*
%TO.C,D38*%
X213121875Y-115031250D03*
X213121875Y-118331250D03*
%TD*%
D35*
%TO.C,J2*%
X354297500Y-77040000D03*
X360077500Y-77040000D03*
D36*
X353937500Y-78485000D03*
X354737500Y-78485000D03*
D37*
X355937500Y-78485000D03*
X356937500Y-78485000D03*
X357437500Y-78485000D03*
X358437500Y-78485000D03*
D36*
X359637500Y-78485000D03*
X360437500Y-78485000D03*
X360437500Y-78485000D03*
X359637500Y-78485000D03*
D37*
X358937500Y-78485000D03*
X357937500Y-78485000D03*
X356437500Y-78485000D03*
X355437500Y-78485000D03*
D36*
X354737500Y-78485000D03*
X353937500Y-78485000D03*
D38*
X352867500Y-73390000D03*
D39*
X352867500Y-77570000D03*
D38*
X361507500Y-73390000D03*
D39*
X361507500Y-77570000D03*
%TD*%
D16*
%TO.C,D33*%
X208359375Y-95981250D03*
X208359375Y-99281250D03*
%TD*%
D24*
%TO.C,C91*%
X351250000Y-100980000D03*
X351250000Y-100020000D03*
%TD*%
D16*
%TO.C,D39*%
X203596875Y-134081250D03*
X203596875Y-137381250D03*
%TD*%
D18*
%TO.C,C83*%
X353772000Y-128000000D03*
X355672000Y-128000000D03*
%TD*%
D16*
%TO.C,D132*%
X334565625Y-95981250D03*
X334565625Y-99281250D03*
%TD*%
%TO.C,D51*%
X286940625Y-95981250D03*
X286940625Y-99281250D03*
%TD*%
%TO.C,D40*%
X238125000Y-88565625D03*
X238125000Y-85265625D03*
%TD*%
%TO.C,D5*%
X67865625Y-153131250D03*
X67865625Y-156431250D03*
%TD*%
%TO.C,D25*%
X170259375Y-95981250D03*
X170259375Y-99281250D03*
%TD*%
%TO.C,D34*%
X194071875Y-115031250D03*
X194071875Y-118331250D03*
%TD*%
D40*
%TO.C,F1*%
X361000000Y-84937500D03*
X361000000Y-83062500D03*
%TD*%
D16*
%TO.C,D42*%
X232171875Y-115031250D03*
X232171875Y-118331250D03*
%TD*%
D15*
%TO.C,R1*%
X363500000Y-76760000D03*
X363500000Y-75740000D03*
%TD*%
D16*
%TO.C,D21*%
X136921875Y-115031250D03*
X136921875Y-118331250D03*
%TD*%
%TO.C,D65*%
X332184375Y-88565625D03*
X332184375Y-85265625D03*
%TD*%
%TO.C,D18*%
X108346875Y-134081250D03*
X108346875Y-137381250D03*
%TD*%
D24*
%TO.C,C96*%
X351000000Y-103480000D03*
X351000000Y-102520000D03*
%TD*%
D19*
%TO.C,C87*%
X353750000Y-112270000D03*
X353750000Y-113230000D03*
%TD*%
%TO.C,C81*%
X357000000Y-112270000D03*
X357000000Y-113230000D03*
%TD*%
D15*
%TO.C,R13*%
X368250000Y-103260000D03*
X368250000Y-102240000D03*
%TD*%
D16*
%TO.C,D134*%
X353915625Y-153131250D03*
X353915625Y-156431250D03*
%TD*%
%TO.C,D63*%
X351234375Y-153131250D03*
X351234375Y-156431250D03*
%TD*%
%TO.C,D29*%
X189309375Y-95981250D03*
X189309375Y-99281250D03*
%TD*%
D24*
%TO.C,C86*%
X352250000Y-100980000D03*
X352250000Y-100020000D03*
%TD*%
M02*
