M48
; DRILL file {KiCad 7.0.11} date Thu Apr 25 10:19:38 2024
; FORMAT={-:-/ absolute / inch / decimal}
; #@! TF.CreationDate,2024-04-25T10:19:38+05:30
; #@! TF.GenerationSoftware,Kicad,Pcbnew,7.0.11
; #@! TF.FileFunction,NonPlated,1,2,NPTH
FMAT,2
INCH
; #@! TA.AperFunction,NonPlated,NPTH,ComponentDrill
T1C0.0256
; #@! TA.AperFunction,NonPlated,NPTH,ComponentDrill
T2C0.0669
; #@! TA.AperFunction,NonPlated,NPTH,ComponentDrill
T3C0.1200
; #@! TA.AperFunction,NonPlated,NPTH,ComponentDrill
T4C0.1570
; #@! TA.AperFunction,NonPlated,NPTH,ComponentDrill
T5C0.1575
%
G90
G05
T1
X13.9487Y-3.0331
X14.1763Y-3.0331
T2
X2.05Y-3.1875
X2.1437Y-4.6875
X2.1437Y-6.1875
X2.2375Y-3.9375
X2.3312Y-4.6875
X2.45Y-3.1875
X2.5187Y-5.4375
X2.5437Y-4.6875
X2.5437Y-6.1875
X2.6375Y-3.9375
X2.7312Y-4.6875
X2.8Y-3.1875
X2.9187Y-5.4375
X3.0812Y-6.1875
X3.175Y-3.9375
X3.2Y-3.1875
X3.3625Y-4.6875
X3.4812Y-6.1875
X3.55Y-3.1875
X3.575Y-3.9375
X3.7375Y-5.4375
X3.7625Y-4.6875
X3.925Y-3.9375
X3.95Y-3.1875
X4.0187Y-6.1875
X4.1125Y-4.6875
X4.1375Y-5.4375
X4.3Y-3.1875
X4.325Y-3.9375
X4.4188Y-6.1875
X4.4875Y-5.4375
X4.5125Y-4.6875
X4.675Y-3.9375
X4.7Y-3.1875
X4.8625Y-4.6875
X4.8875Y-5.4375
X5.05Y-3.1875
X5.075Y-3.9375
X5.2375Y-5.4375
X5.2625Y-4.6875
X5.425Y-3.9375
X5.45Y-3.1875
X5.5187Y-6.1875
X5.6125Y-4.6875
X5.6375Y-5.4375
X5.8Y-3.1875
X5.825Y-3.9375
X5.9188Y-6.1875
X5.9875Y-5.4375
X6.0125Y-4.6875
X6.175Y-3.9375
X6.2Y-3.1875
X6.3625Y-4.6875
X6.3875Y-5.4375
X6.55Y-3.1875
X6.575Y-3.9375
X6.7375Y-5.4375
X6.7625Y-4.6875
X6.8312Y-6.1875
X6.925Y-3.9375
X6.95Y-3.1875
X7.1125Y-4.6875
X7.1375Y-5.4375
X7.2313Y-6.1875
X7.3Y-3.1875
X7.325Y-3.9375
X7.4875Y-5.4375
X7.5125Y-4.6875
X7.675Y-3.9375
X7.7Y-3.1875
X7.8625Y-4.6875
X7.8875Y-5.4375
X8.05Y-3.1875
X8.075Y-3.9375
X8.2375Y-5.4375
X8.2625Y-4.6875
X8.3312Y-6.1875
X8.425Y-3.9375
X8.45Y-3.1875
X8.6125Y-4.6875
X8.6375Y-5.4375
X8.7312Y-6.1875
X8.8Y-3.1875
X8.825Y-3.9375
X8.9875Y-5.4375
X9.0125Y-4.6875
X9.175Y-3.9375
X9.2Y-3.1875
X9.3625Y-4.6875
X9.3875Y-5.4375
X9.55Y-3.1875
X9.575Y-3.9375
X9.7375Y-5.4375
X9.7625Y-4.6875
X9.925Y-3.9375
X9.925Y-6.1875
X9.95Y-3.1875
X10.1125Y-4.6875
X10.1375Y-5.4375
X10.3Y-3.1875
X10.325Y-3.9375
X10.325Y-6.1875
X10.4875Y-5.4375
X10.5125Y-4.6875
X10.675Y-6.1875
X10.7Y-3.1875
X10.7687Y-3.9375
X10.8625Y-4.6875
X10.8875Y-5.4375
X11.05Y-3.1875
X11.075Y-6.1875
X11.1687Y-3.9375
X11.2625Y-4.6875
X11.45Y-3.1875
X11.5187Y-6.1875
X11.7062Y-3.9375
X11.8937Y-5.4375
X11.9187Y-6.1875
X12.0812Y-4.6875
X12.1062Y-3.9375
X12.175Y-3.1875
X12.2937Y-5.4375
X12.4812Y-4.6875
X12.55Y-3.9375
X12.55Y-6.1875
X12.575Y-3.1875
X12.95Y-3.9375
X12.95Y-6.1875
X13.3Y-3.1875
X13.3Y-3.9375
X13.3Y-4.6875
X13.3Y-5.4375
X13.3Y-6.1875
X13.7Y-3.1875
X13.7Y-3.9375
X13.7Y-4.6875
X13.7Y-5.4375
X13.7Y-6.1875
X14.05Y-6.1875
X14.45Y-6.1875
T3
X2.2502Y-5.1625
X3.1873Y-5.1625
X5.2502Y-6.4625
X6.1873Y-6.4625
X8.0627Y-6.4625
X8.9998Y-6.4625
X11.6252Y-5.1625
X11.8127Y-4.4125
X11.9065Y-2.9125
X12.5623Y-5.1625
X12.7498Y-4.4125
X12.8435Y-2.9125
T4
X2.2502Y-5.7625
X3.1873Y-5.7625
X5.2502Y-5.8625
X6.1873Y-5.8625
X8.0627Y-5.8625
X8.9998Y-5.8625
X11.6252Y-5.7625
X11.8127Y-5.0125
X11.9065Y-3.5125
X12.5623Y-5.7625
X12.7498Y-5.0125
X12.8435Y-3.5125
T5
X2.25Y-3.1875
X2.3438Y-4.6875
X2.3438Y-6.1875
X2.4375Y-3.9375
X2.5312Y-4.6875
X2.7188Y-5.4375
X3.0Y-3.1875
X3.2812Y-6.1875
X3.375Y-3.9375
X3.5625Y-4.6875
X3.75Y-3.1875
X3.9375Y-5.4375
X4.125Y-3.9375
X4.2188Y-6.1875
X4.3125Y-4.6875
X4.5Y-3.1875
X4.6875Y-5.4375
X4.875Y-3.9375
X5.0625Y-4.6875
X5.25Y-3.1875
X5.4375Y-5.4375
X5.625Y-3.9375
X5.7188Y-6.1875
X5.8125Y-4.6875
X6.0Y-3.1875
X6.1875Y-5.4375
X6.375Y-3.9375
X6.5625Y-4.6875
X6.75Y-3.1875
X6.9375Y-5.4375
X7.0312Y-6.1875
X7.125Y-3.9375
X7.3125Y-4.6875
X7.5Y-3.1875
X7.6875Y-5.4375
X7.875Y-3.9375
X8.0625Y-4.6875
X8.25Y-3.1875
X8.4375Y-5.4375
X8.5312Y-6.1875
X8.625Y-3.9375
X8.8125Y-4.6875
X9.0Y-3.1875
X9.1875Y-5.4375
X9.375Y-3.9375
X9.5625Y-4.6875
X9.75Y-3.1875
X9.9375Y-5.4375
X10.125Y-3.9375
X10.125Y-6.1875
X10.3125Y-4.6875
X10.5Y-3.1875
X10.6875Y-5.4375
X10.875Y-6.1875
X10.9688Y-3.9375
X11.0625Y-4.6875
X11.25Y-3.1875
X11.7188Y-6.1875
X11.9062Y-3.9375
X12.0938Y-5.4375
X12.2812Y-4.6875
X12.375Y-3.1875
X12.75Y-3.9375
X12.75Y-6.1875
X13.5Y-3.1875
X13.5Y-3.9375
X13.5Y-4.6875
X13.5Y-5.4375
X13.5Y-6.1875
X14.25Y-6.1875
M30
