%TF.GenerationSoftware,KiCad,Pcbnew,7.0.11*%
%TF.CreationDate,2024-04-25T10:19:36+05:30*%
%TF.ProjectId,Lexicon 69,4c657869-636f-46e2-9036-392e6b696361,rev?*%
%TF.SameCoordinates,Original*%
%TF.FileFunction,Legend,Top*%
%TF.FilePolarity,Positive*%
%FSLAX46Y46*%
G04 Gerber Fmt 4.6, Leading zero omitted, Abs format (unit mm)*
G04 Created by KiCad (PCBNEW 7.0.11) date 2024-04-25 10:19:36*
%MOMM*%
%LPD*%
G01*
G04 APERTURE LIST*
%ADD10C,0.120000*%
%ADD11C,1.700000*%
%ADD12C,4.000000*%
%ADD13C,2.200000*%
%ADD14C,3.048000*%
%ADD15C,3.987800*%
%ADD16R,1.700000X1.700000*%
%ADD17O,1.700000X1.700000*%
%ADD18C,0.650000*%
%ADD19O,1.000000X1.600000*%
%ADD20O,1.000000X2.100000*%
G04 APERTURE END LIST*
D10*
%TO.C,SW68*%
X368935000Y-164147500D02*
X367919000Y-164147500D01*
X368935000Y-163131500D02*
X368935000Y-164147500D01*
X368935000Y-150177500D02*
X368935000Y-151193500D01*
X367919000Y-150177500D02*
X368935000Y-150177500D01*
X355981000Y-164147500D02*
X354965000Y-164147500D01*
X354965000Y-164147500D02*
X354965000Y-163131500D01*
X354965000Y-151193500D02*
X354965000Y-150177500D01*
X354965000Y-150177500D02*
X355981000Y-150177500D01*
%TO.C,SW8*%
X92710000Y-106997500D02*
X91694000Y-106997500D01*
X92710000Y-105981500D02*
X92710000Y-106997500D01*
X92710000Y-93027500D02*
X92710000Y-94043500D01*
X91694000Y-93027500D02*
X92710000Y-93027500D01*
X79756000Y-106997500D02*
X78740000Y-106997500D01*
X78740000Y-106997500D02*
X78740000Y-105981500D01*
X78740000Y-94043500D02*
X78740000Y-93027500D01*
X78740000Y-93027500D02*
X79756000Y-93027500D01*
%TO.C,SW29*%
X178435000Y-87947500D02*
X177419000Y-87947500D01*
X178435000Y-86931500D02*
X178435000Y-87947500D01*
X178435000Y-73977500D02*
X178435000Y-74993500D01*
X177419000Y-73977500D02*
X178435000Y-73977500D01*
X165481000Y-87947500D02*
X164465000Y-87947500D01*
X164465000Y-87947500D02*
X164465000Y-86931500D01*
X164465000Y-74993500D02*
X164465000Y-73977500D01*
X164465000Y-73977500D02*
X165481000Y-73977500D01*
%TO.C,SW41*%
X235585000Y-87947500D02*
X234569000Y-87947500D01*
X235585000Y-86931500D02*
X235585000Y-87947500D01*
X235585000Y-73977500D02*
X235585000Y-74993500D01*
X234569000Y-73977500D02*
X235585000Y-73977500D01*
X222631000Y-87947500D02*
X221615000Y-87947500D01*
X221615000Y-87947500D02*
X221615000Y-86931500D01*
X221615000Y-74993500D02*
X221615000Y-73977500D01*
X221615000Y-73977500D02*
X222631000Y-73977500D01*
%TO.C,SW39*%
X211772500Y-126047500D02*
X210756500Y-126047500D01*
X211772500Y-125031500D02*
X211772500Y-126047500D01*
X211772500Y-112077500D02*
X211772500Y-113093500D01*
X210756500Y-112077500D02*
X211772500Y-112077500D01*
X198818500Y-126047500D02*
X197802500Y-126047500D01*
X197802500Y-126047500D02*
X197802500Y-125031500D01*
X197802500Y-113093500D02*
X197802500Y-112077500D01*
X197802500Y-112077500D02*
X198818500Y-112077500D01*
%TO.C,SW18*%
X116522500Y-126047500D02*
X115506500Y-126047500D01*
X116522500Y-125031500D02*
X116522500Y-126047500D01*
X116522500Y-112077500D02*
X116522500Y-113093500D01*
X115506500Y-112077500D02*
X116522500Y-112077500D01*
X103568500Y-126047500D02*
X102552500Y-126047500D01*
X102552500Y-126047500D02*
X102552500Y-125031500D01*
X102552500Y-113093500D02*
X102552500Y-112077500D01*
X102552500Y-112077500D02*
X103568500Y-112077500D01*
%TO.C,SW6*%
X66516250Y-164147500D02*
X65500250Y-164147500D01*
X66516250Y-163131500D02*
X66516250Y-164147500D01*
X66516250Y-150177500D02*
X66516250Y-151193500D01*
X65500250Y-150177500D02*
X66516250Y-150177500D01*
X53562250Y-164147500D02*
X52546250Y-164147500D01*
X52546250Y-164147500D02*
X52546250Y-163131500D01*
X52546250Y-151193500D02*
X52546250Y-150177500D01*
X52546250Y-150177500D02*
X53562250Y-150177500D01*
%TO.C,SW79*%
X152241250Y-164147500D02*
X151225250Y-164147500D01*
X152241250Y-163131500D02*
X152241250Y-164147500D01*
X152241250Y-150177500D02*
X152241250Y-151193500D01*
X151225250Y-150177500D02*
X152241250Y-150177500D01*
X139287250Y-164147500D02*
X138271250Y-164147500D01*
X138271250Y-164147500D02*
X138271250Y-163131500D01*
X138271250Y-151193500D02*
X138271250Y-150177500D01*
X138271250Y-150177500D02*
X139287250Y-150177500D01*
%TO.C,SW33*%
X197485000Y-87947500D02*
X196469000Y-87947500D01*
X197485000Y-86931500D02*
X197485000Y-87947500D01*
X197485000Y-73977500D02*
X197485000Y-74993500D01*
X196469000Y-73977500D02*
X197485000Y-73977500D01*
X184531000Y-87947500D02*
X183515000Y-87947500D01*
X183515000Y-87947500D02*
X183515000Y-86931500D01*
X183515000Y-74993500D02*
X183515000Y-73977500D01*
X183515000Y-73977500D02*
X184531000Y-73977500D01*
%TO.C,SW20*%
X140335000Y-87947500D02*
X139319000Y-87947500D01*
X140335000Y-86931500D02*
X140335000Y-87947500D01*
X140335000Y-73977500D02*
X140335000Y-74993500D01*
X139319000Y-73977500D02*
X140335000Y-73977500D01*
X127381000Y-87947500D02*
X126365000Y-87947500D01*
X126365000Y-87947500D02*
X126365000Y-86931500D01*
X126365000Y-74993500D02*
X126365000Y-73977500D01*
X126365000Y-73977500D02*
X127381000Y-73977500D01*
%TO.C,SW47*%
X264160000Y-106997500D02*
X263144000Y-106997500D01*
X264160000Y-105981500D02*
X264160000Y-106997500D01*
X264160000Y-93027500D02*
X264160000Y-94043500D01*
X263144000Y-93027500D02*
X264160000Y-93027500D01*
X251206000Y-106997500D02*
X250190000Y-106997500D01*
X250190000Y-106997500D02*
X250190000Y-105981500D01*
X250190000Y-94043500D02*
X250190000Y-93027500D01*
X250190000Y-93027500D02*
X251206000Y-93027500D01*
%TO.C,SW75*%
X287972500Y-126047500D02*
X286956500Y-126047500D01*
X287972500Y-125031500D02*
X287972500Y-126047500D01*
X287972500Y-112077500D02*
X287972500Y-113093500D01*
X286956500Y-112077500D02*
X287972500Y-112077500D01*
X275018500Y-126047500D02*
X274002500Y-126047500D01*
X274002500Y-126047500D02*
X274002500Y-125031500D01*
X274002500Y-113093500D02*
X274002500Y-112077500D01*
X274002500Y-112077500D02*
X275018500Y-112077500D01*
%TO.C,SW49*%
X240347500Y-145097500D02*
X239331500Y-145097500D01*
X240347500Y-144081500D02*
X240347500Y-145097500D01*
X240347500Y-131127500D02*
X240347500Y-132143500D01*
X239331500Y-131127500D02*
X240347500Y-131127500D01*
X227393500Y-145097500D02*
X226377500Y-145097500D01*
X226377500Y-145097500D02*
X226377500Y-144081500D01*
X226377500Y-132143500D02*
X226377500Y-131127500D01*
X226377500Y-131127500D02*
X227393500Y-131127500D01*
%TO.C,SW57*%
X309403750Y-106997500D02*
X308387750Y-106997500D01*
X309403750Y-105981500D02*
X309403750Y-106997500D01*
X309403750Y-93027500D02*
X309403750Y-94043500D01*
X308387750Y-93027500D02*
X309403750Y-93027500D01*
X296449750Y-106997500D02*
X295433750Y-106997500D01*
X295433750Y-106997500D02*
X295433750Y-105981500D01*
X295433750Y-94043500D02*
X295433750Y-93027500D01*
X295433750Y-93027500D02*
X296449750Y-93027500D01*
%TO.C,SW36*%
X183197500Y-145097500D02*
X182181500Y-145097500D01*
X183197500Y-144081500D02*
X183197500Y-145097500D01*
X183197500Y-131127500D02*
X183197500Y-132143500D01*
X182181500Y-131127500D02*
X183197500Y-131127500D01*
X170243500Y-145097500D02*
X169227500Y-145097500D01*
X169227500Y-145097500D02*
X169227500Y-144081500D01*
X169227500Y-132143500D02*
X169227500Y-131127500D01*
X169227500Y-131127500D02*
X170243500Y-131127500D01*
%TO.C,SW78*%
X114141250Y-164147500D02*
X113125250Y-164147500D01*
X114141250Y-163131500D02*
X114141250Y-164147500D01*
X114141250Y-150177500D02*
X114141250Y-151193500D01*
X113125250Y-150177500D02*
X114141250Y-150177500D01*
X101187250Y-164147500D02*
X100171250Y-164147500D01*
X100171250Y-164147500D02*
X100171250Y-163131500D01*
X100171250Y-151193500D02*
X100171250Y-150177500D01*
X100171250Y-150177500D02*
X101187250Y-150177500D01*
%TO.C,SW59*%
X330835000Y-164147500D02*
X329819000Y-164147500D01*
X330835000Y-163131500D02*
X330835000Y-164147500D01*
X330835000Y-150177500D02*
X330835000Y-151193500D01*
X329819000Y-150177500D02*
X330835000Y-150177500D01*
X317881000Y-164147500D02*
X316865000Y-164147500D01*
X316865000Y-164147500D02*
X316865000Y-163131500D01*
X316865000Y-151193500D02*
X316865000Y-150177500D01*
X316865000Y-150177500D02*
X317881000Y-150177500D01*
%TO.C,SW42*%
X245110000Y-106997500D02*
X244094000Y-106997500D01*
X245110000Y-105981500D02*
X245110000Y-106997500D01*
X245110000Y-93027500D02*
X245110000Y-94043500D01*
X244094000Y-93027500D02*
X245110000Y-93027500D01*
X232156000Y-106997500D02*
X231140000Y-106997500D01*
X231140000Y-106997500D02*
X231140000Y-105981500D01*
X231140000Y-94043500D02*
X231140000Y-93027500D01*
X231140000Y-93027500D02*
X232156000Y-93027500D01*
%TO.C,SW28*%
X145097500Y-145097500D02*
X144081500Y-145097500D01*
X145097500Y-144081500D02*
X145097500Y-145097500D01*
X145097500Y-131127500D02*
X145097500Y-132143500D01*
X144081500Y-131127500D02*
X145097500Y-131127500D01*
X132143500Y-145097500D02*
X131127500Y-145097500D01*
X131127500Y-145097500D02*
X131127500Y-144081500D01*
X131127500Y-132143500D02*
X131127500Y-131127500D01*
X131127500Y-131127500D02*
X132143500Y-131127500D01*
%TO.C,SW38*%
X226060000Y-106997500D02*
X225044000Y-106997500D01*
X226060000Y-105981500D02*
X226060000Y-106997500D01*
X226060000Y-93027500D02*
X226060000Y-94043500D01*
X225044000Y-93027500D02*
X226060000Y-93027500D01*
X213106000Y-106997500D02*
X212090000Y-106997500D01*
X212090000Y-106997500D02*
X212090000Y-105981500D01*
X212090000Y-94043500D02*
X212090000Y-93027500D01*
X212090000Y-93027500D02*
X213106000Y-93027500D01*
%TO.C,SW22*%
X135572500Y-126047500D02*
X134556500Y-126047500D01*
X135572500Y-125031500D02*
X135572500Y-126047500D01*
X135572500Y-112077500D02*
X135572500Y-113093500D01*
X134556500Y-112077500D02*
X135572500Y-112077500D01*
X122618500Y-126047500D02*
X121602500Y-126047500D01*
X121602500Y-126047500D02*
X121602500Y-125031500D01*
X121602500Y-113093500D02*
X121602500Y-112077500D01*
X121602500Y-112077500D02*
X122618500Y-112077500D01*
%TO.C,SW56*%
X292735000Y-87947500D02*
X291719000Y-87947500D01*
X292735000Y-86931500D02*
X292735000Y-87947500D01*
X292735000Y-73977500D02*
X292735000Y-74993500D01*
X291719000Y-73977500D02*
X292735000Y-73977500D01*
X279781000Y-87947500D02*
X278765000Y-87947500D01*
X278765000Y-87947500D02*
X278765000Y-86931500D01*
X278765000Y-74993500D02*
X278765000Y-73977500D01*
X278765000Y-73977500D02*
X279781000Y-73977500D01*
%TO.C,SW26*%
X168910000Y-106997500D02*
X167894000Y-106997500D01*
X168910000Y-105981500D02*
X168910000Y-106997500D01*
X168910000Y-93027500D02*
X168910000Y-94043500D01*
X167894000Y-93027500D02*
X168910000Y-93027500D01*
X155956000Y-106997500D02*
X154940000Y-106997500D01*
X154940000Y-106997500D02*
X154940000Y-105981500D01*
X154940000Y-94043500D02*
X154940000Y-93027500D01*
X154940000Y-93027500D02*
X155956000Y-93027500D01*
%TO.C,SW31*%
X173672500Y-126047500D02*
X172656500Y-126047500D01*
X173672500Y-125031500D02*
X173672500Y-126047500D01*
X173672500Y-112077500D02*
X173672500Y-113093500D01*
X172656500Y-112077500D02*
X173672500Y-112077500D01*
X160718500Y-126047500D02*
X159702500Y-126047500D01*
X159702500Y-126047500D02*
X159702500Y-125031500D01*
X159702500Y-113093500D02*
X159702500Y-112077500D01*
X159702500Y-112077500D02*
X160718500Y-112077500D01*
%TO.C,SW4*%
X66516250Y-126047500D02*
X65500250Y-126047500D01*
X66516250Y-125031500D02*
X66516250Y-126047500D01*
X66516250Y-112077500D02*
X66516250Y-113093500D01*
X65500250Y-112077500D02*
X66516250Y-112077500D01*
X53562250Y-126047500D02*
X52546250Y-126047500D01*
X52546250Y-126047500D02*
X52546250Y-125031500D01*
X52546250Y-113093500D02*
X52546250Y-112077500D01*
X52546250Y-112077500D02*
X53562250Y-112077500D01*
%TO.C,SW54*%
X259397500Y-145097500D02*
X258381500Y-145097500D01*
X259397500Y-144081500D02*
X259397500Y-145097500D01*
X259397500Y-131127500D02*
X259397500Y-132143500D01*
X258381500Y-131127500D02*
X259397500Y-131127500D01*
X246443500Y-145097500D02*
X245427500Y-145097500D01*
X245427500Y-145097500D02*
X245427500Y-144081500D01*
X245427500Y-132143500D02*
X245427500Y-131127500D01*
X245427500Y-131127500D02*
X246443500Y-131127500D01*
%TO.C,SW30*%
X187960000Y-106997500D02*
X186944000Y-106997500D01*
X187960000Y-105981500D02*
X187960000Y-106997500D01*
X187960000Y-93027500D02*
X187960000Y-94043500D01*
X186944000Y-93027500D02*
X187960000Y-93027500D01*
X175006000Y-106997500D02*
X173990000Y-106997500D01*
X173990000Y-106997500D02*
X173990000Y-105981500D01*
X173990000Y-94043500D02*
X173990000Y-93027500D01*
X173990000Y-93027500D02*
X175006000Y-93027500D01*
%TO.C,SW1*%
X349885000Y-87947500D02*
X348869000Y-87947500D01*
X349885000Y-86931500D02*
X349885000Y-87947500D01*
X349885000Y-73977500D02*
X349885000Y-74993500D01*
X348869000Y-73977500D02*
X349885000Y-73977500D01*
X336931000Y-87947500D02*
X335915000Y-87947500D01*
X335915000Y-87947500D02*
X335915000Y-86931500D01*
X335915000Y-74993500D02*
X335915000Y-73977500D01*
X335915000Y-73977500D02*
X336931000Y-73977500D01*
%TO.C,SW48*%
X249872500Y-126047500D02*
X248856500Y-126047500D01*
X249872500Y-125031500D02*
X249872500Y-126047500D01*
X249872500Y-112077500D02*
X249872500Y-113093500D01*
X248856500Y-112077500D02*
X249872500Y-112077500D01*
X236918500Y-126047500D02*
X235902500Y-126047500D01*
X235902500Y-126047500D02*
X235902500Y-125031500D01*
X235902500Y-113093500D02*
X235902500Y-112077500D01*
X235902500Y-112077500D02*
X236918500Y-112077500D01*
%TO.C,SW40*%
X202247500Y-145097500D02*
X201231500Y-145097500D01*
X202247500Y-144081500D02*
X202247500Y-145097500D01*
X202247500Y-131127500D02*
X202247500Y-132143500D01*
X201231500Y-131127500D02*
X202247500Y-131127500D01*
X189293500Y-145097500D02*
X188277500Y-145097500D01*
X188277500Y-145097500D02*
X188277500Y-144081500D01*
X188277500Y-132143500D02*
X188277500Y-131127500D01*
X188277500Y-131127500D02*
X189293500Y-131127500D01*
%TO.C,SW21*%
X149860000Y-106997500D02*
X148844000Y-106997500D01*
X149860000Y-105981500D02*
X149860000Y-106997500D01*
X149860000Y-93027500D02*
X149860000Y-94043500D01*
X148844000Y-93027500D02*
X149860000Y-93027500D01*
X136906000Y-106997500D02*
X135890000Y-106997500D01*
X135890000Y-106997500D02*
X135890000Y-105981500D01*
X135890000Y-94043500D02*
X135890000Y-93027500D01*
X135890000Y-93027500D02*
X136906000Y-93027500D01*
%TO.C,SW17*%
X130810000Y-106997500D02*
X129794000Y-106997500D01*
X130810000Y-105981500D02*
X130810000Y-106997500D01*
X130810000Y-93027500D02*
X130810000Y-94043500D01*
X129794000Y-93027500D02*
X130810000Y-93027500D01*
X117856000Y-106997500D02*
X116840000Y-106997500D01*
X116840000Y-106997500D02*
X116840000Y-105981500D01*
X116840000Y-94043500D02*
X116840000Y-93027500D01*
X116840000Y-93027500D02*
X117856000Y-93027500D01*
%TO.C,SW23*%
X126047500Y-145097500D02*
X125031500Y-145097500D01*
X126047500Y-144081500D02*
X126047500Y-145097500D01*
X126047500Y-131127500D02*
X126047500Y-132143500D01*
X125031500Y-131127500D02*
X126047500Y-131127500D01*
X113093500Y-145097500D02*
X112077500Y-145097500D01*
X112077500Y-145097500D02*
X112077500Y-144081500D01*
X112077500Y-132143500D02*
X112077500Y-131127500D01*
X112077500Y-131127500D02*
X113093500Y-131127500D01*
%TO.C,SW16*%
X121285000Y-87947500D02*
X120269000Y-87947500D01*
X121285000Y-86931500D02*
X121285000Y-87947500D01*
X121285000Y-73977500D02*
X121285000Y-74993500D01*
X120269000Y-73977500D02*
X121285000Y-73977500D01*
X108331000Y-87947500D02*
X107315000Y-87947500D01*
X107315000Y-87947500D02*
X107315000Y-86931500D01*
X107315000Y-74993500D02*
X107315000Y-73977500D01*
X107315000Y-73977500D02*
X108331000Y-73977500D01*
%TO.C,SW51*%
X273685000Y-87947500D02*
X272669000Y-87947500D01*
X273685000Y-86931500D02*
X273685000Y-87947500D01*
X273685000Y-73977500D02*
X273685000Y-74993500D01*
X272669000Y-73977500D02*
X273685000Y-73977500D01*
X260731000Y-87947500D02*
X259715000Y-87947500D01*
X259715000Y-87947500D02*
X259715000Y-86931500D01*
X259715000Y-74993500D02*
X259715000Y-73977500D01*
X259715000Y-73977500D02*
X260731000Y-73977500D01*
%TO.C,SW52*%
X285591250Y-106997500D02*
X284575250Y-106997500D01*
X285591250Y-105981500D02*
X285591250Y-106997500D01*
X285591250Y-93027500D02*
X285591250Y-94043500D01*
X284575250Y-93027500D02*
X285591250Y-93027500D01*
X272637250Y-106997500D02*
X271621250Y-106997500D01*
X271621250Y-106997500D02*
X271621250Y-105981500D01*
X271621250Y-94043500D02*
X271621250Y-93027500D01*
X271621250Y-93027500D02*
X272637250Y-93027500D01*
%TO.C,SW25*%
X159385000Y-87947500D02*
X158369000Y-87947500D01*
X159385000Y-86931500D02*
X159385000Y-87947500D01*
X159385000Y-73977500D02*
X159385000Y-74993500D01*
X158369000Y-73977500D02*
X159385000Y-73977500D01*
X146431000Y-87947500D02*
X145415000Y-87947500D01*
X145415000Y-87947500D02*
X145415000Y-86931500D01*
X145415000Y-74993500D02*
X145415000Y-73977500D01*
X145415000Y-73977500D02*
X146431000Y-73977500D01*
%TO.C,SW12*%
X111760000Y-106997500D02*
X110744000Y-106997500D01*
X111760000Y-105981500D02*
X111760000Y-106997500D01*
X111760000Y-93027500D02*
X111760000Y-94043500D01*
X110744000Y-93027500D02*
X111760000Y-93027500D01*
X98806000Y-106997500D02*
X97790000Y-106997500D01*
X97790000Y-106997500D02*
X97790000Y-105981500D01*
X97790000Y-94043500D02*
X97790000Y-93027500D01*
X97790000Y-93027500D02*
X98806000Y-93027500D01*
%TO.C,G\u002A\u002A\u002A*%
G36*
X356948949Y-107041892D02*
G01*
X356948949Y-108224174D01*
X356033634Y-108224174D01*
X355118319Y-108224174D01*
X355118319Y-107041892D01*
X355118319Y-105859610D01*
X356033634Y-105859610D01*
X356948949Y-105859610D01*
X356948949Y-107041892D01*
G37*
G36*
X365186787Y-107041892D02*
G01*
X365186787Y-108224174D01*
X361525526Y-108224174D01*
X357864264Y-108224174D01*
X357864264Y-107041892D01*
X357864264Y-105859610D01*
X361525526Y-105859610D01*
X365186787Y-105859610D01*
X365186787Y-107041892D01*
G37*
G36*
X365186787Y-81447038D02*
G01*
X365186787Y-82671622D01*
X362819773Y-82671622D01*
X362094047Y-82672737D01*
X361504900Y-82677742D01*
X361036367Y-82689127D01*
X360672480Y-82709379D01*
X360397273Y-82740987D01*
X360194780Y-82786441D01*
X360049033Y-82848229D01*
X359944067Y-82928841D01*
X359863915Y-83030764D01*
X359800026Y-83142339D01*
X359690379Y-83481878D01*
X359668872Y-83871123D01*
X359734670Y-84242523D01*
X359815933Y-84429081D01*
X359978406Y-84627692D01*
X360208364Y-84820029D01*
X360309005Y-84883634D01*
X360408861Y-84938055D01*
X360505220Y-84981186D01*
X360616663Y-85014557D01*
X360761772Y-85039700D01*
X360959126Y-85058144D01*
X361227308Y-85071420D01*
X361584899Y-85081059D01*
X362050478Y-85088590D01*
X362642628Y-85095545D01*
X362917568Y-85098492D01*
X365186787Y-85122660D01*
X365186787Y-86337982D01*
X365186787Y-87553303D01*
X361525526Y-87553303D01*
X357864264Y-87553303D01*
X357864264Y-86371021D01*
X357864264Y-85188739D01*
X358331120Y-85188739D01*
X358797975Y-85188739D01*
X358476403Y-84876664D01*
X358273193Y-84638933D01*
X358064281Y-84330635D01*
X357914203Y-84056694D01*
X357804337Y-83812966D01*
X357734231Y-83609910D01*
X357695166Y-83399760D01*
X357678423Y-83134752D01*
X357675285Y-82767118D01*
X357675323Y-82747898D01*
X357682602Y-82343514D01*
X357706316Y-82048995D01*
X357752389Y-81822014D01*
X357826740Y-81620247D01*
X357835935Y-81599879D01*
X358145513Y-81093553D01*
X358561466Y-80696434D01*
X358918280Y-80481736D01*
X359351652Y-80268919D01*
X362269219Y-80245686D01*
X365186787Y-80222454D01*
X365186787Y-81447038D01*
G37*
G36*
X362283370Y-88826137D02*
G01*
X362950633Y-88989479D01*
X363550372Y-89272899D01*
X364105644Y-89685547D01*
X364310680Y-89879035D01*
X364772873Y-90445964D01*
X365112380Y-91091717D01*
X365324304Y-91798172D01*
X365403744Y-92547207D01*
X365345803Y-93320699D01*
X365302432Y-93547785D01*
X365074738Y-94255853D01*
X364724313Y-94884133D01*
X364264104Y-95422582D01*
X363707054Y-95861160D01*
X363066109Y-96189824D01*
X362354214Y-96398533D01*
X361584312Y-96477245D01*
X361525526Y-96477628D01*
X360747183Y-96409712D01*
X360024101Y-96210814D01*
X359370644Y-95888204D01*
X358801179Y-95449155D01*
X358330069Y-94900939D01*
X358287681Y-94838527D01*
X357973511Y-94266942D01*
X357770466Y-93652490D01*
X357666040Y-92955711D01*
X357658898Y-92854505D01*
X357661155Y-92753196D01*
X359535275Y-92753196D01*
X359644709Y-93151405D01*
X359879957Y-93486542D01*
X360231135Y-93749871D01*
X360688362Y-93932655D01*
X361241756Y-94026160D01*
X361525526Y-94036787D01*
X362130483Y-93988380D01*
X362636216Y-93847095D01*
X363034478Y-93618834D01*
X363317021Y-93309497D01*
X363475596Y-92924988D01*
X363508424Y-92617887D01*
X363470761Y-92267721D01*
X363345272Y-91986441D01*
X363335272Y-91971353D01*
X363021712Y-91625589D01*
X362613404Y-91384413D01*
X362101691Y-91244172D01*
X361510277Y-91201104D01*
X360934390Y-91248704D01*
X360437383Y-91385687D01*
X360034725Y-91603322D01*
X359741886Y-91892881D01*
X359574336Y-92245636D01*
X359561536Y-92300650D01*
X359535275Y-92753196D01*
X357661155Y-92753196D01*
X357676575Y-92061196D01*
X357832254Y-91331772D01*
X358125451Y-90667565D01*
X358555686Y-90069908D01*
X358736190Y-89879035D01*
X359284931Y-89413946D01*
X359866574Y-89082285D01*
X360505136Y-88874536D01*
X361224629Y-88781183D01*
X361525526Y-88773724D01*
X362283370Y-88826137D01*
G37*
G36*
X365186787Y-110338427D02*
G01*
X365186787Y-111698145D01*
X364160133Y-112306655D01*
X363769971Y-112540583D01*
X363497296Y-112712126D01*
X363326477Y-112833407D01*
X363241879Y-112916545D01*
X363227870Y-112973663D01*
X363255778Y-113007865D01*
X363365693Y-113078213D01*
X363580325Y-113205408D01*
X363870787Y-113372659D01*
X364208194Y-113563174D01*
X364282432Y-113604634D01*
X365186787Y-114108705D01*
X365186787Y-115437911D01*
X365184933Y-115869057D01*
X365179791Y-116241840D01*
X365171987Y-116531799D01*
X365162151Y-116714472D01*
X365152657Y-116767117D01*
X365082638Y-116726848D01*
X364901672Y-116613078D01*
X364626118Y-116436366D01*
X364272336Y-116207269D01*
X363856685Y-115936346D01*
X363395522Y-115634154D01*
X363302958Y-115573319D01*
X362830254Y-115264057D01*
X362395368Y-114982500D01*
X362015588Y-114739607D01*
X361708206Y-114546337D01*
X361490509Y-114413648D01*
X361379788Y-114352499D01*
X361372973Y-114350039D01*
X361281448Y-114383183D01*
X361081747Y-114491639D01*
X360791591Y-114664569D01*
X360428702Y-114891134D01*
X360010803Y-115160496D01*
X359561412Y-115457932D01*
X357864264Y-116595307D01*
X357864264Y-115247104D01*
X357864264Y-113898901D01*
X358699593Y-113409679D01*
X359010416Y-113222917D01*
X359262376Y-113062444D01*
X359432033Y-112943878D01*
X359495947Y-112882837D01*
X359495030Y-112879672D01*
X359417264Y-112826863D01*
X359235397Y-112713553D01*
X358976831Y-112556566D01*
X358678771Y-112378538D01*
X357902403Y-111918187D01*
X357881489Y-110643253D01*
X357876642Y-110221568D01*
X357876424Y-109858744D01*
X357880526Y-109579748D01*
X357888641Y-109409550D01*
X357897187Y-109368318D01*
X357968135Y-109408495D01*
X358149403Y-109521732D01*
X358423967Y-109697092D01*
X358774804Y-109923636D01*
X359184889Y-110190425D01*
X359624467Y-110478163D01*
X361315137Y-111588008D01*
X363250962Y-110283359D01*
X365186787Y-108978709D01*
X365186787Y-110338427D01*
G37*
G36*
X362574325Y-97336716D02*
G01*
X363211210Y-97500729D01*
X363799176Y-97798277D01*
X364319867Y-98213431D01*
X364754924Y-98730265D01*
X365085991Y-99332852D01*
X365188715Y-99604955D01*
X365308938Y-100105674D01*
X365375583Y-100680932D01*
X365385401Y-101266434D01*
X365335143Y-101797883D01*
X365306787Y-101941911D01*
X365070945Y-102663954D01*
X364721490Y-103293379D01*
X364270441Y-103824113D01*
X363729811Y-104250083D01*
X363111618Y-104565214D01*
X362427878Y-104763434D01*
X361690607Y-104838669D01*
X360911820Y-104784846D01*
X360103534Y-104595891D01*
X360074345Y-104586591D01*
X359490154Y-104324098D01*
X358945746Y-103937927D01*
X358470053Y-103456567D01*
X358092007Y-102908505D01*
X357870902Y-102416921D01*
X357726726Y-101834091D01*
X357656525Y-101180613D01*
X357664949Y-100521731D01*
X357709481Y-100152117D01*
X357883479Y-99492788D01*
X358164425Y-98893721D01*
X358536729Y-98372104D01*
X358984797Y-97945123D01*
X359493038Y-97629967D01*
X360045860Y-97443822D01*
X360188383Y-97419570D01*
X360533934Y-97372207D01*
X360533934Y-98564857D01*
X360532584Y-99017230D01*
X360526902Y-99338959D01*
X360514436Y-99551944D01*
X360492736Y-99678081D01*
X360459353Y-99739268D01*
X360411836Y-99757405D01*
X360400451Y-99757793D01*
X360184447Y-99817145D01*
X359945464Y-99967895D01*
X359738416Y-100170274D01*
X359652705Y-100299277D01*
X359572044Y-100554840D01*
X359535937Y-100881167D01*
X359545872Y-101212019D01*
X359603336Y-101481158D01*
X359625057Y-101530560D01*
X359866149Y-101870854D01*
X360198963Y-102120661D01*
X360635527Y-102285282D01*
X361187870Y-102370016D01*
X361563664Y-102384631D01*
X361914064Y-102381331D01*
X362166822Y-102358921D01*
X362376614Y-102306675D01*
X362598119Y-102213869D01*
X362707808Y-102160210D01*
X363092419Y-101925302D01*
X363342201Y-101661432D01*
X363474839Y-101343001D01*
X363508709Y-101000998D01*
X363487746Y-100720864D01*
X363434383Y-100469079D01*
X363397034Y-100373016D01*
X363185423Y-100087747D01*
X362895673Y-99855454D01*
X362584777Y-99720644D01*
X362553010Y-99713916D01*
X362288288Y-99664254D01*
X362288288Y-98480417D01*
X362288288Y-97296580D01*
X362574325Y-97336716D01*
G37*
G36*
X362135736Y-119741892D02*
G01*
X362136053Y-120450418D01*
X362137533Y-121021235D01*
X362140973Y-121469187D01*
X362147165Y-121809117D01*
X362156906Y-122055868D01*
X362170990Y-122224284D01*
X362190212Y-122329207D01*
X362215367Y-122385482D01*
X362247250Y-122407951D01*
X362278699Y-122411562D01*
X362516703Y-122371420D01*
X362809509Y-122269631D01*
X363088449Y-122134148D01*
X363268702Y-122008533D01*
X363530388Y-121670622D01*
X363682983Y-121262864D01*
X363727314Y-120821198D01*
X363664206Y-120381562D01*
X363494484Y-119979895D01*
X363218976Y-119652136D01*
X363214458Y-119648315D01*
X362974775Y-119446636D01*
X362974775Y-118335705D01*
X362978166Y-117876262D01*
X362989295Y-117552529D01*
X363009598Y-117347791D01*
X363040511Y-117245337D01*
X363070120Y-117225520D01*
X363267779Y-117273616D01*
X363537538Y-117399362D01*
X363838058Y-117578413D01*
X364127998Y-117786422D01*
X364342057Y-117974583D01*
X364751944Y-118487794D01*
X365068462Y-119103075D01*
X365285052Y-119797050D01*
X365395154Y-120546344D01*
X365392209Y-121327582D01*
X365362409Y-121610661D01*
X365192585Y-122357858D01*
X364896061Y-123029851D01*
X364481447Y-123615608D01*
X363957358Y-124104098D01*
X363332406Y-124484290D01*
X363012913Y-124619966D01*
X362594848Y-124733944D01*
X362086684Y-124809631D01*
X361546975Y-124843004D01*
X361034274Y-124830042D01*
X360669746Y-124780912D01*
X360667418Y-124780178D01*
X359974661Y-124561749D01*
X359349885Y-124217089D01*
X358806254Y-123761918D01*
X358354603Y-123211222D01*
X358005767Y-122579986D01*
X357770583Y-121883195D01*
X357659885Y-121135835D01*
X357660141Y-120908144D01*
X359314768Y-120908144D01*
X359368694Y-121296207D01*
X359516081Y-121666369D01*
X359731472Y-121955921D01*
X359745357Y-121968779D01*
X359902132Y-122078184D01*
X360130094Y-122202816D01*
X360374349Y-122316415D01*
X360580003Y-122392719D01*
X360667418Y-122409886D01*
X360702354Y-122374277D01*
X360728281Y-122255754D01*
X360746216Y-122038870D01*
X360757176Y-121708182D01*
X360762178Y-121248241D01*
X360762763Y-120962312D01*
X360761869Y-120457849D01*
X360757906Y-120085906D01*
X360748957Y-119826458D01*
X360733102Y-119659477D01*
X360708421Y-119564935D01*
X360672996Y-119522807D01*
X360624907Y-119513065D01*
X360623888Y-119513063D01*
X360483576Y-119546269D01*
X360263448Y-119632229D01*
X360070885Y-119722823D01*
X359688992Y-119984566D01*
X359441524Y-120317124D01*
X359325255Y-120725557D01*
X359314768Y-120908144D01*
X357660141Y-120908144D01*
X357660465Y-120619069D01*
X357754230Y-119890778D01*
X357948436Y-119261407D01*
X358254262Y-118706166D01*
X358682883Y-118200266D01*
X358802583Y-118085909D01*
X359299535Y-117717529D01*
X359899240Y-117419161D01*
X360562500Y-117204939D01*
X361250115Y-117088994D01*
X361614003Y-117072222D01*
X362135736Y-117072222D01*
X362135736Y-119741892D01*
G37*
G36*
X365186787Y-128780631D02*
G01*
X365186787Y-132098649D01*
X364240575Y-132098649D01*
X363294362Y-132098649D01*
X363407892Y-132537237D01*
X363655192Y-133246649D01*
X364000120Y-133852729D01*
X364435950Y-134346639D01*
X364955954Y-134719539D01*
X365138856Y-134811784D01*
X365691787Y-135019860D01*
X366382931Y-135202873D01*
X367199527Y-135357665D01*
X367563948Y-135411733D01*
X368153604Y-135493483D01*
X368604258Y-135557380D01*
X368928179Y-135605333D01*
X369137632Y-135639253D01*
X369244883Y-135661048D01*
X369262200Y-135672629D01*
X369251416Y-135674424D01*
X368844629Y-135720244D01*
X368365237Y-135782555D01*
X367850543Y-135855666D01*
X367337853Y-135933882D01*
X366864472Y-136011512D01*
X366467703Y-136082863D01*
X366184851Y-136142241D01*
X366183143Y-136142654D01*
X365445296Y-136367885D01*
X364835402Y-136662626D01*
X364339568Y-137040812D01*
X363943903Y-137516379D01*
X363634514Y-138103262D01*
X363397509Y-138815396D01*
X363356638Y-138977970D01*
X363286782Y-139282805D01*
X363233724Y-139539910D01*
X363206158Y-139706207D01*
X363204138Y-139733655D01*
X363279533Y-139808254D01*
X363504215Y-139886310D01*
X363874974Y-139967197D01*
X364388598Y-140050292D01*
X365041876Y-140134969D01*
X365568168Y-140193549D01*
X365920321Y-140234359D01*
X366216160Y-140275655D01*
X366422933Y-140312401D01*
X366506299Y-140337819D01*
X366466259Y-140367858D01*
X366305736Y-140401432D01*
X366056491Y-140432418D01*
X365979159Y-140439457D01*
X365610072Y-140475984D01*
X365186089Y-140526483D01*
X364736356Y-140586507D01*
X364290015Y-140651606D01*
X363876210Y-140717332D01*
X363524085Y-140779237D01*
X363262781Y-140832872D01*
X363121444Y-140873790D01*
X363115988Y-140876489D01*
X363004569Y-141011097D01*
X362970379Y-141235416D01*
X362952181Y-141510390D01*
X362913754Y-141800019D01*
X362909472Y-141823874D01*
X362852961Y-142128979D01*
X362799454Y-141756021D01*
X362766950Y-141484296D01*
X362747965Y-141238213D01*
X362745946Y-141164880D01*
X362726889Y-141008817D01*
X362683030Y-140946697D01*
X362545310Y-140975004D01*
X362385936Y-141025313D01*
X362308346Y-141049806D01*
X362012424Y-141155927D01*
X361697831Y-141278190D01*
X361404852Y-141401417D01*
X361173775Y-141510430D01*
X361142258Y-141527157D01*
X360883044Y-141697564D01*
X360596448Y-141929693D01*
X360387855Y-142129268D01*
X360097765Y-142477258D01*
X359843603Y-142876243D01*
X359620906Y-143340624D01*
X359425212Y-143884803D01*
X359252060Y-144523179D01*
X359096987Y-145270156D01*
X358955531Y-146140133D01*
X358823231Y-147147512D01*
X358817103Y-147198991D01*
X358771304Y-147575774D01*
X358730563Y-147893261D01*
X358698664Y-148123237D01*
X358679390Y-148237485D01*
X358676844Y-148244827D01*
X358662260Y-148179074D01*
X358632861Y-147985091D01*
X358591841Y-147686134D01*
X358542392Y-147305462D01*
X358488597Y-146873613D01*
X358345755Y-145833516D01*
X358185526Y-144932988D01*
X358002032Y-144159480D01*
X357789393Y-143500443D01*
X357541732Y-142943328D01*
X357253168Y-142475586D01*
X356917824Y-142084669D01*
X356529821Y-141758027D01*
X356083280Y-141483112D01*
X355926033Y-141403515D01*
X355405210Y-141191868D01*
X354754093Y-140993766D01*
X353994686Y-140813912D01*
X353148991Y-140657008D01*
X352239012Y-140527759D01*
X351433647Y-140443348D01*
X351164232Y-140413153D01*
X350974826Y-140379259D01*
X350896994Y-140347773D01*
X350899713Y-140340035D01*
X350991768Y-140315039D01*
X351210351Y-140276404D01*
X351530435Y-140227928D01*
X351926995Y-140173409D01*
X352359255Y-140118562D01*
X353410181Y-139970816D01*
X354321389Y-139797210D01*
X355104573Y-139590511D01*
X355771426Y-139343490D01*
X356333641Y-139048914D01*
X356802911Y-138699552D01*
X357190930Y-138288174D01*
X357509390Y-137807547D01*
X357769986Y-137250440D01*
X357973835Y-136646423D01*
X358055689Y-136344532D01*
X358111059Y-136102210D01*
X359250893Y-136102210D01*
X359256567Y-136184582D01*
X359299684Y-136374519D01*
X359371421Y-136634216D01*
X359388137Y-136690242D01*
X359683866Y-137474690D01*
X360061185Y-138133246D01*
X360524739Y-138671743D01*
X361079176Y-139096016D01*
X361469652Y-139303824D01*
X361849083Y-139465963D01*
X362161064Y-139576012D01*
X362385936Y-139628565D01*
X362504040Y-139618212D01*
X362517117Y-139591986D01*
X362499288Y-139489246D01*
X362452013Y-139279739D01*
X362384609Y-139004241D01*
X362366790Y-138934074D01*
X362130434Y-138196102D01*
X361825528Y-137586846D01*
X361439312Y-137093040D01*
X360959027Y-136701414D01*
X360371914Y-136398702D01*
X359725033Y-136186960D01*
X359485510Y-136130385D01*
X359312544Y-136100729D01*
X359250893Y-136102210D01*
X358111059Y-136102210D01*
X358111933Y-136098385D01*
X358134817Y-135944067D01*
X358131413Y-135912757D01*
X358042749Y-135877871D01*
X357841396Y-135839882D01*
X357566876Y-135805864D01*
X357497921Y-135799379D01*
X357048087Y-135755907D01*
X356748779Y-135717112D01*
X356598124Y-135680816D01*
X356594250Y-135644843D01*
X356735284Y-135607014D01*
X357019353Y-135565153D01*
X357271166Y-135535702D01*
X357628337Y-135489833D01*
X357930790Y-135438907D01*
X358145571Y-135389281D01*
X358238399Y-135349123D01*
X358270317Y-135248566D01*
X358315184Y-135021789D01*
X358368844Y-134694164D01*
X358427144Y-134291060D01*
X358485927Y-133837849D01*
X358486073Y-133836667D01*
X358541519Y-133392335D01*
X358591496Y-133006366D01*
X358632873Y-132701776D01*
X358662519Y-132501577D01*
X358677304Y-132428782D01*
X358677574Y-132428875D01*
X358691783Y-132506199D01*
X358720858Y-132710418D01*
X358761529Y-133016955D01*
X358810523Y-133401235D01*
X358857242Y-133778604D01*
X358914111Y-134215736D01*
X358970793Y-134601286D01*
X359022935Y-134909218D01*
X359066185Y-135113494D01*
X359092505Y-135185979D01*
X359205195Y-135207908D01*
X359424831Y-135181328D01*
X359716929Y-135114914D01*
X360047005Y-135017339D01*
X360380575Y-134897281D01*
X360584219Y-134810707D01*
X361001422Y-134564618D01*
X361405797Y-134229879D01*
X361743260Y-133854723D01*
X361873802Y-133660605D01*
X362035948Y-133335892D01*
X362199961Y-132927162D01*
X362340500Y-132500505D01*
X362392264Y-132308408D01*
X362443747Y-132098649D01*
X358781033Y-132098649D01*
X355118319Y-132098649D01*
X355118319Y-130763814D01*
X355118319Y-129428979D01*
X358961374Y-129428979D01*
X362804430Y-129428979D01*
X362850423Y-129257357D01*
X362863480Y-129134485D01*
X362875186Y-128882745D01*
X362884978Y-128525820D01*
X362892297Y-128087395D01*
X362896578Y-127591151D01*
X362897457Y-127274174D01*
X362898499Y-125462613D01*
X364042643Y-125462613D01*
X365186787Y-125462613D01*
X365186787Y-128780631D01*
G37*
%TO.C,SW7*%
X83185000Y-87947500D02*
X82169000Y-87947500D01*
X83185000Y-86931500D02*
X83185000Y-87947500D01*
X83185000Y-73977500D02*
X83185000Y-74993500D01*
X82169000Y-73977500D02*
X83185000Y-73977500D01*
X70231000Y-87947500D02*
X69215000Y-87947500D01*
X69215000Y-87947500D02*
X69215000Y-86931500D01*
X69215000Y-74993500D02*
X69215000Y-73977500D01*
X69215000Y-73977500D02*
X70231000Y-73977500D01*
%TO.C,SW37*%
X216535000Y-87947500D02*
X215519000Y-87947500D01*
X216535000Y-86931500D02*
X216535000Y-87947500D01*
X216535000Y-73977500D02*
X216535000Y-74993500D01*
X215519000Y-73977500D02*
X216535000Y-73977500D01*
X203581000Y-87947500D02*
X202565000Y-87947500D01*
X202565000Y-87947500D02*
X202565000Y-86931500D01*
X202565000Y-74993500D02*
X202565000Y-73977500D01*
X202565000Y-73977500D02*
X203581000Y-73977500D01*
%TO.C,SW43*%
X230822500Y-126047500D02*
X229806500Y-126047500D01*
X230822500Y-125031500D02*
X230822500Y-126047500D01*
X230822500Y-112077500D02*
X230822500Y-113093500D01*
X229806500Y-112077500D02*
X230822500Y-112077500D01*
X217868500Y-126047500D02*
X216852500Y-126047500D01*
X216852500Y-126047500D02*
X216852500Y-125031500D01*
X216852500Y-113093500D02*
X216852500Y-112077500D01*
X216852500Y-112077500D02*
X217868500Y-112077500D01*
%TO.C,SW58*%
X278447500Y-145097500D02*
X277431500Y-145097500D01*
X278447500Y-144081500D02*
X278447500Y-145097500D01*
X278447500Y-131127500D02*
X278447500Y-132143500D01*
X277431500Y-131127500D02*
X278447500Y-131127500D01*
X265493500Y-145097500D02*
X264477500Y-145097500D01*
X264477500Y-145097500D02*
X264477500Y-144081500D01*
X264477500Y-132143500D02*
X264477500Y-131127500D01*
X264477500Y-131127500D02*
X265493500Y-131127500D01*
%TO.C,SW55*%
X283210000Y-164147500D02*
X282194000Y-164147500D01*
X283210000Y-163131500D02*
X283210000Y-164147500D01*
X283210000Y-150177500D02*
X283210000Y-151193500D01*
X282194000Y-150177500D02*
X283210000Y-150177500D01*
X270256000Y-164147500D02*
X269240000Y-164147500D01*
X269240000Y-164147500D02*
X269240000Y-163131500D01*
X269240000Y-151193500D02*
X269240000Y-150177500D01*
X269240000Y-150177500D02*
X270256000Y-150177500D01*
%TO.C,SW50*%
X264160000Y-164147500D02*
X263144000Y-164147500D01*
X264160000Y-163131500D02*
X264160000Y-164147500D01*
X264160000Y-150177500D02*
X264160000Y-151193500D01*
X263144000Y-150177500D02*
X264160000Y-150177500D01*
X251206000Y-164147500D02*
X250190000Y-164147500D01*
X250190000Y-164147500D02*
X250190000Y-163131500D01*
X250190000Y-151193500D02*
X250190000Y-150177500D01*
X250190000Y-150177500D02*
X251206000Y-150177500D01*
%TO.C,SW64*%
X349885000Y-164147500D02*
X348869000Y-164147500D01*
X349885000Y-163131500D02*
X349885000Y-164147500D01*
X349885000Y-150177500D02*
X349885000Y-151193500D01*
X348869000Y-150177500D02*
X349885000Y-150177500D01*
X336931000Y-164147500D02*
X335915000Y-164147500D01*
X335915000Y-164147500D02*
X335915000Y-163131500D01*
X335915000Y-151193500D02*
X335915000Y-150177500D01*
X335915000Y-150177500D02*
X336931000Y-150177500D01*
%TO.C,SW3*%
X68897500Y-106997500D02*
X67881500Y-106997500D01*
X68897500Y-105981500D02*
X68897500Y-106997500D01*
X68897500Y-93027500D02*
X68897500Y-94043500D01*
X67881500Y-93027500D02*
X68897500Y-93027500D01*
X55943500Y-106997500D02*
X54927500Y-106997500D01*
X54927500Y-106997500D02*
X54927500Y-105981500D01*
X54927500Y-94043500D02*
X54927500Y-93027500D01*
X54927500Y-93027500D02*
X55943500Y-93027500D01*
%TO.C,SW46*%
X254635000Y-87947500D02*
X253619000Y-87947500D01*
X254635000Y-86931500D02*
X254635000Y-87947500D01*
X254635000Y-73977500D02*
X254635000Y-74993500D01*
X253619000Y-73977500D02*
X254635000Y-73977500D01*
X241681000Y-87947500D02*
X240665000Y-87947500D01*
X240665000Y-87947500D02*
X240665000Y-86931500D01*
X240665000Y-74993500D02*
X240665000Y-73977500D01*
X240665000Y-73977500D02*
X241681000Y-73977500D01*
%TO.C,SW15*%
X90328750Y-164147500D02*
X89312750Y-164147500D01*
X90328750Y-163131500D02*
X90328750Y-164147500D01*
X90328750Y-150177500D02*
X90328750Y-151193500D01*
X89312750Y-150177500D02*
X90328750Y-150177500D01*
X77374750Y-164147500D02*
X76358750Y-164147500D01*
X76358750Y-164147500D02*
X76358750Y-163131500D01*
X76358750Y-151193500D02*
X76358750Y-150177500D01*
X76358750Y-150177500D02*
X77374750Y-150177500D01*
%TO.C,SW11*%
X102235000Y-87947500D02*
X101219000Y-87947500D01*
X102235000Y-86931500D02*
X102235000Y-87947500D01*
X102235000Y-73977500D02*
X102235000Y-74993500D01*
X101219000Y-73977500D02*
X102235000Y-73977500D01*
X89281000Y-87947500D02*
X88265000Y-87947500D01*
X88265000Y-87947500D02*
X88265000Y-86931500D01*
X88265000Y-74993500D02*
X88265000Y-73977500D01*
X88265000Y-73977500D02*
X89281000Y-73977500D01*
%TO.C,SW82*%
X304641250Y-164147500D02*
X303625250Y-164147500D01*
X304641250Y-163131500D02*
X304641250Y-164147500D01*
X304641250Y-150177500D02*
X304641250Y-151193500D01*
X303625250Y-150177500D02*
X304641250Y-150177500D01*
X291687250Y-164147500D02*
X290671250Y-164147500D01*
X290671250Y-164147500D02*
X290671250Y-163131500D01*
X290671250Y-151193500D02*
X290671250Y-150177500D01*
X290671250Y-150177500D02*
X291687250Y-150177500D01*
%TO.C,SW27*%
X154622500Y-126047500D02*
X153606500Y-126047500D01*
X154622500Y-125031500D02*
X154622500Y-126047500D01*
X154622500Y-112077500D02*
X154622500Y-113093500D01*
X153606500Y-112077500D02*
X154622500Y-112077500D01*
X141668500Y-126047500D02*
X140652500Y-126047500D01*
X140652500Y-126047500D02*
X140652500Y-125031500D01*
X140652500Y-113093500D02*
X140652500Y-112077500D01*
X140652500Y-112077500D02*
X141668500Y-112077500D01*
%TO.C,SW35*%
X192722500Y-126047500D02*
X191706500Y-126047500D01*
X192722500Y-125031500D02*
X192722500Y-126047500D01*
X192722500Y-112077500D02*
X192722500Y-113093500D01*
X191706500Y-112077500D02*
X192722500Y-112077500D01*
X179768500Y-126047500D02*
X178752500Y-126047500D01*
X178752500Y-126047500D02*
X178752500Y-125031500D01*
X178752500Y-113093500D02*
X178752500Y-112077500D01*
X178752500Y-112077500D02*
X179768500Y-112077500D01*
%TO.C,SW19*%
X106997500Y-145097500D02*
X105981500Y-145097500D01*
X106997500Y-144081500D02*
X106997500Y-145097500D01*
X106997500Y-131127500D02*
X106997500Y-132143500D01*
X105981500Y-131127500D02*
X106997500Y-131127500D01*
X94043500Y-145097500D02*
X93027500Y-145097500D01*
X93027500Y-145097500D02*
X93027500Y-144081500D01*
X93027500Y-132143500D02*
X93027500Y-131127500D01*
X93027500Y-131127500D02*
X94043500Y-131127500D01*
%TO.C,SW67*%
X349885000Y-126047500D02*
X348869000Y-126047500D01*
X349885000Y-125031500D02*
X349885000Y-126047500D01*
X349885000Y-112077500D02*
X349885000Y-113093500D01*
X348869000Y-112077500D02*
X349885000Y-112077500D01*
X336931000Y-126047500D02*
X335915000Y-126047500D01*
X335915000Y-126047500D02*
X335915000Y-125031500D01*
X335915000Y-113093500D02*
X335915000Y-112077500D01*
X335915000Y-112077500D02*
X336931000Y-112077500D01*
%TO.C,SW44*%
X221297500Y-145097500D02*
X220281500Y-145097500D01*
X221297500Y-144081500D02*
X221297500Y-145097500D01*
X221297500Y-131127500D02*
X221297500Y-132143500D01*
X220281500Y-131127500D02*
X221297500Y-131127500D01*
X208343500Y-145097500D02*
X207327500Y-145097500D01*
X207327500Y-145097500D02*
X207327500Y-144081500D01*
X207327500Y-132143500D02*
X207327500Y-131127500D01*
X207327500Y-131127500D02*
X208343500Y-131127500D01*
%TO.C,SW53*%
X268922500Y-126047500D02*
X267906500Y-126047500D01*
X268922500Y-125031500D02*
X268922500Y-126047500D01*
X268922500Y-112077500D02*
X268922500Y-113093500D01*
X267906500Y-112077500D02*
X268922500Y-112077500D01*
X255968500Y-126047500D02*
X254952500Y-126047500D01*
X254952500Y-126047500D02*
X254952500Y-125031500D01*
X254952500Y-113093500D02*
X254952500Y-112077500D01*
X254952500Y-112077500D02*
X255968500Y-112077500D01*
%TO.C,SW77*%
X223678750Y-164147500D02*
X222662750Y-164147500D01*
X223678750Y-163131500D02*
X223678750Y-164147500D01*
X223678750Y-150177500D02*
X223678750Y-151193500D01*
X222662750Y-150177500D02*
X223678750Y-150177500D01*
X210724750Y-164147500D02*
X209708750Y-164147500D01*
X209708750Y-164147500D02*
X209708750Y-163131500D01*
X209708750Y-151193500D02*
X209708750Y-150177500D01*
X209708750Y-150177500D02*
X210724750Y-150177500D01*
%TO.C,SW63*%
X314166250Y-145097500D02*
X313150250Y-145097500D01*
X314166250Y-144081500D02*
X314166250Y-145097500D01*
X314166250Y-131127500D02*
X314166250Y-132143500D01*
X313150250Y-131127500D02*
X314166250Y-131127500D01*
X301212250Y-145097500D02*
X300196250Y-145097500D01*
X300196250Y-145097500D02*
X300196250Y-144081500D01*
X300196250Y-132143500D02*
X300196250Y-131127500D01*
X300196250Y-131127500D02*
X301212250Y-131127500D01*
%TO.C,SW2*%
X64135000Y-87947500D02*
X63119000Y-87947500D01*
X64135000Y-86931500D02*
X64135000Y-87947500D01*
X64135000Y-73977500D02*
X64135000Y-74993500D01*
X63119000Y-73977500D02*
X64135000Y-73977500D01*
X51181000Y-87947500D02*
X50165000Y-87947500D01*
X50165000Y-87947500D02*
X50165000Y-86931500D01*
X50165000Y-74993500D02*
X50165000Y-73977500D01*
X50165000Y-73977500D02*
X51181000Y-73977500D01*
%TO.C,SW32*%
X164147500Y-145097500D02*
X163131500Y-145097500D01*
X164147500Y-144081500D02*
X164147500Y-145097500D01*
X164147500Y-131127500D02*
X164147500Y-132143500D01*
X163131500Y-131127500D02*
X164147500Y-131127500D01*
X151193500Y-145097500D02*
X150177500Y-145097500D01*
X150177500Y-145097500D02*
X150177500Y-144081500D01*
X150177500Y-132143500D02*
X150177500Y-131127500D01*
X150177500Y-131127500D02*
X151193500Y-131127500D01*
%TO.C,SW5*%
X76041250Y-145097500D02*
X75025250Y-145097500D01*
X76041250Y-144081500D02*
X76041250Y-145097500D01*
X76041250Y-131127500D02*
X76041250Y-132143500D01*
X75025250Y-131127500D02*
X76041250Y-131127500D01*
X63087250Y-145097500D02*
X62071250Y-145097500D01*
X62071250Y-145097500D02*
X62071250Y-144081500D01*
X62071250Y-132143500D02*
X62071250Y-131127500D01*
X62071250Y-131127500D02*
X63087250Y-131127500D01*
%TO.C,SW62*%
X318928750Y-126047500D02*
X317912750Y-126047500D01*
X318928750Y-125031500D02*
X318928750Y-126047500D01*
X318928750Y-112077500D02*
X318928750Y-113093500D01*
X317912750Y-112077500D02*
X318928750Y-112077500D01*
X305974750Y-126047500D02*
X304958750Y-126047500D01*
X304958750Y-126047500D02*
X304958750Y-125031500D01*
X304958750Y-113093500D02*
X304958750Y-112077500D01*
X304958750Y-112077500D02*
X305974750Y-112077500D01*
%TO.C,SW13*%
X97472500Y-126047500D02*
X96456500Y-126047500D01*
X97472500Y-125031500D02*
X97472500Y-126047500D01*
X97472500Y-112077500D02*
X97472500Y-113093500D01*
X96456500Y-112077500D02*
X97472500Y-112077500D01*
X84518500Y-126047500D02*
X83502500Y-126047500D01*
X83502500Y-126047500D02*
X83502500Y-125031500D01*
X83502500Y-113093500D02*
X83502500Y-112077500D01*
X83502500Y-112077500D02*
X84518500Y-112077500D01*
%TO.C,SW70*%
X321310000Y-87947500D02*
X320294000Y-87947500D01*
X321310000Y-86931500D02*
X321310000Y-87947500D01*
X321310000Y-73977500D02*
X321310000Y-74993500D01*
X320294000Y-73977500D02*
X321310000Y-73977500D01*
X308356000Y-87947500D02*
X307340000Y-87947500D01*
X307340000Y-87947500D02*
X307340000Y-86931500D01*
X307340000Y-74993500D02*
X307340000Y-73977500D01*
X307340000Y-73977500D02*
X308356000Y-73977500D01*
%TO.C,SW69*%
X349885000Y-145097500D02*
X348869000Y-145097500D01*
X349885000Y-144081500D02*
X349885000Y-145097500D01*
X349885000Y-131127500D02*
X349885000Y-132143500D01*
X348869000Y-131127500D02*
X349885000Y-131127500D01*
X336931000Y-145097500D02*
X335915000Y-145097500D01*
X335915000Y-145097500D02*
X335915000Y-144081500D01*
X335915000Y-132143500D02*
X335915000Y-131127500D01*
X335915000Y-131127500D02*
X336931000Y-131127500D01*
%TO.C,SW71*%
X330835000Y-106997500D02*
X329819000Y-106997500D01*
X330835000Y-105981500D02*
X330835000Y-106997500D01*
X330835000Y-93027500D02*
X330835000Y-94043500D01*
X329819000Y-93027500D02*
X330835000Y-93027500D01*
X317881000Y-106997500D02*
X316865000Y-106997500D01*
X316865000Y-106997500D02*
X316865000Y-105981500D01*
X316865000Y-94043500D02*
X316865000Y-93027500D01*
X316865000Y-93027500D02*
X317881000Y-93027500D01*
%TO.C,SW24*%
X185578750Y-164147500D02*
X184562750Y-164147500D01*
X185578750Y-163131500D02*
X185578750Y-164147500D01*
X185578750Y-150177500D02*
X185578750Y-151193500D01*
X184562750Y-150177500D02*
X185578750Y-150177500D01*
X172624750Y-164147500D02*
X171608750Y-164147500D01*
X171608750Y-164147500D02*
X171608750Y-163131500D01*
X171608750Y-151193500D02*
X171608750Y-150177500D01*
X171608750Y-150177500D02*
X172624750Y-150177500D01*
%TO.C,SW66*%
X349885000Y-106997500D02*
X348869000Y-106997500D01*
X349885000Y-105981500D02*
X349885000Y-106997500D01*
X349885000Y-93027500D02*
X349885000Y-94043500D01*
X348869000Y-93027500D02*
X349885000Y-93027500D01*
X336931000Y-106997500D02*
X335915000Y-106997500D01*
X335915000Y-106997500D02*
X335915000Y-105981500D01*
X335915000Y-94043500D02*
X335915000Y-93027500D01*
X335915000Y-93027500D02*
X336931000Y-93027500D01*
%TO.C,SW34*%
X207010000Y-106997500D02*
X205994000Y-106997500D01*
X207010000Y-105981500D02*
X207010000Y-106997500D01*
X207010000Y-93027500D02*
X207010000Y-94043500D01*
X205994000Y-93027500D02*
X207010000Y-93027500D01*
X194056000Y-106997500D02*
X193040000Y-106997500D01*
X193040000Y-106997500D02*
X193040000Y-105981500D01*
X193040000Y-94043500D02*
X193040000Y-93027500D01*
X193040000Y-93027500D02*
X194056000Y-93027500D01*
%TO.C,SW9*%
X71278750Y-126047500D02*
X70262750Y-126047500D01*
X71278750Y-125031500D02*
X71278750Y-126047500D01*
X71278750Y-112077500D02*
X71278750Y-113093500D01*
X70262750Y-112077500D02*
X71278750Y-112077500D01*
X58324750Y-126047500D02*
X57308750Y-126047500D01*
X57308750Y-126047500D02*
X57308750Y-125031500D01*
X57308750Y-113093500D02*
X57308750Y-112077500D01*
X57308750Y-112077500D02*
X58324750Y-112077500D01*
%TD*%
%LPC*%
D11*
%TO.C,SW68*%
X367030000Y-157162500D03*
D12*
X361950000Y-157162500D03*
D11*
X356870000Y-157162500D03*
D13*
X359410000Y-162242500D03*
X365760000Y-159702500D03*
%TD*%
D14*
%TO.C,REF\u002A\u002A*%
X228593750Y-164147500D03*
D15*
X228593750Y-148907500D03*
D14*
X204793750Y-164147500D03*
D15*
X204793750Y-148907500D03*
%TD*%
D11*
%TO.C,SW8*%
X90805000Y-100012500D03*
D12*
X85725000Y-100012500D03*
D11*
X80645000Y-100012500D03*
D13*
X83185000Y-105092500D03*
X89535000Y-102552500D03*
%TD*%
D11*
%TO.C,SW29*%
X176530000Y-80962500D03*
D12*
X171450000Y-80962500D03*
D11*
X166370000Y-80962500D03*
D13*
X168910000Y-86042500D03*
X175260000Y-83502500D03*
%TD*%
D11*
%TO.C,SW41*%
X233680000Y-80962500D03*
D12*
X228600000Y-80962500D03*
D11*
X223520000Y-80962500D03*
D13*
X226060000Y-86042500D03*
X232410000Y-83502500D03*
%TD*%
D11*
%TO.C,SW39*%
X209867500Y-119062500D03*
D12*
X204787500Y-119062500D03*
D11*
X199707500Y-119062500D03*
D13*
X202247500Y-124142500D03*
X208597500Y-121602500D03*
%TD*%
D11*
%TO.C,SW18*%
X114617500Y-119062500D03*
D12*
X109537500Y-119062500D03*
D11*
X104457500Y-119062500D03*
D13*
X106997500Y-124142500D03*
X113347500Y-121602500D03*
%TD*%
D11*
%TO.C,SW6*%
X64611250Y-157162500D03*
D12*
X59531250Y-157162500D03*
D11*
X54451250Y-157162500D03*
D13*
X56991250Y-162242500D03*
X63341250Y-159702500D03*
%TD*%
D11*
%TO.C,SW79*%
X150336250Y-157162500D03*
D12*
X145256250Y-157162500D03*
D11*
X140176250Y-157162500D03*
D13*
X142716250Y-162242500D03*
X149066250Y-159702500D03*
%TD*%
D11*
%TO.C,SW33*%
X195580000Y-80962500D03*
D12*
X190500000Y-80962500D03*
D11*
X185420000Y-80962500D03*
D13*
X187960000Y-86042500D03*
X194310000Y-83502500D03*
%TD*%
D11*
%TO.C,SW20*%
X138430000Y-80962500D03*
D12*
X133350000Y-80962500D03*
D11*
X128270000Y-80962500D03*
D13*
X130810000Y-86042500D03*
X137160000Y-83502500D03*
%TD*%
D11*
%TO.C,SW47*%
X262255000Y-100012500D03*
D12*
X257175000Y-100012500D03*
D11*
X252095000Y-100012500D03*
D13*
X254635000Y-105092500D03*
X260985000Y-102552500D03*
%TD*%
D11*
%TO.C,SW75*%
X286067500Y-119062500D03*
D12*
X280987500Y-119062500D03*
D11*
X275907500Y-119062500D03*
D13*
X278447500Y-124142500D03*
X284797500Y-121602500D03*
%TD*%
D11*
%TO.C,SW49*%
X238442500Y-138112500D03*
D12*
X233362500Y-138112500D03*
D11*
X228282500Y-138112500D03*
D13*
X230822500Y-143192500D03*
X237172500Y-140652500D03*
%TD*%
D11*
%TO.C,SW57*%
X307498750Y-100012500D03*
D12*
X302418750Y-100012500D03*
D11*
X297338750Y-100012500D03*
D13*
X299878750Y-105092500D03*
X306228750Y-102552500D03*
%TD*%
D11*
%TO.C,SW36*%
X181292500Y-138112500D03*
D12*
X176212500Y-138112500D03*
D11*
X171132500Y-138112500D03*
D13*
X173672500Y-143192500D03*
X180022500Y-140652500D03*
%TD*%
D11*
%TO.C,SW78*%
X112236250Y-157162500D03*
D12*
X107156250Y-157162500D03*
D11*
X102076250Y-157162500D03*
D13*
X104616250Y-162242500D03*
X110966250Y-159702500D03*
%TD*%
D11*
%TO.C,SW59*%
X328930000Y-157162500D03*
D12*
X323850000Y-157162500D03*
D11*
X318770000Y-157162500D03*
D13*
X321310000Y-162242500D03*
X327660000Y-159702500D03*
%TD*%
D11*
%TO.C,SW42*%
X243205000Y-100012500D03*
D12*
X238125000Y-100012500D03*
D11*
X233045000Y-100012500D03*
D13*
X235585000Y-105092500D03*
X241935000Y-102552500D03*
%TD*%
D11*
%TO.C,SW28*%
X143192500Y-138112500D03*
D12*
X138112500Y-138112500D03*
D11*
X133032500Y-138112500D03*
D13*
X135572500Y-143192500D03*
X141922500Y-140652500D03*
%TD*%
D11*
%TO.C,SW38*%
X224155000Y-100012500D03*
D12*
X219075000Y-100012500D03*
D11*
X213995000Y-100012500D03*
D13*
X216535000Y-105092500D03*
X222885000Y-102552500D03*
%TD*%
D14*
%TO.C,REF\u002A\u002A*%
X295281250Y-131127500D03*
D15*
X295281250Y-146367500D03*
D14*
X319081250Y-131127500D03*
D15*
X319081250Y-146367500D03*
%TD*%
D11*
%TO.C,SW22*%
X133667500Y-119062500D03*
D12*
X128587500Y-119062500D03*
D11*
X123507500Y-119062500D03*
D13*
X126047500Y-124142500D03*
X132397500Y-121602500D03*
%TD*%
D11*
%TO.C,SW56*%
X290830000Y-80962500D03*
D12*
X285750000Y-80962500D03*
D11*
X280670000Y-80962500D03*
D13*
X283210000Y-86042500D03*
X289560000Y-83502500D03*
%TD*%
D11*
%TO.C,SW26*%
X167005000Y-100012500D03*
D12*
X161925000Y-100012500D03*
D11*
X156845000Y-100012500D03*
D13*
X159385000Y-105092500D03*
X165735000Y-102552500D03*
%TD*%
D11*
%TO.C,SW31*%
X171767500Y-119062500D03*
D12*
X166687500Y-119062500D03*
D11*
X161607500Y-119062500D03*
D13*
X164147500Y-124142500D03*
X170497500Y-121602500D03*
%TD*%
D11*
%TO.C,SW4*%
X64611250Y-119062500D03*
D12*
X59531250Y-119062500D03*
D11*
X54451250Y-119062500D03*
D13*
X56991250Y-124142500D03*
X63341250Y-121602500D03*
%TD*%
D11*
%TO.C,SW54*%
X257492500Y-138112500D03*
D12*
X252412500Y-138112500D03*
D11*
X247332500Y-138112500D03*
D13*
X249872500Y-143192500D03*
X256222500Y-140652500D03*
%TD*%
D11*
%TO.C,SW30*%
X186055000Y-100012500D03*
D12*
X180975000Y-100012500D03*
D11*
X175895000Y-100012500D03*
D13*
X178435000Y-105092500D03*
X184785000Y-102552500D03*
%TD*%
D11*
%TO.C,SW1*%
X347980000Y-80962500D03*
D12*
X342900000Y-80962500D03*
D11*
X337820000Y-80962500D03*
D13*
X340360000Y-86042500D03*
X346710000Y-83502500D03*
%TD*%
D11*
%TO.C,SW48*%
X247967500Y-119062500D03*
D12*
X242887500Y-119062500D03*
D11*
X237807500Y-119062500D03*
D13*
X240347500Y-124142500D03*
X246697500Y-121602500D03*
%TD*%
D11*
%TO.C,SW40*%
X200342500Y-138112500D03*
D12*
X195262500Y-138112500D03*
D11*
X190182500Y-138112500D03*
D13*
X192722500Y-143192500D03*
X199072500Y-140652500D03*
%TD*%
D14*
%TO.C,REF\u002A\u002A*%
X300043750Y-112077500D03*
D15*
X300043750Y-127317500D03*
D14*
X323843750Y-112077500D03*
D15*
X323843750Y-127317500D03*
%TD*%
D11*
%TO.C,SW21*%
X147955000Y-100012500D03*
D12*
X142875000Y-100012500D03*
D11*
X137795000Y-100012500D03*
D13*
X140335000Y-105092500D03*
X146685000Y-102552500D03*
%TD*%
D14*
%TO.C,REF\u002A\u002A*%
X302425000Y-73977500D03*
D15*
X302425000Y-89217500D03*
D14*
X326225000Y-73977500D03*
D15*
X326225000Y-89217500D03*
%TD*%
D11*
%TO.C,SW17*%
X128905000Y-100012500D03*
D12*
X123825000Y-100012500D03*
D11*
X118745000Y-100012500D03*
D13*
X121285000Y-105092500D03*
X127635000Y-102552500D03*
%TD*%
D11*
%TO.C,SW23*%
X124142500Y-138112500D03*
D12*
X119062500Y-138112500D03*
D11*
X113982500Y-138112500D03*
D13*
X116522500Y-143192500D03*
X122872500Y-140652500D03*
%TD*%
D11*
%TO.C,SW16*%
X119380000Y-80962500D03*
D12*
X114300000Y-80962500D03*
D11*
X109220000Y-80962500D03*
D13*
X111760000Y-86042500D03*
X118110000Y-83502500D03*
%TD*%
D11*
%TO.C,SW51*%
X271780000Y-80962500D03*
D12*
X266700000Y-80962500D03*
D11*
X261620000Y-80962500D03*
D13*
X264160000Y-86042500D03*
X270510000Y-83502500D03*
%TD*%
D11*
%TO.C,SW52*%
X283686250Y-100012500D03*
D12*
X278606250Y-100012500D03*
D11*
X273526250Y-100012500D03*
D13*
X276066250Y-105092500D03*
X282416250Y-102552500D03*
%TD*%
D11*
%TO.C,SW25*%
X157480000Y-80962500D03*
D12*
X152400000Y-80962500D03*
D11*
X147320000Y-80962500D03*
D13*
X149860000Y-86042500D03*
X156210000Y-83502500D03*
%TD*%
D11*
%TO.C,SW12*%
X109855000Y-100012500D03*
D12*
X104775000Y-100012500D03*
D11*
X99695000Y-100012500D03*
D13*
X102235000Y-105092500D03*
X108585000Y-102552500D03*
%TD*%
D11*
%TO.C,SW7*%
X81280000Y-80962500D03*
D12*
X76200000Y-80962500D03*
D11*
X71120000Y-80962500D03*
D13*
X73660000Y-86042500D03*
X80010000Y-83502500D03*
%TD*%
D11*
%TO.C,SW37*%
X214630000Y-80962500D03*
D12*
X209550000Y-80962500D03*
D11*
X204470000Y-80962500D03*
D13*
X207010000Y-86042500D03*
X213360000Y-83502500D03*
%TD*%
D11*
%TO.C,SW43*%
X228917500Y-119062500D03*
D12*
X223837500Y-119062500D03*
D11*
X218757500Y-119062500D03*
D13*
X221297500Y-124142500D03*
X227647500Y-121602500D03*
%TD*%
D11*
%TO.C,SW58*%
X276542500Y-138112500D03*
D12*
X271462500Y-138112500D03*
D11*
X266382500Y-138112500D03*
D13*
X268922500Y-143192500D03*
X275272500Y-140652500D03*
%TD*%
D11*
%TO.C,SW55*%
X281305000Y-157162500D03*
D12*
X276225000Y-157162500D03*
D11*
X271145000Y-157162500D03*
D13*
X273685000Y-162242500D03*
X280035000Y-159702500D03*
%TD*%
D11*
%TO.C,SW50*%
X262255000Y-157162500D03*
D12*
X257175000Y-157162500D03*
D11*
X252095000Y-157162500D03*
D13*
X254635000Y-162242500D03*
X260985000Y-159702500D03*
%TD*%
D14*
%TO.C,REF\u002A\u002A*%
X57156250Y-131127500D03*
D15*
X57156250Y-146367500D03*
D14*
X80956250Y-131127500D03*
D15*
X80956250Y-146367500D03*
%TD*%
D11*
%TO.C,SW64*%
X347980000Y-157162500D03*
D12*
X342900000Y-157162500D03*
D11*
X337820000Y-157162500D03*
D13*
X340360000Y-162242500D03*
X346710000Y-159702500D03*
%TD*%
D11*
%TO.C,SW3*%
X66992500Y-100012500D03*
D12*
X61912500Y-100012500D03*
D11*
X56832500Y-100012500D03*
D13*
X59372500Y-105092500D03*
X65722500Y-102552500D03*
%TD*%
D11*
%TO.C,SW46*%
X252730000Y-80962500D03*
D12*
X247650000Y-80962500D03*
D11*
X242570000Y-80962500D03*
D13*
X245110000Y-86042500D03*
X251460000Y-83502500D03*
%TD*%
D11*
%TO.C,SW15*%
X88423750Y-157162500D03*
D12*
X83343750Y-157162500D03*
D11*
X78263750Y-157162500D03*
D13*
X80803750Y-162242500D03*
X87153750Y-159702500D03*
%TD*%
D11*
%TO.C,SW11*%
X100330000Y-80962500D03*
D12*
X95250000Y-80962500D03*
D11*
X90170000Y-80962500D03*
D13*
X92710000Y-86042500D03*
X99060000Y-83502500D03*
%TD*%
D11*
%TO.C,SW82*%
X302736250Y-157162500D03*
D12*
X297656250Y-157162500D03*
D11*
X292576250Y-157162500D03*
D13*
X295116250Y-162242500D03*
X301466250Y-159702500D03*
%TD*%
D11*
%TO.C,SW27*%
X152717500Y-119062500D03*
D12*
X147637500Y-119062500D03*
D11*
X142557500Y-119062500D03*
D13*
X145097500Y-124142500D03*
X151447500Y-121602500D03*
%TD*%
D11*
%TO.C,SW35*%
X190817500Y-119062500D03*
D12*
X185737500Y-119062500D03*
D11*
X180657500Y-119062500D03*
D13*
X183197500Y-124142500D03*
X189547500Y-121602500D03*
%TD*%
D11*
%TO.C,SW19*%
X105092500Y-138112500D03*
D12*
X100012500Y-138112500D03*
D11*
X94932500Y-138112500D03*
D13*
X97472500Y-143192500D03*
X103822500Y-140652500D03*
%TD*%
D11*
%TO.C,SW67*%
X347980000Y-119062500D03*
D12*
X342900000Y-119062500D03*
D11*
X337820000Y-119062500D03*
D13*
X340360000Y-124142500D03*
X346710000Y-121602500D03*
%TD*%
D11*
%TO.C,SW44*%
X219392500Y-138112500D03*
D12*
X214312500Y-138112500D03*
D11*
X209232500Y-138112500D03*
D13*
X211772500Y-143192500D03*
X218122500Y-140652500D03*
%TD*%
D11*
%TO.C,SW53*%
X267017500Y-119062500D03*
D12*
X261937500Y-119062500D03*
D11*
X256857500Y-119062500D03*
D13*
X259397500Y-124142500D03*
X265747500Y-121602500D03*
%TD*%
D11*
%TO.C,SW77*%
X221773750Y-157162500D03*
D12*
X216693750Y-157162500D03*
D11*
X211613750Y-157162500D03*
D13*
X214153750Y-162242500D03*
X220503750Y-159702500D03*
%TD*%
D11*
%TO.C,SW63*%
X312261250Y-138112500D03*
D12*
X307181250Y-138112500D03*
D11*
X302101250Y-138112500D03*
D13*
X304641250Y-143192500D03*
X310991250Y-140652500D03*
%TD*%
D14*
%TO.C,REF\u002A\u002A*%
X157156250Y-164147500D03*
D15*
X157156250Y-148907500D03*
D14*
X133356250Y-164147500D03*
D15*
X133356250Y-148907500D03*
%TD*%
D11*
%TO.C,SW2*%
X62230000Y-80962500D03*
D12*
X57150000Y-80962500D03*
D11*
X52070000Y-80962500D03*
D13*
X54610000Y-86042500D03*
X60960000Y-83502500D03*
%TD*%
D11*
%TO.C,SW32*%
X162242500Y-138112500D03*
D12*
X157162500Y-138112500D03*
D11*
X152082500Y-138112500D03*
D13*
X154622500Y-143192500D03*
X160972500Y-140652500D03*
%TD*%
D11*
%TO.C,SW5*%
X74136250Y-138112500D03*
D12*
X69056250Y-138112500D03*
D11*
X63976250Y-138112500D03*
D13*
X66516250Y-143192500D03*
X72866250Y-140652500D03*
%TD*%
D11*
%TO.C,SW62*%
X317023750Y-119062500D03*
D12*
X311943750Y-119062500D03*
D11*
X306863750Y-119062500D03*
D13*
X309403750Y-124142500D03*
X315753750Y-121602500D03*
%TD*%
D11*
%TO.C,SW13*%
X95567500Y-119062500D03*
D12*
X90487500Y-119062500D03*
D11*
X85407500Y-119062500D03*
D13*
X87947500Y-124142500D03*
X94297500Y-121602500D03*
%TD*%
D11*
%TO.C,SW70*%
X319405000Y-80962500D03*
D12*
X314325000Y-80962500D03*
D11*
X309245000Y-80962500D03*
D13*
X311785000Y-86042500D03*
X318135000Y-83502500D03*
%TD*%
D11*
%TO.C,SW69*%
X347980000Y-138112500D03*
D12*
X342900000Y-138112500D03*
D11*
X337820000Y-138112500D03*
D13*
X340360000Y-143192500D03*
X346710000Y-140652500D03*
%TD*%
D11*
%TO.C,SW71*%
X328930000Y-100012500D03*
D12*
X323850000Y-100012500D03*
D11*
X318770000Y-100012500D03*
D13*
X321310000Y-105092500D03*
X327660000Y-102552500D03*
%TD*%
D11*
%TO.C,SW24*%
X183673750Y-157162500D03*
D12*
X178593750Y-157162500D03*
D11*
X173513750Y-157162500D03*
D13*
X176053750Y-162242500D03*
X182403750Y-159702500D03*
%TD*%
D11*
%TO.C,SW66*%
X347980000Y-100012500D03*
D12*
X342900000Y-100012500D03*
D11*
X337820000Y-100012500D03*
D13*
X340360000Y-105092500D03*
X346710000Y-102552500D03*
%TD*%
D11*
%TO.C,SW34*%
X205105000Y-100012500D03*
D12*
X200025000Y-100012500D03*
D11*
X194945000Y-100012500D03*
D13*
X197485000Y-105092500D03*
X203835000Y-102552500D03*
%TD*%
D11*
%TO.C,SW9*%
X69373750Y-119062500D03*
D12*
X64293750Y-119062500D03*
D11*
X59213750Y-119062500D03*
D13*
X61753750Y-124142500D03*
X68103750Y-121602500D03*
%TD*%
D16*
%TO.C,J5*%
X368750000Y-105500000D03*
D17*
X368750000Y-108040000D03*
X368750000Y-110580000D03*
X368750000Y-113120000D03*
%TD*%
D18*
%TO.C,J2*%
X354297500Y-77040000D03*
X360077500Y-77040000D03*
D19*
X352867500Y-73390000D03*
D20*
X352867500Y-77570000D03*
D19*
X361507500Y-73390000D03*
D20*
X361507500Y-77570000D03*
%TD*%
%LPD*%
M02*
