%TF.GenerationSoftware,KiCad,Pcbnew,7.0.11*%
%TF.CreationDate,2024-04-25T10:19:36+05:30*%
%TF.ProjectId,Lexicon 69,4c657869-636f-46e2-9036-392e6b696361,rev?*%
%TF.SameCoordinates,Original*%
%TF.FileFunction,Legend,Bot*%
%TF.FilePolarity,Positive*%
%FSLAX46Y46*%
G04 Gerber Fmt 4.6, Leading zero omitted, Abs format (unit mm)*
G04 Created by KiCad (PCBNEW 7.0.11) date 2024-04-25 10:19:36*
%MOMM*%
%LPD*%
G01*
G04 APERTURE LIST*
G04 Aperture macros list*
%AMRoundRect*
0 Rectangle with rounded corners*
0 $1 Rounding radius*
0 $2 $3 $4 $5 $6 $7 $8 $9 X,Y pos of 4 corners*
0 Add a 4 corners polygon primitive as box body*
4,1,4,$2,$3,$4,$5,$6,$7,$8,$9,$2,$3,0*
0 Add four circle primitives for the rounded corners*
1,1,$1+$1,$2,$3*
1,1,$1+$1,$4,$5*
1,1,$1+$1,$6,$7*
1,1,$1+$1,$8,$9*
0 Add four rect primitives between the rounded corners*
20,1,$1+$1,$2,$3,$4,$5,0*
20,1,$1+$1,$4,$5,$6,$7,0*
20,1,$1+$1,$6,$7,$8,$9,0*
20,1,$1+$1,$8,$9,$2,$3,0*%
G04 Aperture macros list end*
%ADD10C,0.600000*%
%ADD11C,0.150000*%
%ADD12C,0.120000*%
%ADD13C,1.700000*%
%ADD14C,4.000000*%
%ADD15C,2.200000*%
%ADD16C,3.048000*%
%ADD17C,3.987800*%
%ADD18RoundRect,0.135000X0.185000X-0.135000X0.185000X0.135000X-0.185000X0.135000X-0.185000X-0.135000X0*%
%ADD19R,1.200000X0.900000*%
%ADD20RoundRect,0.140000X-0.140000X-0.170000X0.140000X-0.170000X0.140000X0.170000X-0.140000X0.170000X0*%
%ADD21RoundRect,0.250000X-0.250000X-0.475000X0.250000X-0.475000X0.250000X0.475000X-0.250000X0.475000X0*%
%ADD22RoundRect,0.140000X-0.170000X0.140000X-0.170000X-0.140000X0.170000X-0.140000X0.170000X0.140000X0*%
%ADD23R,1.400000X1.200000*%
%ADD24R,1.800000X1.100000*%
%ADD25R,1.700000X1.700000*%
%ADD26O,1.700000X1.700000*%
%ADD27RoundRect,0.140000X0.170000X-0.140000X0.170000X0.140000X-0.170000X0.140000X-0.170000X-0.140000X0*%
%ADD28RoundRect,0.140000X0.140000X0.170000X-0.140000X0.170000X-0.140000X-0.170000X0.140000X-0.170000X0*%
%ADD29RoundRect,0.135000X-0.185000X0.135000X-0.185000X-0.135000X0.185000X-0.135000X0.185000X0.135000X0*%
%ADD30RoundRect,0.250000X0.425000X-0.450000X0.425000X0.450000X-0.425000X0.450000X-0.425000X-0.450000X0*%
%ADD31R,1.500000X2.000000*%
%ADD32R,3.800000X2.000000*%
%ADD33RoundRect,0.050000X0.387500X0.050000X-0.387500X0.050000X-0.387500X-0.050000X0.387500X-0.050000X0*%
%ADD34RoundRect,0.050000X0.050000X0.387500X-0.050000X0.387500X-0.050000X-0.387500X0.050000X-0.387500X0*%
%ADD35R,3.200000X3.200000*%
%ADD36RoundRect,0.150000X0.150000X-0.650000X0.150000X0.650000X-0.150000X0.650000X-0.150000X-0.650000X0*%
%ADD37RoundRect,0.150000X0.150000X-0.512500X0.150000X0.512500X-0.150000X0.512500X-0.150000X-0.512500X0*%
%ADD38C,0.650000*%
%ADD39R,0.600000X1.450000*%
%ADD40R,0.300000X1.450000*%
%ADD41O,1.000000X1.600000*%
%ADD42O,1.000000X2.100000*%
%ADD43RoundRect,0.243750X0.456250X-0.243750X0.456250X0.243750X-0.456250X0.243750X-0.456250X-0.243750X0*%
G04 APERTURE END LIST*
D10*
X271498121Y-130979276D02*
X273402883Y-130979276D01*
X273402883Y-130979276D02*
X273402883Y-126979276D01*
X268640978Y-130788800D02*
X269021930Y-130979276D01*
X269021930Y-130979276D02*
X269783835Y-130979276D01*
X269783835Y-130979276D02*
X270164788Y-130788800D01*
X270164788Y-130788800D02*
X270355264Y-130407847D01*
X270355264Y-130407847D02*
X270355264Y-128884038D01*
X270355264Y-128884038D02*
X270164788Y-128503085D01*
X270164788Y-128503085D02*
X269783835Y-128312609D01*
X269783835Y-128312609D02*
X269021930Y-128312609D01*
X269021930Y-128312609D02*
X268640978Y-128503085D01*
X268640978Y-128503085D02*
X268450502Y-128884038D01*
X268450502Y-128884038D02*
X268450502Y-129264990D01*
X268450502Y-129264990D02*
X270355264Y-129645942D01*
X267117169Y-130979276D02*
X265021931Y-128312609D01*
X267117169Y-128312609D02*
X265021931Y-130979276D01*
X263498122Y-130979276D02*
X263498122Y-128312609D01*
X263498122Y-126979276D02*
X263688598Y-127169752D01*
X263688598Y-127169752D02*
X263498122Y-127360228D01*
X263498122Y-127360228D02*
X263307645Y-127169752D01*
X263307645Y-127169752D02*
X263498122Y-126979276D01*
X263498122Y-126979276D02*
X263498122Y-127360228D01*
X259879074Y-130788800D02*
X260260026Y-130979276D01*
X260260026Y-130979276D02*
X261021931Y-130979276D01*
X261021931Y-130979276D02*
X261402883Y-130788800D01*
X261402883Y-130788800D02*
X261593360Y-130598323D01*
X261593360Y-130598323D02*
X261783836Y-130217371D01*
X261783836Y-130217371D02*
X261783836Y-129074514D01*
X261783836Y-129074514D02*
X261593360Y-128693561D01*
X261593360Y-128693561D02*
X261402883Y-128503085D01*
X261402883Y-128503085D02*
X261021931Y-128312609D01*
X261021931Y-128312609D02*
X260260026Y-128312609D01*
X260260026Y-128312609D02*
X259879074Y-128503085D01*
X257593360Y-130979276D02*
X257974312Y-130788800D01*
X257974312Y-130788800D02*
X258164789Y-130598323D01*
X258164789Y-130598323D02*
X258355265Y-130217371D01*
X258355265Y-130217371D02*
X258355265Y-129074514D01*
X258355265Y-129074514D02*
X258164789Y-128693561D01*
X258164789Y-128693561D02*
X257974312Y-128503085D01*
X257974312Y-128503085D02*
X257593360Y-128312609D01*
X257593360Y-128312609D02*
X257021931Y-128312609D01*
X257021931Y-128312609D02*
X256640979Y-128503085D01*
X256640979Y-128503085D02*
X256450503Y-128693561D01*
X256450503Y-128693561D02*
X256260027Y-129074514D01*
X256260027Y-129074514D02*
X256260027Y-130217371D01*
X256260027Y-130217371D02*
X256450503Y-130598323D01*
X256450503Y-130598323D02*
X256640979Y-130788800D01*
X256640979Y-130788800D02*
X257021931Y-130979276D01*
X257021931Y-130979276D02*
X257593360Y-130979276D01*
X254545741Y-128312609D02*
X254545741Y-130979276D01*
X254545741Y-128693561D02*
X254355264Y-128503085D01*
X254355264Y-128503085D02*
X253974312Y-128312609D01*
X253974312Y-128312609D02*
X253402883Y-128312609D01*
X253402883Y-128312609D02*
X253021931Y-128503085D01*
X253021931Y-128503085D02*
X252831455Y-128884038D01*
X252831455Y-128884038D02*
X252831455Y-130979276D01*
X246164788Y-126979276D02*
X246926693Y-126979276D01*
X246926693Y-126979276D02*
X247307645Y-127169752D01*
X247307645Y-127169752D02*
X247498121Y-127360228D01*
X247498121Y-127360228D02*
X247879074Y-127931657D01*
X247879074Y-127931657D02*
X248069550Y-128693561D01*
X248069550Y-128693561D02*
X248069550Y-130217371D01*
X248069550Y-130217371D02*
X247879074Y-130598323D01*
X247879074Y-130598323D02*
X247688597Y-130788800D01*
X247688597Y-130788800D02*
X247307645Y-130979276D01*
X247307645Y-130979276D02*
X246545740Y-130979276D01*
X246545740Y-130979276D02*
X246164788Y-130788800D01*
X246164788Y-130788800D02*
X245974312Y-130598323D01*
X245974312Y-130598323D02*
X245783835Y-130217371D01*
X245783835Y-130217371D02*
X245783835Y-129264990D01*
X245783835Y-129264990D02*
X245974312Y-128884038D01*
X245974312Y-128884038D02*
X246164788Y-128693561D01*
X246164788Y-128693561D02*
X246545740Y-128503085D01*
X246545740Y-128503085D02*
X247307645Y-128503085D01*
X247307645Y-128503085D02*
X247688597Y-128693561D01*
X247688597Y-128693561D02*
X247879074Y-128884038D01*
X247879074Y-128884038D02*
X248069550Y-129264990D01*
X243879073Y-130979276D02*
X243117169Y-130979276D01*
X243117169Y-130979276D02*
X242736216Y-130788800D01*
X242736216Y-130788800D02*
X242545740Y-130598323D01*
X242545740Y-130598323D02*
X242164788Y-130026895D01*
X242164788Y-130026895D02*
X241974311Y-129264990D01*
X241974311Y-129264990D02*
X241974311Y-127741180D01*
X241974311Y-127741180D02*
X242164788Y-127360228D01*
X242164788Y-127360228D02*
X242355264Y-127169752D01*
X242355264Y-127169752D02*
X242736216Y-126979276D01*
X242736216Y-126979276D02*
X243498121Y-126979276D01*
X243498121Y-126979276D02*
X243879073Y-127169752D01*
X243879073Y-127169752D02*
X244069550Y-127360228D01*
X244069550Y-127360228D02*
X244260026Y-127741180D01*
X244260026Y-127741180D02*
X244260026Y-128693561D01*
X244260026Y-128693561D02*
X244069550Y-129074514D01*
X244069550Y-129074514D02*
X243879073Y-129264990D01*
X243879073Y-129264990D02*
X243498121Y-129455466D01*
X243498121Y-129455466D02*
X242736216Y-129455466D01*
X242736216Y-129455466D02*
X242355264Y-129264990D01*
X242355264Y-129264990D02*
X242164788Y-129074514D01*
X242164788Y-129074514D02*
X241974311Y-128693561D01*
X227154760Y-128402609D02*
X226392855Y-131069276D01*
X226392855Y-131069276D02*
X225630950Y-129164514D01*
X225630950Y-129164514D02*
X224869046Y-131069276D01*
X224869046Y-131069276D02*
X224107141Y-128402609D01*
X221059522Y-130878800D02*
X221440474Y-131069276D01*
X221440474Y-131069276D02*
X222202379Y-131069276D01*
X222202379Y-131069276D02*
X222583332Y-130878800D01*
X222583332Y-130878800D02*
X222773808Y-130497847D01*
X222773808Y-130497847D02*
X222773808Y-128974038D01*
X222773808Y-128974038D02*
X222583332Y-128593085D01*
X222583332Y-128593085D02*
X222202379Y-128402609D01*
X222202379Y-128402609D02*
X221440474Y-128402609D01*
X221440474Y-128402609D02*
X221059522Y-128593085D01*
X221059522Y-128593085D02*
X220869046Y-128974038D01*
X220869046Y-128974038D02*
X220869046Y-129354990D01*
X220869046Y-129354990D02*
X222773808Y-129735942D01*
X219154761Y-131069276D02*
X219154761Y-128402609D01*
X219154761Y-127069276D02*
X219345237Y-127259752D01*
X219345237Y-127259752D02*
X219154761Y-127450228D01*
X219154761Y-127450228D02*
X218964284Y-127259752D01*
X218964284Y-127259752D02*
X219154761Y-127069276D01*
X219154761Y-127069276D02*
X219154761Y-127450228D01*
X217249999Y-131069276D02*
X217249999Y-128402609D01*
X217249999Y-129164514D02*
X217059522Y-128783561D01*
X217059522Y-128783561D02*
X216869046Y-128593085D01*
X216869046Y-128593085D02*
X216488094Y-128402609D01*
X216488094Y-128402609D02*
X216107141Y-128402609D01*
X213059523Y-131069276D02*
X213059523Y-127069276D01*
X213059523Y-130878800D02*
X213440475Y-131069276D01*
X213440475Y-131069276D02*
X214202380Y-131069276D01*
X214202380Y-131069276D02*
X214583332Y-130878800D01*
X214583332Y-130878800D02*
X214773809Y-130688323D01*
X214773809Y-130688323D02*
X214964285Y-130307371D01*
X214964285Y-130307371D02*
X214964285Y-129164514D01*
X214964285Y-129164514D02*
X214773809Y-128783561D01*
X214773809Y-128783561D02*
X214583332Y-128593085D01*
X214583332Y-128593085D02*
X214202380Y-128402609D01*
X214202380Y-128402609D02*
X213440475Y-128402609D01*
X213440475Y-128402609D02*
X213059523Y-128593085D01*
X210583332Y-131069276D02*
X210964284Y-130878800D01*
X210964284Y-130878800D02*
X211154761Y-130497847D01*
X211154761Y-130497847D02*
X211154761Y-127069276D01*
X209059523Y-131069276D02*
X209059523Y-128402609D01*
X209059523Y-127069276D02*
X209249999Y-127259752D01*
X209249999Y-127259752D02*
X209059523Y-127450228D01*
X209059523Y-127450228D02*
X208869046Y-127259752D01*
X208869046Y-127259752D02*
X209059523Y-127069276D01*
X209059523Y-127069276D02*
X209059523Y-127450228D01*
X207726189Y-128402609D02*
X206202380Y-128402609D01*
X207154761Y-127069276D02*
X207154761Y-130497847D01*
X207154761Y-130497847D02*
X206964284Y-130878800D01*
X206964284Y-130878800D02*
X206583332Y-131069276D01*
X206583332Y-131069276D02*
X206202380Y-131069276D01*
X205440475Y-128402609D02*
X203916666Y-128402609D01*
X204869047Y-127069276D02*
X204869047Y-130497847D01*
X204869047Y-130497847D02*
X204678570Y-130878800D01*
X204678570Y-130878800D02*
X204297618Y-131069276D01*
X204297618Y-131069276D02*
X203916666Y-131069276D01*
X202011904Y-131069276D02*
X202392856Y-130878800D01*
X202392856Y-130878800D02*
X202583333Y-130497847D01*
X202583333Y-130497847D02*
X202583333Y-127069276D01*
X198964285Y-130878800D02*
X199345237Y-131069276D01*
X199345237Y-131069276D02*
X200107142Y-131069276D01*
X200107142Y-131069276D02*
X200488095Y-130878800D01*
X200488095Y-130878800D02*
X200678571Y-130497847D01*
X200678571Y-130497847D02*
X200678571Y-128974038D01*
X200678571Y-128974038D02*
X200488095Y-128593085D01*
X200488095Y-128593085D02*
X200107142Y-128402609D01*
X200107142Y-128402609D02*
X199345237Y-128402609D01*
X199345237Y-128402609D02*
X198964285Y-128593085D01*
X198964285Y-128593085D02*
X198773809Y-128974038D01*
X198773809Y-128974038D02*
X198773809Y-129354990D01*
X198773809Y-129354990D02*
X200678571Y-129735942D01*
X197059524Y-131069276D02*
X197059524Y-127069276D01*
X196678571Y-129545466D02*
X195535714Y-131069276D01*
X195535714Y-128402609D02*
X197059524Y-129926419D01*
X192297619Y-130878800D02*
X192678571Y-131069276D01*
X192678571Y-131069276D02*
X193440476Y-131069276D01*
X193440476Y-131069276D02*
X193821429Y-130878800D01*
X193821429Y-130878800D02*
X194011905Y-130497847D01*
X194011905Y-130497847D02*
X194011905Y-128974038D01*
X194011905Y-128974038D02*
X193821429Y-128593085D01*
X193821429Y-128593085D02*
X193440476Y-128402609D01*
X193440476Y-128402609D02*
X192678571Y-128402609D01*
X192678571Y-128402609D02*
X192297619Y-128593085D01*
X192297619Y-128593085D02*
X192107143Y-128974038D01*
X192107143Y-128974038D02*
X192107143Y-129354990D01*
X192107143Y-129354990D02*
X194011905Y-129735942D01*
X188869048Y-130878800D02*
X189250000Y-131069276D01*
X189250000Y-131069276D02*
X190011905Y-131069276D01*
X190011905Y-131069276D02*
X190392858Y-130878800D01*
X190392858Y-130878800D02*
X190583334Y-130497847D01*
X190583334Y-130497847D02*
X190583334Y-128974038D01*
X190583334Y-128974038D02*
X190392858Y-128593085D01*
X190392858Y-128593085D02*
X190011905Y-128402609D01*
X190011905Y-128402609D02*
X189250000Y-128402609D01*
X189250000Y-128402609D02*
X188869048Y-128593085D01*
X188869048Y-128593085D02*
X188678572Y-128974038D01*
X188678572Y-128974038D02*
X188678572Y-129354990D01*
X188678572Y-129354990D02*
X190583334Y-129735942D01*
X186964287Y-131069276D02*
X186964287Y-127069276D01*
X186964287Y-128593085D02*
X186583334Y-128402609D01*
X186583334Y-128402609D02*
X185821429Y-128402609D01*
X185821429Y-128402609D02*
X185440477Y-128593085D01*
X185440477Y-128593085D02*
X185250001Y-128783561D01*
X185250001Y-128783561D02*
X185059525Y-129164514D01*
X185059525Y-129164514D02*
X185059525Y-130307371D01*
X185059525Y-130307371D02*
X185250001Y-130688323D01*
X185250001Y-130688323D02*
X185440477Y-130878800D01*
X185440477Y-130878800D02*
X185821429Y-131069276D01*
X185821429Y-131069276D02*
X186583334Y-131069276D01*
X186583334Y-131069276D02*
X186964287Y-130878800D01*
X183535715Y-130878800D02*
X183154762Y-131069276D01*
X183154762Y-131069276D02*
X182392858Y-131069276D01*
X182392858Y-131069276D02*
X182011905Y-130878800D01*
X182011905Y-130878800D02*
X181821429Y-130497847D01*
X181821429Y-130497847D02*
X181821429Y-130307371D01*
X181821429Y-130307371D02*
X182011905Y-129926419D01*
X182011905Y-129926419D02*
X182392858Y-129735942D01*
X182392858Y-129735942D02*
X182964286Y-129735942D01*
X182964286Y-129735942D02*
X183345239Y-129545466D01*
X183345239Y-129545466D02*
X183535715Y-129164514D01*
X183535715Y-129164514D02*
X183535715Y-128974038D01*
X183535715Y-128974038D02*
X183345239Y-128593085D01*
X183345239Y-128593085D02*
X182964286Y-128402609D01*
X182964286Y-128402609D02*
X182392858Y-128402609D01*
X182392858Y-128402609D02*
X182011905Y-128593085D01*
X180107144Y-130688323D02*
X179916667Y-130878800D01*
X179916667Y-130878800D02*
X180107144Y-131069276D01*
X180107144Y-131069276D02*
X180297620Y-130878800D01*
X180297620Y-130878800D02*
X180107144Y-130688323D01*
X180107144Y-130688323D02*
X180107144Y-131069276D01*
X176488096Y-130878800D02*
X176869048Y-131069276D01*
X176869048Y-131069276D02*
X177630953Y-131069276D01*
X177630953Y-131069276D02*
X178011905Y-130878800D01*
X178011905Y-130878800D02*
X178202382Y-130688323D01*
X178202382Y-130688323D02*
X178392858Y-130307371D01*
X178392858Y-130307371D02*
X178392858Y-129164514D01*
X178392858Y-129164514D02*
X178202382Y-128783561D01*
X178202382Y-128783561D02*
X178011905Y-128593085D01*
X178011905Y-128593085D02*
X177630953Y-128402609D01*
X177630953Y-128402609D02*
X176869048Y-128402609D01*
X176869048Y-128402609D02*
X176488096Y-128593085D01*
X174202382Y-131069276D02*
X174583334Y-130878800D01*
X174583334Y-130878800D02*
X174773811Y-130688323D01*
X174773811Y-130688323D02*
X174964287Y-130307371D01*
X174964287Y-130307371D02*
X174964287Y-129164514D01*
X174964287Y-129164514D02*
X174773811Y-128783561D01*
X174773811Y-128783561D02*
X174583334Y-128593085D01*
X174583334Y-128593085D02*
X174202382Y-128402609D01*
X174202382Y-128402609D02*
X173630953Y-128402609D01*
X173630953Y-128402609D02*
X173250001Y-128593085D01*
X173250001Y-128593085D02*
X173059525Y-128783561D01*
X173059525Y-128783561D02*
X172869049Y-129164514D01*
X172869049Y-129164514D02*
X172869049Y-130307371D01*
X172869049Y-130307371D02*
X173059525Y-130688323D01*
X173059525Y-130688323D02*
X173250001Y-130878800D01*
X173250001Y-130878800D02*
X173630953Y-131069276D01*
X173630953Y-131069276D02*
X174202382Y-131069276D01*
X171154763Y-131069276D02*
X171154763Y-128402609D01*
X171154763Y-128783561D02*
X170964286Y-128593085D01*
X170964286Y-128593085D02*
X170583334Y-128402609D01*
X170583334Y-128402609D02*
X170011905Y-128402609D01*
X170011905Y-128402609D02*
X169630953Y-128593085D01*
X169630953Y-128593085D02*
X169440477Y-128974038D01*
X169440477Y-128974038D02*
X169440477Y-131069276D01*
X169440477Y-128974038D02*
X169250001Y-128593085D01*
X169250001Y-128593085D02*
X168869048Y-128402609D01*
X168869048Y-128402609D02*
X168297620Y-128402609D01*
X168297620Y-128402609D02*
X167916667Y-128593085D01*
X167916667Y-128593085D02*
X167726191Y-128974038D01*
X167726191Y-128974038D02*
X167726191Y-131069276D01*
D11*
X348253696Y-165818104D02*
X348291792Y-165856200D01*
X348291792Y-165856200D02*
X348406077Y-165894295D01*
X348406077Y-165894295D02*
X348482268Y-165894295D01*
X348482268Y-165894295D02*
X348596554Y-165856200D01*
X348596554Y-165856200D02*
X348672744Y-165780009D01*
X348672744Y-165780009D02*
X348710839Y-165703819D01*
X348710839Y-165703819D02*
X348748935Y-165551438D01*
X348748935Y-165551438D02*
X348748935Y-165437152D01*
X348748935Y-165437152D02*
X348710839Y-165284771D01*
X348710839Y-165284771D02*
X348672744Y-165208580D01*
X348672744Y-165208580D02*
X348596554Y-165132390D01*
X348596554Y-165132390D02*
X348482268Y-165094295D01*
X348482268Y-165094295D02*
X348406077Y-165094295D01*
X348406077Y-165094295D02*
X348291792Y-165132390D01*
X348291792Y-165132390D02*
X348253696Y-165170485D01*
X347948935Y-165856200D02*
X347834649Y-165894295D01*
X347834649Y-165894295D02*
X347644173Y-165894295D01*
X347644173Y-165894295D02*
X347567982Y-165856200D01*
X347567982Y-165856200D02*
X347529887Y-165818104D01*
X347529887Y-165818104D02*
X347491792Y-165741914D01*
X347491792Y-165741914D02*
X347491792Y-165665723D01*
X347491792Y-165665723D02*
X347529887Y-165589533D01*
X347529887Y-165589533D02*
X347567982Y-165551438D01*
X347567982Y-165551438D02*
X347644173Y-165513342D01*
X347644173Y-165513342D02*
X347796554Y-165475247D01*
X347796554Y-165475247D02*
X347872744Y-165437152D01*
X347872744Y-165437152D02*
X347910839Y-165399057D01*
X347910839Y-165399057D02*
X347948935Y-165322866D01*
X347948935Y-165322866D02*
X347948935Y-165246676D01*
X347948935Y-165246676D02*
X347910839Y-165170485D01*
X347910839Y-165170485D02*
X347872744Y-165132390D01*
X347872744Y-165132390D02*
X347796554Y-165094295D01*
X347796554Y-165094295D02*
X347606077Y-165094295D01*
X347606077Y-165094295D02*
X347491792Y-165132390D01*
X347187030Y-165170485D02*
X347148934Y-165132390D01*
X347148934Y-165132390D02*
X347072744Y-165094295D01*
X347072744Y-165094295D02*
X346882268Y-165094295D01*
X346882268Y-165094295D02*
X346806077Y-165132390D01*
X346806077Y-165132390D02*
X346767982Y-165170485D01*
X346767982Y-165170485D02*
X346729887Y-165246676D01*
X346729887Y-165246676D02*
X346729887Y-165322866D01*
X346729887Y-165322866D02*
X346767982Y-165437152D01*
X346767982Y-165437152D02*
X347225125Y-165894295D01*
X347225125Y-165894295D02*
X346729887Y-165894295D01*
X346234648Y-165094295D02*
X346158458Y-165094295D01*
X346158458Y-165094295D02*
X346082267Y-165132390D01*
X346082267Y-165132390D02*
X346044172Y-165170485D01*
X346044172Y-165170485D02*
X346006077Y-165246676D01*
X346006077Y-165246676D02*
X345967982Y-165399057D01*
X345967982Y-165399057D02*
X345967982Y-165589533D01*
X345967982Y-165589533D02*
X346006077Y-165741914D01*
X346006077Y-165741914D02*
X346044172Y-165818104D01*
X346044172Y-165818104D02*
X346082267Y-165856200D01*
X346082267Y-165856200D02*
X346158458Y-165894295D01*
X346158458Y-165894295D02*
X346234648Y-165894295D01*
X346234648Y-165894295D02*
X346310839Y-165856200D01*
X346310839Y-165856200D02*
X346348934Y-165818104D01*
X346348934Y-165818104D02*
X346387029Y-165741914D01*
X346387029Y-165741914D02*
X346425125Y-165589533D01*
X346425125Y-165589533D02*
X346425125Y-165399057D01*
X346425125Y-165399057D02*
X346387029Y-165246676D01*
X346387029Y-165246676D02*
X346348934Y-165170485D01*
X346348934Y-165170485D02*
X346310839Y-165132390D01*
X346310839Y-165132390D02*
X346234648Y-165094295D01*
X345663220Y-165170485D02*
X345625124Y-165132390D01*
X345625124Y-165132390D02*
X345548934Y-165094295D01*
X345548934Y-165094295D02*
X345358458Y-165094295D01*
X345358458Y-165094295D02*
X345282267Y-165132390D01*
X345282267Y-165132390D02*
X345244172Y-165170485D01*
X345244172Y-165170485D02*
X345206077Y-165246676D01*
X345206077Y-165246676D02*
X345206077Y-165322866D01*
X345206077Y-165322866D02*
X345244172Y-165437152D01*
X345244172Y-165437152D02*
X345701315Y-165894295D01*
X345701315Y-165894295D02*
X345206077Y-165894295D01*
X344520362Y-165360961D02*
X344520362Y-165894295D01*
X344710838Y-165056200D02*
X344901315Y-165627628D01*
X344901315Y-165627628D02*
X344406076Y-165627628D01*
X343034647Y-165894295D02*
X343301314Y-165513342D01*
X343491790Y-165894295D02*
X343491790Y-165094295D01*
X343491790Y-165094295D02*
X343187028Y-165094295D01*
X343187028Y-165094295D02*
X343110838Y-165132390D01*
X343110838Y-165132390D02*
X343072743Y-165170485D01*
X343072743Y-165170485D02*
X343034647Y-165246676D01*
X343034647Y-165246676D02*
X343034647Y-165360961D01*
X343034647Y-165360961D02*
X343072743Y-165437152D01*
X343072743Y-165437152D02*
X343110838Y-165475247D01*
X343110838Y-165475247D02*
X343187028Y-165513342D01*
X343187028Y-165513342D02*
X343491790Y-165513342D01*
X342387028Y-165856200D02*
X342463219Y-165894295D01*
X342463219Y-165894295D02*
X342615600Y-165894295D01*
X342615600Y-165894295D02*
X342691790Y-165856200D01*
X342691790Y-165856200D02*
X342729886Y-165780009D01*
X342729886Y-165780009D02*
X342729886Y-165475247D01*
X342729886Y-165475247D02*
X342691790Y-165399057D01*
X342691790Y-165399057D02*
X342615600Y-165360961D01*
X342615600Y-165360961D02*
X342463219Y-165360961D01*
X342463219Y-165360961D02*
X342387028Y-165399057D01*
X342387028Y-165399057D02*
X342348933Y-165475247D01*
X342348933Y-165475247D02*
X342348933Y-165551438D01*
X342348933Y-165551438D02*
X342729886Y-165627628D01*
X342082267Y-165360961D02*
X341891791Y-165894295D01*
X341891791Y-165894295D02*
X341701314Y-165360961D01*
X341396552Y-165818104D02*
X341358457Y-165856200D01*
X341358457Y-165856200D02*
X341396552Y-165894295D01*
X341396552Y-165894295D02*
X341434648Y-165856200D01*
X341434648Y-165856200D02*
X341396552Y-165818104D01*
X341396552Y-165818104D02*
X341396552Y-165894295D01*
X341053696Y-165665723D02*
X340672743Y-165665723D01*
X341129886Y-165894295D02*
X340863219Y-165094295D01*
X340863219Y-165094295D02*
X340596553Y-165894295D01*
X332152380Y-150225247D02*
X332419046Y-150225247D01*
X332419046Y-150644295D02*
X332419046Y-149844295D01*
X332419046Y-149844295D02*
X332038094Y-149844295D01*
X331352380Y-150644295D02*
X331733332Y-150644295D01*
X331733332Y-150644295D02*
X331733332Y-149844295D01*
X331123809Y-150415723D02*
X330742856Y-150415723D01*
X331199999Y-150644295D02*
X330933332Y-149844295D01*
X330933332Y-149844295D02*
X330666666Y-150644295D01*
X330438095Y-150606200D02*
X330323809Y-150644295D01*
X330323809Y-150644295D02*
X330133333Y-150644295D01*
X330133333Y-150644295D02*
X330057142Y-150606200D01*
X330057142Y-150606200D02*
X330019047Y-150568104D01*
X330019047Y-150568104D02*
X329980952Y-150491914D01*
X329980952Y-150491914D02*
X329980952Y-150415723D01*
X329980952Y-150415723D02*
X330019047Y-150339533D01*
X330019047Y-150339533D02*
X330057142Y-150301438D01*
X330057142Y-150301438D02*
X330133333Y-150263342D01*
X330133333Y-150263342D02*
X330285714Y-150225247D01*
X330285714Y-150225247D02*
X330361904Y-150187152D01*
X330361904Y-150187152D02*
X330399999Y-150149057D01*
X330399999Y-150149057D02*
X330438095Y-150072866D01*
X330438095Y-150072866D02*
X330438095Y-149996676D01*
X330438095Y-149996676D02*
X330399999Y-149920485D01*
X330399999Y-149920485D02*
X330361904Y-149882390D01*
X330361904Y-149882390D02*
X330285714Y-149844295D01*
X330285714Y-149844295D02*
X330095237Y-149844295D01*
X330095237Y-149844295D02*
X329980952Y-149882390D01*
X329638094Y-150644295D02*
X329638094Y-149844295D01*
X329638094Y-150225247D02*
X329180951Y-150225247D01*
X329180951Y-150644295D02*
X329180951Y-149844295D01*
D12*
%TO.C,R10*%
X354870000Y-100653641D02*
X354870000Y-100346359D01*
X355630000Y-100653641D02*
X355630000Y-100346359D01*
%TO.C,D57*%
X280796875Y-133481250D02*
X280796875Y-137381250D01*
X278796875Y-133481250D02*
X280796875Y-133481250D01*
X278796875Y-133481250D02*
X278796875Y-137381250D01*
%TO.C,R11*%
X353870000Y-100653641D02*
X353870000Y-100346359D01*
X354630000Y-100653641D02*
X354630000Y-100346359D01*
%TO.C,D10*%
X103775000Y-89165625D02*
X103775000Y-85265625D01*
X105775000Y-89165625D02*
X103775000Y-89165625D01*
X105775000Y-89165625D02*
X105775000Y-85265625D01*
%TO.C,C94*%
X362392164Y-103390000D02*
X362607836Y-103390000D01*
X362392164Y-104110000D02*
X362607836Y-104110000D01*
%TO.C,D47*%
X252221875Y-114431250D02*
X252221875Y-118331250D01*
X250221875Y-114431250D02*
X252221875Y-114431250D01*
X250221875Y-114431250D02*
X250221875Y-118331250D01*
%TO.C,D36*%
X218150000Y-89165625D02*
X218150000Y-85265625D01*
X220150000Y-89165625D02*
X218150000Y-89165625D01*
X220150000Y-89165625D02*
X220150000Y-85265625D01*
%TO.C,D54*%
X285559375Y-152531250D02*
X285559375Y-156431250D01*
X283559375Y-152531250D02*
X285559375Y-152531250D01*
X283559375Y-152531250D02*
X283559375Y-156431250D01*
%TO.C,C97*%
X351988748Y-96765000D02*
X352511252Y-96765000D01*
X351988748Y-98235000D02*
X352511252Y-98235000D01*
%TO.C,D16*%
X133159375Y-95381250D02*
X133159375Y-99281250D01*
X131159375Y-95381250D02*
X133159375Y-95381250D01*
X131159375Y-95381250D02*
X131159375Y-99281250D01*
%TO.C,C92*%
X355360000Y-112642164D02*
X355360000Y-112857836D01*
X354640000Y-112642164D02*
X354640000Y-112857836D01*
%TO.C,D12*%
X99821875Y-114431250D02*
X99821875Y-118331250D01*
X97821875Y-114431250D02*
X99821875Y-114431250D01*
X97821875Y-114431250D02*
X97821875Y-118331250D01*
%TO.C,D15*%
X122825000Y-89165625D02*
X122825000Y-85265625D01*
X124825000Y-89165625D02*
X122825000Y-89165625D01*
X124825000Y-89165625D02*
X124825000Y-85265625D01*
%TO.C,Y2*%
X359000000Y-112150000D02*
X363000000Y-112150000D01*
X359000000Y-115350000D02*
X359000000Y-112150000D01*
%TO.C,SW65*%
X359220000Y-134040000D02*
X359220000Y-131960000D01*
X357950000Y-135720000D02*
X358440000Y-135230000D01*
X357950000Y-135720000D02*
X355050000Y-135720000D01*
X357950000Y-130280000D02*
X358440000Y-130770000D01*
X357950000Y-130280000D02*
X355050000Y-130280000D01*
X355050000Y-135720000D02*
X354560000Y-135230000D01*
X355050000Y-130280000D02*
X354560000Y-130770000D01*
X353780000Y-134040000D02*
X353780000Y-131960000D01*
%TO.C,C84*%
X358270748Y-127265000D02*
X358793252Y-127265000D01*
X358270748Y-128735000D02*
X358793252Y-128735000D01*
%TO.C,D30*%
X176021875Y-114431250D02*
X176021875Y-118331250D01*
X174021875Y-114431250D02*
X176021875Y-114431250D01*
X174021875Y-114431250D02*
X174021875Y-118331250D01*
%TO.C,D27*%
X147446875Y-133481250D02*
X147446875Y-137381250D01*
X145446875Y-133481250D02*
X147446875Y-133481250D01*
X145446875Y-133481250D02*
X145446875Y-137381250D01*
%TO.C,D17*%
X102203125Y-114431250D02*
X102203125Y-118331250D01*
X100203125Y-114431250D02*
X102203125Y-114431250D01*
X100203125Y-114431250D02*
X100203125Y-118331250D01*
%TO.C,J5*%
X370080000Y-114450000D02*
X367420000Y-114450000D01*
X370080000Y-106770000D02*
X370080000Y-114450000D01*
X370080000Y-106770000D02*
X367420000Y-106770000D01*
X370080000Y-105500000D02*
X370080000Y-104170000D01*
X370080000Y-104170000D02*
X368750000Y-104170000D01*
X367420000Y-106770000D02*
X367420000Y-114450000D01*
%TO.C,D56*%
X311750000Y-95381250D02*
X311750000Y-99281250D01*
X309750000Y-95381250D02*
X311750000Y-95381250D01*
X309750000Y-95381250D02*
X309750000Y-99281250D01*
%TO.C,D22*%
X128396875Y-133481250D02*
X128396875Y-137381250D01*
X126396875Y-133481250D02*
X128396875Y-133481250D01*
X126396875Y-133481250D02*
X126396875Y-137381250D01*
%TO.C,D26*%
X156971875Y-114431250D02*
X156971875Y-118331250D01*
X154971875Y-114431250D02*
X156971875Y-114431250D01*
X154971875Y-114431250D02*
X154971875Y-118331250D01*
%TO.C,D35*%
X185546875Y-133481250D02*
X185546875Y-137381250D01*
X183546875Y-133481250D02*
X185546875Y-133481250D01*
X183546875Y-133481250D02*
X183546875Y-137381250D01*
%TO.C,D6*%
X84709375Y-89165625D02*
X84709375Y-85265625D01*
X86709375Y-89165625D02*
X84709375Y-89165625D01*
X86709375Y-89165625D02*
X86709375Y-85265625D01*
%TO.C,D45*%
X256175000Y-89165625D02*
X256175000Y-85265625D01*
X258175000Y-89165625D02*
X256175000Y-89165625D01*
X258175000Y-89165625D02*
X258175000Y-85265625D01*
%TO.C,D74*%
X162925000Y-152531250D02*
X162925000Y-156431250D01*
X160925000Y-152531250D02*
X162925000Y-152531250D01*
X160925000Y-152531250D02*
X160925000Y-156431250D01*
%TO.C,D43*%
X223646875Y-133481250D02*
X223646875Y-137381250D01*
X221646875Y-133481250D02*
X223646875Y-133481250D01*
X221646875Y-133481250D02*
X221646875Y-137381250D01*
%TO.C,D60*%
X333565625Y-89165625D02*
X333565625Y-85265625D01*
X335565625Y-89165625D02*
X333565625Y-89165625D01*
X335565625Y-89165625D02*
X335565625Y-85265625D01*
%TO.C,C85*%
X352890000Y-100607836D02*
X352890000Y-100392164D01*
X353610000Y-100607836D02*
X353610000Y-100392164D01*
%TO.C,C90*%
X350357836Y-108360000D02*
X350142164Y-108360000D01*
X350357836Y-107640000D02*
X350142164Y-107640000D01*
%TO.C,D55*%
X294275000Y-89165625D02*
X294275000Y-85265625D01*
X296275000Y-89165625D02*
X294275000Y-89165625D01*
X296275000Y-89165625D02*
X296275000Y-85265625D01*
%TO.C,D133*%
X335565625Y-114431250D02*
X335565625Y-118331250D01*
X333565625Y-114431250D02*
X335565625Y-114431250D01*
X333565625Y-114431250D02*
X333565625Y-118331250D01*
%TO.C,D1*%
X65675000Y-89165625D02*
X65675000Y-85265625D01*
X67675000Y-89165625D02*
X65675000Y-89165625D01*
X67675000Y-89165625D02*
X67675000Y-85265625D01*
%TO.C,R12*%
X356380000Y-112596359D02*
X356380000Y-112903641D01*
X355620000Y-112596359D02*
X355620000Y-112903641D01*
%TO.C,C82*%
X362315000Y-86310000D02*
X362315000Y-82400000D01*
X364185000Y-86310000D02*
X362315000Y-86310000D01*
X364185000Y-82400000D02*
X364185000Y-86310000D01*
%TO.C,U4*%
X359910000Y-125850000D02*
X359910000Y-119840000D01*
X353090000Y-123600000D02*
X353090000Y-119840000D01*
X353090000Y-119840000D02*
X354350000Y-119840000D01*
X359910000Y-119840000D02*
X358650000Y-119840000D01*
%TO.C,D66*%
X333184375Y-95381250D02*
X333184375Y-99281250D01*
X331184375Y-95381250D02*
X333184375Y-95381250D01*
X331184375Y-95381250D02*
X331184375Y-99281250D01*
%TO.C,D77*%
X306990625Y-152531250D02*
X306990625Y-156431250D01*
X304990625Y-152531250D02*
X306990625Y-152531250D01*
X304990625Y-152531250D02*
X304990625Y-156431250D01*
%TO.C,D3*%
X73628125Y-114431250D02*
X73628125Y-118331250D01*
X71628125Y-114431250D02*
X73628125Y-114431250D01*
X71628125Y-114431250D02*
X71628125Y-118331250D01*
%TO.C,D64*%
X335565625Y-133481250D02*
X335565625Y-137381250D01*
X333565625Y-133481250D02*
X335565625Y-133481250D01*
X333565625Y-133481250D02*
X333565625Y-137381250D01*
%TO.C,D7*%
X95059375Y-95381250D02*
X95059375Y-99281250D01*
X93059375Y-95381250D02*
X95059375Y-95381250D01*
X93059375Y-95381250D02*
X93059375Y-99281250D01*
%TO.C,D62*%
X324850000Y-133481250D02*
X324850000Y-137381250D01*
X322850000Y-133481250D02*
X324850000Y-133481250D01*
X322850000Y-133481250D02*
X322850000Y-137381250D01*
%TO.C,D48*%
X242696875Y-133481250D02*
X242696875Y-137381250D01*
X240696875Y-133481250D02*
X242696875Y-133481250D01*
X240696875Y-133481250D02*
X240696875Y-137381250D01*
%TO.C,D32*%
X199025000Y-89165625D02*
X199025000Y-85265625D01*
X201025000Y-89165625D02*
X199025000Y-89165625D01*
X201025000Y-89165625D02*
X201025000Y-85265625D01*
%TO.C,R2*%
X350370000Y-76403641D02*
X350370000Y-76096359D01*
X351130000Y-76403641D02*
X351130000Y-76096359D01*
%TO.C,D37*%
X228409375Y-95381250D02*
X228409375Y-99281250D01*
X226409375Y-95381250D02*
X228409375Y-95381250D01*
X226409375Y-95381250D02*
X226409375Y-99281250D01*
%TO.C,D53*%
X261746875Y-133481250D02*
X261746875Y-137381250D01*
X259746875Y-133481250D02*
X261746875Y-133481250D01*
X259746875Y-133481250D02*
X259746875Y-137381250D01*
%TO.C,D70*%
X273653125Y-114431250D02*
X273653125Y-118331250D01*
X271653125Y-114431250D02*
X273653125Y-114431250D01*
X271653125Y-114431250D02*
X271653125Y-118331250D01*
%TO.C,C70*%
X351860000Y-132892164D02*
X351860000Y-133107836D01*
X351140000Y-132892164D02*
X351140000Y-133107836D01*
%TO.C,D20*%
X152209375Y-95381250D02*
X152209375Y-99281250D01*
X150209375Y-95381250D02*
X152209375Y-95381250D01*
X150209375Y-95381250D02*
X150209375Y-99281250D01*
%TO.C,C89*%
X367607836Y-91110000D02*
X367392164Y-91110000D01*
X367607836Y-90390000D02*
X367392164Y-90390000D01*
%TO.C,D46*%
X266509375Y-95381250D02*
X266509375Y-99281250D01*
X264509375Y-95381250D02*
X266509375Y-95381250D01*
X264509375Y-95381250D02*
X264509375Y-99281250D01*
%TO.C,D14*%
X95115625Y-152531250D02*
X95115625Y-156431250D01*
X93115625Y-152531250D02*
X95115625Y-152531250D01*
X93115625Y-152531250D02*
X93115625Y-156431250D01*
%TO.C,D50*%
X275225000Y-89165625D02*
X275225000Y-85265625D01*
X277225000Y-89165625D02*
X275225000Y-89165625D01*
X277225000Y-89165625D02*
X277225000Y-85265625D01*
%TO.C,C93*%
X362392164Y-107390000D02*
X362607836Y-107390000D01*
X362392164Y-108110000D02*
X362607836Y-108110000D01*
%TO.C,R14*%
X366620000Y-102903641D02*
X366620000Y-102596359D01*
X367380000Y-102903641D02*
X367380000Y-102596359D01*
%TO.C,D28*%
X179975000Y-89165625D02*
X179975000Y-85265625D01*
X181975000Y-89165625D02*
X179975000Y-89165625D01*
X181975000Y-89165625D02*
X181975000Y-85265625D01*
%TO.C,D2*%
X71246875Y-95381250D02*
X71246875Y-99281250D01*
X69246875Y-95381250D02*
X71246875Y-95381250D01*
X69246875Y-95381250D02*
X69246875Y-99281250D01*
%TO.C,U5*%
X359860000Y-110360000D02*
X359860000Y-109710000D01*
X359210000Y-110360000D02*
X359860000Y-110360000D01*
X359210000Y-103140000D02*
X359860000Y-103140000D01*
X353290000Y-110360000D02*
X352640000Y-110360000D01*
X353290000Y-103140000D02*
X352640000Y-103140000D01*
X352640000Y-110360000D02*
X352640000Y-109710000D01*
X352640000Y-103140000D02*
X352640000Y-103790000D01*
%TO.C,R7*%
X351620000Y-112903641D02*
X351620000Y-112596359D01*
X352380000Y-112903641D02*
X352380000Y-112596359D01*
%TO.C,D72*%
X234362500Y-152531250D02*
X234362500Y-156431250D01*
X232362500Y-152531250D02*
X234362500Y-152531250D01*
X232362500Y-152531250D02*
X232362500Y-156431250D01*
%TO.C,D49*%
X266509375Y-152531250D02*
X266509375Y-156431250D01*
X264509375Y-152531250D02*
X266509375Y-152531250D01*
X264509375Y-152531250D02*
X264509375Y-156431250D01*
%TO.C,C80*%
X358610000Y-112642164D02*
X358610000Y-112857836D01*
X357890000Y-112642164D02*
X357890000Y-112857836D01*
%TO.C,D41*%
X247459375Y-95381250D02*
X247459375Y-99281250D01*
X245459375Y-95381250D02*
X247459375Y-95381250D01*
X245459375Y-95381250D02*
X245459375Y-99281250D01*
%TO.C,D52*%
X271271875Y-114431250D02*
X271271875Y-118331250D01*
X269271875Y-114431250D02*
X271271875Y-114431250D01*
X269271875Y-114431250D02*
X269271875Y-118331250D01*
%TO.C,C95*%
X355890000Y-100607836D02*
X355890000Y-100392164D01*
X356610000Y-100607836D02*
X356610000Y-100392164D01*
%TO.C,U6*%
X363525000Y-98975000D02*
X363785000Y-98975000D01*
X368715000Y-98975000D02*
X368715000Y-100650000D01*
X368975000Y-98975000D02*
X368715000Y-98975000D01*
X363525000Y-96250000D02*
X363525000Y-98975000D01*
X363525000Y-96250000D02*
X363525000Y-93525000D01*
X368975000Y-96250000D02*
X368975000Y-98975000D01*
X368975000Y-96250000D02*
X368975000Y-93525000D01*
X363525000Y-93525000D02*
X363785000Y-93525000D01*
X368975000Y-93525000D02*
X368715000Y-93525000D01*
%TO.C,D58*%
X333184375Y-152531250D02*
X333184375Y-156431250D01*
X331184375Y-152531250D02*
X333184375Y-152531250D01*
X331184375Y-152531250D02*
X331184375Y-156431250D01*
%TO.C,D31*%
X166496875Y-133481250D02*
X166496875Y-137381250D01*
X164496875Y-133481250D02*
X166496875Y-133481250D01*
X164496875Y-133481250D02*
X164496875Y-137381250D01*
%TO.C,D23*%
X188365625Y-152531250D02*
X188365625Y-156431250D01*
X186365625Y-152531250D02*
X188365625Y-152531250D01*
X186365625Y-152531250D02*
X186365625Y-156431250D01*
%TO.C,D73*%
X116490625Y-152531250D02*
X116490625Y-156431250D01*
X114490625Y-152531250D02*
X116490625Y-152531250D01*
X114490625Y-152531250D02*
X114490625Y-156431250D01*
%TO.C,D61*%
X329612500Y-114431250D02*
X329612500Y-118331250D01*
X327612500Y-114431250D02*
X329612500Y-114431250D01*
X327612500Y-114431250D02*
X327612500Y-118331250D01*
%TO.C,U2*%
X356140000Y-84000000D02*
X356140000Y-84800000D01*
X356140000Y-84000000D02*
X356140000Y-83200000D01*
X359260000Y-84000000D02*
X359260000Y-84800000D01*
X359260000Y-84000000D02*
X359260000Y-83200000D01*
X359540000Y-85540000D02*
X359210000Y-85300000D01*
X359540000Y-85060000D01*
X359540000Y-85540000D01*
G36*
X359540000Y-85540000D02*
G01*
X359210000Y-85300000D01*
X359540000Y-85060000D01*
X359540000Y-85540000D01*
G37*
%TO.C,D19*%
X141875000Y-89165625D02*
X141875000Y-85265625D01*
X143875000Y-89165625D02*
X141875000Y-89165625D01*
X143875000Y-89165625D02*
X143875000Y-85265625D01*
%TO.C,D4*%
X86725000Y-133481250D02*
X86725000Y-137381250D01*
X84725000Y-133481250D02*
X86725000Y-133481250D01*
X84725000Y-133481250D02*
X84725000Y-137381250D01*
%TO.C,D24*%
X160925000Y-89165625D02*
X160925000Y-85265625D01*
X162925000Y-89165625D02*
X160925000Y-89165625D01*
X162925000Y-89165625D02*
X162925000Y-85265625D01*
%TO.C,D11*%
X114109375Y-95381250D02*
X114109375Y-99281250D01*
X112109375Y-95381250D02*
X114109375Y-95381250D01*
X112109375Y-95381250D02*
X112109375Y-99281250D01*
%TO.C,C88*%
X356890000Y-100607836D02*
X356890000Y-100392164D01*
X357610000Y-100607836D02*
X357610000Y-100392164D01*
%TO.C,D38*%
X214121875Y-114431250D02*
X214121875Y-118331250D01*
X212121875Y-114431250D02*
X214121875Y-114431250D01*
X212121875Y-114431250D02*
X212121875Y-118331250D01*
%TO.C,J2*%
X352487500Y-70540000D02*
X361887500Y-70540000D01*
X352487500Y-72440000D02*
X352487500Y-70540000D01*
X352487500Y-76340000D02*
X352487500Y-74340000D01*
X361887500Y-72440000D02*
X361887500Y-70540000D01*
X361887500Y-76340000D02*
X361887500Y-74340000D01*
%TO.C,D33*%
X209359375Y-95381250D02*
X209359375Y-99281250D01*
X207359375Y-95381250D02*
X209359375Y-95381250D01*
X207359375Y-95381250D02*
X207359375Y-99281250D01*
%TO.C,C91*%
X350890000Y-100607836D02*
X350890000Y-100392164D01*
X351610000Y-100607836D02*
X351610000Y-100392164D01*
%TO.C,D39*%
X204596875Y-133481250D02*
X204596875Y-137381250D01*
X202596875Y-133481250D02*
X204596875Y-133481250D01*
X202596875Y-133481250D02*
X202596875Y-137381250D01*
%TO.C,C83*%
X354460748Y-127265000D02*
X354983252Y-127265000D01*
X354460748Y-128735000D02*
X354983252Y-128735000D01*
%TO.C,D132*%
X335565625Y-95381250D02*
X335565625Y-99281250D01*
X333565625Y-95381250D02*
X335565625Y-95381250D01*
X333565625Y-95381250D02*
X333565625Y-99281250D01*
%TO.C,D51*%
X287940625Y-95381250D02*
X287940625Y-99281250D01*
X285940625Y-95381250D02*
X287940625Y-95381250D01*
X285940625Y-95381250D02*
X285940625Y-99281250D01*
%TO.C,D40*%
X237125000Y-89165625D02*
X237125000Y-85265625D01*
X239125000Y-89165625D02*
X237125000Y-89165625D01*
X239125000Y-89165625D02*
X239125000Y-85265625D01*
%TO.C,D5*%
X68865625Y-152531250D02*
X68865625Y-156431250D01*
X66865625Y-152531250D02*
X68865625Y-152531250D01*
X66865625Y-152531250D02*
X66865625Y-156431250D01*
%TO.C,D25*%
X171259375Y-95381250D02*
X171259375Y-99281250D01*
X169259375Y-95381250D02*
X171259375Y-95381250D01*
X169259375Y-95381250D02*
X169259375Y-99281250D01*
%TO.C,D34*%
X195071875Y-114431250D02*
X195071875Y-118331250D01*
X193071875Y-114431250D02*
X195071875Y-114431250D01*
X193071875Y-114431250D02*
X193071875Y-118331250D01*
%TO.C,F1*%
X360290000Y-84258578D02*
X360290000Y-83741422D01*
X361710000Y-84258578D02*
X361710000Y-83741422D01*
%TO.C,D42*%
X233171875Y-114431250D02*
X233171875Y-118331250D01*
X231171875Y-114431250D02*
X233171875Y-114431250D01*
X231171875Y-114431250D02*
X231171875Y-118331250D01*
%TO.C,R1*%
X363120000Y-76403641D02*
X363120000Y-76096359D01*
X363880000Y-76403641D02*
X363880000Y-76096359D01*
%TO.C,D21*%
X137921875Y-114431250D02*
X137921875Y-118331250D01*
X135921875Y-114431250D02*
X137921875Y-114431250D01*
X135921875Y-114431250D02*
X135921875Y-118331250D01*
%TO.C,D65*%
X331184375Y-89165625D02*
X331184375Y-85265625D01*
X333184375Y-89165625D02*
X331184375Y-89165625D01*
X333184375Y-89165625D02*
X333184375Y-85265625D01*
%TO.C,D18*%
X109346875Y-133481250D02*
X109346875Y-137381250D01*
X107346875Y-133481250D02*
X109346875Y-133481250D01*
X107346875Y-133481250D02*
X107346875Y-137381250D01*
%TO.C,C96*%
X350640000Y-103107836D02*
X350640000Y-102892164D01*
X351360000Y-103107836D02*
X351360000Y-102892164D01*
%TO.C,C87*%
X354110000Y-112642164D02*
X354110000Y-112857836D01*
X353390000Y-112642164D02*
X353390000Y-112857836D01*
%TO.C,C81*%
X357360000Y-112642164D02*
X357360000Y-112857836D01*
X356640000Y-112642164D02*
X356640000Y-112857836D01*
%TO.C,R13*%
X367870000Y-102903641D02*
X367870000Y-102596359D01*
X368630000Y-102903641D02*
X368630000Y-102596359D01*
%TO.C,D134*%
X354915625Y-152531250D02*
X354915625Y-156431250D01*
X352915625Y-152531250D02*
X354915625Y-152531250D01*
X352915625Y-152531250D02*
X352915625Y-156431250D01*
%TO.C,D63*%
X352234375Y-152531250D02*
X352234375Y-156431250D01*
X350234375Y-152531250D02*
X352234375Y-152531250D01*
X350234375Y-152531250D02*
X350234375Y-156431250D01*
%TO.C,D29*%
X190309375Y-95381250D02*
X190309375Y-99281250D01*
X188309375Y-95381250D02*
X190309375Y-95381250D01*
X188309375Y-95381250D02*
X188309375Y-99281250D01*
%TO.C,C86*%
X351890000Y-100607836D02*
X351890000Y-100392164D01*
X352610000Y-100607836D02*
X352610000Y-100392164D01*
%TD*%
%LPC*%
D13*
%TO.C,SW68*%
X367030000Y-157162500D03*
D14*
X361950000Y-157162500D03*
D13*
X356870000Y-157162500D03*
D15*
X359410000Y-162242500D03*
X365760000Y-159702500D03*
%TD*%
D16*
%TO.C,REF\u002A\u002A*%
X228593750Y-164147500D03*
D17*
X228593750Y-148907500D03*
D16*
X204793750Y-164147500D03*
D17*
X204793750Y-148907500D03*
%TD*%
D13*
%TO.C,SW8*%
X90805000Y-100012500D03*
D14*
X85725000Y-100012500D03*
D13*
X80645000Y-100012500D03*
D15*
X83185000Y-105092500D03*
X89535000Y-102552500D03*
%TD*%
D13*
%TO.C,SW29*%
X176530000Y-80962500D03*
D14*
X171450000Y-80962500D03*
D13*
X166370000Y-80962500D03*
D15*
X168910000Y-86042500D03*
X175260000Y-83502500D03*
%TD*%
D13*
%TO.C,SW41*%
X233680000Y-80962500D03*
D14*
X228600000Y-80962500D03*
D13*
X223520000Y-80962500D03*
D15*
X226060000Y-86042500D03*
X232410000Y-83502500D03*
%TD*%
D13*
%TO.C,SW39*%
X209867500Y-119062500D03*
D14*
X204787500Y-119062500D03*
D13*
X199707500Y-119062500D03*
D15*
X202247500Y-124142500D03*
X208597500Y-121602500D03*
%TD*%
D13*
%TO.C,SW18*%
X114617500Y-119062500D03*
D14*
X109537500Y-119062500D03*
D13*
X104457500Y-119062500D03*
D15*
X106997500Y-124142500D03*
X113347500Y-121602500D03*
%TD*%
D13*
%TO.C,SW6*%
X64611250Y-157162500D03*
D14*
X59531250Y-157162500D03*
D13*
X54451250Y-157162500D03*
D15*
X56991250Y-162242500D03*
X63341250Y-159702500D03*
%TD*%
D13*
%TO.C,SW79*%
X150336250Y-157162500D03*
D14*
X145256250Y-157162500D03*
D13*
X140176250Y-157162500D03*
D15*
X142716250Y-162242500D03*
X149066250Y-159702500D03*
%TD*%
D13*
%TO.C,SW33*%
X195580000Y-80962500D03*
D14*
X190500000Y-80962500D03*
D13*
X185420000Y-80962500D03*
D15*
X187960000Y-86042500D03*
X194310000Y-83502500D03*
%TD*%
D13*
%TO.C,SW20*%
X138430000Y-80962500D03*
D14*
X133350000Y-80962500D03*
D13*
X128270000Y-80962500D03*
D15*
X130810000Y-86042500D03*
X137160000Y-83502500D03*
%TD*%
D13*
%TO.C,SW47*%
X262255000Y-100012500D03*
D14*
X257175000Y-100012500D03*
D13*
X252095000Y-100012500D03*
D15*
X254635000Y-105092500D03*
X260985000Y-102552500D03*
%TD*%
D13*
%TO.C,SW75*%
X286067500Y-119062500D03*
D14*
X280987500Y-119062500D03*
D13*
X275907500Y-119062500D03*
D15*
X278447500Y-124142500D03*
X284797500Y-121602500D03*
%TD*%
D13*
%TO.C,SW49*%
X238442500Y-138112500D03*
D14*
X233362500Y-138112500D03*
D13*
X228282500Y-138112500D03*
D15*
X230822500Y-143192500D03*
X237172500Y-140652500D03*
%TD*%
D13*
%TO.C,SW57*%
X307498750Y-100012500D03*
D14*
X302418750Y-100012500D03*
D13*
X297338750Y-100012500D03*
D15*
X299878750Y-105092500D03*
X306228750Y-102552500D03*
%TD*%
D13*
%TO.C,SW36*%
X181292500Y-138112500D03*
D14*
X176212500Y-138112500D03*
D13*
X171132500Y-138112500D03*
D15*
X173672500Y-143192500D03*
X180022500Y-140652500D03*
%TD*%
D13*
%TO.C,SW78*%
X112236250Y-157162500D03*
D14*
X107156250Y-157162500D03*
D13*
X102076250Y-157162500D03*
D15*
X104616250Y-162242500D03*
X110966250Y-159702500D03*
%TD*%
D13*
%TO.C,SW59*%
X328930000Y-157162500D03*
D14*
X323850000Y-157162500D03*
D13*
X318770000Y-157162500D03*
D15*
X321310000Y-162242500D03*
X327660000Y-159702500D03*
%TD*%
D13*
%TO.C,SW42*%
X243205000Y-100012500D03*
D14*
X238125000Y-100012500D03*
D13*
X233045000Y-100012500D03*
D15*
X235585000Y-105092500D03*
X241935000Y-102552500D03*
%TD*%
D13*
%TO.C,SW28*%
X143192500Y-138112500D03*
D14*
X138112500Y-138112500D03*
D13*
X133032500Y-138112500D03*
D15*
X135572500Y-143192500D03*
X141922500Y-140652500D03*
%TD*%
D13*
%TO.C,SW38*%
X224155000Y-100012500D03*
D14*
X219075000Y-100012500D03*
D13*
X213995000Y-100012500D03*
D15*
X216535000Y-105092500D03*
X222885000Y-102552500D03*
%TD*%
D16*
%TO.C,REF\u002A\u002A*%
X295281250Y-131127500D03*
D17*
X295281250Y-146367500D03*
D16*
X319081250Y-131127500D03*
D17*
X319081250Y-146367500D03*
%TD*%
D13*
%TO.C,SW22*%
X133667500Y-119062500D03*
D14*
X128587500Y-119062500D03*
D13*
X123507500Y-119062500D03*
D15*
X126047500Y-124142500D03*
X132397500Y-121602500D03*
%TD*%
D13*
%TO.C,SW56*%
X290830000Y-80962500D03*
D14*
X285750000Y-80962500D03*
D13*
X280670000Y-80962500D03*
D15*
X283210000Y-86042500D03*
X289560000Y-83502500D03*
%TD*%
D13*
%TO.C,SW26*%
X167005000Y-100012500D03*
D14*
X161925000Y-100012500D03*
D13*
X156845000Y-100012500D03*
D15*
X159385000Y-105092500D03*
X165735000Y-102552500D03*
%TD*%
D13*
%TO.C,SW31*%
X171767500Y-119062500D03*
D14*
X166687500Y-119062500D03*
D13*
X161607500Y-119062500D03*
D15*
X164147500Y-124142500D03*
X170497500Y-121602500D03*
%TD*%
D13*
%TO.C,SW4*%
X64611250Y-119062500D03*
D14*
X59531250Y-119062500D03*
D13*
X54451250Y-119062500D03*
D15*
X56991250Y-124142500D03*
X63341250Y-121602500D03*
%TD*%
D13*
%TO.C,SW54*%
X257492500Y-138112500D03*
D14*
X252412500Y-138112500D03*
D13*
X247332500Y-138112500D03*
D15*
X249872500Y-143192500D03*
X256222500Y-140652500D03*
%TD*%
D13*
%TO.C,SW30*%
X186055000Y-100012500D03*
D14*
X180975000Y-100012500D03*
D13*
X175895000Y-100012500D03*
D15*
X178435000Y-105092500D03*
X184785000Y-102552500D03*
%TD*%
D13*
%TO.C,SW1*%
X347980000Y-80962500D03*
D14*
X342900000Y-80962500D03*
D13*
X337820000Y-80962500D03*
D15*
X340360000Y-86042500D03*
X346710000Y-83502500D03*
%TD*%
D13*
%TO.C,SW48*%
X247967500Y-119062500D03*
D14*
X242887500Y-119062500D03*
D13*
X237807500Y-119062500D03*
D15*
X240347500Y-124142500D03*
X246697500Y-121602500D03*
%TD*%
D13*
%TO.C,SW40*%
X200342500Y-138112500D03*
D14*
X195262500Y-138112500D03*
D13*
X190182500Y-138112500D03*
D15*
X192722500Y-143192500D03*
X199072500Y-140652500D03*
%TD*%
D16*
%TO.C,REF\u002A\u002A*%
X300043750Y-112077500D03*
D17*
X300043750Y-127317500D03*
D16*
X323843750Y-112077500D03*
D17*
X323843750Y-127317500D03*
%TD*%
D13*
%TO.C,SW21*%
X147955000Y-100012500D03*
D14*
X142875000Y-100012500D03*
D13*
X137795000Y-100012500D03*
D15*
X140335000Y-105092500D03*
X146685000Y-102552500D03*
%TD*%
D16*
%TO.C,REF\u002A\u002A*%
X302425000Y-73977500D03*
D17*
X302425000Y-89217500D03*
D16*
X326225000Y-73977500D03*
D17*
X326225000Y-89217500D03*
%TD*%
D13*
%TO.C,SW17*%
X128905000Y-100012500D03*
D14*
X123825000Y-100012500D03*
D13*
X118745000Y-100012500D03*
D15*
X121285000Y-105092500D03*
X127635000Y-102552500D03*
%TD*%
D13*
%TO.C,SW23*%
X124142500Y-138112500D03*
D14*
X119062500Y-138112500D03*
D13*
X113982500Y-138112500D03*
D15*
X116522500Y-143192500D03*
X122872500Y-140652500D03*
%TD*%
D13*
%TO.C,SW16*%
X119380000Y-80962500D03*
D14*
X114300000Y-80962500D03*
D13*
X109220000Y-80962500D03*
D15*
X111760000Y-86042500D03*
X118110000Y-83502500D03*
%TD*%
D13*
%TO.C,SW51*%
X271780000Y-80962500D03*
D14*
X266700000Y-80962500D03*
D13*
X261620000Y-80962500D03*
D15*
X264160000Y-86042500D03*
X270510000Y-83502500D03*
%TD*%
D13*
%TO.C,SW52*%
X283686250Y-100012500D03*
D14*
X278606250Y-100012500D03*
D13*
X273526250Y-100012500D03*
D15*
X276066250Y-105092500D03*
X282416250Y-102552500D03*
%TD*%
D13*
%TO.C,SW25*%
X157480000Y-80962500D03*
D14*
X152400000Y-80962500D03*
D13*
X147320000Y-80962500D03*
D15*
X149860000Y-86042500D03*
X156210000Y-83502500D03*
%TD*%
D13*
%TO.C,SW12*%
X109855000Y-100012500D03*
D14*
X104775000Y-100012500D03*
D13*
X99695000Y-100012500D03*
D15*
X102235000Y-105092500D03*
X108585000Y-102552500D03*
%TD*%
D13*
%TO.C,SW7*%
X81280000Y-80962500D03*
D14*
X76200000Y-80962500D03*
D13*
X71120000Y-80962500D03*
D15*
X73660000Y-86042500D03*
X80010000Y-83502500D03*
%TD*%
D13*
%TO.C,SW37*%
X214630000Y-80962500D03*
D14*
X209550000Y-80962500D03*
D13*
X204470000Y-80962500D03*
D15*
X207010000Y-86042500D03*
X213360000Y-83502500D03*
%TD*%
D13*
%TO.C,SW43*%
X228917500Y-119062500D03*
D14*
X223837500Y-119062500D03*
D13*
X218757500Y-119062500D03*
D15*
X221297500Y-124142500D03*
X227647500Y-121602500D03*
%TD*%
D13*
%TO.C,SW58*%
X276542500Y-138112500D03*
D14*
X271462500Y-138112500D03*
D13*
X266382500Y-138112500D03*
D15*
X268922500Y-143192500D03*
X275272500Y-140652500D03*
%TD*%
D13*
%TO.C,SW55*%
X281305000Y-157162500D03*
D14*
X276225000Y-157162500D03*
D13*
X271145000Y-157162500D03*
D15*
X273685000Y-162242500D03*
X280035000Y-159702500D03*
%TD*%
D13*
%TO.C,SW50*%
X262255000Y-157162500D03*
D14*
X257175000Y-157162500D03*
D13*
X252095000Y-157162500D03*
D15*
X254635000Y-162242500D03*
X260985000Y-159702500D03*
%TD*%
D16*
%TO.C,REF\u002A\u002A*%
X57156250Y-131127500D03*
D17*
X57156250Y-146367500D03*
D16*
X80956250Y-131127500D03*
D17*
X80956250Y-146367500D03*
%TD*%
D13*
%TO.C,SW64*%
X347980000Y-157162500D03*
D14*
X342900000Y-157162500D03*
D13*
X337820000Y-157162500D03*
D15*
X340360000Y-162242500D03*
X346710000Y-159702500D03*
%TD*%
D13*
%TO.C,SW3*%
X66992500Y-100012500D03*
D14*
X61912500Y-100012500D03*
D13*
X56832500Y-100012500D03*
D15*
X59372500Y-105092500D03*
X65722500Y-102552500D03*
%TD*%
D13*
%TO.C,SW46*%
X252730000Y-80962500D03*
D14*
X247650000Y-80962500D03*
D13*
X242570000Y-80962500D03*
D15*
X245110000Y-86042500D03*
X251460000Y-83502500D03*
%TD*%
D13*
%TO.C,SW15*%
X88423750Y-157162500D03*
D14*
X83343750Y-157162500D03*
D13*
X78263750Y-157162500D03*
D15*
X80803750Y-162242500D03*
X87153750Y-159702500D03*
%TD*%
D13*
%TO.C,SW11*%
X100330000Y-80962500D03*
D14*
X95250000Y-80962500D03*
D13*
X90170000Y-80962500D03*
D15*
X92710000Y-86042500D03*
X99060000Y-83502500D03*
%TD*%
D13*
%TO.C,SW82*%
X302736250Y-157162500D03*
D14*
X297656250Y-157162500D03*
D13*
X292576250Y-157162500D03*
D15*
X295116250Y-162242500D03*
X301466250Y-159702500D03*
%TD*%
D13*
%TO.C,SW27*%
X152717500Y-119062500D03*
D14*
X147637500Y-119062500D03*
D13*
X142557500Y-119062500D03*
D15*
X145097500Y-124142500D03*
X151447500Y-121602500D03*
%TD*%
D13*
%TO.C,SW35*%
X190817500Y-119062500D03*
D14*
X185737500Y-119062500D03*
D13*
X180657500Y-119062500D03*
D15*
X183197500Y-124142500D03*
X189547500Y-121602500D03*
%TD*%
D13*
%TO.C,SW19*%
X105092500Y-138112500D03*
D14*
X100012500Y-138112500D03*
D13*
X94932500Y-138112500D03*
D15*
X97472500Y-143192500D03*
X103822500Y-140652500D03*
%TD*%
D13*
%TO.C,SW67*%
X347980000Y-119062500D03*
D14*
X342900000Y-119062500D03*
D13*
X337820000Y-119062500D03*
D15*
X340360000Y-124142500D03*
X346710000Y-121602500D03*
%TD*%
D13*
%TO.C,SW44*%
X219392500Y-138112500D03*
D14*
X214312500Y-138112500D03*
D13*
X209232500Y-138112500D03*
D15*
X211772500Y-143192500D03*
X218122500Y-140652500D03*
%TD*%
D13*
%TO.C,SW53*%
X267017500Y-119062500D03*
D14*
X261937500Y-119062500D03*
D13*
X256857500Y-119062500D03*
D15*
X259397500Y-124142500D03*
X265747500Y-121602500D03*
%TD*%
D13*
%TO.C,SW77*%
X221773750Y-157162500D03*
D14*
X216693750Y-157162500D03*
D13*
X211613750Y-157162500D03*
D15*
X214153750Y-162242500D03*
X220503750Y-159702500D03*
%TD*%
D13*
%TO.C,SW63*%
X312261250Y-138112500D03*
D14*
X307181250Y-138112500D03*
D13*
X302101250Y-138112500D03*
D15*
X304641250Y-143192500D03*
X310991250Y-140652500D03*
%TD*%
D16*
%TO.C,REF\u002A\u002A*%
X157156250Y-164147500D03*
D17*
X157156250Y-148907500D03*
D16*
X133356250Y-164147500D03*
D17*
X133356250Y-148907500D03*
%TD*%
D13*
%TO.C,SW2*%
X62230000Y-80962500D03*
D14*
X57150000Y-80962500D03*
D13*
X52070000Y-80962500D03*
D15*
X54610000Y-86042500D03*
X60960000Y-83502500D03*
%TD*%
D13*
%TO.C,SW32*%
X162242500Y-138112500D03*
D14*
X157162500Y-138112500D03*
D13*
X152082500Y-138112500D03*
D15*
X154622500Y-143192500D03*
X160972500Y-140652500D03*
%TD*%
D13*
%TO.C,SW5*%
X74136250Y-138112500D03*
D14*
X69056250Y-138112500D03*
D13*
X63976250Y-138112500D03*
D15*
X66516250Y-143192500D03*
X72866250Y-140652500D03*
%TD*%
D13*
%TO.C,SW62*%
X317023750Y-119062500D03*
D14*
X311943750Y-119062500D03*
D13*
X306863750Y-119062500D03*
D15*
X309403750Y-124142500D03*
X315753750Y-121602500D03*
%TD*%
D13*
%TO.C,SW13*%
X95567500Y-119062500D03*
D14*
X90487500Y-119062500D03*
D13*
X85407500Y-119062500D03*
D15*
X87947500Y-124142500D03*
X94297500Y-121602500D03*
%TD*%
D13*
%TO.C,SW70*%
X319405000Y-80962500D03*
D14*
X314325000Y-80962500D03*
D13*
X309245000Y-80962500D03*
D15*
X311785000Y-86042500D03*
X318135000Y-83502500D03*
%TD*%
D13*
%TO.C,SW69*%
X347980000Y-138112500D03*
D14*
X342900000Y-138112500D03*
D13*
X337820000Y-138112500D03*
D15*
X340360000Y-143192500D03*
X346710000Y-140652500D03*
%TD*%
D13*
%TO.C,SW71*%
X328930000Y-100012500D03*
D14*
X323850000Y-100012500D03*
D13*
X318770000Y-100012500D03*
D15*
X321310000Y-105092500D03*
X327660000Y-102552500D03*
%TD*%
D13*
%TO.C,SW24*%
X183673750Y-157162500D03*
D14*
X178593750Y-157162500D03*
D13*
X173513750Y-157162500D03*
D15*
X176053750Y-162242500D03*
X182403750Y-159702500D03*
%TD*%
D13*
%TO.C,SW66*%
X347980000Y-100012500D03*
D14*
X342900000Y-100012500D03*
D13*
X337820000Y-100012500D03*
D15*
X340360000Y-105092500D03*
X346710000Y-102552500D03*
%TD*%
D13*
%TO.C,SW34*%
X205105000Y-100012500D03*
D14*
X200025000Y-100012500D03*
D13*
X194945000Y-100012500D03*
D15*
X197485000Y-105092500D03*
X203835000Y-102552500D03*
%TD*%
D13*
%TO.C,SW9*%
X69373750Y-119062500D03*
D14*
X64293750Y-119062500D03*
D13*
X59213750Y-119062500D03*
D15*
X61753750Y-124142500D03*
X68103750Y-121602500D03*
%TD*%
D18*
%TO.C,R10*%
X355250000Y-101010000D03*
X355250000Y-99990000D03*
%TD*%
D19*
%TO.C,D57*%
X279796875Y-134081250D03*
X279796875Y-137381250D03*
%TD*%
D18*
%TO.C,R11*%
X354250000Y-101010000D03*
X354250000Y-99990000D03*
%TD*%
D19*
%TO.C,D10*%
X104775000Y-88565625D03*
X104775000Y-85265625D03*
%TD*%
D20*
%TO.C,C94*%
X362020000Y-103750000D03*
X362980000Y-103750000D03*
%TD*%
D19*
%TO.C,D47*%
X251221875Y-115031250D03*
X251221875Y-118331250D03*
%TD*%
%TO.C,D36*%
X219150000Y-88565625D03*
X219150000Y-85265625D03*
%TD*%
%TO.C,D54*%
X284559375Y-153131250D03*
X284559375Y-156431250D03*
%TD*%
D21*
%TO.C,C97*%
X351300000Y-97500000D03*
X353200000Y-97500000D03*
%TD*%
D19*
%TO.C,D16*%
X132159375Y-95981250D03*
X132159375Y-99281250D03*
%TD*%
D22*
%TO.C,C92*%
X355000000Y-112270000D03*
X355000000Y-113230000D03*
%TD*%
D19*
%TO.C,D12*%
X98821875Y-115031250D03*
X98821875Y-118331250D03*
%TD*%
%TO.C,D15*%
X123825000Y-88565625D03*
X123825000Y-85265625D03*
%TD*%
D23*
%TO.C,Y2*%
X359900000Y-112950000D03*
X362100000Y-112950000D03*
X362100000Y-114550000D03*
X359900000Y-114550000D03*
%TD*%
D24*
%TO.C,SW65*%
X359600000Y-131150000D03*
X353400000Y-131150000D03*
X359600000Y-134850000D03*
X353400000Y-134850000D03*
%TD*%
D21*
%TO.C,C84*%
X357582000Y-128000000D03*
X359482000Y-128000000D03*
%TD*%
D19*
%TO.C,D30*%
X175021875Y-115031250D03*
X175021875Y-118331250D03*
%TD*%
%TO.C,D27*%
X146446875Y-134081250D03*
X146446875Y-137381250D03*
%TD*%
%TO.C,D17*%
X101203125Y-115031250D03*
X101203125Y-118331250D03*
%TD*%
D25*
%TO.C,J5*%
X368750000Y-105500000D03*
D26*
X368750000Y-108040000D03*
X368750000Y-110580000D03*
X368750000Y-113120000D03*
%TD*%
D19*
%TO.C,D56*%
X310750000Y-95981250D03*
X310750000Y-99281250D03*
%TD*%
%TO.C,D22*%
X127396875Y-134081250D03*
X127396875Y-137381250D03*
%TD*%
%TO.C,D26*%
X155971875Y-115031250D03*
X155971875Y-118331250D03*
%TD*%
%TO.C,D35*%
X184546875Y-134081250D03*
X184546875Y-137381250D03*
%TD*%
%TO.C,D6*%
X85709375Y-88565625D03*
X85709375Y-85265625D03*
%TD*%
%TO.C,D45*%
X257175000Y-88565625D03*
X257175000Y-85265625D03*
%TD*%
%TO.C,D74*%
X161925000Y-153131250D03*
X161925000Y-156431250D03*
%TD*%
%TO.C,D43*%
X222646875Y-134081250D03*
X222646875Y-137381250D03*
%TD*%
%TO.C,D60*%
X334565625Y-88565625D03*
X334565625Y-85265625D03*
%TD*%
D27*
%TO.C,C85*%
X353250000Y-100980000D03*
X353250000Y-100020000D03*
%TD*%
D28*
%TO.C,C90*%
X350730000Y-108000000D03*
X349770000Y-108000000D03*
%TD*%
D19*
%TO.C,D55*%
X295275000Y-88565625D03*
X295275000Y-85265625D03*
%TD*%
%TO.C,D133*%
X334565625Y-115031250D03*
X334565625Y-118331250D03*
%TD*%
%TO.C,D1*%
X66675000Y-88565625D03*
X66675000Y-85265625D03*
%TD*%
D29*
%TO.C,R12*%
X356000000Y-112240000D03*
X356000000Y-113260000D03*
%TD*%
D30*
%TO.C,C82*%
X363250000Y-85350000D03*
X363250000Y-82650000D03*
%TD*%
D31*
%TO.C,U4*%
X358800000Y-124900000D03*
X356500000Y-124900000D03*
D32*
X356500000Y-118600000D03*
D31*
X354200000Y-124900000D03*
%TD*%
D19*
%TO.C,D66*%
X332184375Y-95981250D03*
X332184375Y-99281250D03*
%TD*%
%TO.C,D77*%
X305990625Y-153131250D03*
X305990625Y-156431250D03*
%TD*%
%TO.C,D3*%
X72628125Y-115031250D03*
X72628125Y-118331250D03*
%TD*%
%TO.C,D64*%
X334565625Y-134081250D03*
X334565625Y-137381250D03*
%TD*%
%TO.C,D7*%
X94059375Y-95981250D03*
X94059375Y-99281250D03*
%TD*%
%TO.C,D62*%
X323850000Y-134081250D03*
X323850000Y-137381250D03*
%TD*%
%TO.C,D48*%
X241696875Y-134081250D03*
X241696875Y-137381250D03*
%TD*%
%TO.C,D32*%
X200025000Y-88565625D03*
X200025000Y-85265625D03*
%TD*%
D18*
%TO.C,R2*%
X350750000Y-76760000D03*
X350750000Y-75740000D03*
%TD*%
D19*
%TO.C,D37*%
X227409375Y-95981250D03*
X227409375Y-99281250D03*
%TD*%
%TO.C,D53*%
X260746875Y-134081250D03*
X260746875Y-137381250D03*
%TD*%
%TO.C,D70*%
X272653125Y-115031250D03*
X272653125Y-118331250D03*
%TD*%
D22*
%TO.C,C70*%
X351500000Y-132520000D03*
X351500000Y-133480000D03*
%TD*%
D19*
%TO.C,D20*%
X151209375Y-95981250D03*
X151209375Y-99281250D03*
%TD*%
D28*
%TO.C,C89*%
X367980000Y-90750000D03*
X367020000Y-90750000D03*
%TD*%
D19*
%TO.C,D46*%
X265509375Y-95981250D03*
X265509375Y-99281250D03*
%TD*%
%TO.C,D14*%
X94115625Y-153131250D03*
X94115625Y-156431250D03*
%TD*%
%TO.C,D50*%
X276225000Y-88565625D03*
X276225000Y-85265625D03*
%TD*%
D20*
%TO.C,C93*%
X362020000Y-107750000D03*
X362980000Y-107750000D03*
%TD*%
D18*
%TO.C,R14*%
X367000000Y-103260000D03*
X367000000Y-102240000D03*
%TD*%
D19*
%TO.C,D28*%
X180975000Y-88565625D03*
X180975000Y-85265625D03*
%TD*%
%TO.C,D2*%
X70246875Y-95981250D03*
X70246875Y-99281250D03*
%TD*%
D33*
%TO.C,U5*%
X359687500Y-104150000D03*
X359687500Y-104550000D03*
X359687500Y-104950000D03*
X359687500Y-105350000D03*
X359687500Y-105750000D03*
X359687500Y-106150000D03*
X359687500Y-106550000D03*
X359687500Y-106950000D03*
X359687500Y-107350000D03*
X359687500Y-107750000D03*
X359687500Y-108150000D03*
X359687500Y-108550000D03*
X359687500Y-108950000D03*
X359687500Y-109350000D03*
D34*
X358850000Y-110187500D03*
X358450000Y-110187500D03*
X358050000Y-110187500D03*
X357650000Y-110187500D03*
X357250000Y-110187500D03*
X356850000Y-110187500D03*
X356450000Y-110187500D03*
X356050000Y-110187500D03*
X355650000Y-110187500D03*
X355250000Y-110187500D03*
X354850000Y-110187500D03*
X354450000Y-110187500D03*
X354050000Y-110187500D03*
X353650000Y-110187500D03*
D33*
X352812500Y-109350000D03*
X352812500Y-108950000D03*
X352812500Y-108550000D03*
X352812500Y-108150000D03*
X352812500Y-107750000D03*
X352812500Y-107350000D03*
X352812500Y-106950000D03*
X352812500Y-106550000D03*
X352812500Y-106150000D03*
X352812500Y-105750000D03*
X352812500Y-105350000D03*
X352812500Y-104950000D03*
X352812500Y-104550000D03*
X352812500Y-104150000D03*
D34*
X353650000Y-103312500D03*
X354050000Y-103312500D03*
X354450000Y-103312500D03*
X354850000Y-103312500D03*
X355250000Y-103312500D03*
X355650000Y-103312500D03*
X356050000Y-103312500D03*
X356450000Y-103312500D03*
X356850000Y-103312500D03*
X357250000Y-103312500D03*
X357650000Y-103312500D03*
X358050000Y-103312500D03*
X358450000Y-103312500D03*
X358850000Y-103312500D03*
D35*
X356250000Y-106750000D03*
%TD*%
D18*
%TO.C,R7*%
X352000000Y-113260000D03*
X352000000Y-112240000D03*
%TD*%
D19*
%TO.C,D72*%
X233362500Y-153131250D03*
X233362500Y-156431250D03*
%TD*%
%TO.C,D49*%
X265509375Y-153131250D03*
X265509375Y-156431250D03*
%TD*%
D22*
%TO.C,C80*%
X358250000Y-112270000D03*
X358250000Y-113230000D03*
%TD*%
D19*
%TO.C,D41*%
X246459375Y-95981250D03*
X246459375Y-99281250D03*
%TD*%
%TO.C,D52*%
X270271875Y-115031250D03*
X270271875Y-118331250D03*
%TD*%
D27*
%TO.C,C95*%
X356250000Y-100980000D03*
X356250000Y-100020000D03*
%TD*%
D36*
%TO.C,U6*%
X368155000Y-99850000D03*
X366885000Y-99850000D03*
X365615000Y-99850000D03*
X364345000Y-99850000D03*
X364345000Y-92650000D03*
X365615000Y-92650000D03*
X366885000Y-92650000D03*
X368155000Y-92650000D03*
%TD*%
D19*
%TO.C,D58*%
X332184375Y-153131250D03*
X332184375Y-156431250D03*
%TD*%
%TO.C,D31*%
X165496875Y-134081250D03*
X165496875Y-137381250D03*
%TD*%
%TO.C,D23*%
X187365625Y-153131250D03*
X187365625Y-156431250D03*
%TD*%
%TO.C,D73*%
X115490625Y-153131250D03*
X115490625Y-156431250D03*
%TD*%
%TO.C,D61*%
X328612500Y-115031250D03*
X328612500Y-118331250D03*
%TD*%
D37*
%TO.C,U2*%
X358650000Y-85137500D03*
X357700000Y-85137500D03*
X356750000Y-85137500D03*
X356750000Y-82862500D03*
X357700000Y-82862500D03*
X358650000Y-82862500D03*
%TD*%
D19*
%TO.C,D19*%
X142875000Y-88565625D03*
X142875000Y-85265625D03*
%TD*%
%TO.C,D4*%
X85725000Y-134081250D03*
X85725000Y-137381250D03*
%TD*%
%TO.C,D24*%
X161925000Y-88565625D03*
X161925000Y-85265625D03*
%TD*%
%TO.C,D11*%
X113109375Y-95981250D03*
X113109375Y-99281250D03*
%TD*%
D27*
%TO.C,C88*%
X357250000Y-100980000D03*
X357250000Y-100020000D03*
%TD*%
D19*
%TO.C,D38*%
X213121875Y-115031250D03*
X213121875Y-118331250D03*
%TD*%
D38*
%TO.C,J2*%
X354297500Y-77040000D03*
X360077500Y-77040000D03*
D39*
X353937500Y-78485000D03*
X354737500Y-78485000D03*
D40*
X355937500Y-78485000D03*
X356937500Y-78485000D03*
X357437500Y-78485000D03*
X358437500Y-78485000D03*
D39*
X359637500Y-78485000D03*
X360437500Y-78485000D03*
X360437500Y-78485000D03*
X359637500Y-78485000D03*
D40*
X358937500Y-78485000D03*
X357937500Y-78485000D03*
X356437500Y-78485000D03*
X355437500Y-78485000D03*
D39*
X354737500Y-78485000D03*
X353937500Y-78485000D03*
D41*
X352867500Y-73390000D03*
D42*
X352867500Y-77570000D03*
D41*
X361507500Y-73390000D03*
D42*
X361507500Y-77570000D03*
%TD*%
D19*
%TO.C,D33*%
X208359375Y-95981250D03*
X208359375Y-99281250D03*
%TD*%
D27*
%TO.C,C91*%
X351250000Y-100980000D03*
X351250000Y-100020000D03*
%TD*%
D19*
%TO.C,D39*%
X203596875Y-134081250D03*
X203596875Y-137381250D03*
%TD*%
D21*
%TO.C,C83*%
X353772000Y-128000000D03*
X355672000Y-128000000D03*
%TD*%
D19*
%TO.C,D132*%
X334565625Y-95981250D03*
X334565625Y-99281250D03*
%TD*%
%TO.C,D51*%
X286940625Y-95981250D03*
X286940625Y-99281250D03*
%TD*%
%TO.C,D40*%
X238125000Y-88565625D03*
X238125000Y-85265625D03*
%TD*%
%TO.C,D5*%
X67865625Y-153131250D03*
X67865625Y-156431250D03*
%TD*%
%TO.C,D25*%
X170259375Y-95981250D03*
X170259375Y-99281250D03*
%TD*%
%TO.C,D34*%
X194071875Y-115031250D03*
X194071875Y-118331250D03*
%TD*%
D43*
%TO.C,F1*%
X361000000Y-84937500D03*
X361000000Y-83062500D03*
%TD*%
D19*
%TO.C,D42*%
X232171875Y-115031250D03*
X232171875Y-118331250D03*
%TD*%
D18*
%TO.C,R1*%
X363500000Y-76760000D03*
X363500000Y-75740000D03*
%TD*%
D19*
%TO.C,D21*%
X136921875Y-115031250D03*
X136921875Y-118331250D03*
%TD*%
%TO.C,D65*%
X332184375Y-88565625D03*
X332184375Y-85265625D03*
%TD*%
%TO.C,D18*%
X108346875Y-134081250D03*
X108346875Y-137381250D03*
%TD*%
D27*
%TO.C,C96*%
X351000000Y-103480000D03*
X351000000Y-102520000D03*
%TD*%
D22*
%TO.C,C87*%
X353750000Y-112270000D03*
X353750000Y-113230000D03*
%TD*%
%TO.C,C81*%
X357000000Y-112270000D03*
X357000000Y-113230000D03*
%TD*%
D18*
%TO.C,R13*%
X368250000Y-103260000D03*
X368250000Y-102240000D03*
%TD*%
D19*
%TO.C,D134*%
X353915625Y-153131250D03*
X353915625Y-156431250D03*
%TD*%
%TO.C,D63*%
X351234375Y-153131250D03*
X351234375Y-156431250D03*
%TD*%
%TO.C,D29*%
X189309375Y-95981250D03*
X189309375Y-99281250D03*
%TD*%
D27*
%TO.C,C86*%
X352250000Y-100980000D03*
X352250000Y-100020000D03*
%TD*%
%LPD*%
M02*
