M48
; DRILL file {KiCad 7.0.11} date Thu Apr 25 10:19:38 2024
; FORMAT={-:-/ absolute / inch / decimal}
; #@! TF.CreationDate,2024-04-25T10:19:38+05:30
; #@! TF.GenerationSoftware,Kicad,Pcbnew,7.0.11
; #@! TF.FileFunction,Plated,1,2,PTH
FMAT,2
INCH
; #@! TA.AperFunction,Plated,PTH,ViaDrill
T1C0.0118
; #@! TA.AperFunction,Plated,PTH,ComponentDrill
T2C0.0236
; #@! TA.AperFunction,Plated,PTH,ComponentDrill
T3C0.0394
; #@! TA.AperFunction,Plated,PTH,ComponentDrill
T4C0.0591
%
G90
G05
T1
X2.6181Y-3.4154
X2.6772Y-6.1024
X2.7657Y-3.8386
X2.8543Y-4.5965
X3.376Y-5.3445
X3.7008Y-6.0925
X3.8878Y-4.5965
X3.9862Y-4.5866
X4.124Y-3.4252
X4.2815Y-5.3445
X4.5472Y-6.0827
X5.0197Y-5.3445
X5.2067Y-3.8287
X5.3839Y-4.5965
X5.6299Y-3.4154
X5.7677Y-5.3543
X5.9547Y-3.8484
X6.1417Y-4.5866
X6.378Y-6.0925
X6.5157Y-5.3346
X6.7028Y-3.8484
X7.126Y-3.4252
X7.2638Y-5.3445
X7.3622Y-6.0925
X7.6476Y-4.5965
X8.0118Y-5.3346
X8.1988Y-3.8386
X8.6319Y-3.4252
X8.9469Y-3.8386
X9.1929Y-6.0925
X10.128Y-3.4154
X10.4429Y-3.8386
X10.4626Y-6.0925
X11.0138Y-5.3445
X11.2008Y-6.1024
X11.624Y-3.4252
X11.6732Y-4.6063
X11.6831Y-4.4291
X11.6929Y-4.1437
X11.8504Y-4.685
X11.998Y-4.3996
X12.2343Y-3.8484
X12.3031Y-4.1535
X12.3917Y-4.6457
X12.5591Y-4.3996
X12.7657Y-4.6752
X13.0512Y-4.5571
X13.061Y-4.4488
X13.0807Y-3.4154
X13.0807Y-3.8484
X13.0906Y-6.0925
X13.1201Y-4.1535
X13.1791Y-3.8484
X13.2185Y-4.0551
X13.5531Y-4.0945
X13.6122Y-4.2618
X13.6319Y-4.498
X13.7008Y-4.2618
X13.7402Y-4.252
X13.7697Y-3.0217
X13.7894Y-3.8189
X13.7894Y-4.4291
X13.8287Y-3.9075
X13.8386Y-4.0256
X13.8386Y-5.0689
X13.8386Y-5.2953
X13.8484Y-3.7795
X13.8583Y-3.1299
X13.8583Y-5.3346
X13.8681Y-4.6161
X13.8681Y-5.0394
X13.878Y-3.8189
X13.878Y-3.878
X13.8976Y-4.4783
X13.8976Y-4.6457
X13.9045Y-3.999
X13.9075Y-3.9075
X13.9173Y-3.1398
X13.9272Y-4.498
X13.9469Y-4.1339
X13.9469Y-4.2028
X13.9469Y-5.0984
X13.9753Y-4.3001
X13.9923Y-4.4919
X13.9961Y-5.0984
X14.0157Y-3.189
X14.0157Y-4.3012
X14.0246Y-3.9971
X14.0256Y-5.2067
X14.0354Y-4.4882
X14.0453Y-3.9075
X14.065Y-4.2815
X14.0748Y-4.1378
X14.0846Y-3.3957
X14.0945Y-3.7795
X14.0945Y-5.315
X14.1043Y-3.937
X14.1181Y-4.1929
X14.1339Y-4.5177
X14.1535Y-5.0984
X14.1831Y-4.0748
X14.2028Y-3.1398
X14.2028Y-4.9213
X14.2028Y-4.9803
X14.2165Y-4.4685
X14.2224Y-4.1437
X14.2421Y-5.0886
X14.252Y-3.1299
X14.252Y-4.2185
X14.252Y-4.9213
X14.252Y-4.9803
X14.2717Y-3.1988
X14.3012Y-4.124
X14.3014Y-4.1535
X14.311Y-3.0512
X14.311Y-4.2717
X14.3209Y-3.1988
X14.3209Y-3.9173
X14.3602Y-3.2283
X14.3602Y-3.2776
X14.3898Y-3.4154
X14.4291Y-4.1535
X14.4488Y-3.5335
X14.5079Y-4.9803
X14.5079Y-5.0886
X14.5472Y-3.9961
X14.5768Y-5.0984
X14.5965Y-4.9409
X14.5965Y-4.9902
T3
X14.5177Y-4.1535
X14.5177Y-4.2535
X14.5177Y-4.3535
X14.5177Y-4.4535
T4
X2.15Y-3.3875
X2.2437Y-4.8875
X2.2437Y-6.3875
X2.3375Y-4.1375
X2.4Y-3.2875
X2.4312Y-4.8875
X2.4937Y-4.7875
X2.4937Y-6.2875
X2.5875Y-4.0375
X2.6187Y-5.6375
X2.6812Y-4.7875
X2.8687Y-5.5375
X2.9Y-3.3875
X3.15Y-3.2875
X3.1812Y-6.3875
X3.275Y-4.1375
X3.4312Y-6.2875
X3.4625Y-4.8875
X3.525Y-4.0375
X3.65Y-3.3875
X3.7125Y-4.7875
X3.8375Y-5.6375
X3.9Y-3.2875
X4.025Y-4.1375
X4.0875Y-5.5375
X4.1187Y-6.3875
X4.2125Y-4.8875
X4.275Y-4.0375
X4.3687Y-6.2875
X4.4Y-3.3875
X4.4625Y-4.7875
X4.5875Y-5.6375
X4.65Y-3.2875
X4.775Y-4.1375
X4.8375Y-5.5375
X4.9625Y-4.8875
X5.025Y-4.0375
X5.15Y-3.3875
X5.2125Y-4.7875
X5.3375Y-5.6375
X5.4Y-3.2875
X5.525Y-4.1375
X5.5875Y-5.5375
X5.6187Y-6.3875
X5.7125Y-4.8875
X5.775Y-4.0375
X5.8687Y-6.2875
X5.9Y-3.3875
X5.9625Y-4.7875
X6.0875Y-5.6375
X6.15Y-3.2875
X6.275Y-4.1375
X6.3375Y-5.5375
X6.4625Y-4.8875
X6.525Y-4.0375
X6.65Y-3.3875
X6.7125Y-4.7875
X6.8375Y-5.6375
X6.9Y-3.2875
X6.9312Y-6.3875
X7.025Y-4.1375
X7.0875Y-5.5375
X7.1812Y-6.2875
X7.2125Y-4.8875
X7.275Y-4.0375
X7.4Y-3.3875
X7.4625Y-4.7875
X7.5875Y-5.6375
X7.65Y-3.2875
X7.775Y-4.1375
X7.8375Y-5.5375
X7.9625Y-4.8875
X8.025Y-4.0375
X8.15Y-3.3875
X8.2125Y-4.7875
X8.3375Y-5.6375
X8.4Y-3.2875
X8.4313Y-6.3875
X8.525Y-4.1375
X8.5875Y-5.5375
X8.6813Y-6.2875
X8.7125Y-4.8875
X8.775Y-4.0375
X8.9Y-3.3875
X8.9625Y-4.7875
X9.0875Y-5.6375
X9.15Y-3.2875
X9.275Y-4.1375
X9.3375Y-5.5375
X9.4625Y-4.8875
X9.525Y-4.0375
X9.65Y-3.3875
X9.7125Y-4.7875
X9.8375Y-5.6375
X9.9Y-3.2875
X10.025Y-4.1375
X10.025Y-6.3875
X10.0875Y-5.5375
X10.2125Y-4.8875
X10.275Y-4.0375
X10.275Y-6.2875
X10.4Y-3.3875
X10.4625Y-4.7875
X10.5875Y-5.6375
X10.65Y-3.2875
X10.775Y-6.3875
X10.8375Y-5.5375
X10.8688Y-4.1375
X10.9625Y-4.8875
X11.025Y-6.2875
X11.1188Y-4.0375
X11.15Y-3.3875
X11.2125Y-4.7875
X11.4Y-3.2875
X11.6188Y-6.3875
X11.8063Y-4.1375
X11.8688Y-6.2875
X11.9938Y-5.6375
X12.0563Y-4.0375
X12.1813Y-4.8875
X12.2438Y-5.5375
X12.275Y-3.3875
X12.4313Y-4.7875
X12.525Y-3.2875
X12.65Y-4.1375
X12.65Y-6.3875
X12.9Y-4.0375
X12.9Y-6.2875
X13.4Y-3.3875
X13.4Y-4.1375
X13.4Y-4.8875
X13.4Y-5.6375
X13.4Y-6.3875
X13.65Y-3.2875
X13.65Y-4.0375
X13.65Y-4.7875
X13.65Y-5.5375
X13.65Y-6.2875
X14.15Y-6.3875
X14.4Y-6.2875
T2
G00X13.8924Y-2.8776
M15
G01X13.8924Y-2.9012
M16
G05
G00X13.8924Y-3.0323
M15
G01X13.8924Y-3.0756
M16
G05
G00X14.2326Y-2.8776
M15
G01X14.2326Y-2.9012
M16
G05
G00X14.2326Y-3.0323
M15
G01X14.2326Y-3.0756
M16
G05
M30
