%TF.GenerationSoftware,KiCad,Pcbnew,7.0.11*%
%TF.CreationDate,2024-04-25T10:19:36+05:30*%
%TF.ProjectId,Lexicon 69,4c657869-636f-46e2-9036-392e6b696361,rev?*%
%TF.SameCoordinates,Original*%
%TF.FileFunction,Soldermask,Top*%
%TF.FilePolarity,Negative*%
%FSLAX46Y46*%
G04 Gerber Fmt 4.6, Leading zero omitted, Abs format (unit mm)*
G04 Created by KiCad (PCBNEW 7.0.11) date 2024-04-25 10:19:36*
%MOMM*%
%LPD*%
G01*
G04 APERTURE LIST*
%ADD10C,1.700000*%
%ADD11C,4.000000*%
%ADD12C,2.200000*%
%ADD13C,3.048000*%
%ADD14C,3.987800*%
%ADD15R,1.700000X1.700000*%
%ADD16O,1.700000X1.700000*%
%ADD17C,0.650000*%
%ADD18O,1.000000X1.600000*%
%ADD19O,1.000000X2.100000*%
G04 APERTURE END LIST*
D10*
%TO.C,SW68*%
X367030000Y-157162500D03*
D11*
X361950000Y-157162500D03*
D10*
X356870000Y-157162500D03*
D12*
X359410000Y-162242500D03*
X365760000Y-159702500D03*
%TD*%
D13*
%TO.C,REF\u002A\u002A*%
X228593750Y-164147500D03*
D14*
X228593750Y-148907500D03*
D13*
X204793750Y-164147500D03*
D14*
X204793750Y-148907500D03*
%TD*%
D10*
%TO.C,SW8*%
X90805000Y-100012500D03*
D11*
X85725000Y-100012500D03*
D10*
X80645000Y-100012500D03*
D12*
X83185000Y-105092500D03*
X89535000Y-102552500D03*
%TD*%
D10*
%TO.C,SW29*%
X176530000Y-80962500D03*
D11*
X171450000Y-80962500D03*
D10*
X166370000Y-80962500D03*
D12*
X168910000Y-86042500D03*
X175260000Y-83502500D03*
%TD*%
D10*
%TO.C,SW41*%
X233680000Y-80962500D03*
D11*
X228600000Y-80962500D03*
D10*
X223520000Y-80962500D03*
D12*
X226060000Y-86042500D03*
X232410000Y-83502500D03*
%TD*%
D10*
%TO.C,SW39*%
X209867500Y-119062500D03*
D11*
X204787500Y-119062500D03*
D10*
X199707500Y-119062500D03*
D12*
X202247500Y-124142500D03*
X208597500Y-121602500D03*
%TD*%
D10*
%TO.C,SW18*%
X114617500Y-119062500D03*
D11*
X109537500Y-119062500D03*
D10*
X104457500Y-119062500D03*
D12*
X106997500Y-124142500D03*
X113347500Y-121602500D03*
%TD*%
D10*
%TO.C,SW6*%
X64611250Y-157162500D03*
D11*
X59531250Y-157162500D03*
D10*
X54451250Y-157162500D03*
D12*
X56991250Y-162242500D03*
X63341250Y-159702500D03*
%TD*%
D10*
%TO.C,SW79*%
X150336250Y-157162500D03*
D11*
X145256250Y-157162500D03*
D10*
X140176250Y-157162500D03*
D12*
X142716250Y-162242500D03*
X149066250Y-159702500D03*
%TD*%
D10*
%TO.C,SW33*%
X195580000Y-80962500D03*
D11*
X190500000Y-80962500D03*
D10*
X185420000Y-80962500D03*
D12*
X187960000Y-86042500D03*
X194310000Y-83502500D03*
%TD*%
D10*
%TO.C,SW20*%
X138430000Y-80962500D03*
D11*
X133350000Y-80962500D03*
D10*
X128270000Y-80962500D03*
D12*
X130810000Y-86042500D03*
X137160000Y-83502500D03*
%TD*%
D10*
%TO.C,SW47*%
X262255000Y-100012500D03*
D11*
X257175000Y-100012500D03*
D10*
X252095000Y-100012500D03*
D12*
X254635000Y-105092500D03*
X260985000Y-102552500D03*
%TD*%
D10*
%TO.C,SW75*%
X286067500Y-119062500D03*
D11*
X280987500Y-119062500D03*
D10*
X275907500Y-119062500D03*
D12*
X278447500Y-124142500D03*
X284797500Y-121602500D03*
%TD*%
D10*
%TO.C,SW49*%
X238442500Y-138112500D03*
D11*
X233362500Y-138112500D03*
D10*
X228282500Y-138112500D03*
D12*
X230822500Y-143192500D03*
X237172500Y-140652500D03*
%TD*%
D10*
%TO.C,SW57*%
X307498750Y-100012500D03*
D11*
X302418750Y-100012500D03*
D10*
X297338750Y-100012500D03*
D12*
X299878750Y-105092500D03*
X306228750Y-102552500D03*
%TD*%
D10*
%TO.C,SW36*%
X181292500Y-138112500D03*
D11*
X176212500Y-138112500D03*
D10*
X171132500Y-138112500D03*
D12*
X173672500Y-143192500D03*
X180022500Y-140652500D03*
%TD*%
D10*
%TO.C,SW78*%
X112236250Y-157162500D03*
D11*
X107156250Y-157162500D03*
D10*
X102076250Y-157162500D03*
D12*
X104616250Y-162242500D03*
X110966250Y-159702500D03*
%TD*%
D10*
%TO.C,SW59*%
X328930000Y-157162500D03*
D11*
X323850000Y-157162500D03*
D10*
X318770000Y-157162500D03*
D12*
X321310000Y-162242500D03*
X327660000Y-159702500D03*
%TD*%
D10*
%TO.C,SW42*%
X243205000Y-100012500D03*
D11*
X238125000Y-100012500D03*
D10*
X233045000Y-100012500D03*
D12*
X235585000Y-105092500D03*
X241935000Y-102552500D03*
%TD*%
D10*
%TO.C,SW28*%
X143192500Y-138112500D03*
D11*
X138112500Y-138112500D03*
D10*
X133032500Y-138112500D03*
D12*
X135572500Y-143192500D03*
X141922500Y-140652500D03*
%TD*%
D10*
%TO.C,SW38*%
X224155000Y-100012500D03*
D11*
X219075000Y-100012500D03*
D10*
X213995000Y-100012500D03*
D12*
X216535000Y-105092500D03*
X222885000Y-102552500D03*
%TD*%
D13*
%TO.C,REF\u002A\u002A*%
X295281250Y-131127500D03*
D14*
X295281250Y-146367500D03*
D13*
X319081250Y-131127500D03*
D14*
X319081250Y-146367500D03*
%TD*%
D10*
%TO.C,SW22*%
X133667500Y-119062500D03*
D11*
X128587500Y-119062500D03*
D10*
X123507500Y-119062500D03*
D12*
X126047500Y-124142500D03*
X132397500Y-121602500D03*
%TD*%
D10*
%TO.C,SW56*%
X290830000Y-80962500D03*
D11*
X285750000Y-80962500D03*
D10*
X280670000Y-80962500D03*
D12*
X283210000Y-86042500D03*
X289560000Y-83502500D03*
%TD*%
D10*
%TO.C,SW26*%
X167005000Y-100012500D03*
D11*
X161925000Y-100012500D03*
D10*
X156845000Y-100012500D03*
D12*
X159385000Y-105092500D03*
X165735000Y-102552500D03*
%TD*%
D10*
%TO.C,SW31*%
X171767500Y-119062500D03*
D11*
X166687500Y-119062500D03*
D10*
X161607500Y-119062500D03*
D12*
X164147500Y-124142500D03*
X170497500Y-121602500D03*
%TD*%
D10*
%TO.C,SW4*%
X64611250Y-119062500D03*
D11*
X59531250Y-119062500D03*
D10*
X54451250Y-119062500D03*
D12*
X56991250Y-124142500D03*
X63341250Y-121602500D03*
%TD*%
D10*
%TO.C,SW54*%
X257492500Y-138112500D03*
D11*
X252412500Y-138112500D03*
D10*
X247332500Y-138112500D03*
D12*
X249872500Y-143192500D03*
X256222500Y-140652500D03*
%TD*%
D10*
%TO.C,SW30*%
X186055000Y-100012500D03*
D11*
X180975000Y-100012500D03*
D10*
X175895000Y-100012500D03*
D12*
X178435000Y-105092500D03*
X184785000Y-102552500D03*
%TD*%
D10*
%TO.C,SW1*%
X347980000Y-80962500D03*
D11*
X342900000Y-80962500D03*
D10*
X337820000Y-80962500D03*
D12*
X340360000Y-86042500D03*
X346710000Y-83502500D03*
%TD*%
D10*
%TO.C,SW48*%
X247967500Y-119062500D03*
D11*
X242887500Y-119062500D03*
D10*
X237807500Y-119062500D03*
D12*
X240347500Y-124142500D03*
X246697500Y-121602500D03*
%TD*%
D10*
%TO.C,SW40*%
X200342500Y-138112500D03*
D11*
X195262500Y-138112500D03*
D10*
X190182500Y-138112500D03*
D12*
X192722500Y-143192500D03*
X199072500Y-140652500D03*
%TD*%
D13*
%TO.C,REF\u002A\u002A*%
X300043750Y-112077500D03*
D14*
X300043750Y-127317500D03*
D13*
X323843750Y-112077500D03*
D14*
X323843750Y-127317500D03*
%TD*%
D10*
%TO.C,SW21*%
X147955000Y-100012500D03*
D11*
X142875000Y-100012500D03*
D10*
X137795000Y-100012500D03*
D12*
X140335000Y-105092500D03*
X146685000Y-102552500D03*
%TD*%
D13*
%TO.C,REF\u002A\u002A*%
X302425000Y-73977500D03*
D14*
X302425000Y-89217500D03*
D13*
X326225000Y-73977500D03*
D14*
X326225000Y-89217500D03*
%TD*%
D10*
%TO.C,SW17*%
X128905000Y-100012500D03*
D11*
X123825000Y-100012500D03*
D10*
X118745000Y-100012500D03*
D12*
X121285000Y-105092500D03*
X127635000Y-102552500D03*
%TD*%
D10*
%TO.C,SW23*%
X124142500Y-138112500D03*
D11*
X119062500Y-138112500D03*
D10*
X113982500Y-138112500D03*
D12*
X116522500Y-143192500D03*
X122872500Y-140652500D03*
%TD*%
D10*
%TO.C,SW16*%
X119380000Y-80962500D03*
D11*
X114300000Y-80962500D03*
D10*
X109220000Y-80962500D03*
D12*
X111760000Y-86042500D03*
X118110000Y-83502500D03*
%TD*%
D10*
%TO.C,SW51*%
X271780000Y-80962500D03*
D11*
X266700000Y-80962500D03*
D10*
X261620000Y-80962500D03*
D12*
X264160000Y-86042500D03*
X270510000Y-83502500D03*
%TD*%
D10*
%TO.C,SW52*%
X283686250Y-100012500D03*
D11*
X278606250Y-100012500D03*
D10*
X273526250Y-100012500D03*
D12*
X276066250Y-105092500D03*
X282416250Y-102552500D03*
%TD*%
D10*
%TO.C,SW25*%
X157480000Y-80962500D03*
D11*
X152400000Y-80962500D03*
D10*
X147320000Y-80962500D03*
D12*
X149860000Y-86042500D03*
X156210000Y-83502500D03*
%TD*%
D10*
%TO.C,SW12*%
X109855000Y-100012500D03*
D11*
X104775000Y-100012500D03*
D10*
X99695000Y-100012500D03*
D12*
X102235000Y-105092500D03*
X108585000Y-102552500D03*
%TD*%
D10*
%TO.C,SW7*%
X81280000Y-80962500D03*
D11*
X76200000Y-80962500D03*
D10*
X71120000Y-80962500D03*
D12*
X73660000Y-86042500D03*
X80010000Y-83502500D03*
%TD*%
D10*
%TO.C,SW37*%
X214630000Y-80962500D03*
D11*
X209550000Y-80962500D03*
D10*
X204470000Y-80962500D03*
D12*
X207010000Y-86042500D03*
X213360000Y-83502500D03*
%TD*%
D10*
%TO.C,SW43*%
X228917500Y-119062500D03*
D11*
X223837500Y-119062500D03*
D10*
X218757500Y-119062500D03*
D12*
X221297500Y-124142500D03*
X227647500Y-121602500D03*
%TD*%
D10*
%TO.C,SW58*%
X276542500Y-138112500D03*
D11*
X271462500Y-138112500D03*
D10*
X266382500Y-138112500D03*
D12*
X268922500Y-143192500D03*
X275272500Y-140652500D03*
%TD*%
D10*
%TO.C,SW55*%
X281305000Y-157162500D03*
D11*
X276225000Y-157162500D03*
D10*
X271145000Y-157162500D03*
D12*
X273685000Y-162242500D03*
X280035000Y-159702500D03*
%TD*%
D10*
%TO.C,SW50*%
X262255000Y-157162500D03*
D11*
X257175000Y-157162500D03*
D10*
X252095000Y-157162500D03*
D12*
X254635000Y-162242500D03*
X260985000Y-159702500D03*
%TD*%
D13*
%TO.C,REF\u002A\u002A*%
X57156250Y-131127500D03*
D14*
X57156250Y-146367500D03*
D13*
X80956250Y-131127500D03*
D14*
X80956250Y-146367500D03*
%TD*%
D10*
%TO.C,SW64*%
X347980000Y-157162500D03*
D11*
X342900000Y-157162500D03*
D10*
X337820000Y-157162500D03*
D12*
X340360000Y-162242500D03*
X346710000Y-159702500D03*
%TD*%
D10*
%TO.C,SW3*%
X66992500Y-100012500D03*
D11*
X61912500Y-100012500D03*
D10*
X56832500Y-100012500D03*
D12*
X59372500Y-105092500D03*
X65722500Y-102552500D03*
%TD*%
D10*
%TO.C,SW46*%
X252730000Y-80962500D03*
D11*
X247650000Y-80962500D03*
D10*
X242570000Y-80962500D03*
D12*
X245110000Y-86042500D03*
X251460000Y-83502500D03*
%TD*%
D10*
%TO.C,SW15*%
X88423750Y-157162500D03*
D11*
X83343750Y-157162500D03*
D10*
X78263750Y-157162500D03*
D12*
X80803750Y-162242500D03*
X87153750Y-159702500D03*
%TD*%
D10*
%TO.C,SW11*%
X100330000Y-80962500D03*
D11*
X95250000Y-80962500D03*
D10*
X90170000Y-80962500D03*
D12*
X92710000Y-86042500D03*
X99060000Y-83502500D03*
%TD*%
D10*
%TO.C,SW82*%
X302736250Y-157162500D03*
D11*
X297656250Y-157162500D03*
D10*
X292576250Y-157162500D03*
D12*
X295116250Y-162242500D03*
X301466250Y-159702500D03*
%TD*%
D10*
%TO.C,SW27*%
X152717500Y-119062500D03*
D11*
X147637500Y-119062500D03*
D10*
X142557500Y-119062500D03*
D12*
X145097500Y-124142500D03*
X151447500Y-121602500D03*
%TD*%
D10*
%TO.C,SW35*%
X190817500Y-119062500D03*
D11*
X185737500Y-119062500D03*
D10*
X180657500Y-119062500D03*
D12*
X183197500Y-124142500D03*
X189547500Y-121602500D03*
%TD*%
D10*
%TO.C,SW19*%
X105092500Y-138112500D03*
D11*
X100012500Y-138112500D03*
D10*
X94932500Y-138112500D03*
D12*
X97472500Y-143192500D03*
X103822500Y-140652500D03*
%TD*%
D10*
%TO.C,SW67*%
X347980000Y-119062500D03*
D11*
X342900000Y-119062500D03*
D10*
X337820000Y-119062500D03*
D12*
X340360000Y-124142500D03*
X346710000Y-121602500D03*
%TD*%
D10*
%TO.C,SW44*%
X219392500Y-138112500D03*
D11*
X214312500Y-138112500D03*
D10*
X209232500Y-138112500D03*
D12*
X211772500Y-143192500D03*
X218122500Y-140652500D03*
%TD*%
D10*
%TO.C,SW53*%
X267017500Y-119062500D03*
D11*
X261937500Y-119062500D03*
D10*
X256857500Y-119062500D03*
D12*
X259397500Y-124142500D03*
X265747500Y-121602500D03*
%TD*%
D10*
%TO.C,SW77*%
X221773750Y-157162500D03*
D11*
X216693750Y-157162500D03*
D10*
X211613750Y-157162500D03*
D12*
X214153750Y-162242500D03*
X220503750Y-159702500D03*
%TD*%
D10*
%TO.C,SW63*%
X312261250Y-138112500D03*
D11*
X307181250Y-138112500D03*
D10*
X302101250Y-138112500D03*
D12*
X304641250Y-143192500D03*
X310991250Y-140652500D03*
%TD*%
D13*
%TO.C,REF\u002A\u002A*%
X157156250Y-164147500D03*
D14*
X157156250Y-148907500D03*
D13*
X133356250Y-164147500D03*
D14*
X133356250Y-148907500D03*
%TD*%
D10*
%TO.C,SW2*%
X62230000Y-80962500D03*
D11*
X57150000Y-80962500D03*
D10*
X52070000Y-80962500D03*
D12*
X54610000Y-86042500D03*
X60960000Y-83502500D03*
%TD*%
D10*
%TO.C,SW32*%
X162242500Y-138112500D03*
D11*
X157162500Y-138112500D03*
D10*
X152082500Y-138112500D03*
D12*
X154622500Y-143192500D03*
X160972500Y-140652500D03*
%TD*%
D10*
%TO.C,SW5*%
X74136250Y-138112500D03*
D11*
X69056250Y-138112500D03*
D10*
X63976250Y-138112500D03*
D12*
X66516250Y-143192500D03*
X72866250Y-140652500D03*
%TD*%
D10*
%TO.C,SW62*%
X317023750Y-119062500D03*
D11*
X311943750Y-119062500D03*
D10*
X306863750Y-119062500D03*
D12*
X309403750Y-124142500D03*
X315753750Y-121602500D03*
%TD*%
D10*
%TO.C,SW13*%
X95567500Y-119062500D03*
D11*
X90487500Y-119062500D03*
D10*
X85407500Y-119062500D03*
D12*
X87947500Y-124142500D03*
X94297500Y-121602500D03*
%TD*%
D10*
%TO.C,SW70*%
X319405000Y-80962500D03*
D11*
X314325000Y-80962500D03*
D10*
X309245000Y-80962500D03*
D12*
X311785000Y-86042500D03*
X318135000Y-83502500D03*
%TD*%
D10*
%TO.C,SW69*%
X347980000Y-138112500D03*
D11*
X342900000Y-138112500D03*
D10*
X337820000Y-138112500D03*
D12*
X340360000Y-143192500D03*
X346710000Y-140652500D03*
%TD*%
D10*
%TO.C,SW71*%
X328930000Y-100012500D03*
D11*
X323850000Y-100012500D03*
D10*
X318770000Y-100012500D03*
D12*
X321310000Y-105092500D03*
X327660000Y-102552500D03*
%TD*%
D10*
%TO.C,SW24*%
X183673750Y-157162500D03*
D11*
X178593750Y-157162500D03*
D10*
X173513750Y-157162500D03*
D12*
X176053750Y-162242500D03*
X182403750Y-159702500D03*
%TD*%
D10*
%TO.C,SW66*%
X347980000Y-100012500D03*
D11*
X342900000Y-100012500D03*
D10*
X337820000Y-100012500D03*
D12*
X340360000Y-105092500D03*
X346710000Y-102552500D03*
%TD*%
D10*
%TO.C,SW34*%
X205105000Y-100012500D03*
D11*
X200025000Y-100012500D03*
D10*
X194945000Y-100012500D03*
D12*
X197485000Y-105092500D03*
X203835000Y-102552500D03*
%TD*%
D10*
%TO.C,SW9*%
X69373750Y-119062500D03*
D11*
X64293750Y-119062500D03*
D10*
X59213750Y-119062500D03*
D12*
X61753750Y-124142500D03*
X68103750Y-121602500D03*
%TD*%
D15*
%TO.C,J5*%
X368750000Y-105500000D03*
D16*
X368750000Y-108040000D03*
X368750000Y-110580000D03*
X368750000Y-113120000D03*
%TD*%
D17*
%TO.C,J2*%
X354297500Y-77040000D03*
X360077500Y-77040000D03*
D18*
X352867500Y-73390000D03*
D19*
X352867500Y-77570000D03*
D18*
X361507500Y-73390000D03*
D19*
X361507500Y-77570000D03*
%TD*%
M02*
