0
SECTION
2
HEADER
9
$INSUNITS
70
4
0
ENDSEC
0
SECTION
2
TABLES
0
TABLE
2
LTYPE
0
LTYPE
72
65
70
64
2
CONTINUOUS
3
______
73
0
40
0
0
ENDTAB
0
TABLE
2
LAYER
0
ENDTAB
0
ENDSEC
0
SECTION
2
ENTITIES
0
LINE
8
0
10
3.025
20
-2.525
11
16.025
21
-2.525
0
LINE
8
0
10
3.025
20
-16.525
11
16.025
21
-16.525
0
LINE
8
0
10
2.525
20
-3.025
11
2.525
21
-16.025
0
LINE
8
0
10
16.525
20
-3.025
11
16.525
21
-16.025
0
ARC
8
0
10
3.025
20
-3.025
40
0.5
50
90
51
180
0
ARC
8
0
10
16.025
20
-3.025
40
0.5
50
0
51
90
0
ARC
8
0
10
3.025
20
-16.025
40
0.5
50
180
51
270
0
ARC
8
0
10
16.025
20
-16.025
40
0.5
50
270
51
0
0
LINE
8
0
10
22.075
20
-2.525
11
35.075
21
-2.525
0
LINE
8
0
10
22.075
20
-16.525
11
35.075
21
-16.525
0
LINE
8
0
10
21.575
20
-3.025
11
21.575
21
-16.025
0
LINE
8
0
10
35.575
20
-3.025
11
35.575
21
-16.025
0
ARC
8
0
10
22.075
20
-3.025
40
0.5
50
90
51
180
0
ARC
8
0
10
35.075
20
-3.025
40
0.5
50
0
51
90
0
ARC
8
0
10
22.075
20
-16.025
40
0.5
50
180
51
270
0
ARC
8
0
10
35.075
20
-16.025
40
0.5
50
270
51
0
0
LINE
8
0
10
41.125
20
-2.525
11
54.125
21
-2.525
0
LINE
8
0
10
41.125
20
-16.525
11
54.125
21
-16.525
0
LINE
8
0
10
40.625
20
-3.025
11
40.625
21
-16.025
0
LINE
8
0
10
54.625
20
-3.025
11
54.625
21
-16.025
0
ARC
8
0
10
41.125
20
-3.025
40
0.5
50
90
51
180
0
ARC
8
0
10
54.125
20
-3.025
40
0.5
50
0
51
90
0
ARC
8
0
10
41.125
20
-16.025
40
0.5
50
180
51
270
0
ARC
8
0
10
54.125
20
-16.025
40
0.5
50
270
51
0
0
LINE
8
0
10
60.175
20
-2.525
11
73.175
21
-2.525
0
LINE
8
0
10
60.175
20
-16.525
11
73.175
21
-16.525
0
LINE
8
0
10
59.675
20
-3.025
11
59.675
21
-16.025
0
LINE
8
0
10
73.675
20
-3.025
11
73.675
21
-16.025
0
ARC
8
0
10
60.175
20
-3.025
40
0.5
50
90
51
180
0
ARC
8
0
10
73.175
20
-3.025
40
0.5
50
0
51
90
0
ARC
8
0
10
60.175
20
-16.025
40
0.5
50
180
51
270
0
ARC
8
0
10
73.175
20
-16.025
40
0.5
50
270
51
0
0
LINE
8
0
10
79.225
20
-2.525
11
92.225
21
-2.525
0
LINE
8
0
10
79.225
20
-16.525
11
92.225
21
-16.525
0
LINE
8
0
10
78.725
20
-3.025
11
78.725
21
-16.025
0
LINE
8
0
10
92.725
20
-3.025
11
92.725
21
-16.025
0
ARC
8
0
10
79.225
20
-3.025
40
0.5
50
90
51
180
0
ARC
8
0
10
92.225
20
-3.025
40
0.5
50
0
51
90
0
ARC
8
0
10
79.225
20
-16.025
40
0.5
50
180
51
270
0
ARC
8
0
10
92.225
20
-16.025
40
0.5
50
270
51
0
0
LINE
8
0
10
98.275
20
-2.525
11
111.275
21
-2.525
0
LINE
8
0
10
98.275
20
-16.525
11
111.275
21
-16.525
0
LINE
8
0
10
97.775
20
-3.025
11
97.775
21
-16.025
0
LINE
8
0
10
111.775
20
-3.025
11
111.775
21
-16.025
0
ARC
8
0
10
98.275
20
-3.025
40
0.5
50
90
51
180
0
ARC
8
0
10
111.275
20
-3.025
40
0.5
50
0
51
90
0
ARC
8
0
10
98.275
20
-16.025
40
0.5
50
180
51
270
0
ARC
8
0
10
111.275
20
-16.025
40
0.5
50
270
51
0
0
LINE
8
0
10
117.325
20
-2.525
11
130.325
21
-2.525
0
LINE
8
0
10
117.325
20
-16.525
11
130.325
21
-16.525
0
LINE
8
0
10
116.825
20
-3.025
11
116.825
21
-16.025
0
LINE
8
0
10
130.825
20
-3.025
11
130.825
21
-16.025
0
ARC
8
0
10
117.325
20
-3.025
40
0.5
50
90
51
180
0
ARC
8
0
10
130.325
20
-3.025
40
0.5
50
0
51
90
0
ARC
8
0
10
117.325
20
-16.025
40
0.5
50
180
51
270
0
ARC
8
0
10
130.325
20
-16.025
40
0.5
50
270
51
0
0
LINE
8
0
10
136.375
20
-2.525
11
149.375
21
-2.525
0
LINE
8
0
10
136.375
20
-16.525
11
149.375
21
-16.525
0
LINE
8
0
10
135.875
20
-3.025
11
135.875
21
-16.025
0
LINE
8
0
10
149.875
20
-3.025
11
149.875
21
-16.025
0
ARC
8
0
10
136.375
20
-3.025
40
0.5
50
90
51
180
0
ARC
8
0
10
149.375
20
-3.025
40
0.5
50
0
51
90
0
ARC
8
0
10
136.375
20
-16.025
40
0.5
50
180
51
270
0
ARC
8
0
10
149.375
20
-16.025
40
0.5
50
270
51
0
0
LINE
8
0
10
155.425
20
-2.525
11
168.425
21
-2.525
0
LINE
8
0
10
155.425
20
-16.525
11
168.425
21
-16.525
0
LINE
8
0
10
154.925
20
-3.025
11
154.925
21
-16.025
0
LINE
8
0
10
168.925
20
-3.025
11
168.925
21
-16.025
0
ARC
8
0
10
155.425
20
-3.025
40
0.5
50
90
51
180
0
ARC
8
0
10
168.425
20
-3.025
40
0.5
50
0
51
90
0
ARC
8
0
10
155.425
20
-16.025
40
0.5
50
180
51
270
0
ARC
8
0
10
168.425
20
-16.025
40
0.5
50
270
51
0
0
LINE
8
0
10
174.475
20
-2.525
11
187.475
21
-2.525
0
LINE
8
0
10
174.475
20
-16.525
11
187.475
21
-16.525
0
LINE
8
0
10
173.975
20
-3.025
11
173.975
21
-16.025
0
LINE
8
0
10
187.975
20
-3.025
11
187.975
21
-16.025
0
ARC
8
0
10
174.475
20
-3.025
40
0.5
50
90
51
180
0
ARC
8
0
10
187.475
20
-3.025
40
0.5
50
0
51
90
0
ARC
8
0
10
174.475
20
-16.025
40
0.5
50
180
51
270
0
ARC
8
0
10
187.475
20
-16.025
40
0.5
50
270
51
0
0
LINE
8
0
10
193.525
20
-2.525
11
206.525
21
-2.525
0
LINE
8
0
10
193.525
20
-16.525
11
206.525
21
-16.525
0
LINE
8
0
10
193.025
20
-3.025
11
193.025
21
-16.025
0
LINE
8
0
10
207.025
20
-3.025
11
207.025
21
-16.025
0
ARC
8
0
10
193.525
20
-3.025
40
0.5
50
90
51
180
0
ARC
8
0
10
206.525
20
-3.025
40
0.5
50
0
51
90
0
ARC
8
0
10
193.525
20
-16.025
40
0.5
50
180
51
270
0
ARC
8
0
10
206.525
20
-16.025
40
0.5
50
270
51
0
0
LINE
8
0
10
212.575
20
-2.525
11
225.575
21
-2.525
0
LINE
8
0
10
212.575
20
-16.525
11
225.575
21
-16.525
0
LINE
8
0
10
212.075
20
-3.025
11
212.075
21
-16.025
0
LINE
8
0
10
226.075
20
-3.025
11
226.075
21
-16.025
0
ARC
8
0
10
212.575
20
-3.025
40
0.5
50
90
51
180
0
ARC
8
0
10
225.575
20
-3.025
40
0.5
50
0
51
90
0
ARC
8
0
10
212.575
20
-16.025
40
0.5
50
180
51
270
0
ARC
8
0
10
225.575
20
-16.025
40
0.5
50
270
51
0
0
LINE
8
0
10
231.625
20
-2.525
11
244.625
21
-2.525
0
LINE
8
0
10
231.625
20
-16.525
11
244.625
21
-16.525
0
LINE
8
0
10
231.125
20
-3.025
11
231.125
21
-16.025
0
LINE
8
0
10
245.125
20
-3.025
11
245.125
21
-16.025
0
ARC
8
0
10
231.625
20
-3.025
40
0.5
50
90
51
180
0
ARC
8
0
10
244.625
20
-3.025
40
0.5
50
0
51
90
0
ARC
8
0
10
231.625
20
-16.025
40
0.5
50
180
51
270
0
ARC
8
0
10
244.625
20
-16.025
40
0.5
50
270
51
0
0
LINE
8
0
10
260.2
20
-2.525
11
273.2
21
-2.525
0
LINE
8
0
10
260.2
20
-16.525
11
273.2
21
-16.525
0
LINE
8
0
10
259.7
20
-3.025
11
259.7
21
-16.025
0
LINE
8
0
10
273.7
20
-3.025
11
273.7
21
-16.025
0
ARC
8
0
10
260.2
20
-3.025
40
0.5
50
90
51
180
0
ARC
8
0
10
273.2
20
-3.025
40
0.5
50
0
51
90
0
ARC
8
0
10
260.2
20
-16.025
40
0.5
50
180
51
270
0
ARC
8
0
10
273.2
20
-16.025
40
0.5
50
270
51
0
0
LINE
8
0
10
251.762
20
-3.525
11
257.762
21
-3.525
0
LINE
8
0
10
251.762
20
-18.525
11
257.762
21
-18.525
0
LINE
8
0
10
251.262
20
-4.025
11
251.262
21
-18.025
0
LINE
8
0
10
258.262
20
-4.025
11
258.262
21
-18.025
0
ARC
8
0
10
251.762
20
-4.025
40
0.5
50
90
51
180
0
ARC
8
0
10
257.762
20
-4.025
40
0.5
50
0
51
90
0
ARC
8
0
10
251.762
20
-18.025
40
0.5
50
180
51
270
0
ARC
8
0
10
257.762
20
-18.025
40
0.5
50
270
51
0
0
LINE
8
0
10
275.638
20
-3.525
11
281.638
21
-3.525
0
LINE
8
0
10
275.638
20
-18.525
11
281.638
21
-18.525
0
LINE
8
0
10
275.138
20
-4.025
11
275.138
21
-18.025
0
LINE
8
0
10
282.138
20
-4.025
11
282.138
21
-18.025
0
ARC
8
0
10
275.638
20
-4.025
40
0.5
50
90
51
180
0
ARC
8
0
10
281.638
20
-4.025
40
0.5
50
0
51
90
0
ARC
8
0
10
275.638
20
-18.025
40
0.5
50
180
51
270
0
ARC
8
0
10
281.638
20
-18.025
40
0.5
50
270
51
0
0
LINE
8
0
10
288.775
20
-2.525
11
301.775
21
-2.525
0
LINE
8
0
10
288.775
20
-16.525
11
301.775
21
-16.525
0
LINE
8
0
10
288.275
20
-3.025
11
288.275
21
-16.025
0
LINE
8
0
10
302.275
20
-3.025
11
302.275
21
-16.025
0
ARC
8
0
10
288.775
20
-3.025
40
0.5
50
90
51
180
0
ARC
8
0
10
301.775
20
-3.025
40
0.5
50
0
51
90
0
ARC
8
0
10
288.775
20
-16.025
40
0.5
50
180
51
270
0
ARC
8
0
10
301.775
20
-16.025
40
0.5
50
270
51
0
0
LINE
8
0
10
7.7875
20
-21.575
11
20.7875
21
-21.575
0
LINE
8
0
10
7.7875
20
-35.575
11
20.7875
21
-35.575
0
LINE
8
0
10
7.2875
20
-22.075
11
7.2875
21
-35.075
0
LINE
8
0
10
21.2875
20
-22.075
11
21.2875
21
-35.075
0
ARC
8
0
10
7.7875
20
-22.075
40
0.5
50
90
51
180
0
ARC
8
0
10
20.7875
20
-22.075
40
0.5
50
0
51
90
0
ARC
8
0
10
7.7875
20
-35.075
40
0.5
50
180
51
270
0
ARC
8
0
10
20.7875
20
-35.075
40
0.5
50
270
51
0
0
LINE
8
0
10
31.6
20
-21.575
11
44.6
21
-21.575
0
LINE
8
0
10
31.6
20
-35.575
11
44.6
21
-35.575
0
LINE
8
0
10
31.1
20
-22.075
11
31.1
21
-35.075
0
LINE
8
0
10
45.1
20
-22.075
11
45.1
21
-35.075
0
ARC
8
0
10
31.6
20
-22.075
40
0.5
50
90
51
180
0
ARC
8
0
10
44.6
20
-22.075
40
0.5
50
0
51
90
0
ARC
8
0
10
31.6
20
-35.075
40
0.5
50
180
51
270
0
ARC
8
0
10
44.6
20
-35.075
40
0.5
50
270
51
0
0
LINE
8
0
10
50.65
20
-21.575
11
63.65
21
-21.575
0
LINE
8
0
10
50.65
20
-35.575
11
63.65
21
-35.575
0
LINE
8
0
10
50.15
20
-22.075
11
50.15
21
-35.075
0
LINE
8
0
10
64.15
20
-22.075
11
64.15
21
-35.075
0
ARC
8
0
10
50.65
20
-22.075
40
0.5
50
90
51
180
0
ARC
8
0
10
63.65
20
-22.075
40
0.5
50
0
51
90
0
ARC
8
0
10
50.65
20
-35.075
40
0.5
50
180
51
270
0
ARC
8
0
10
63.65
20
-35.075
40
0.5
50
270
51
0
0
LINE
8
0
10
69.7
20
-21.575
11
82.7
21
-21.575
0
LINE
8
0
10
69.7
20
-35.575
11
82.7
21
-35.575
0
LINE
8
0
10
69.2
20
-22.075
11
69.2
21
-35.075
0
LINE
8
0
10
83.2
20
-22.075
11
83.2
21
-35.075
0
ARC
8
0
10
69.7
20
-22.075
40
0.5
50
90
51
180
0
ARC
8
0
10
82.7
20
-22.075
40
0.5
50
0
51
90
0
ARC
8
0
10
69.7
20
-35.075
40
0.5
50
180
51
270
0
ARC
8
0
10
82.7
20
-35.075
40
0.5
50
270
51
0
0
LINE
8
0
10
88.75
20
-21.575
11
101.75
21
-21.575
0
LINE
8
0
10
88.75
20
-35.575
11
101.75
21
-35.575
0
LINE
8
0
10
88.25
20
-22.075
11
88.25
21
-35.075
0
LINE
8
0
10
102.25
20
-22.075
11
102.25
21
-35.075
0
ARC
8
0
10
88.75
20
-22.075
40
0.5
50
90
51
180
0
ARC
8
0
10
101.75
20
-22.075
40
0.5
50
0
51
90
0
ARC
8
0
10
88.75
20
-35.075
40
0.5
50
180
51
270
0
ARC
8
0
10
101.75
20
-35.075
40
0.5
50
270
51
0
0
LINE
8
0
10
107.8
20
-21.575
11
120.8
21
-21.575
0
LINE
8
0
10
107.8
20
-35.575
11
120.8
21
-35.575
0
LINE
8
0
10
107.3
20
-22.075
11
107.3
21
-35.075
0
LINE
8
0
10
121.3
20
-22.075
11
121.3
21
-35.075
0
ARC
8
0
10
107.8
20
-22.075
40
0.5
50
90
51
180
0
ARC
8
0
10
120.8
20
-22.075
40
0.5
50
0
51
90
0
ARC
8
0
10
107.8
20
-35.075
40
0.5
50
180
51
270
0
ARC
8
0
10
120.8
20
-35.075
40
0.5
50
270
51
0
0
LINE
8
0
10
126.85
20
-21.575
11
139.85
21
-21.575
0
LINE
8
0
10
126.85
20
-35.575
11
139.85
21
-35.575
0
LINE
8
0
10
126.35
20
-22.075
11
126.35
21
-35.075
0
LINE
8
0
10
140.35
20
-22.075
11
140.35
21
-35.075
0
ARC
8
0
10
126.85
20
-22.075
40
0.5
50
90
51
180
0
ARC
8
0
10
139.85
20
-22.075
40
0.5
50
0
51
90
0
ARC
8
0
10
126.85
20
-35.075
40
0.5
50
180
51
270
0
ARC
8
0
10
139.85
20
-35.075
40
0.5
50
270
51
0
0
LINE
8
0
10
145.9
20
-21.575
11
158.9
21
-21.575
0
LINE
8
0
10
145.9
20
-35.575
11
158.9
21
-35.575
0
LINE
8
0
10
145.4
20
-22.075
11
145.4
21
-35.075
0
LINE
8
0
10
159.4
20
-22.075
11
159.4
21
-35.075
0
ARC
8
0
10
145.9
20
-22.075
40
0.5
50
90
51
180
0
ARC
8
0
10
158.9
20
-22.075
40
0.5
50
0
51
90
0
ARC
8
0
10
145.9
20
-35.075
40
0.5
50
180
51
270
0
ARC
8
0
10
158.9
20
-35.075
40
0.5
50
270
51
0
0
LINE
8
0
10
164.95
20
-21.575
11
177.95
21
-21.575
0
LINE
8
0
10
164.95
20
-35.575
11
177.95
21
-35.575
0
LINE
8
0
10
164.45
20
-22.075
11
164.45
21
-35.075
0
LINE
8
0
10
178.45
20
-22.075
11
178.45
21
-35.075
0
ARC
8
0
10
164.95
20
-22.075
40
0.5
50
90
51
180
0
ARC
8
0
10
177.95
20
-22.075
40
0.5
50
0
51
90
0
ARC
8
0
10
164.95
20
-35.075
40
0.5
50
180
51
270
0
ARC
8
0
10
177.95
20
-35.075
40
0.5
50
270
51
0
0
LINE
8
0
10
184
20
-21.575
11
197
21
-21.575
0
LINE
8
0
10
184
20
-35.575
11
197
21
-35.575
0
LINE
8
0
10
183.5
20
-22.075
11
183.5
21
-35.075
0
LINE
8
0
10
197.5
20
-22.075
11
197.5
21
-35.075
0
ARC
8
0
10
184
20
-22.075
40
0.5
50
90
51
180
0
ARC
8
0
10
197
20
-22.075
40
0.5
50
0
51
90
0
ARC
8
0
10
184
20
-35.075
40
0.5
50
180
51
270
0
ARC
8
0
10
197
20
-35.075
40
0.5
50
270
51
0
0
LINE
8
0
10
203.05
20
-21.575
11
216.05
21
-21.575
0
LINE
8
0
10
203.05
20
-35.575
11
216.05
21
-35.575
0
LINE
8
0
10
202.55
20
-22.075
11
202.55
21
-35.075
0
LINE
8
0
10
216.55
20
-22.075
11
216.55
21
-35.075
0
ARC
8
0
10
203.05
20
-22.075
40
0.5
50
90
51
180
0
ARC
8
0
10
216.05
20
-22.075
40
0.5
50
0
51
90
0
ARC
8
0
10
203.05
20
-35.075
40
0.5
50
180
51
270
0
ARC
8
0
10
216.05
20
-35.075
40
0.5
50
270
51
0
0
LINE
8
0
10
224.48125
20
-21.575
11
237.48125
21
-21.575
0
LINE
8
0
10
224.48125
20
-35.575
11
237.48125
21
-35.575
0
LINE
8
0
10
223.98125
20
-22.075
11
223.98125
21
-35.075
0
LINE
8
0
10
237.98125
20
-22.075
11
237.98125
21
-35.075
0
ARC
8
0
10
224.48125
20
-22.075
40
0.5
50
90
51
180
0
ARC
8
0
10
237.48125
20
-22.075
40
0.5
50
0
51
90
0
ARC
8
0
10
224.48125
20
-35.075
40
0.5
50
180
51
270
0
ARC
8
0
10
237.48125
20
-35.075
40
0.5
50
270
51
0
0
LINE
8
0
10
248.29375
20
-21.575
11
261.29375
21
-21.575
0
LINE
8
0
10
248.29375
20
-35.575
11
261.29375
21
-35.575
0
LINE
8
0
10
247.79375
20
-22.075
11
247.79375
21
-35.075
0
LINE
8
0
10
261.79375
20
-22.075
11
261.79375
21
-35.075
0
ARC
8
0
10
248.29375
20
-22.075
40
0.5
50
90
51
180
0
ARC
8
0
10
261.29375
20
-22.075
40
0.5
50
0
51
90
0
ARC
8
0
10
248.29375
20
-35.075
40
0.5
50
180
51
270
0
ARC
8
0
10
261.29375
20
-35.075
40
0.5
50
270
51
0
0
LINE
8
0
10
269.725
20
-21.575
11
282.725
21
-21.575
0
LINE
8
0
10
269.725
20
-35.575
11
282.725
21
-35.575
0
LINE
8
0
10
269.225
20
-22.075
11
269.225
21
-35.075
0
LINE
8
0
10
283.225
20
-22.075
11
283.225
21
-35.075
0
ARC
8
0
10
269.725
20
-22.075
40
0.5
50
90
51
180
0
ARC
8
0
10
282.725
20
-22.075
40
0.5
50
0
51
90
0
ARC
8
0
10
269.725
20
-35.075
40
0.5
50
180
51
270
0
ARC
8
0
10
282.725
20
-35.075
40
0.5
50
270
51
0
0
LINE
8
0
10
288.775
20
-21.575
11
301.775
21
-21.575
0
LINE
8
0
10
288.775
20
-35.575
11
301.775
21
-35.575
0
LINE
8
0
10
288.275
20
-22.075
11
288.275
21
-35.075
0
LINE
8
0
10
302.275
20
-22.075
11
302.275
21
-35.075
0
ARC
8
0
10
288.775
20
-22.075
40
0.5
50
90
51
180
0
ARC
8
0
10
301.775
20
-22.075
40
0.5
50
0
51
90
0
ARC
8
0
10
288.775
20
-35.075
40
0.5
50
180
51
270
0
ARC
8
0
10
301.775
20
-35.075
40
0.5
50
270
51
0
0
LINE
8
0
10
10.16875
20
-40.625
11
23.16875
21
-40.625
0
LINE
8
0
10
10.16875
20
-54.625
11
23.16875
21
-54.625
0
LINE
8
0
10
9.66875
20
-41.125
11
9.66875
21
-54.125
0
LINE
8
0
10
23.66875
20
-41.125
11
23.66875
21
-54.125
0
ARC
8
0
10
10.16875
20
-41.125
40
0.5
50
90
51
180
0
ARC
8
0
10
23.16875
20
-41.125
40
0.5
50
0
51
90
0
ARC
8
0
10
10.16875
20
-54.125
40
0.5
50
180
51
270
0
ARC
8
0
10
23.16875
20
-54.125
40
0.5
50
270
51
0
0
LINE
8
0
10
36.3625
20
-40.625
11
49.3625
21
-40.625
0
LINE
8
0
10
36.3625
20
-54.625
11
49.3625
21
-54.625
0
LINE
8
0
10
35.8625
20
-41.125
11
35.8625
21
-54.125
0
LINE
8
0
10
49.8625
20
-41.125
11
49.8625
21
-54.125
0
ARC
8
0
10
36.3625
20
-41.125
40
0.5
50
90
51
180
0
ARC
8
0
10
49.3625
20
-41.125
40
0.5
50
0
51
90
0
ARC
8
0
10
36.3625
20
-54.125
40
0.5
50
180
51
270
0
ARC
8
0
10
49.3625
20
-54.125
40
0.5
50
270
51
0
0
LINE
8
0
10
55.4125
20
-40.625
11
68.4125
21
-40.625
0
LINE
8
0
10
55.4125
20
-54.625
11
68.4125
21
-54.625
0
LINE
8
0
10
54.9125
20
-41.125
11
54.9125
21
-54.125
0
LINE
8
0
10
68.9125
20
-41.125
11
68.9125
21
-54.125
0
ARC
8
0
10
55.4125
20
-41.125
40
0.5
50
90
51
180
0
ARC
8
0
10
68.4125
20
-41.125
40
0.5
50
0
51
90
0
ARC
8
0
10
55.4125
20
-54.125
40
0.5
50
180
51
270
0
ARC
8
0
10
68.4125
20
-54.125
40
0.5
50
270
51
0
0
LINE
8
0
10
74.4625
20
-40.625
11
87.4625
21
-40.625
0
LINE
8
0
10
74.4625
20
-54.625
11
87.4625
21
-54.625
0
LINE
8
0
10
73.9625
20
-41.125
11
73.9625
21
-54.125
0
LINE
8
0
10
87.9625
20
-41.125
11
87.9625
21
-54.125
0
ARC
8
0
10
74.4625
20
-41.125
40
0.5
50
90
51
180
0
ARC
8
0
10
87.4625
20
-41.125
40
0.5
50
0
51
90
0
ARC
8
0
10
74.4625
20
-54.125
40
0.5
50
180
51
270
0
ARC
8
0
10
87.4625
20
-54.125
40
0.5
50
270
51
0
0
LINE
8
0
10
93.5125
20
-40.625
11
106.5125
21
-40.625
0
LINE
8
0
10
93.5125
20
-54.625
11
106.5125
21
-54.625
0
LINE
8
0
10
93.0125
20
-41.125
11
93.0125
21
-54.125
0
LINE
8
0
10
107.0125
20
-41.125
11
107.0125
21
-54.125
0
ARC
8
0
10
93.5125
20
-41.125
40
0.5
50
90
51
180
0
ARC
8
0
10
106.5125
20
-41.125
40
0.5
50
0
51
90
0
ARC
8
0
10
93.5125
20
-54.125
40
0.5
50
180
51
270
0
ARC
8
0
10
106.5125
20
-54.125
40
0.5
50
270
51
0
0
LINE
8
0
10
112.5625
20
-40.625
11
125.5625
21
-40.625
0
LINE
8
0
10
112.5625
20
-54.625
11
125.5625
21
-54.625
0
LINE
8
0
10
112.0625
20
-41.125
11
112.0625
21
-54.125
0
LINE
8
0
10
126.0625
20
-41.125
11
126.0625
21
-54.125
0
ARC
8
0
10
112.5625
20
-41.125
40
0.5
50
90
51
180
0
ARC
8
0
10
125.5625
20
-41.125
40
0.5
50
0
51
90
0
ARC
8
0
10
112.5625
20
-54.125
40
0.5
50
180
51
270
0
ARC
8
0
10
125.5625
20
-54.125
40
0.5
50
270
51
0
0
LINE
8
0
10
131.6125
20
-40.625
11
144.6125
21
-40.625
0
LINE
8
0
10
131.6125
20
-54.625
11
144.6125
21
-54.625
0
LINE
8
0
10
131.1125
20
-41.125
11
131.1125
21
-54.125
0
LINE
8
0
10
145.1125
20
-41.125
11
145.1125
21
-54.125
0
ARC
8
0
10
131.6125
20
-41.125
40
0.5
50
90
51
180
0
ARC
8
0
10
144.6125
20
-41.125
40
0.5
50
0
51
90
0
ARC
8
0
10
131.6125
20
-54.125
40
0.5
50
180
51
270
0
ARC
8
0
10
144.6125
20
-54.125
40
0.5
50
270
51
0
0
LINE
8
0
10
150.6625
20
-40.625
11
163.6625
21
-40.625
0
LINE
8
0
10
150.6625
20
-54.625
11
163.6625
21
-54.625
0
LINE
8
0
10
150.1625
20
-41.125
11
150.1625
21
-54.125
0
LINE
8
0
10
164.1625
20
-41.125
11
164.1625
21
-54.125
0
ARC
8
0
10
150.6625
20
-41.125
40
0.5
50
90
51
180
0
ARC
8
0
10
163.6625
20
-41.125
40
0.5
50
0
51
90
0
ARC
8
0
10
150.6625
20
-54.125
40
0.5
50
180
51
270
0
ARC
8
0
10
163.6625
20
-54.125
40
0.5
50
270
51
0
0
LINE
8
0
10
169.7125
20
-40.625
11
182.7125
21
-40.625
0
LINE
8
0
10
169.7125
20
-54.625
11
182.7125
21
-54.625
0
LINE
8
0
10
169.2125
20
-41.125
11
169.2125
21
-54.125
0
LINE
8
0
10
183.2125
20
-41.125
11
183.2125
21
-54.125
0
ARC
8
0
10
169.7125
20
-41.125
40
0.5
50
90
51
180
0
ARC
8
0
10
182.7125
20
-41.125
40
0.5
50
0
51
90
0
ARC
8
0
10
169.7125
20
-54.125
40
0.5
50
180
51
270
0
ARC
8
0
10
182.7125
20
-54.125
40
0.5
50
270
51
0
0
LINE
8
0
10
188.7625
20
-40.625
11
201.7625
21
-40.625
0
LINE
8
0
10
188.7625
20
-54.625
11
201.7625
21
-54.625
0
LINE
8
0
10
188.2625
20
-41.125
11
188.2625
21
-54.125
0
LINE
8
0
10
202.2625
20
-41.125
11
202.2625
21
-54.125
0
ARC
8
0
10
188.7625
20
-41.125
40
0.5
50
90
51
180
0
ARC
8
0
10
201.7625
20
-41.125
40
0.5
50
0
51
90
0
ARC
8
0
10
188.7625
20
-54.125
40
0.5
50
180
51
270
0
ARC
8
0
10
201.7625
20
-54.125
40
0.5
50
270
51
0
0
LINE
8
0
10
207.8125
20
-40.625
11
220.8125
21
-40.625
0
LINE
8
0
10
207.8125
20
-54.625
11
220.8125
21
-54.625
0
LINE
8
0
10
207.3125
20
-41.125
11
207.3125
21
-54.125
0
LINE
8
0
10
221.3125
20
-41.125
11
221.3125
21
-54.125
0
ARC
8
0
10
207.8125
20
-41.125
40
0.5
50
90
51
180
0
ARC
8
0
10
220.8125
20
-41.125
40
0.5
50
0
51
90
0
ARC
8
0
10
207.8125
20
-54.125
40
0.5
50
180
51
270
0
ARC
8
0
10
220.8125
20
-54.125
40
0.5
50
270
51
0
0
LINE
8
0
10
226.8625
20
-40.625
11
239.8625
21
-40.625
0
LINE
8
0
10
226.8625
20
-54.625
11
239.8625
21
-54.625
0
LINE
8
0
10
226.3625
20
-41.125
11
226.3625
21
-54.125
0
LINE
8
0
10
240.3625
20
-41.125
11
240.3625
21
-54.125
0
ARC
8
0
10
226.8625
20
-41.125
40
0.5
50
90
51
180
0
ARC
8
0
10
239.8625
20
-41.125
40
0.5
50
0
51
90
0
ARC
8
0
10
226.8625
20
-54.125
40
0.5
50
180
51
270
0
ARC
8
0
10
239.8625
20
-54.125
40
0.5
50
270
51
0
0
LINE
8
0
10
257.81875
20
-40.625
11
270.81875
21
-40.625
0
LINE
8
0
10
257.81875
20
-54.625
11
270.81875
21
-54.625
0
LINE
8
0
10
257.31875
20
-41.125
11
257.31875
21
-54.125
0
LINE
8
0
10
271.31875
20
-41.125
11
271.31875
21
-54.125
0
ARC
8
0
10
257.81875
20
-41.125
40
0.5
50
90
51
180
0
ARC
8
0
10
270.81875
20
-41.125
40
0.5
50
0
51
90
0
ARC
8
0
10
257.81875
20
-54.125
40
0.5
50
180
51
270
0
ARC
8
0
10
270.81875
20
-54.125
40
0.5
50
270
51
0
0
LINE
8
0
10
249.38075
20
-41.625
11
255.38075
21
-41.625
0
LINE
8
0
10
249.38075
20
-56.625
11
255.38075
21
-56.625
0
LINE
8
0
10
248.88075
20
-42.125
11
248.88075
21
-56.125
0
LINE
8
0
10
255.88075
20
-42.125
11
255.88075
21
-56.125
0
ARC
8
0
10
249.38075
20
-42.125
40
0.5
50
90
51
180
0
ARC
8
0
10
255.38075
20
-42.125
40
0.5
50
0
51
90
0
ARC
8
0
10
249.38075
20
-56.125
40
0.5
50
180
51
270
0
ARC
8
0
10
255.38075
20
-56.125
40
0.5
50
270
51
0
0
LINE
8
0
10
273.25675
20
-41.625
11
279.25675
21
-41.625
0
LINE
8
0
10
273.25675
20
-56.625
11
279.25675
21
-56.625
0
LINE
8
0
10
272.75675
20
-42.125
11
272.75675
21
-56.125
0
LINE
8
0
10
279.75675
20
-42.125
11
279.75675
21
-56.125
0
ARC
8
0
10
273.25675
20
-42.125
40
0.5
50
90
51
180
0
ARC
8
0
10
279.25675
20
-42.125
40
0.5
50
0
51
90
0
ARC
8
0
10
273.25675
20
-56.125
40
0.5
50
180
51
270
0
ARC
8
0
10
279.25675
20
-56.125
40
0.5
50
270
51
0
0
LINE
8
0
10
288.775
20
-40.625
11
301.775
21
-40.625
0
LINE
8
0
10
288.775
20
-54.625
11
301.775
21
-54.625
0
LINE
8
0
10
288.275
20
-41.125
11
288.275
21
-54.125
0
LINE
8
0
10
302.275
20
-41.125
11
302.275
21
-54.125
0
ARC
8
0
10
288.775
20
-41.125
40
0.5
50
90
51
180
0
ARC
8
0
10
301.775
20
-41.125
40
0.5
50
0
51
90
0
ARC
8
0
10
288.775
20
-54.125
40
0.5
50
180
51
270
0
ARC
8
0
10
301.775
20
-54.125
40
0.5
50
270
51
0
0
LINE
8
0
10
14.93125
20
-59.675
11
27.93125
21
-59.675
0
LINE
8
0
10
14.93125
20
-73.675
11
27.93125
21
-73.675
0
LINE
8
0
10
14.43125
20
-60.175
11
14.43125
21
-73.175
0
LINE
8
0
10
28.43125
20
-60.175
11
28.43125
21
-73.175
0
ARC
8
0
10
14.93125
20
-60.175
40
0.5
50
90
51
180
0
ARC
8
0
10
27.93125
20
-60.175
40
0.5
50
0
51
90
0
ARC
8
0
10
14.93125
20
-73.175
40
0.5
50
180
51
270
0
ARC
8
0
10
27.93125
20
-73.175
40
0.5
50
270
51
0
0
LINE
8
0
10
6.49325
20
-60.675
11
12.49325
21
-60.675
0
LINE
8
0
10
6.49325
20
-75.675
11
12.49325
21
-75.675
0
LINE
8
0
10
5.99325
20
-61.175
11
5.99325
21
-75.175
0
LINE
8
0
10
12.99325
20
-61.175
11
12.99325
21
-75.175
0
ARC
8
0
10
6.49325
20
-61.175
40
0.5
50
90
51
180
0
ARC
8
0
10
12.49325
20
-61.175
40
0.5
50
0
51
90
0
ARC
8
0
10
6.49325
20
-75.175
40
0.5
50
180
51
270
0
ARC
8
0
10
12.49325
20
-75.175
40
0.5
50
270
51
0
0
LINE
8
0
10
30.36925
20
-60.675
11
36.36925
21
-60.675
0
LINE
8
0
10
30.36925
20
-75.675
11
36.36925
21
-75.675
0
LINE
8
0
10
29.86925
20
-61.175
11
29.86925
21
-75.175
0
LINE
8
0
10
36.86925
20
-61.175
11
36.86925
21
-75.175
0
ARC
8
0
10
30.36925
20
-61.175
40
0.5
50
90
51
180
0
ARC
8
0
10
36.36925
20
-61.175
40
0.5
50
0
51
90
0
ARC
8
0
10
30.36925
20
-75.175
40
0.5
50
180
51
270
0
ARC
8
0
10
36.36925
20
-75.175
40
0.5
50
270
51
0
0
LINE
8
0
10
45.8875
20
-59.675
11
58.8875
21
-59.675
0
LINE
8
0
10
45.8875
20
-73.675
11
58.8875
21
-73.675
0
LINE
8
0
10
45.3875
20
-60.175
11
45.3875
21
-73.175
0
LINE
8
0
10
59.3875
20
-60.175
11
59.3875
21
-73.175
0
ARC
8
0
10
45.8875
20
-60.175
40
0.5
50
90
51
180
0
ARC
8
0
10
58.8875
20
-60.175
40
0.5
50
0
51
90
0
ARC
8
0
10
45.8875
20
-73.175
40
0.5
50
180
51
270
0
ARC
8
0
10
58.8875
20
-73.175
40
0.5
50
270
51
0
0
LINE
8
0
10
64.9375
20
-59.675
11
77.9375
21
-59.675
0
LINE
8
0
10
64.9375
20
-73.675
11
77.9375
21
-73.675
0
LINE
8
0
10
64.4375
20
-60.175
11
64.4375
21
-73.175
0
LINE
8
0
10
78.4375
20
-60.175
11
78.4375
21
-73.175
0
ARC
8
0
10
64.9375
20
-60.175
40
0.5
50
90
51
180
0
ARC
8
0
10
77.9375
20
-60.175
40
0.5
50
0
51
90
0
ARC
8
0
10
64.9375
20
-73.175
40
0.5
50
180
51
270
0
ARC
8
0
10
77.9375
20
-73.175
40
0.5
50
270
51
0
0
LINE
8
0
10
83.9875
20
-59.675
11
96.9875
21
-59.675
0
LINE
8
0
10
83.9875
20
-73.675
11
96.9875
21
-73.675
0
LINE
8
0
10
83.4875
20
-60.175
11
83.4875
21
-73.175
0
LINE
8
0
10
97.4875
20
-60.175
11
97.4875
21
-73.175
0
ARC
8
0
10
83.9875
20
-60.175
40
0.5
50
90
51
180
0
ARC
8
0
10
96.9875
20
-60.175
40
0.5
50
0
51
90
0
ARC
8
0
10
83.9875
20
-73.175
40
0.5
50
180
51
270
0
ARC
8
0
10
96.9875
20
-73.175
40
0.5
50
270
51
0
0
LINE
8
0
10
103.0375
20
-59.675
11
116.0375
21
-59.675
0
LINE
8
0
10
103.0375
20
-73.675
11
116.0375
21
-73.675
0
LINE
8
0
10
102.5375
20
-60.175
11
102.5375
21
-73.175
0
LINE
8
0
10
116.5375
20
-60.175
11
116.5375
21
-73.175
0
ARC
8
0
10
103.0375
20
-60.175
40
0.5
50
90
51
180
0
ARC
8
0
10
116.0375
20
-60.175
40
0.5
50
0
51
90
0
ARC
8
0
10
103.0375
20
-73.175
40
0.5
50
180
51
270
0
ARC
8
0
10
116.0375
20
-73.175
40
0.5
50
270
51
0
0
LINE
8
0
10
122.0875
20
-59.675
11
135.0875
21
-59.675
0
LINE
8
0
10
122.0875
20
-73.675
11
135.0875
21
-73.675
0
LINE
8
0
10
121.5875
20
-60.175
11
121.5875
21
-73.175
0
LINE
8
0
10
135.5875
20
-60.175
11
135.5875
21
-73.175
0
ARC
8
0
10
122.0875
20
-60.175
40
0.5
50
90
51
180
0
ARC
8
0
10
135.0875
20
-60.175
40
0.5
50
0
51
90
0
ARC
8
0
10
122.0875
20
-73.175
40
0.5
50
180
51
270
0
ARC
8
0
10
135.0875
20
-73.175
40
0.5
50
270
51
0
0
LINE
8
0
10
141.1375
20
-59.675
11
154.1375
21
-59.675
0
LINE
8
0
10
141.1375
20
-73.675
11
154.1375
21
-73.675
0
LINE
8
0
10
140.6375
20
-60.175
11
140.6375
21
-73.175
0
LINE
8
0
10
154.6375
20
-60.175
11
154.6375
21
-73.175
0
ARC
8
0
10
141.1375
20
-60.175
40
0.5
50
90
51
180
0
ARC
8
0
10
154.1375
20
-60.175
40
0.5
50
0
51
90
0
ARC
8
0
10
141.1375
20
-73.175
40
0.5
50
180
51
270
0
ARC
8
0
10
154.1375
20
-73.175
40
0.5
50
270
51
0
0
LINE
8
0
10
160.1875
20
-59.675
11
173.1875
21
-59.675
0
LINE
8
0
10
160.1875
20
-73.675
11
173.1875
21
-73.675
0
LINE
8
0
10
159.6875
20
-60.175
11
159.6875
21
-73.175
0
LINE
8
0
10
173.6875
20
-60.175
11
173.6875
21
-73.175
0
ARC
8
0
10
160.1875
20
-60.175
40
0.5
50
90
51
180
0
ARC
8
0
10
173.1875
20
-60.175
40
0.5
50
0
51
90
0
ARC
8
0
10
160.1875
20
-73.175
40
0.5
50
180
51
270
0
ARC
8
0
10
173.1875
20
-73.175
40
0.5
50
270
51
0
0
LINE
8
0
10
179.2375
20
-59.675
11
192.2375
21
-59.675
0
LINE
8
0
10
179.2375
20
-73.675
11
192.2375
21
-73.675
0
LINE
8
0
10
178.7375
20
-60.175
11
178.7375
21
-73.175
0
LINE
8
0
10
192.7375
20
-60.175
11
192.7375
21
-73.175
0
ARC
8
0
10
179.2375
20
-60.175
40
0.5
50
90
51
180
0
ARC
8
0
10
192.2375
20
-60.175
40
0.5
50
0
51
90
0
ARC
8
0
10
179.2375
20
-73.175
40
0.5
50
180
51
270
0
ARC
8
0
10
192.2375
20
-73.175
40
0.5
50
270
51
0
0
LINE
8
0
10
198.2875
20
-59.675
11
211.2875
21
-59.675
0
LINE
8
0
10
198.2875
20
-73.675
11
211.2875
21
-73.675
0
LINE
8
0
10
197.7875
20
-60.175
11
197.7875
21
-73.175
0
LINE
8
0
10
211.7875
20
-60.175
11
211.7875
21
-73.175
0
ARC
8
0
10
198.2875
20
-60.175
40
0.5
50
90
51
180
0
ARC
8
0
10
211.2875
20
-60.175
40
0.5
50
0
51
90
0
ARC
8
0
10
198.2875
20
-73.175
40
0.5
50
180
51
270
0
ARC
8
0
10
211.2875
20
-73.175
40
0.5
50
270
51
0
0
LINE
8
0
10
217.3375
20
-59.675
11
230.3375
21
-59.675
0
LINE
8
0
10
217.3375
20
-73.675
11
230.3375
21
-73.675
0
LINE
8
0
10
216.8375
20
-60.175
11
216.8375
21
-73.175
0
LINE
8
0
10
230.8375
20
-60.175
11
230.8375
21
-73.175
0
ARC
8
0
10
217.3375
20
-60.175
40
0.5
50
90
51
180
0
ARC
8
0
10
230.3375
20
-60.175
40
0.5
50
0
51
90
0
ARC
8
0
10
217.3375
20
-73.175
40
0.5
50
180
51
270
0
ARC
8
0
10
230.3375
20
-73.175
40
0.5
50
270
51
0
0
LINE
8
0
10
253.05625
20
-59.675
11
266.05625
21
-59.675
0
LINE
8
0
10
253.05625
20
-73.675
11
266.05625
21
-73.675
0
LINE
8
0
10
252.55625
20
-60.175
11
252.55625
21
-73.175
0
LINE
8
0
10
266.55625
20
-60.175
11
266.55625
21
-73.175
0
ARC
8
0
10
253.05625
20
-60.175
40
0.5
50
90
51
180
0
ARC
8
0
10
266.05625
20
-60.175
40
0.5
50
0
51
90
0
ARC
8
0
10
253.05625
20
-73.175
40
0.5
50
180
51
270
0
ARC
8
0
10
266.05625
20
-73.175
40
0.5
50
270
51
0
0
LINE
8
0
10
244.61825
20
-60.675
11
250.61825
21
-60.675
0
LINE
8
0
10
244.61825
20
-75.675
11
250.61825
21
-75.675
0
LINE
8
0
10
244.11825
20
-61.175
11
244.11825
21
-75.175
0
LINE
8
0
10
251.11825
20
-61.175
11
251.11825
21
-75.175
0
ARC
8
0
10
244.61825
20
-61.175
40
0.5
50
90
51
180
0
ARC
8
0
10
250.61825
20
-61.175
40
0.5
50
0
51
90
0
ARC
8
0
10
244.61825
20
-75.175
40
0.5
50
180
51
270
0
ARC
8
0
10
250.61825
20
-75.175
40
0.5
50
270
51
0
0
LINE
8
0
10
268.49425
20
-60.675
11
274.49425
21
-60.675
0
LINE
8
0
10
268.49425
20
-75.675
11
274.49425
21
-75.675
0
LINE
8
0
10
267.99425
20
-61.175
11
267.99425
21
-75.175
0
LINE
8
0
10
274.99425
20
-61.175
11
274.99425
21
-75.175
0
ARC
8
0
10
268.49425
20
-61.175
40
0.5
50
90
51
180
0
ARC
8
0
10
274.49425
20
-61.175
40
0.5
50
0
51
90
0
ARC
8
0
10
268.49425
20
-75.175
40
0.5
50
180
51
270
0
ARC
8
0
10
274.49425
20
-75.175
40
0.5
50
270
51
0
0
LINE
8
0
10
288.775
20
-59.675
11
301.775
21
-59.675
0
LINE
8
0
10
288.775
20
-73.675
11
301.775
21
-73.675
0
LINE
8
0
10
288.275
20
-60.175
11
288.275
21
-73.175
0
LINE
8
0
10
302.275
20
-60.175
11
302.275
21
-73.175
0
ARC
8
0
10
288.775
20
-60.175
40
0.5
50
90
51
180
0
ARC
8
0
10
301.775
20
-60.175
40
0.5
50
0
51
90
0
ARC
8
0
10
288.775
20
-73.175
40
0.5
50
180
51
270
0
ARC
8
0
10
301.775
20
-73.175
40
0.5
50
270
51
0
0
LINE
8
0
10
5.40625
20
-78.725
11
18.40625
21
-78.725
0
LINE
8
0
10
5.40625
20
-92.725
11
18.40625
21
-92.725
0
LINE
8
0
10
4.90625
20
-79.225
11
4.90625
21
-92.225
0
LINE
8
0
10
18.90625
20
-79.225
11
18.90625
21
-92.225
0
ARC
8
0
10
5.40625
20
-79.225
40
0.5
50
90
51
180
0
ARC
8
0
10
18.40625
20
-79.225
40
0.5
50
0
51
90
0
ARC
8
0
10
5.40625
20
-92.225
40
0.5
50
180
51
270
0
ARC
8
0
10
18.40625
20
-92.225
40
0.5
50
270
51
0
0
LINE
8
0
10
29.21875
20
-78.725
11
42.21875
21
-78.725
0
LINE
8
0
10
29.21875
20
-92.725
11
42.21875
21
-92.725
0
LINE
8
0
10
28.71875
20
-79.225
11
28.71875
21
-92.225
0
LINE
8
0
10
42.71875
20
-79.225
11
42.71875
21
-92.225
0
ARC
8
0
10
29.21875
20
-79.225
40
0.5
50
90
51
180
0
ARC
8
0
10
42.21875
20
-79.225
40
0.5
50
0
51
90
0
ARC
8
0
10
29.21875
20
-92.225
40
0.5
50
180
51
270
0
ARC
8
0
10
42.21875
20
-92.225
40
0.5
50
270
51
0
0
LINE
8
0
10
53.03125
20
-78.725
11
66.03125
21
-78.725
0
LINE
8
0
10
53.03125
20
-92.725
11
66.03125
21
-92.725
0
LINE
8
0
10
52.53125
20
-79.225
11
52.53125
21
-92.225
0
LINE
8
0
10
66.53125
20
-79.225
11
66.53125
21
-92.225
0
ARC
8
0
10
53.03125
20
-79.225
40
0.5
50
90
51
180
0
ARC
8
0
10
66.03125
20
-79.225
40
0.5
50
0
51
90
0
ARC
8
0
10
53.03125
20
-92.225
40
0.5
50
180
51
270
0
ARC
8
0
10
66.03125
20
-92.225
40
0.5
50
270
51
0
0
LINE
8
0
10
91.13125
20
-78.725
11
104.13125
21
-78.725
0
LINE
8
0
10
91.13125
20
-92.725
11
104.13125
21
-92.725
0
LINE
8
0
10
90.63125
20
-79.225
11
90.63125
21
-92.225
0
LINE
8
0
10
104.63125
20
-79.225
11
104.63125
21
-92.225
0
ARC
8
0
10
91.13125
20
-79.225
40
0.5
50
90
51
180
0
ARC
8
0
10
104.13125
20
-79.225
40
0.5
50
0
51
90
0
ARC
8
0
10
91.13125
20
-92.225
40
0.5
50
180
51
270
0
ARC
8
0
10
104.13125
20
-92.225
40
0.5
50
270
51
0
0
LINE
8
0
10
82.69325
20
-79.725
11
88.69325
21
-79.725
0
LINE
8
0
10
82.69325
20
-94.725
11
88.69325
21
-94.725
0
LINE
8
0
10
82.19325
20
-80.225
11
82.19325
21
-94.225
0
LINE
8
0
10
89.19325
20
-80.225
11
89.19325
21
-94.225
0
ARC
8
0
10
82.69325
20
-80.225
40
0.5
50
90
51
180
0
ARC
8
0
10
88.69325
20
-80.225
40
0.5
50
0
51
90
0
ARC
8
0
10
82.69325
20
-94.225
40
0.5
50
180
51
270
0
ARC
8
0
10
88.69325
20
-94.225
40
0.5
50
270
51
0
0
LINE
8
0
10
106.56925
20
-79.725
11
112.56925
21
-79.725
0
LINE
8
0
10
106.56925
20
-94.725
11
112.56925
21
-94.725
0
LINE
8
0
10
106.06925
20
-80.225
11
106.06925
21
-94.225
0
LINE
8
0
10
113.06925
20
-80.225
11
113.06925
21
-94.225
0
ARC
8
0
10
106.56925
20
-80.225
40
0.5
50
90
51
180
0
ARC
8
0
10
112.56925
20
-80.225
40
0.5
50
0
51
90
0
ARC
8
0
10
106.56925
20
-94.225
40
0.5
50
180
51
270
0
ARC
8
0
10
112.56925
20
-94.225
40
0.5
50
270
51
0
0
LINE
8
0
10
124.46875
20
-78.725
11
137.46875
21
-78.725
0
LINE
8
0
10
124.46875
20
-92.725
11
137.46875
21
-92.725
0
LINE
8
0
10
123.96875
20
-79.225
11
123.96875
21
-92.225
0
LINE
8
0
10
137.96875
20
-79.225
11
137.96875
21
-92.225
0
ARC
8
0
10
124.46875
20
-79.225
40
0.5
50
90
51
180
0
ARC
8
0
10
137.46875
20
-79.225
40
0.5
50
0
51
90
0
ARC
8
0
10
124.46875
20
-92.225
40
0.5
50
180
51
270
0
ARC
8
0
10
137.46875
20
-92.225
40
0.5
50
270
51
0
0
LINE
8
0
10
162.56875
20
-78.725
11
175.56875
21
-78.725
0
LINE
8
0
10
162.56875
20
-92.725
11
175.56875
21
-92.725
0
LINE
8
0
10
162.06875
20
-79.225
11
162.06875
21
-92.225
0
LINE
8
0
10
176.06875
20
-79.225
11
176.06875
21
-92.225
0
ARC
8
0
10
162.56875
20
-79.225
40
0.5
50
90
51
180
0
ARC
8
0
10
175.56875
20
-79.225
40
0.5
50
0
51
90
0
ARC
8
0
10
162.56875
20
-92.225
40
0.5
50
180
51
270
0
ARC
8
0
10
175.56875
20
-92.225
40
0.5
50
270
51
0
0
LINE
8
0
10
154.13075
20
-79.725
11
160.13075
21
-79.725
0
LINE
8
0
10
154.13075
20
-94.725
11
160.13075
21
-94.725
0
LINE
8
0
10
153.63075
20
-80.225
11
153.63075
21
-94.225
0
LINE
8
0
10
160.63075
20
-80.225
11
160.63075
21
-94.225
0
ARC
8
0
10
154.13075
20
-80.225
40
0.5
50
90
51
180
0
ARC
8
0
10
160.13075
20
-80.225
40
0.5
50
0
51
90
0
ARC
8
0
10
154.13075
20
-94.225
40
0.5
50
180
51
270
0
ARC
8
0
10
160.13075
20
-94.225
40
0.5
50
270
51
0
0
LINE
8
0
10
178.00675
20
-79.725
11
184.00675
21
-79.725
0
LINE
8
0
10
178.00675
20
-94.725
11
184.00675
21
-94.725
0
LINE
8
0
10
177.50675
20
-80.225
11
177.50675
21
-94.225
0
LINE
8
0
10
184.50675
20
-80.225
11
184.50675
21
-94.225
0
ARC
8
0
10
178.00675
20
-80.225
40
0.5
50
90
51
180
0
ARC
8
0
10
184.00675
20
-80.225
40
0.5
50
0
51
90
0
ARC
8
0
10
178.00675
20
-94.225
40
0.5
50
180
51
270
0
ARC
8
0
10
184.00675
20
-94.225
40
0.5
50
270
51
0
0
LINE
8
0
10
203.05
20
-78.725
11
216.05
21
-78.725
0
LINE
8
0
10
203.05
20
-92.725
11
216.05
21
-92.725
0
LINE
8
0
10
202.55
20
-79.225
11
202.55
21
-92.225
0
LINE
8
0
10
216.55
20
-79.225
11
216.55
21
-92.225
0
ARC
8
0
10
203.05
20
-79.225
40
0.5
50
90
51
180
0
ARC
8
0
10
216.05
20
-79.225
40
0.5
50
0
51
90
0
ARC
8
0
10
203.05
20
-92.225
40
0.5
50
180
51
270
0
ARC
8
0
10
216.05
20
-92.225
40
0.5
50
270
51
0
0
LINE
8
0
10
222.1
20
-78.725
11
235.1
21
-78.725
0
LINE
8
0
10
222.1
20
-92.725
11
235.1
21
-92.725
0
LINE
8
0
10
221.6
20
-79.225
11
221.6
21
-92.225
0
LINE
8
0
10
235.6
20
-79.225
11
235.6
21
-92.225
0
ARC
8
0
10
222.1
20
-79.225
40
0.5
50
90
51
180
0
ARC
8
0
10
235.1
20
-79.225
40
0.5
50
0
51
90
0
ARC
8
0
10
222.1
20
-92.225
40
0.5
50
180
51
270
0
ARC
8
0
10
235.1
20
-92.225
40
0.5
50
270
51
0
0
LINE
8
0
10
243.53125
20
-78.725
11
256.53125
21
-78.725
0
LINE
8
0
10
243.53125
20
-92.725
11
256.53125
21
-92.725
0
LINE
8
0
10
243.03125
20
-79.225
11
243.03125
21
-92.225
0
LINE
8
0
10
257.03125
20
-79.225
11
257.03125
21
-92.225
0
ARC
8
0
10
243.53125
20
-79.225
40
0.5
50
90
51
180
0
ARC
8
0
10
256.53125
20
-79.225
40
0.5
50
0
51
90
0
ARC
8
0
10
243.53125
20
-92.225
40
0.5
50
180
51
270
0
ARC
8
0
10
256.53125
20
-92.225
40
0.5
50
270
51
0
0
LINE
8
0
10
269.725
20
-78.725
11
282.725
21
-78.725
0
LINE
8
0
10
269.725
20
-92.725
11
282.725
21
-92.725
0
LINE
8
0
10
269.225
20
-79.225
11
269.225
21
-92.225
0
LINE
8
0
10
283.225
20
-79.225
11
283.225
21
-92.225
0
ARC
8
0
10
269.725
20
-79.225
40
0.5
50
90
51
180
0
ARC
8
0
10
282.725
20
-79.225
40
0.5
50
0
51
90
0
ARC
8
0
10
269.725
20
-92.225
40
0.5
50
180
51
270
0
ARC
8
0
10
282.725
20
-92.225
40
0.5
50
270
51
0
0
LINE
8
0
10
288.775
20
-78.725
11
301.775
21
-78.725
0
LINE
8
0
10
288.775
20
-92.725
11
301.775
21
-92.725
0
LINE
8
0
10
288.275
20
-79.225
11
288.275
21
-92.225
0
LINE
8
0
10
302.275
20
-79.225
11
302.275
21
-92.225
0
ARC
8
0
10
288.775
20
-79.225
40
0.5
50
90
51
180
0
ARC
8
0
10
301.775
20
-79.225
40
0.5
50
0
51
90
0
ARC
8
0
10
288.775
20
-92.225
40
0.5
50
180
51
270
0
ARC
8
0
10
301.775
20
-92.225
40
0.5
50
270
51
0
0
LINE
8
0
10
307.825
20
-78.725
11
320.825
21
-78.725
0
LINE
8
0
10
307.825
20
-92.725
11
320.825
21
-92.725
0
LINE
8
0
10
307.325
20
-79.225
11
307.325
21
-92.225
0
LINE
8
0
10
321.325
20
-79.225
11
321.325
21
-92.225
0
ARC
8
0
10
307.825
20
-79.225
40
0.5
50
90
51
180
0
ARC
8
0
10
320.825
20
-79.225
40
0.5
50
0
51
90
0
ARC
8
0
10
307.825
20
-92.225
40
0.5
50
180
51
270
0
ARC
8
0
10
320.825
20
-92.225
40
0.5
50
270
51
0
0
LINE
8
0
10
0
20
-95.25
11
323.85
21
-95.25
0
LINE
8
0
10
0
20
0
11
323.85
21
0
0
LINE
8
0
10
0
20
-95.25
11
0
21
0
0
LINE
8
0
10
323.85
20
-95.25
11
323.85
21
0
0
ENDSEC
0
EOF