%TF.GenerationSoftware,KiCad,Pcbnew,7.0.7*%
%TF.CreationDate,2024-06-09T18:31:49+08:00*%
%TF.ProjectId,Lexicon 69,4c657869-636f-46e2-9036-392e6b696361,rev?*%
%TF.SameCoordinates,Original*%
%TF.FileFunction,Legend,Top*%
%TF.FilePolarity,Positive*%
%FSLAX46Y46*%
G04 Gerber Fmt 4.6, Leading zero omitted, Abs format (unit mm)*
G04 Created by KiCad (PCBNEW 7.0.7) date 2024-06-09 18:31:49*
%MOMM*%
%LPD*%
G01*
G04 APERTURE LIST*
%ADD10C,2.200000*%
G04 APERTURE END LIST*
%TO.C,G\u002A\u002A\u002A*%
G36*
X357937153Y-106441875D02*
G01*
X357937153Y-107535486D01*
X357090486Y-107535486D01*
X356243820Y-107535486D01*
X356243820Y-106441875D01*
X356243820Y-105348264D01*
X357090486Y-105348264D01*
X357937153Y-105348264D01*
X357937153Y-106441875D01*
G37*
G36*
X365557153Y-106441875D02*
G01*
X365557153Y-107535486D01*
X362170486Y-107535486D01*
X358783820Y-107535486D01*
X358783820Y-106441875D01*
X358783820Y-105348264D01*
X362170486Y-105348264D01*
X365557153Y-105348264D01*
X365557153Y-106441875D01*
G37*
G36*
X365557153Y-82770486D02*
G01*
X365557153Y-83899375D01*
X363367665Y-83899375D01*
X362695436Y-83900492D01*
X362149637Y-83905308D01*
X361715593Y-83916020D01*
X361378631Y-83934827D01*
X361124077Y-83963926D01*
X360937257Y-84005516D01*
X360803496Y-84061793D01*
X360708122Y-84134957D01*
X360636460Y-84227204D01*
X360586489Y-84315934D01*
X360451057Y-84711305D01*
X360444530Y-85100135D01*
X360560324Y-85458846D01*
X360791853Y-85763859D01*
X361041598Y-85945486D01*
X361135036Y-85995828D01*
X361225102Y-86035727D01*
X361329011Y-86066598D01*
X361463977Y-86089858D01*
X361647216Y-86106923D01*
X361895944Y-86119207D01*
X362227376Y-86128128D01*
X362658727Y-86135100D01*
X363207212Y-86141541D01*
X363458125Y-86144230D01*
X365557153Y-86166586D01*
X365557153Y-87290758D01*
X365557153Y-88414931D01*
X362170486Y-88414931D01*
X358783820Y-88414931D01*
X358783820Y-87321320D01*
X358783820Y-86227708D01*
X359222140Y-86227708D01*
X359660460Y-86227708D01*
X359331466Y-85892570D01*
X359114789Y-85633740D01*
X358909316Y-85326482D01*
X358806227Y-85134097D01*
X358709704Y-84906972D01*
X358650657Y-84702846D01*
X358620200Y-84472520D01*
X358609446Y-84166797D01*
X358608706Y-84040486D01*
X358632246Y-83508206D01*
X358712088Y-83078519D01*
X358858676Y-82720565D01*
X359082454Y-82403486D01*
X359208351Y-82268680D01*
X359462782Y-82045497D01*
X359727335Y-81893719D01*
X360017011Y-81788312D01*
X360150412Y-81749498D01*
X360284208Y-81718179D01*
X360434761Y-81693556D01*
X360618438Y-81674831D01*
X360851600Y-81661206D01*
X361150612Y-81651883D01*
X361531837Y-81646062D01*
X362011640Y-81642947D01*
X362606385Y-81641739D01*
X363024585Y-81641597D01*
X365557153Y-81641597D01*
X365557153Y-82770486D01*
G37*
G36*
X365557153Y-109491170D02*
G01*
X365557153Y-110748909D01*
X364607498Y-111311781D01*
X364245025Y-111523485D01*
X363987318Y-111680249D01*
X363836273Y-111801096D01*
X363793787Y-111905050D01*
X363861756Y-112011134D01*
X364042078Y-112138371D01*
X364336649Y-112305783D01*
X364728125Y-112521645D01*
X365557153Y-112984461D01*
X365557153Y-114211085D01*
X365555473Y-114609398D01*
X365550811Y-114953699D01*
X365543739Y-115221335D01*
X365534827Y-115389650D01*
X365526286Y-115437708D01*
X365461703Y-115400462D01*
X365294479Y-115295231D01*
X365039737Y-115131778D01*
X364712596Y-114919866D01*
X364328179Y-114669259D01*
X363901605Y-114389719D01*
X363815314Y-114333008D01*
X363377975Y-114046903D01*
X362975616Y-113786450D01*
X362624224Y-113561779D01*
X362339789Y-113383020D01*
X362138300Y-113260303D01*
X362035743Y-113203758D01*
X362029375Y-113201474D01*
X361944713Y-113232249D01*
X361759984Y-113332679D01*
X361491583Y-113492732D01*
X361155903Y-113702378D01*
X360769338Y-113951588D01*
X360353681Y-114226712D01*
X358783820Y-115278784D01*
X358783820Y-114032203D01*
X358783820Y-112785622D01*
X359558192Y-112334278D01*
X359846201Y-112161914D01*
X360079663Y-112013548D01*
X360236886Y-111903623D01*
X360296176Y-111846582D01*
X360295316Y-111843516D01*
X360223242Y-111793996D01*
X360054854Y-111688587D01*
X359815493Y-111542898D01*
X359538583Y-111377336D01*
X358819098Y-110950575D01*
X358799753Y-109772197D01*
X358795214Y-109382303D01*
X358794863Y-109046863D01*
X358798435Y-108788984D01*
X358805663Y-108631770D01*
X358813311Y-108593820D01*
X358878671Y-108630988D01*
X359046085Y-108735747D01*
X359299823Y-108897980D01*
X359624152Y-109107569D01*
X360003341Y-109354396D01*
X360410332Y-109620907D01*
X361974450Y-110647994D01*
X363765801Y-109440713D01*
X365557153Y-108233431D01*
X365557153Y-109491170D01*
G37*
G36*
X362560310Y-89560634D02*
G01*
X363017265Y-89614238D01*
X363191075Y-89651975D01*
X363820057Y-89884795D01*
X364375360Y-90228212D01*
X364848688Y-90667772D01*
X365231742Y-91189021D01*
X365516225Y-91777503D01*
X365693839Y-92418765D01*
X365756284Y-93098352D01*
X365695265Y-93801811D01*
X365664125Y-93959826D01*
X365457328Y-94602150D01*
X365141376Y-95169942D01*
X364730747Y-95656698D01*
X364239916Y-96055914D01*
X363683359Y-96361086D01*
X363075553Y-96565711D01*
X362430974Y-96663284D01*
X362170486Y-96657041D01*
X361764098Y-96647302D01*
X361089401Y-96511260D01*
X360492652Y-96283265D01*
X359923397Y-95938498D01*
X359444837Y-95493412D01*
X359064446Y-94961644D01*
X358789696Y-94356835D01*
X358628062Y-93692622D01*
X358593887Y-93101479D01*
X360325963Y-93101479D01*
X360367300Y-93481199D01*
X360502526Y-93777601D01*
X360748465Y-94016530D01*
X361027610Y-94179445D01*
X361226417Y-94270341D01*
X361403665Y-94328265D01*
X361601398Y-94360480D01*
X361861658Y-94374249D01*
X362170486Y-94376875D01*
X362540104Y-94371328D01*
X362808330Y-94350987D01*
X363014580Y-94310303D01*
X363198269Y-94243727D01*
X363235496Y-94226942D01*
X363592797Y-94012801D01*
X363850432Y-93754505D01*
X363940659Y-93600764D01*
X363990070Y-93374545D01*
X363990175Y-93076645D01*
X363947313Y-92765061D01*
X363867819Y-92497791D01*
X363807999Y-92386735D01*
X363559237Y-92149152D01*
X363208845Y-91967250D01*
X362786479Y-91844978D01*
X362321795Y-91786284D01*
X361844447Y-91795114D01*
X361384093Y-91875417D01*
X361005480Y-92013671D01*
X360662165Y-92244907D01*
X360439296Y-92549351D01*
X360334949Y-92930083D01*
X360325963Y-93101479D01*
X358593887Y-93101479D01*
X358587017Y-92982646D01*
X358595011Y-92820227D01*
X358707755Y-92117958D01*
X358939859Y-91475206D01*
X359281731Y-90903866D01*
X359723777Y-90415832D01*
X360256407Y-90023001D01*
X360870029Y-89737265D01*
X361149898Y-89651975D01*
X361566069Y-89579503D01*
X362056392Y-89549056D01*
X362560310Y-89560634D01*
G37*
G36*
X363226009Y-97472585D02*
G01*
X363452844Y-97541051D01*
X363586779Y-97583324D01*
X364052420Y-97776864D01*
X364494939Y-98049055D01*
X364864554Y-98367323D01*
X364972834Y-98490201D01*
X365334716Y-99049949D01*
X365588476Y-99682488D01*
X365729068Y-100364236D01*
X365751447Y-101071610D01*
X365664125Y-101720937D01*
X365450962Y-102386613D01*
X365121847Y-102975944D01*
X364684889Y-103479829D01*
X364148196Y-103889164D01*
X363519877Y-104194845D01*
X363432483Y-104226290D01*
X362852086Y-104361487D01*
X362212855Y-104396183D01*
X361551651Y-104333582D01*
X360905336Y-104176885D01*
X360371341Y-103960301D01*
X359828651Y-103613343D01*
X359374359Y-103166288D01*
X359015183Y-102634106D01*
X358757840Y-102031769D01*
X358609048Y-101374248D01*
X358575526Y-100676513D01*
X358636953Y-100095192D01*
X358803006Y-99475698D01*
X359067693Y-98914598D01*
X359417043Y-98427162D01*
X359837085Y-98028658D01*
X360313848Y-97734356D01*
X360833360Y-97559525D01*
X360979805Y-97534696D01*
X361253264Y-97498017D01*
X361253264Y-98600919D01*
X361252015Y-99019298D01*
X361246756Y-99316836D01*
X361235221Y-99513789D01*
X361215141Y-99630417D01*
X361184248Y-99686977D01*
X361140277Y-99703728D01*
X361129792Y-99704083D01*
X360929989Y-99758984D01*
X360708929Y-99898428D01*
X360517410Y-100085629D01*
X360438127Y-100204956D01*
X360356608Y-100468911D01*
X360329240Y-100797497D01*
X360356107Y-101125643D01*
X360436659Y-101387066D01*
X360648847Y-101668886D01*
X360946647Y-101901051D01*
X361237816Y-102029638D01*
X361765993Y-102132760D01*
X362286639Y-102152174D01*
X362776835Y-102093328D01*
X363213659Y-101961670D01*
X363574193Y-101762648D01*
X363835515Y-101501712D01*
X363899172Y-101397009D01*
X363977571Y-101137395D01*
X364000750Y-100811040D01*
X363969116Y-100480886D01*
X363891586Y-100227123D01*
X363702189Y-99974693D01*
X363417906Y-99774054D01*
X363097255Y-99659868D01*
X362876042Y-99615625D01*
X362876042Y-98530833D01*
X362875512Y-98097578D01*
X362882124Y-97788939D01*
X362908179Y-97588520D01*
X362965977Y-97479920D01*
X363067820Y-97446742D01*
X363226009Y-97472585D01*
G37*
G36*
X362734931Y-118189375D02*
G01*
X362734303Y-118857785D01*
X362734248Y-119397886D01*
X362737506Y-119822463D01*
X362746820Y-120144302D01*
X362764930Y-120376188D01*
X362794578Y-120530906D01*
X362838506Y-120621242D01*
X362899455Y-120659982D01*
X362980166Y-120659910D01*
X363083380Y-120633812D01*
X363211840Y-120594473D01*
X363248387Y-120584022D01*
X363589592Y-120422225D01*
X363885107Y-120156290D01*
X364095523Y-119823050D01*
X364115943Y-119773135D01*
X364202094Y-119403315D01*
X364199767Y-119015420D01*
X364117882Y-118644166D01*
X363965362Y-118324268D01*
X363751127Y-118090444D01*
X363670324Y-118039109D01*
X363608784Y-118000302D01*
X363565553Y-117945416D01*
X363537404Y-117851514D01*
X363521108Y-117695664D01*
X363513437Y-117454932D01*
X363511164Y-117106383D01*
X363511042Y-116907453D01*
X363514103Y-116478240D01*
X363524150Y-116174635D01*
X363542482Y-115981246D01*
X363570396Y-115882686D01*
X363599236Y-115861731D01*
X363783509Y-115906571D01*
X364034389Y-116024019D01*
X364314113Y-116191714D01*
X364584921Y-116387291D01*
X364785266Y-116564102D01*
X365163816Y-117038508D01*
X365453489Y-117604590D01*
X365649045Y-118240373D01*
X365745245Y-118923880D01*
X365736850Y-119633133D01*
X365652177Y-120200208D01*
X365442278Y-120878904D01*
X365124387Y-121470946D01*
X364706420Y-121970166D01*
X364196295Y-122370394D01*
X363601928Y-122665462D01*
X362931233Y-122849202D01*
X362192128Y-122915444D01*
X362167671Y-122915555D01*
X361467673Y-122859741D01*
X361341459Y-122824778D01*
X360837061Y-122685054D01*
X360259846Y-122384974D01*
X359720041Y-121952983D01*
X359656836Y-121891789D01*
X359227803Y-121380245D01*
X358908348Y-120812937D01*
X358696427Y-120207151D01*
X358590002Y-119580175D01*
X358589090Y-119386482D01*
X360130639Y-119386482D01*
X360208999Y-119754408D01*
X360373127Y-120062691D01*
X360379999Y-120071300D01*
X360574678Y-120262845D01*
X360823331Y-120442370D01*
X361079822Y-120581780D01*
X361298018Y-120652978D01*
X361341459Y-120656832D01*
X361384372Y-120647552D01*
X361416060Y-120605902D01*
X361438202Y-120513540D01*
X361452480Y-120352125D01*
X361460573Y-120103313D01*
X361464162Y-119748764D01*
X361464931Y-119309032D01*
X361464931Y-117959245D01*
X361201464Y-118002000D01*
X360886079Y-118110339D01*
X360576002Y-118312049D01*
X360325574Y-118568183D01*
X360250901Y-118683264D01*
X360142967Y-119011803D01*
X360130639Y-119386482D01*
X358589090Y-119386482D01*
X358587030Y-118949297D01*
X358685472Y-118331804D01*
X358883286Y-117744984D01*
X359178431Y-117206124D01*
X359568867Y-116732512D01*
X360052553Y-116341435D01*
X360331001Y-116181096D01*
X360802970Y-115986834D01*
X361344883Y-115835100D01*
X361890188Y-115741869D01*
X362252328Y-115719931D01*
X362734931Y-115719931D01*
X362734931Y-118189375D01*
G37*
G36*
X365557153Y-126550208D02*
G01*
X365557153Y-129619375D01*
X364675209Y-129619375D01*
X364341101Y-129621746D01*
X364065066Y-129628220D01*
X363873821Y-129637840D01*
X363794081Y-129649645D01*
X363793264Y-129651011D01*
X363813094Y-129728253D01*
X363865914Y-129906451D01*
X363941722Y-130152161D01*
X363971202Y-130245919D01*
X364156223Y-130740148D01*
X364383314Y-131163818D01*
X364664543Y-131523923D01*
X365011975Y-131827451D01*
X365437677Y-132081394D01*
X365953715Y-132292744D01*
X366572155Y-132468489D01*
X367305064Y-132615622D01*
X368164507Y-132741133D01*
X368308820Y-132758980D01*
X368764621Y-132815731D01*
X369087167Y-132859673D01*
X369283615Y-132892055D01*
X369361118Y-132914129D01*
X369326831Y-132927143D01*
X369287169Y-132929916D01*
X369059784Y-132949751D01*
X368727775Y-132989938D01*
X368325291Y-133045228D01*
X367886479Y-133110376D01*
X367445485Y-133180134D01*
X367036458Y-133249254D01*
X366693543Y-133312491D01*
X366450889Y-133364597D01*
X366439098Y-133367550D01*
X365765490Y-133579142D01*
X365211606Y-133848741D01*
X364762935Y-134190843D01*
X364404966Y-134619942D01*
X364123186Y-135150533D01*
X363903086Y-135797112D01*
X363866203Y-135937598D01*
X363779155Y-136291206D01*
X363733611Y-136532587D01*
X363737056Y-136686462D01*
X363796976Y-136777553D01*
X363920857Y-136830582D01*
X364116184Y-136870271D01*
X364150442Y-136876308D01*
X364379732Y-136912356D01*
X364709419Y-136958534D01*
X365099641Y-137009510D01*
X365510533Y-137059950D01*
X365614469Y-137072160D01*
X365983470Y-137117775D01*
X366302450Y-137162312D01*
X366545150Y-137201709D01*
X366685312Y-137231908D01*
X366707696Y-137241204D01*
X366670742Y-137269332D01*
X366522193Y-137301163D01*
X366291248Y-137330955D01*
X366213807Y-137338325D01*
X365874986Y-137373151D01*
X365486188Y-137421022D01*
X365074747Y-137477663D01*
X364667994Y-137538797D01*
X364293264Y-137600149D01*
X363977888Y-137657443D01*
X363749199Y-137706404D01*
X363636862Y-137741447D01*
X363535644Y-137872164D01*
X363506976Y-138070885D01*
X363489583Y-138324929D01*
X363452658Y-138592634D01*
X363448440Y-138615208D01*
X363420524Y-138746497D01*
X363399780Y-138785829D01*
X363380650Y-138719842D01*
X363357575Y-138535176D01*
X363338383Y-138350625D01*
X363306246Y-138093404D01*
X363270826Y-137901204D01*
X363238679Y-137807789D01*
X363232183Y-137803820D01*
X363110103Y-137828987D01*
X363097790Y-137832806D01*
X362896957Y-137895091D01*
X362631617Y-137988032D01*
X362352954Y-138093712D01*
X362099838Y-138198033D01*
X361936339Y-138273823D01*
X361683673Y-138425476D01*
X361412109Y-138623514D01*
X361271107Y-138743095D01*
X360977547Y-139048130D01*
X360721852Y-139396384D01*
X360499369Y-139801460D01*
X360305447Y-140276962D01*
X360135434Y-140836495D01*
X359984678Y-141493663D01*
X359848529Y-142262070D01*
X359722335Y-143155321D01*
X359699015Y-143340962D01*
X359649434Y-143734772D01*
X359604586Y-144076471D01*
X359567662Y-144342879D01*
X359541853Y-144510816D01*
X359531380Y-144558667D01*
X359516845Y-144501000D01*
X359491833Y-144329401D01*
X359459847Y-144070351D01*
X359424391Y-143750333D01*
X359424224Y-143748746D01*
X359299313Y-142735259D01*
X359149722Y-141824759D01*
X358977375Y-141025679D01*
X358784195Y-140346452D01*
X358572105Y-139795512D01*
X358480130Y-139608667D01*
X358205306Y-139178272D01*
X357864109Y-138803645D01*
X357446077Y-138479915D01*
X356940748Y-138202216D01*
X356337661Y-137965680D01*
X355626353Y-137765438D01*
X354796363Y-137596622D01*
X353855357Y-137456676D01*
X353451115Y-137406704D01*
X353080600Y-137364038D01*
X352773250Y-137331831D01*
X352558505Y-137313239D01*
X352485909Y-137309931D01*
X352322695Y-137301119D01*
X352284876Y-137277432D01*
X352358022Y-137242995D01*
X352527701Y-137201934D01*
X352779485Y-137158373D01*
X353098940Y-137116436D01*
X353202331Y-137105151D01*
X354300656Y-136967504D01*
X355261961Y-136798038D01*
X356086133Y-136596781D01*
X356773058Y-136363764D01*
X357322626Y-136099014D01*
X357466705Y-136009428D01*
X357886530Y-135661023D01*
X358267293Y-135210275D01*
X358563040Y-134722119D01*
X358655415Y-134510100D01*
X358753731Y-134239695D01*
X358848776Y-133943141D01*
X358931340Y-133652676D01*
X358992211Y-133400537D01*
X359005378Y-133320761D01*
X360068359Y-133320761D01*
X360069990Y-133403256D01*
X360112202Y-133584834D01*
X360184630Y-133832987D01*
X360276905Y-134115207D01*
X360378660Y-134398983D01*
X360479527Y-134651810D01*
X360525883Y-134755385D01*
X360831698Y-135251987D01*
X361249810Y-135703866D01*
X361752506Y-136083892D01*
X362055210Y-136252551D01*
X362342736Y-136386002D01*
X362610950Y-136497013D01*
X362814922Y-136567424D01*
X362863444Y-136579235D01*
X363097790Y-136624030D01*
X363048462Y-136349619D01*
X363002508Y-136144862D01*
X362928012Y-135864329D01*
X362840509Y-135566294D01*
X362834224Y-135546042D01*
X362576406Y-134914987D01*
X362230149Y-134386781D01*
X361799987Y-133967226D01*
X361404770Y-133716900D01*
X361223174Y-133637919D01*
X360979979Y-133549813D01*
X360710437Y-133463032D01*
X360449802Y-133388026D01*
X360233326Y-133335244D01*
X360096262Y-133315135D01*
X360068359Y-133320761D01*
X359005378Y-133320761D01*
X359022181Y-133218961D01*
X359014522Y-133141929D01*
X358925682Y-133113613D01*
X358728261Y-133076638D01*
X358454091Y-133036386D01*
X358219375Y-133007523D01*
X357913245Y-132971116D01*
X357664434Y-132938357D01*
X357502966Y-132913396D01*
X357457105Y-132902162D01*
X357514256Y-132887160D01*
X357685747Y-132861795D01*
X357945486Y-132829537D01*
X358267380Y-132793854D01*
X358287446Y-132791749D01*
X358647117Y-132752334D01*
X358890538Y-132718679D01*
X359042010Y-132684010D01*
X359125836Y-132641550D01*
X359166319Y-132584524D01*
X359179264Y-132543113D01*
X359200808Y-132423203D01*
X359235807Y-132189233D01*
X359280626Y-131867217D01*
X359331629Y-131483168D01*
X359377435Y-131124951D01*
X359429637Y-130704482D01*
X359469945Y-130392557D01*
X359502345Y-130193154D01*
X359530827Y-130110253D01*
X359559379Y-130147831D01*
X359591988Y-130309867D01*
X359632644Y-130600338D01*
X359685334Y-131023225D01*
X359742479Y-131489097D01*
X359787123Y-131835119D01*
X359828711Y-132129817D01*
X359863037Y-132345228D01*
X359885893Y-132453387D01*
X359888420Y-132459236D01*
X359963543Y-132503776D01*
X360116944Y-132500713D01*
X360365534Y-132447601D01*
X360726221Y-132341997D01*
X360749199Y-132334759D01*
X361370285Y-132085977D01*
X361878010Y-131761899D01*
X362285394Y-131349488D01*
X362605459Y-130835710D01*
X362840832Y-130240801D01*
X362921814Y-129980892D01*
X362983189Y-129777137D01*
X363014907Y-129663154D01*
X363017153Y-129651011D01*
X362948870Y-129644694D01*
X362753110Y-129638798D01*
X362443508Y-129633449D01*
X362033697Y-129628775D01*
X361537313Y-129624903D01*
X360967988Y-129621962D01*
X360339357Y-129620077D01*
X359665054Y-129619377D01*
X359630486Y-129619375D01*
X356243820Y-129619375D01*
X356243820Y-128384653D01*
X356243820Y-127149931D01*
X359798646Y-127149931D01*
X363353473Y-127149931D01*
X363396016Y-126991181D01*
X363408094Y-126877524D01*
X363418922Y-126644664D01*
X363427980Y-126314509D01*
X363434749Y-125908965D01*
X363438710Y-125449940D01*
X363439523Y-125156736D01*
X363440486Y-123481042D01*
X364498820Y-123481042D01*
X365557153Y-123481042D01*
X365557153Y-126550208D01*
G37*
%TD*%
%LPC*%
D10*
%TO.C,H5*%
X195262500Y-160734375D03*
%TD*%
%TO.C,H7*%
X366712500Y-76200000D03*
%TD*%
%TO.C,H4*%
X200025000Y-76200000D03*
%TD*%
%TO.C,H1*%
X66675000Y-76200000D03*
%TD*%
%TO.C,H2*%
X70246875Y-160734375D03*
%TD*%
%TO.C,H8*%
X352425000Y-160734375D03*
%TD*%
%TO.C,H3*%
X119062500Y-117871875D03*
%TD*%
%TO.C,H6*%
X291703125Y-118250000D03*
%TD*%
%LPD*%
M02*
